<svg width="439" height="487" viewBox="0 0 439 487" fill="none" xmlns="http://www.w3.org/2000/svg">
<g filter="url(#filter0_d_447_4)">
<rect x="87" y="87" width="253" height="301" rx="3.07463" fill="white"/>
</g>
<path d="M214.055 152.2C219.842 152.2 224.517 156.874 224.517 162.772C224.517 168.559 219.842 173.233 214.055 173.233C208.157 173.233 203.483 168.559 203.483 162.772C203.483 156.874 208.157 152.2 214.055 152.2ZM214.055 154.426C209.381 154.426 205.709 158.098 205.709 162.772C205.709 167.335 209.381 171.007 214.055 171.007C218.618 171.007 222.291 167.335 222.291 162.772C222.291 158.098 218.618 154.426 214.055 154.426Z" fill="#5051DB"/>
<path d="M200.479 189.37C200.479 189.926 199.922 190.372 199.254 190.26C198.698 190.26 198.253 189.704 198.364 189.036C199.254 181.135 205.932 175.014 214.056 175.014C222.068 175.014 228.857 181.135 229.747 189.036C229.747 189.704 229.302 190.26 228.746 190.26C228.078 190.372 227.521 189.926 227.521 189.37C226.742 182.47 220.955 177.24 214.056 177.24C207.156 177.24 201.258 182.47 200.479 189.37Z" fill="#5051DB"/>
<path d="M234.644 161.214C239.207 161.214 242.879 164.887 242.879 169.338C242.879 173.901 239.207 177.573 234.644 177.573C230.192 177.573 226.52 173.901 226.52 169.338C226.52 164.887 230.192 161.214 234.644 161.214ZM234.644 163.44C231.416 163.44 228.746 166.111 228.746 169.338C228.746 172.677 231.416 175.348 234.644 175.348C237.982 175.348 240.653 172.677 240.653 169.338C240.653 166.111 237.982 163.44 234.644 163.44Z" fill="#5051DB"/>
<path d="M230.192 182.025C229.636 182.359 228.968 182.136 228.634 181.58C228.412 181.023 228.634 180.356 229.191 180.022C230.86 179.243 232.752 178.686 234.644 178.686C240.653 178.686 245.772 183.138 246.663 189.036C246.774 189.593 246.329 190.26 245.772 190.26C245.105 190.372 244.548 189.926 244.437 189.37C243.769 184.473 239.54 180.912 234.644 180.912C233.086 180.912 231.528 181.357 230.192 182.025Z" fill="#5051DB"/>
<path d="M193.356 161.214C197.808 161.214 201.48 164.887 201.48 169.338C201.48 173.901 197.808 177.573 193.356 177.573C188.793 177.573 185.121 173.901 185.121 169.338C185.121 164.887 188.793 161.214 193.356 161.214ZM193.356 163.44C190.018 163.44 187.347 166.111 187.347 169.338C187.347 172.677 190.018 175.348 193.356 175.348C196.583 175.348 199.254 172.677 199.254 169.338C199.254 166.111 196.583 163.44 193.356 163.44Z" fill="#5051DB"/>
<path d="M183.563 189.37C183.452 189.926 182.895 190.372 182.339 190.26C181.671 190.26 181.226 189.593 181.337 189.036C182.227 183.138 187.347 178.686 193.356 178.686C195.248 178.686 197.14 179.243 198.921 180.022C199.366 180.356 199.588 181.023 199.366 181.58C199.032 182.136 198.364 182.359 197.808 182.025C196.472 181.357 194.914 180.912 193.356 180.912C188.46 180.912 184.231 184.473 183.563 189.37Z" fill="#5051DB"/>
<path d="M181.432 230L180.6 227.28H176.44L175.608 230H173L177.032 218.528H179.992L184.04 230H181.432ZM180.024 225.248L179.192 222.592C179.139 222.411 179.069 222.181 178.984 221.904C178.899 221.627 178.813 221.344 178.728 221.056C178.643 220.768 178.573 220.517 178.52 220.304C178.467 220.517 178.392 220.784 178.296 221.104C178.211 221.413 178.125 221.712 178.04 222C177.965 222.277 177.907 222.475 177.864 222.592L177.048 225.248H180.024ZM187.679 217.84V220.672C187.679 221.003 187.668 221.328 187.647 221.648C187.626 221.968 187.604 222.219 187.583 222.4H187.679C187.914 222.037 188.228 221.733 188.623 221.488C189.018 221.232 189.53 221.104 190.159 221.104C191.14 221.104 191.935 221.488 192.543 222.256C193.151 223.013 193.455 224.133 193.455 225.616C193.455 227.109 193.146 228.24 192.527 229.008C191.908 229.776 191.098 230.16 190.095 230.16C189.455 230.16 188.948 230.048 188.575 229.824C188.212 229.589 187.914 229.328 187.679 229.04H187.519L187.119 230H185.295V217.84H187.679ZM189.391 223.008C188.772 223.008 188.335 223.2 188.079 223.584C187.834 223.968 187.7 224.555 187.679 225.344V225.6C187.679 226.443 187.802 227.093 188.047 227.552C188.303 228 188.762 228.224 189.423 228.224C189.914 228.224 190.303 228 190.591 227.552C190.879 227.093 191.023 226.437 191.023 225.584C191.023 224.731 190.874 224.091 190.575 223.664C190.287 223.227 189.892 223.008 189.391 223.008ZM203.356 225.616C203.356 227.067 202.972 228.187 202.204 228.976C201.447 229.765 200.412 230.16 199.1 230.16C198.289 230.16 197.564 229.984 196.924 229.632C196.295 229.28 195.799 228.768 195.436 228.096C195.073 227.413 194.892 226.587 194.892 225.616C194.892 224.165 195.271 223.051 196.028 222.272C196.785 221.493 197.825 221.104 199.148 221.104C199.969 221.104 200.695 221.28 201.324 221.632C201.953 221.984 202.449 222.496 202.812 223.168C203.175 223.829 203.356 224.645 203.356 225.616ZM197.324 225.616C197.324 226.48 197.463 227.136 197.74 227.584C198.028 228.021 198.492 228.24 199.132 228.24C199.761 228.24 200.215 228.021 200.492 227.584C200.78 227.136 200.924 226.48 200.924 225.616C200.924 224.752 200.78 224.107 200.492 223.68C200.215 223.243 199.756 223.024 199.116 223.024C198.487 223.024 198.028 223.243 197.74 223.68C197.463 224.107 197.324 224.752 197.324 225.616ZM213.342 221.264V230H211.518L211.198 228.88H211.07C210.793 229.328 210.409 229.653 209.918 229.856C209.438 230.059 208.926 230.16 208.382 230.16C207.443 230.16 206.691 229.909 206.126 229.408C205.561 228.896 205.278 228.08 205.278 226.96V221.264H207.662V226.368C207.662 226.987 207.774 227.456 207.998 227.776C208.222 228.096 208.579 228.256 209.07 228.256C209.795 228.256 210.291 228.011 210.558 227.52C210.825 227.019 210.958 226.304 210.958 225.376V221.264H213.342ZM219.522 228.256C219.788 228.256 220.044 228.229 220.29 228.176C220.535 228.123 220.78 228.059 221.026 227.984V229.76C220.77 229.867 220.45 229.957 220.066 230.032C219.692 230.117 219.282 230.16 218.834 230.16C218.311 230.16 217.842 230.075 217.426 229.904C217.02 229.733 216.695 229.44 216.45 229.024C216.215 228.597 216.098 228.011 216.098 227.264V223.056H214.962V222.048L216.274 221.248L216.962 219.408H218.482V221.264H220.93V223.056H218.482V227.264C218.482 227.595 218.578 227.845 218.77 228.016C218.962 228.176 219.212 228.256 219.522 228.256ZM236.424 218.576V225.968C236.424 226.757 236.248 227.472 235.896 228.112C235.554 228.741 235.032 229.243 234.328 229.616C233.634 229.979 232.754 230.16 231.688 230.16C230.173 230.16 229.021 229.776 228.232 229.008C227.442 228.229 227.048 227.205 227.048 225.936V218.576H229.464V225.568C229.464 226.507 229.656 227.168 230.04 227.552C230.424 227.936 230.994 228.128 231.752 228.128C232.541 228.128 233.112 227.92 233.464 227.504C233.826 227.088 234.008 226.437 234.008 225.552V218.576H236.424ZM245.125 227.408C245.125 228.293 244.811 228.976 244.181 229.456C243.563 229.925 242.635 230.16 241.397 230.16C240.789 230.16 240.267 230.117 239.829 230.032C239.392 229.957 238.955 229.829 238.517 229.648V227.68C238.987 227.893 239.493 228.069 240.037 228.208C240.581 228.347 241.061 228.416 241.477 228.416C241.947 228.416 242.277 228.347 242.469 228.208C242.672 228.069 242.773 227.888 242.773 227.664C242.773 227.515 242.731 227.381 242.645 227.264C242.571 227.147 242.4 227.013 242.133 226.864C241.867 226.715 241.451 226.523 240.885 226.288C240.341 226.053 239.893 225.824 239.541 225.6C239.189 225.365 238.928 225.088 238.757 224.768C238.587 224.437 238.501 224.027 238.501 223.536C238.501 222.725 238.816 222.117 239.445 221.712C240.075 221.307 240.912 221.104 241.957 221.104C242.501 221.104 243.019 221.157 243.509 221.264C244 221.371 244.507 221.547 245.029 221.792L244.309 223.504C243.883 223.323 243.477 223.173 243.093 223.056C242.709 222.928 242.32 222.864 241.925 222.864C241.221 222.864 240.869 223.056 240.869 223.44C240.869 223.579 240.912 223.707 240.997 223.824C241.093 223.931 241.269 224.048 241.525 224.176C241.792 224.304 242.181 224.475 242.693 224.688C243.195 224.891 243.627 225.104 243.989 225.328C244.352 225.541 244.629 225.813 244.821 226.144C245.024 226.464 245.125 226.885 245.125 227.408Z" fill="#353686"/>
<path d="M126.693 248.576V255.968C126.693 256.757 126.533 257.472 126.213 258.112C125.893 258.741 125.402 259.243 124.741 259.616C124.09 259.979 123.258 260.16 122.245 260.16C120.826 260.16 119.744 259.776 118.997 259.008C118.261 258.229 117.893 257.205 117.893 255.936V248.576H119.333V255.984C119.333 256.912 119.578 257.632 120.069 258.144C120.57 258.656 121.322 258.912 122.325 258.912C123.36 258.912 124.106 258.64 124.565 258.096C125.034 257.541 125.269 256.832 125.269 255.968V248.576H126.693ZM133.596 251.264C134.652 251.264 135.5 251.632 136.14 252.368C136.791 253.104 137.116 254.213 137.116 255.696C137.116 257.157 136.791 258.267 136.14 259.024C135.5 259.781 134.647 260.16 133.58 260.16C132.919 260.16 132.37 260.037 131.932 259.792C131.506 259.536 131.17 259.243 130.924 258.912H130.828C130.85 259.093 130.871 259.323 130.892 259.6C130.914 259.877 130.924 260.117 130.924 260.32V263.84H129.516V251.424H130.668L130.86 252.592H130.924C131.18 252.219 131.516 251.904 131.932 251.648C132.348 251.392 132.903 251.264 133.596 251.264ZM133.34 252.448C132.466 252.448 131.847 252.693 131.484 253.184C131.132 253.675 130.946 254.421 130.924 255.424V255.696C130.924 256.752 131.095 257.568 131.436 258.144C131.788 258.709 132.434 258.992 133.372 258.992C133.895 258.992 134.322 258.848 134.652 258.56C134.994 258.272 135.244 257.883 135.404 257.392C135.575 256.891 135.66 256.32 135.66 255.68C135.66 254.699 135.468 253.915 135.084 253.328C134.711 252.741 134.13 252.448 133.34 252.448ZM142.224 259.008C142.437 259.008 142.656 258.992 142.88 258.96C143.104 258.917 143.285 258.875 143.424 258.832V259.904C143.275 259.979 143.061 260.037 142.784 260.08C142.507 260.133 142.24 260.16 141.984 260.16C141.536 260.16 141.12 260.085 140.736 259.936C140.363 259.776 140.059 259.504 139.824 259.12C139.589 258.736 139.472 258.197 139.472 257.504V252.512H138.256V251.84L139.488 251.28L140.048 249.456H140.88V251.424H143.36V252.512H140.88V257.472C140.88 257.995 141.003 258.384 141.248 258.64C141.504 258.885 141.829 259.008 142.224 259.008ZM145.861 248.208C146.075 248.208 146.261 248.283 146.421 248.432C146.592 248.571 146.677 248.795 146.677 249.104C146.677 249.403 146.592 249.627 146.421 249.776C146.261 249.925 146.075 250 145.861 250C145.627 250 145.429 249.925 145.269 249.776C145.109 249.627 145.029 249.403 145.029 249.104C145.029 248.795 145.109 248.571 145.269 248.432C145.429 248.283 145.627 248.208 145.861 248.208ZM146.549 251.424V260H145.141V251.424H146.549ZM158.674 251.264C159.645 251.264 160.37 251.515 160.85 252.016C161.33 252.507 161.57 253.307 161.57 254.416V260H160.178V254.48C160.178 253.125 159.597 252.448 158.434 252.448C157.602 252.448 157.005 252.688 156.642 253.168C156.29 253.648 156.114 254.347 156.114 255.264V260H154.722V254.48C154.722 253.125 154.136 252.448 152.962 252.448C152.098 252.448 151.501 252.715 151.17 253.248C150.84 253.781 150.674 254.549 150.674 255.552V260H149.266V251.424H150.402L150.61 252.592H150.69C150.957 252.144 151.314 251.813 151.762 251.6C152.221 251.376 152.706 251.264 153.218 251.264C154.562 251.264 155.437 251.744 155.842 252.704H155.922C156.21 252.213 156.6 251.851 157.09 251.616C157.592 251.381 158.12 251.264 158.674 251.264ZM167.467 251.28C168.513 251.28 169.286 251.509 169.787 251.968C170.289 252.427 170.539 253.157 170.539 254.16V260H169.515L169.243 258.784H169.179C168.806 259.253 168.411 259.6 167.995 259.824C167.59 260.048 167.025 260.16 166.299 260.16C165.521 260.16 164.875 259.957 164.363 259.552C163.851 259.136 163.595 258.491 163.595 257.616C163.595 256.763 163.931 256.107 164.603 255.648C165.275 255.179 166.31 254.923 167.707 254.88L169.163 254.832V254.32C169.163 253.605 169.009 253.109 168.699 252.832C168.39 252.555 167.953 252.416 167.387 252.416C166.939 252.416 166.513 252.485 166.107 252.624C165.702 252.752 165.323 252.901 164.971 253.072L164.539 252.016C164.913 251.813 165.355 251.643 165.867 251.504C166.379 251.355 166.913 251.28 167.467 251.28ZM169.147 255.808L167.883 255.856C166.817 255.899 166.075 256.069 165.659 256.368C165.254 256.667 165.051 257.088 165.051 257.632C165.051 258.112 165.195 258.464 165.483 258.688C165.782 258.912 166.161 259.024 166.619 259.024C167.345 259.024 167.947 258.827 168.427 258.432C168.907 258.027 169.147 257.408 169.147 256.576V255.808ZM180.384 260.16C179.318 260.16 178.464 259.792 177.824 259.056C177.184 258.309 176.864 257.2 176.864 255.728C176.864 254.256 177.184 253.147 177.824 252.4C178.475 251.643 179.334 251.264 180.4 251.264C181.062 251.264 181.6 251.387 182.016 251.632C182.443 251.877 182.79 252.176 183.056 252.528H183.152C183.142 252.389 183.12 252.187 183.088 251.92C183.067 251.643 183.056 251.424 183.056 251.264V247.84H184.464V260H183.328L183.12 258.848H183.056C182.8 259.211 182.459 259.52 182.032 259.776C181.606 260.032 181.056 260.16 180.384 260.16ZM180.608 258.992C181.515 258.992 182.15 258.747 182.512 258.256C182.886 257.755 183.072 257.003 183.072 256V255.744C183.072 254.677 182.896 253.861 182.544 253.296C182.192 252.72 181.542 252.432 180.592 252.432C179.835 252.432 179.264 252.736 178.88 253.344C178.507 253.941 178.32 254.747 178.32 255.76C178.32 256.784 178.507 257.579 178.88 258.144C179.264 258.709 179.84 258.992 180.608 258.992ZM191.188 251.264C191.348 251.264 191.519 251.275 191.7 251.296C191.892 251.307 192.057 251.328 192.196 251.36L192.02 252.656C191.881 252.624 191.727 252.597 191.556 252.576C191.396 252.555 191.241 252.544 191.092 252.544C190.655 252.544 190.244 252.667 189.86 252.912C189.476 253.147 189.167 253.483 188.932 253.92C188.708 254.347 188.596 254.848 188.596 255.424V260H187.188V251.424H188.34L188.5 252.992H188.564C188.841 252.523 189.199 252.117 189.636 251.776C190.073 251.435 190.591 251.264 191.188 251.264ZM194.518 248.208C194.731 248.208 194.918 248.283 195.078 248.432C195.248 248.571 195.334 248.795 195.334 249.104C195.334 249.403 195.248 249.627 195.078 249.776C194.918 249.925 194.731 250 194.518 250C194.283 250 194.086 249.925 193.926 249.776C193.766 249.627 193.686 249.403 193.686 249.104C193.686 248.795 193.766 248.571 193.926 248.432C194.086 248.283 194.283 248.208 194.518 248.208ZM195.206 251.424V260H193.798V251.424H195.206ZM199.811 260L196.562 251.424H198.067L199.891 256.48C199.976 256.715 200.067 256.976 200.163 257.264C200.259 257.552 200.344 257.829 200.419 258.096C200.493 258.352 200.547 258.571 200.579 258.752H200.643C200.685 258.571 200.744 258.347 200.819 258.08C200.904 257.813 200.995 257.536 201.091 257.248C201.197 256.96 201.288 256.704 201.363 256.48L203.187 251.424H204.691L201.427 260H199.811ZM209.36 251.264C210.096 251.264 210.725 251.424 211.248 251.744C211.781 252.064 212.186 252.517 212.464 253.104C212.752 253.68 212.896 254.357 212.896 255.136V255.984H207.024C207.045 256.955 207.29 257.696 207.76 258.208C208.24 258.709 208.906 258.96 209.76 258.96C210.304 258.96 210.784 258.912 211.2 258.816C211.626 258.709 212.064 258.56 212.512 258.368V259.6C212.074 259.792 211.642 259.931 211.216 260.016C210.789 260.112 210.282 260.16 209.696 260.16C208.885 260.16 208.165 259.995 207.536 259.664C206.917 259.333 206.432 258.843 206.08 258.192C205.738 257.531 205.568 256.725 205.568 255.776C205.568 254.837 205.722 254.032 206.032 253.36C206.352 252.688 206.794 252.171 207.36 251.808C207.936 251.445 208.602 251.264 209.36 251.264ZM209.344 252.416C208.672 252.416 208.138 252.635 207.744 253.072C207.36 253.499 207.13 254.096 207.056 254.864H211.424C211.413 254.139 211.242 253.552 210.912 253.104C210.581 252.645 210.058 252.416 209.344 252.416ZM220.663 257.632C220.663 258.464 220.353 259.093 219.735 259.52C219.116 259.947 218.284 260.16 217.239 260.16C216.641 260.16 216.124 260.112 215.687 260.016C215.26 259.92 214.881 259.787 214.551 259.616V258.336C214.892 258.507 215.303 258.667 215.783 258.816C216.273 258.955 216.769 259.024 217.271 259.024C217.985 259.024 218.503 258.912 218.823 258.688C219.143 258.453 219.303 258.144 219.303 257.76C219.303 257.547 219.244 257.355 219.127 257.184C219.009 257.013 218.796 256.843 218.487 256.672C218.188 256.501 217.756 256.309 217.191 256.096C216.636 255.883 216.161 255.669 215.767 255.456C215.372 255.243 215.068 254.987 214.855 254.688C214.641 254.389 214.535 254.005 214.535 253.536C214.535 252.811 214.828 252.251 215.415 251.856C216.012 251.461 216.791 251.264 217.751 251.264C218.273 251.264 218.759 251.317 219.207 251.424C219.665 251.52 220.092 251.659 220.487 251.84L220.007 252.96C219.644 252.811 219.265 252.683 218.871 252.576C218.476 252.469 218.071 252.416 217.655 252.416C217.079 252.416 216.636 252.512 216.327 252.704C216.028 252.885 215.879 253.136 215.879 253.456C215.879 253.691 215.948 253.893 216.087 254.064C216.225 254.224 216.455 254.384 216.775 254.544C217.105 254.693 217.543 254.875 218.087 255.088C218.631 255.291 219.095 255.499 219.479 255.712C219.863 255.925 220.156 256.187 220.359 256.496C220.561 256.795 220.663 257.173 220.663 257.632ZM227.611 248.208C227.825 248.208 228.011 248.283 228.171 248.432C228.342 248.571 228.427 248.795 228.427 249.104C228.427 249.403 228.342 249.627 228.171 249.776C228.011 249.925 227.825 250 227.611 250C227.377 250 227.179 249.925 227.019 249.776C226.859 249.627 226.779 249.403 226.779 249.104C226.779 248.795 226.859 248.571 227.019 248.432C227.179 248.283 227.377 248.208 227.611 248.208ZM228.299 251.424V260H226.891V251.424H228.299ZM235.144 251.264C236.168 251.264 236.942 251.515 237.464 252.016C237.987 252.507 238.248 253.307 238.248 254.416V260H236.856V254.512C236.856 253.136 236.216 252.448 234.936 252.448C233.987 252.448 233.331 252.715 232.968 253.248C232.606 253.781 232.424 254.549 232.424 255.552V260H231.016V251.424H232.152L232.36 252.592H232.44C232.718 252.144 233.102 251.813 233.592 251.6C234.083 251.376 234.6 251.264 235.144 251.264ZM245.035 251.264C246.059 251.264 246.832 251.515 247.355 252.016C247.878 252.507 248.139 253.307 248.139 254.416V260H246.747V254.512C246.747 253.136 246.107 252.448 244.827 252.448C243.878 252.448 243.222 252.715 242.859 253.248C242.496 253.781 242.315 254.549 242.315 255.552V260H240.907V251.424H242.043L242.251 252.592H242.331C242.608 252.144 242.992 251.813 243.483 251.6C243.974 251.376 244.491 251.264 245.035 251.264ZM258.253 255.696C258.253 257.115 257.891 258.213 257.166 258.992C256.451 259.771 255.48 260.16 254.254 260.16C253.496 260.16 252.819 259.989 252.222 259.648C251.635 259.296 251.171 258.789 250.83 258.128C250.488 257.456 250.318 256.645 250.318 255.696C250.318 254.277 250.675 253.184 251.39 252.416C252.104 251.648 253.075 251.264 254.302 251.264C255.08 251.264 255.763 251.44 256.35 251.792C256.947 252.133 257.411 252.635 257.742 253.296C258.083 253.947 258.253 254.747 258.253 255.696ZM251.774 255.696C251.774 256.709 251.971 257.515 252.366 258.112C252.771 258.699 253.411 258.992 254.286 258.992C255.15 258.992 255.784 258.699 256.19 258.112C256.595 257.515 256.798 256.709 256.798 255.696C256.798 254.683 256.595 253.888 256.19 253.312C255.784 252.736 255.144 252.448 254.27 252.448C253.395 252.448 252.76 252.736 252.366 253.312C251.971 253.888 251.774 254.683 251.774 255.696ZM262.061 260L258.812 251.424H260.317L262.141 256.48C262.226 256.715 262.317 256.976 262.413 257.264C262.509 257.552 262.594 257.829 262.669 258.096C262.743 258.352 262.797 258.571 262.829 258.752H262.893C262.935 258.571 262.994 258.347 263.069 258.08C263.154 257.813 263.245 257.536 263.341 257.248C263.447 256.96 263.538 256.704 263.613 256.48L265.437 251.424H266.941L263.677 260H262.061ZM271.546 251.28C272.591 251.28 273.364 251.509 273.866 251.968C274.367 252.427 274.618 253.157 274.618 254.16V260H273.594L273.322 258.784H273.258C272.884 259.253 272.49 259.6 272.074 259.824C271.668 260.048 271.103 260.16 270.378 260.16C269.599 260.16 268.954 259.957 268.442 259.552C267.93 259.136 267.674 258.491 267.674 257.616C267.674 256.763 268.01 256.107 268.682 255.648C269.354 255.179 270.388 254.923 271.786 254.88L273.242 254.832V254.32C273.242 253.605 273.087 253.109 272.778 252.832C272.468 252.555 272.031 252.416 271.466 252.416C271.018 252.416 270.591 252.485 270.186 252.624C269.78 252.752 269.402 252.901 269.049 253.072L268.618 252.016C268.991 251.813 269.434 251.643 269.946 251.504C270.458 251.355 270.991 251.28 271.546 251.28ZM273.226 255.808L271.962 255.856C270.895 255.899 270.154 256.069 269.738 256.368C269.332 256.667 269.13 257.088 269.13 257.632C269.13 258.112 269.274 258.464 269.562 258.688C269.86 258.912 270.239 259.024 270.698 259.024C271.423 259.024 272.026 258.827 272.506 258.432C272.986 258.027 273.226 257.408 273.226 256.576V255.808ZM280.13 259.008C280.344 259.008 280.562 258.992 280.786 258.96C281.01 258.917 281.192 258.875 281.33 258.832V259.904C281.181 259.979 280.968 260.037 280.69 260.08C280.413 260.133 280.146 260.16 279.89 260.16C279.442 260.16 279.026 260.085 278.642 259.936C278.269 259.776 277.965 259.504 277.73 259.12C277.496 258.736 277.378 258.197 277.378 257.504V252.512H276.162V251.84L277.394 251.28L277.954 249.456H278.786V251.424H281.266V252.512H278.786V257.472C278.786 257.995 278.909 258.384 279.154 258.64C279.41 258.885 279.736 259.008 280.13 259.008ZM283.768 248.208C283.981 248.208 284.168 248.283 284.328 248.432C284.498 248.571 284.584 248.795 284.584 249.104C284.584 249.403 284.498 249.627 284.328 249.776C284.168 249.925 283.981 250 283.768 250C283.533 250 283.336 249.925 283.176 249.776C283.016 249.627 282.936 249.403 282.936 249.104C282.936 248.795 283.016 248.571 283.176 248.432C283.336 248.283 283.533 248.208 283.768 248.208ZM284.456 251.424V260H283.048V251.424H284.456ZM294.628 255.696C294.628 257.115 294.266 258.213 293.541 258.992C292.826 259.771 291.855 260.16 290.629 260.16C289.871 260.16 289.194 259.989 288.597 259.648C288.01 259.296 287.546 258.789 287.205 258.128C286.863 257.456 286.693 256.645 286.693 255.696C286.693 254.277 287.05 253.184 287.765 252.416C288.479 251.648 289.45 251.264 290.677 251.264C291.455 251.264 292.138 251.44 292.725 251.792C293.322 252.133 293.786 252.635 294.117 253.296C294.458 253.947 294.628 254.747 294.628 255.696ZM288.149 255.696C288.149 256.709 288.346 257.515 288.741 258.112C289.146 258.699 289.786 258.992 290.661 258.992C291.525 258.992 292.159 258.699 292.565 258.112C292.97 257.515 293.173 256.709 293.173 255.696C293.173 254.683 292.97 253.888 292.565 253.312C292.159 252.736 291.519 252.448 290.645 252.448C289.77 252.448 289.135 252.736 288.741 253.312C288.346 253.888 288.149 254.683 288.149 255.696ZM300.988 251.264C302.012 251.264 302.785 251.515 303.308 252.016C303.831 252.507 304.092 253.307 304.092 254.416V260H302.7V254.512C302.7 253.136 302.06 252.448 300.78 252.448C299.831 252.448 299.175 252.715 298.812 253.248C298.449 253.781 298.268 254.549 298.268 255.552V260H296.86V251.424H297.996L298.204 252.592H298.284C298.561 252.144 298.945 251.813 299.436 251.6C299.927 251.376 300.444 251.264 300.988 251.264ZM118.03 281.28C119.075 281.28 119.849 281.509 120.35 281.968C120.851 282.427 121.102 283.157 121.102 284.16V290H120.078L119.806 288.784H119.742C119.369 289.253 118.974 289.6 118.558 289.824C118.153 290.048 117.587 290.16 116.862 290.16C116.083 290.16 115.438 289.957 114.926 289.552C114.414 289.136 114.158 288.491 114.158 287.616C114.158 286.763 114.494 286.107 115.166 285.648C115.838 285.179 116.873 284.923 118.27 284.88L119.726 284.832V284.32C119.726 283.605 119.571 283.109 119.262 282.832C118.953 282.555 118.515 282.416 117.95 282.416C117.502 282.416 117.075 282.485 116.67 282.624C116.265 282.752 115.886 282.901 115.534 283.072L115.102 282.016C115.475 281.813 115.918 281.643 116.43 281.504C116.942 281.355 117.475 281.28 118.03 281.28ZM119.71 285.808L118.446 285.856C117.379 285.899 116.638 286.069 116.222 286.368C115.817 286.667 115.614 287.088 115.614 287.632C115.614 288.112 115.758 288.464 116.046 288.688C116.345 288.912 116.723 289.024 117.182 289.024C117.907 289.024 118.51 288.827 118.99 288.432C119.47 288.027 119.71 287.408 119.71 286.576V285.808ZM127.191 290.16C126.433 290.16 125.756 290.005 125.159 289.696C124.572 289.387 124.108 288.907 123.767 288.256C123.436 287.605 123.271 286.773 123.271 285.76C123.271 284.704 123.447 283.845 123.799 283.184C124.151 282.523 124.625 282.037 125.223 281.728C125.831 281.419 126.519 281.264 127.287 281.264C127.724 281.264 128.145 281.312 128.551 281.408C128.956 281.493 129.287 281.6 129.543 281.728L129.111 282.896C128.855 282.8 128.556 282.709 128.215 282.624C127.873 282.539 127.553 282.496 127.255 282.496C125.569 282.496 124.727 283.579 124.727 285.744C124.727 286.779 124.929 287.573 125.335 288.128C125.751 288.672 126.364 288.944 127.175 288.944C127.644 288.944 128.055 288.896 128.407 288.8C128.769 288.704 129.1 288.587 129.399 288.448V289.696C129.111 289.845 128.791 289.957 128.439 290.032C128.097 290.117 127.681 290.16 127.191 290.16ZM135.438 281.264C135.598 281.264 135.769 281.275 135.95 281.296C136.142 281.307 136.307 281.328 136.446 281.36L136.27 282.656C136.131 282.624 135.977 282.597 135.806 282.576C135.646 282.555 135.491 282.544 135.342 282.544C134.905 282.544 134.494 282.667 134.11 282.912C133.726 283.147 133.417 283.483 133.182 283.92C132.958 284.347 132.846 284.848 132.846 285.424V290H131.438V281.424H132.59L132.75 282.992H132.814C133.091 282.523 133.449 282.117 133.886 281.776C134.323 281.435 134.841 281.264 135.438 281.264ZM145.191 285.696C145.191 287.115 144.828 288.213 144.103 288.992C143.388 289.771 142.418 290.16 141.191 290.16C140.434 290.16 139.756 289.989 139.159 289.648C138.572 289.296 138.108 288.789 137.767 288.128C137.426 287.456 137.255 286.645 137.255 285.696C137.255 284.277 137.612 283.184 138.327 282.416C139.042 281.648 140.012 281.264 141.239 281.264C142.018 281.264 142.7 281.44 143.287 281.792C143.884 282.133 144.348 282.635 144.679 283.296C145.02 283.947 145.191 284.747 145.191 285.696ZM138.711 285.696C138.711 286.709 138.908 287.515 139.303 288.112C139.708 288.699 140.348 288.992 141.223 288.992C142.087 288.992 142.722 288.699 143.127 288.112C143.532 287.515 143.735 286.709 143.735 285.696C143.735 284.683 143.532 283.888 143.127 283.312C142.722 282.736 142.082 282.448 141.207 282.448C140.332 282.448 139.698 282.736 139.303 283.312C138.908 283.888 138.711 284.683 138.711 285.696ZM153.007 287.632C153.007 288.464 152.697 289.093 152.079 289.52C151.46 289.947 150.628 290.16 149.583 290.16C148.985 290.16 148.468 290.112 148.031 290.016C147.604 289.92 147.225 289.787 146.895 289.616V288.336C147.236 288.507 147.647 288.667 148.127 288.816C148.617 288.955 149.113 289.024 149.615 289.024C150.329 289.024 150.847 288.912 151.167 288.688C151.487 288.453 151.647 288.144 151.647 287.76C151.647 287.547 151.588 287.355 151.471 287.184C151.353 287.013 151.14 286.843 150.831 286.672C150.532 286.501 150.1 286.309 149.535 286.096C148.98 285.883 148.505 285.669 148.111 285.456C147.716 285.243 147.412 284.987 147.199 284.688C146.985 284.389 146.879 284.005 146.879 283.536C146.879 282.811 147.172 282.251 147.759 281.856C148.356 281.461 149.135 281.264 150.095 281.264C150.617 281.264 151.103 281.317 151.551 281.424C152.009 281.52 152.436 281.659 152.831 281.84L152.351 282.96C151.988 282.811 151.609 282.683 151.215 282.576C150.82 282.469 150.415 282.416 149.999 282.416C149.423 282.416 148.98 282.512 148.671 282.704C148.372 282.885 148.223 283.136 148.223 283.456C148.223 283.691 148.292 283.893 148.431 284.064C148.569 284.224 148.799 284.384 149.119 284.544C149.449 284.693 149.887 284.875 150.431 285.088C150.975 285.291 151.439 285.499 151.823 285.712C152.207 285.925 152.5 286.187 152.703 286.496C152.905 286.795 153.007 287.173 153.007 287.632ZM160.663 287.632C160.663 288.464 160.353 289.093 159.735 289.52C159.116 289.947 158.284 290.16 157.239 290.16C156.641 290.16 156.124 290.112 155.687 290.016C155.26 289.92 154.881 289.787 154.551 289.616V288.336C154.892 288.507 155.303 288.667 155.783 288.816C156.273 288.955 156.769 289.024 157.271 289.024C157.985 289.024 158.503 288.912 158.823 288.688C159.143 288.453 159.303 288.144 159.303 287.76C159.303 287.547 159.244 287.355 159.127 287.184C159.009 287.013 158.796 286.843 158.487 286.672C158.188 286.501 157.756 286.309 157.191 286.096C156.636 285.883 156.161 285.669 155.767 285.456C155.372 285.243 155.068 284.987 154.855 284.688C154.641 284.389 154.535 284.005 154.535 283.536C154.535 282.811 154.828 282.251 155.415 281.856C156.012 281.461 156.791 281.264 157.751 281.264C158.273 281.264 158.759 281.317 159.207 281.424C159.665 281.52 160.092 281.659 160.487 281.84L160.007 282.96C159.644 282.811 159.265 282.683 158.871 282.576C158.476 282.469 158.071 282.416 157.655 282.416C157.079 282.416 156.636 282.512 156.327 282.704C156.028 282.885 155.879 283.136 155.879 283.456C155.879 283.691 155.948 283.893 156.087 284.064C156.225 284.224 156.455 284.384 156.775 284.544C157.105 284.693 157.543 284.875 158.087 285.088C158.631 285.291 159.095 285.499 159.479 285.712C159.863 285.925 160.156 286.187 160.359 286.496C160.561 286.795 160.663 287.173 160.663 287.632ZM170.139 281.28C171.185 281.28 171.958 281.509 172.459 281.968C172.961 282.427 173.211 283.157 173.211 284.16V290H172.187L171.915 288.784H171.851C171.478 289.253 171.083 289.6 170.667 289.824C170.262 290.048 169.697 290.16 168.971 290.16C168.193 290.16 167.547 289.957 167.035 289.552C166.523 289.136 166.267 288.491 166.267 287.616C166.267 286.763 166.603 286.107 167.275 285.648C167.947 285.179 168.982 284.923 170.379 284.88L171.835 284.832V284.32C171.835 283.605 171.681 283.109 171.371 282.832C171.062 282.555 170.625 282.416 170.059 282.416C169.611 282.416 169.185 282.485 168.779 282.624C168.374 282.752 167.995 282.901 167.643 283.072L167.211 282.016C167.585 281.813 168.027 281.643 168.539 281.504C169.051 281.355 169.585 281.28 170.139 281.28ZM171.819 285.808L170.555 285.856C169.489 285.899 168.747 286.069 168.331 286.368C167.926 286.667 167.723 287.088 167.723 287.632C167.723 288.112 167.867 288.464 168.155 288.688C168.454 288.912 168.833 289.024 169.291 289.024C170.017 289.024 170.619 288.827 171.099 288.432C171.579 288.027 171.819 287.408 171.819 286.576V285.808ZM177.268 290H175.86V277.84H177.268V290ZM181.393 290H179.985V277.84H181.393V290ZM193.85 287.632C193.85 288.464 193.541 289.093 192.922 289.52C192.304 289.947 191.472 290.16 190.426 290.16C189.829 290.16 189.312 290.112 188.874 290.016C188.448 289.92 188.069 289.787 187.738 289.616V288.336C188.08 288.507 188.49 288.667 188.97 288.816C189.461 288.955 189.957 289.024 190.458 289.024C191.173 289.024 191.69 288.912 192.01 288.688C192.33 288.453 192.49 288.144 192.49 287.76C192.49 287.547 192.432 287.355 192.314 287.184C192.197 287.013 191.984 286.843 191.674 286.672C191.376 286.501 190.944 286.309 190.378 286.096C189.824 285.883 189.349 285.669 188.954 285.456C188.56 285.243 188.256 284.987 188.042 284.688C187.829 284.389 187.722 284.005 187.722 283.536C187.722 282.811 188.016 282.251 188.602 281.856C189.2 281.461 189.978 281.264 190.938 281.264C191.461 281.264 191.946 281.317 192.394 281.424C192.853 281.52 193.28 281.659 193.674 281.84L193.194 282.96C192.832 282.811 192.453 282.683 192.058 282.576C191.664 282.469 191.258 282.416 190.842 282.416C190.266 282.416 189.824 282.512 189.514 282.704C189.216 282.885 189.066 283.136 189.066 283.456C189.066 283.691 189.136 283.893 189.274 284.064C189.413 284.224 189.642 284.384 189.962 284.544C190.293 284.693 190.73 284.875 191.274 285.088C191.818 285.291 192.282 285.499 192.666 285.712C193.05 285.925 193.344 286.187 193.546 286.496C193.749 286.795 193.85 287.173 193.85 287.632ZM199.235 281.264C199.971 281.264 200.6 281.424 201.123 281.744C201.656 282.064 202.061 282.517 202.339 283.104C202.627 283.68 202.771 284.357 202.771 285.136V285.984H196.899C196.92 286.955 197.165 287.696 197.635 288.208C198.115 288.709 198.781 288.96 199.635 288.96C200.179 288.96 200.659 288.912 201.075 288.816C201.501 288.709 201.939 288.56 202.387 288.368V289.6C201.949 289.792 201.517 289.931 201.091 290.016C200.664 290.112 200.157 290.16 199.571 290.16C198.76 290.16 198.04 289.995 197.411 289.664C196.792 289.333 196.307 288.843 195.955 288.192C195.613 287.531 195.443 286.725 195.443 285.776C195.443 284.837 195.597 284.032 195.907 283.36C196.227 282.688 196.669 282.171 197.235 281.808C197.811 281.445 198.477 281.264 199.235 281.264ZM199.219 282.416C198.547 282.416 198.013 282.635 197.619 283.072C197.235 283.499 197.005 284.096 196.931 284.864H201.299C201.288 284.139 201.117 283.552 200.787 283.104C200.456 282.645 199.933 282.416 199.219 282.416ZM208.394 290.16C207.636 290.16 206.959 290.005 206.362 289.696C205.775 289.387 205.311 288.907 204.97 288.256C204.639 287.605 204.474 286.773 204.474 285.76C204.474 284.704 204.65 283.845 205.002 283.184C205.354 282.523 205.828 282.037 206.426 281.728C207.034 281.419 207.722 281.264 208.49 281.264C208.927 281.264 209.348 281.312 209.754 281.408C210.159 281.493 210.49 281.6 210.746 281.728L210.314 282.896C210.058 282.8 209.759 282.709 209.418 282.624C209.076 282.539 208.756 282.496 208.458 282.496C206.772 282.496 205.93 283.579 205.93 285.744C205.93 286.779 206.132 287.573 206.538 288.128C206.954 288.672 207.567 288.944 208.378 288.944C208.847 288.944 209.258 288.896 209.61 288.8C209.972 288.704 210.303 288.587 210.602 288.448V289.696C210.314 289.845 209.994 289.957 209.642 290.032C209.3 290.117 208.884 290.16 208.394 290.16ZM215.505 289.008C215.719 289.008 215.937 288.992 216.161 288.96C216.385 288.917 216.567 288.875 216.705 288.832V289.904C216.556 289.979 216.343 290.037 216.065 290.08C215.788 290.133 215.521 290.16 215.265 290.16C214.817 290.16 214.401 290.085 214.017 289.936C213.644 289.776 213.34 289.504 213.105 289.12C212.871 288.736 212.753 288.197 212.753 287.504V282.512H211.537V281.84L212.769 281.28L213.329 279.456H214.161V281.424H216.641V282.512H214.161V287.472C214.161 287.995 214.284 288.384 214.529 288.64C214.785 288.885 215.111 289.008 215.505 289.008ZM225.878 285.696C225.878 287.115 225.516 288.213 224.791 288.992C224.076 289.771 223.105 290.16 221.879 290.16C221.121 290.16 220.444 289.989 219.847 289.648C219.26 289.296 218.796 288.789 218.455 288.128C218.113 287.456 217.943 286.645 217.943 285.696C217.943 284.277 218.3 283.184 219.015 282.416C219.729 281.648 220.7 281.264 221.927 281.264C222.705 281.264 223.388 281.44 223.975 281.792C224.572 282.133 225.036 282.635 225.367 283.296C225.708 283.947 225.878 284.747 225.878 285.696ZM219.399 285.696C219.399 286.709 219.596 287.515 219.991 288.112C220.396 288.699 221.036 288.992 221.911 288.992C222.775 288.992 223.409 288.699 223.815 288.112C224.22 287.515 224.423 286.709 224.423 285.696C224.423 284.683 224.22 283.888 223.815 283.312C223.409 282.736 222.769 282.448 221.895 282.448C221.02 282.448 220.385 282.736 219.991 283.312C219.596 283.888 219.399 284.683 219.399 285.696ZM232.11 281.264C232.27 281.264 232.441 281.275 232.622 281.296C232.814 281.307 232.979 281.328 233.118 281.36L232.942 282.656C232.803 282.624 232.649 282.597 232.478 282.576C232.318 282.555 232.163 282.544 232.014 282.544C231.577 282.544 231.166 282.667 230.782 282.912C230.398 283.147 230.089 283.483 229.854 283.92C229.63 284.347 229.518 284.848 229.518 285.424V290H228.11V281.424H229.262L229.422 282.992H229.486C229.763 282.523 230.121 282.117 230.558 281.776C230.995 281.435 231.513 281.264 232.11 281.264ZM240.303 287.632C240.303 288.464 239.994 289.093 239.375 289.52C238.757 289.947 237.925 290.16 236.879 290.16C236.282 290.16 235.765 290.112 235.327 290.016C234.901 289.92 234.522 289.787 234.191 289.616V288.336C234.533 288.507 234.943 288.667 235.423 288.816C235.914 288.955 236.41 289.024 236.911 289.024C237.626 289.024 238.143 288.912 238.463 288.688C238.783 288.453 238.943 288.144 238.943 287.76C238.943 287.547 238.885 287.355 238.767 287.184C238.65 287.013 238.437 286.843 238.127 286.672C237.829 286.501 237.397 286.309 236.831 286.096C236.277 285.883 235.802 285.669 235.407 285.456C235.013 285.243 234.709 284.987 234.495 284.688C234.282 284.389 234.175 284.005 234.175 283.536C234.175 282.811 234.469 282.251 235.055 281.856C235.653 281.461 236.431 281.264 237.391 281.264C237.914 281.264 238.399 281.317 238.847 281.424C239.306 281.52 239.733 281.659 240.127 281.84L239.647 282.96C239.285 282.811 238.906 282.683 238.511 282.576C238.117 282.469 237.711 282.416 237.295 282.416C236.719 282.416 236.277 282.512 235.967 282.704C235.669 282.885 235.519 283.136 235.519 283.456C235.519 283.691 235.589 283.893 235.727 284.064C235.866 284.224 236.095 284.384 236.415 284.544C236.746 284.693 237.183 284.875 237.727 285.088C238.271 285.291 238.735 285.499 239.119 285.712C239.503 285.925 239.797 286.187 239.999 286.496C240.202 286.795 240.303 287.173 240.303 287.632ZM247.94 277.84V280.8C247.94 281.163 247.929 281.504 247.908 281.824C247.897 282.133 247.881 282.379 247.86 282.56H247.94C248.185 282.197 248.521 281.893 248.948 281.648C249.375 281.403 249.924 281.28 250.596 281.28C251.663 281.28 252.516 281.653 253.156 282.4C253.807 283.136 254.132 284.24 254.132 285.712C254.132 287.184 253.807 288.293 253.156 289.04C252.505 289.787 251.652 290.16 250.596 290.16C249.924 290.16 249.375 290.037 248.948 289.792C248.521 289.547 248.185 289.253 247.94 288.912H247.828L247.54 290H246.532V277.84H247.94ZM250.356 282.448C249.449 282.448 248.82 282.709 248.468 283.232C248.116 283.755 247.94 284.565 247.94 285.664V285.728C247.94 286.784 248.111 287.595 248.452 288.16C248.804 288.715 249.449 288.992 250.388 288.992C251.156 288.992 251.727 288.709 252.1 288.144C252.484 287.579 252.676 286.763 252.676 285.696C252.676 283.531 251.903 282.448 250.356 282.448ZM254.719 281.424H256.223L258.079 286.304C258.239 286.731 258.383 287.141 258.511 287.536C258.639 287.92 258.735 288.288 258.799 288.64H258.863C258.927 288.373 259.028 288.027 259.167 287.6C259.306 287.163 259.45 286.725 259.599 286.288L261.343 281.424H262.863L259.167 291.184C258.868 291.995 258.479 292.64 257.999 293.12C257.53 293.6 256.879 293.84 256.047 293.84C255.791 293.84 255.567 293.824 255.375 293.792C255.183 293.771 255.018 293.744 254.879 293.712V292.592C254.996 292.613 255.135 292.635 255.295 292.656C255.466 292.677 255.642 292.688 255.823 292.688C256.314 292.688 256.708 292.549 257.007 292.272C257.316 291.995 257.556 291.627 257.727 291.168L258.175 290.032L254.719 281.424ZM275.544 281.424V290H274.392L274.184 288.864H274.12C273.842 289.312 273.458 289.643 272.968 289.856C272.477 290.059 271.954 290.16 271.4 290.16C270.365 290.16 269.586 289.915 269.064 289.424C268.541 288.923 268.28 288.128 268.28 287.04V281.424H269.704V286.944C269.704 288.309 270.338 288.992 271.608 288.992C272.557 288.992 273.213 288.725 273.576 288.192C273.949 287.659 274.136 286.891 274.136 285.888V281.424H275.544ZM283.85 287.632C283.85 288.464 283.541 289.093 282.922 289.52C282.304 289.947 281.472 290.16 280.426 290.16C279.829 290.16 279.312 290.112 278.874 290.016C278.448 289.92 278.069 289.787 277.738 289.616V288.336C278.08 288.507 278.49 288.667 278.97 288.816C279.461 288.955 279.957 289.024 280.458 289.024C281.173 289.024 281.69 288.912 282.01 288.688C282.33 288.453 282.49 288.144 282.49 287.76C282.49 287.547 282.432 287.355 282.314 287.184C282.197 287.013 281.984 286.843 281.674 286.672C281.376 286.501 280.944 286.309 280.378 286.096C279.824 285.883 279.349 285.669 278.954 285.456C278.56 285.243 278.256 284.987 278.042 284.688C277.829 284.389 277.722 284.005 277.722 283.536C277.722 282.811 278.016 282.251 278.602 281.856C279.2 281.461 279.978 281.264 280.938 281.264C281.461 281.264 281.946 281.317 282.394 281.424C282.853 281.52 283.28 281.659 283.674 281.84L283.194 282.96C282.832 282.811 282.453 282.683 282.058 282.576C281.664 282.469 281.258 282.416 280.842 282.416C280.266 282.416 279.824 282.512 279.514 282.704C279.216 282.885 279.066 283.136 279.066 283.456C279.066 283.691 279.136 283.893 279.274 284.064C279.413 284.224 279.642 284.384 279.962 284.544C280.293 284.693 280.73 284.875 281.274 285.088C281.818 285.291 282.282 285.499 282.666 285.712C283.05 285.925 283.344 286.187 283.546 286.496C283.749 286.795 283.85 287.173 283.85 287.632ZM286.643 278.208C286.856 278.208 287.043 278.283 287.203 278.432C287.373 278.571 287.459 278.795 287.459 279.104C287.459 279.403 287.373 279.627 287.203 279.776C287.043 279.925 286.856 280 286.643 280C286.408 280 286.211 279.925 286.051 279.776C285.891 279.627 285.811 279.403 285.811 279.104C285.811 278.795 285.891 278.571 286.051 278.432C286.211 278.283 286.408 278.208 286.643 278.208ZM287.331 281.424V290H285.923V281.424H287.331ZM294.176 281.264C295.2 281.264 295.973 281.515 296.496 282.016C297.018 282.507 297.28 283.307 297.28 284.416V290H295.888V284.512C295.888 283.136 295.248 282.448 293.968 282.448C293.018 282.448 292.362 282.715 292 283.248C291.637 283.781 291.456 284.549 291.456 285.552V290H290.048V281.424H291.184L291.392 282.592H291.472C291.749 282.144 292.133 281.813 292.624 281.6C293.114 281.376 293.632 281.264 294.176 281.264ZM302.978 281.264C303.543 281.264 304.05 281.371 304.498 281.584C304.957 281.797 305.346 282.123 305.666 282.56H305.746L305.938 281.424H307.058V290.144C307.058 291.371 306.743 292.293 306.114 292.912C305.495 293.531 304.53 293.84 303.218 293.84C301.959 293.84 300.93 293.659 300.13 293.296V292C300.973 292.448 302.029 292.672 303.298 292.672C304.034 292.672 304.61 292.453 305.026 292.016C305.453 291.589 305.666 291.003 305.666 290.256V289.92C305.666 289.792 305.671 289.611 305.682 289.376C305.693 289.131 305.703 288.96 305.714 288.864H305.65C305.074 289.728 304.189 290.16 302.994 290.16C301.885 290.16 301.015 289.771 300.386 288.992C299.767 288.213 299.458 287.125 299.458 285.728C299.458 284.363 299.767 283.28 300.386 282.48C301.015 281.669 301.879 281.264 302.978 281.264ZM303.17 282.448C302.455 282.448 301.901 282.736 301.506 283.312C301.111 283.877 300.914 284.688 300.914 285.744C300.914 286.8 301.106 287.611 301.49 288.176C301.885 288.731 302.455 289.008 303.202 289.008C304.066 289.008 304.695 288.779 305.09 288.32C305.485 287.851 305.682 287.099 305.682 286.064V285.728C305.682 284.555 305.479 283.717 305.074 283.216C304.669 282.704 304.034 282.448 303.17 282.448ZM116.702 311.28C117.747 311.28 118.52 311.509 119.022 311.968C119.523 312.427 119.774 313.157 119.774 314.16V320H118.75L118.478 318.784H118.414C118.04 319.253 117.646 319.6 117.23 319.824C116.824 320.048 116.259 320.16 115.534 320.16C114.755 320.16 114.11 319.957 113.598 319.552C113.086 319.136 112.83 318.491 112.83 317.616C112.83 316.763 113.166 316.107 113.838 315.648C114.51 315.179 115.544 314.923 116.942 314.88L118.398 314.832V314.32C118.398 313.605 118.243 313.109 117.934 312.832C117.624 312.555 117.187 312.416 116.622 312.416C116.174 312.416 115.747 312.485 115.342 312.624C114.936 312.752 114.558 312.901 114.206 313.072L113.774 312.016C114.147 311.813 114.59 311.643 115.102 311.504C115.614 311.355 116.147 311.28 116.702 311.28ZM118.382 315.808L117.118 315.856C116.051 315.899 115.31 316.069 114.894 316.368C114.488 316.667 114.286 317.088 114.286 317.632C114.286 318.112 114.43 318.464 114.718 318.688C115.016 318.912 115.395 319.024 115.854 319.024C116.579 319.024 117.182 318.827 117.662 318.432C118.142 318.027 118.382 317.408 118.382 316.576V315.808ZM125.463 320.16C124.396 320.16 123.543 319.792 122.903 319.056C122.263 318.309 121.943 317.2 121.943 315.728C121.943 314.256 122.263 313.147 122.903 312.4C123.553 311.643 124.412 311.264 125.479 311.264C126.14 311.264 126.679 311.387 127.095 311.632C127.521 311.877 127.868 312.176 128.135 312.528H128.231C128.22 312.389 128.199 312.187 128.167 311.92C128.145 311.643 128.135 311.424 128.135 311.264V307.84H129.543V320H128.407L128.199 318.848H128.135C127.879 319.211 127.537 319.52 127.111 319.776C126.684 320.032 126.135 320.16 125.463 320.16ZM125.687 318.992C126.593 318.992 127.228 318.747 127.591 318.256C127.964 317.755 128.151 317.003 128.151 316V315.744C128.151 314.677 127.975 313.861 127.623 313.296C127.271 312.72 126.62 312.432 125.671 312.432C124.913 312.432 124.343 312.736 123.959 313.344C123.585 313.941 123.399 314.747 123.399 315.76C123.399 316.784 123.585 317.579 123.959 318.144C124.343 318.709 124.919 318.992 125.687 318.992ZM134.154 320L130.906 311.424H132.41L134.234 316.48C134.32 316.715 134.41 316.976 134.506 317.264C134.602 317.552 134.688 317.829 134.762 318.096C134.837 318.352 134.89 318.571 134.922 318.752H134.986C135.029 318.571 135.088 318.347 135.162 318.08C135.248 317.813 135.338 317.536 135.434 317.248C135.541 316.96 135.632 316.704 135.706 316.48L137.53 311.424H139.034L135.77 320H134.154ZM143.639 311.28C144.685 311.28 145.458 311.509 145.959 311.968C146.461 312.427 146.711 313.157 146.711 314.16V320H145.687L145.415 318.784H145.351C144.978 319.253 144.583 319.6 144.167 319.824C143.762 320.048 143.197 320.16 142.471 320.16C141.693 320.16 141.047 319.957 140.535 319.552C140.023 319.136 139.767 318.491 139.767 317.616C139.767 316.763 140.103 316.107 140.775 315.648C141.447 315.179 142.482 314.923 143.879 314.88L145.335 314.832V314.32C145.335 313.605 145.181 313.109 144.871 312.832C144.562 312.555 144.125 312.416 143.559 312.416C143.111 312.416 142.685 312.485 142.279 312.624C141.874 312.752 141.495 312.901 141.143 313.072L140.711 312.016C141.085 311.813 141.527 311.643 142.039 311.504C142.551 311.355 143.085 311.28 143.639 311.28ZM145.319 315.808L144.055 315.856C142.989 315.899 142.247 316.069 141.831 316.368C141.426 316.667 141.223 317.088 141.223 317.632C141.223 318.112 141.367 318.464 141.655 318.688C141.954 318.912 142.333 319.024 142.791 319.024C143.517 319.024 144.119 318.827 144.599 318.432C145.079 318.027 145.319 317.408 145.319 316.576V315.808ZM153.488 311.264C154.512 311.264 155.285 311.515 155.808 312.016C156.331 312.507 156.592 313.307 156.592 314.416V320H155.2V314.512C155.2 313.136 154.56 312.448 153.28 312.448C152.331 312.448 151.675 312.715 151.312 313.248C150.949 313.781 150.768 314.549 150.768 315.552V320H149.36V311.424H150.496L150.704 312.592H150.784C151.061 312.144 151.445 311.813 151.936 311.6C152.427 311.376 152.944 311.264 153.488 311.264ZM162.691 320.16C161.933 320.16 161.256 320.005 160.659 319.696C160.072 319.387 159.608 318.907 159.267 318.256C158.936 317.605 158.771 316.773 158.771 315.76C158.771 314.704 158.947 313.845 159.299 313.184C159.651 312.523 160.125 312.037 160.723 311.728C161.331 311.419 162.019 311.264 162.787 311.264C163.224 311.264 163.645 311.312 164.051 311.408C164.456 311.493 164.787 311.6 165.043 311.728L164.611 312.896C164.355 312.8 164.056 312.709 163.715 312.624C163.373 312.539 163.053 312.496 162.755 312.496C161.069 312.496 160.227 313.579 160.227 315.744C160.227 316.779 160.429 317.573 160.835 318.128C161.251 318.672 161.864 318.944 162.675 318.944C163.144 318.944 163.555 318.896 163.907 318.8C164.269 318.704 164.6 318.587 164.899 318.448V319.696C164.611 319.845 164.291 319.957 163.939 320.032C163.597 320.117 163.181 320.16 162.691 320.16ZM170.25 311.264C170.986 311.264 171.615 311.424 172.138 311.744C172.671 312.064 173.077 312.517 173.354 313.104C173.642 313.68 173.786 314.357 173.786 315.136V315.984H167.914C167.935 316.955 168.181 317.696 168.65 318.208C169.13 318.709 169.797 318.96 170.65 318.96C171.194 318.96 171.674 318.912 172.09 318.816C172.517 318.709 172.954 318.56 173.402 318.368V319.6C172.965 319.792 172.533 319.931 172.106 320.016C171.679 320.112 171.173 320.16 170.586 320.16C169.775 320.16 169.055 319.995 168.426 319.664C167.807 319.333 167.322 318.843 166.97 318.192C166.629 317.531 166.458 316.725 166.458 315.776C166.458 314.837 166.613 314.032 166.922 313.36C167.242 312.688 167.685 312.171 168.25 311.808C168.826 311.445 169.493 311.264 170.25 311.264ZM170.234 312.416C169.562 312.416 169.029 312.635 168.634 313.072C168.25 313.499 168.021 314.096 167.946 314.864H172.314C172.303 314.139 172.133 313.552 171.802 313.104C171.471 312.645 170.949 312.416 170.234 312.416ZM185.377 311.264C186.348 311.264 187.073 311.515 187.553 312.016C188.033 312.507 188.273 313.307 188.273 314.416V320H186.881V314.48C186.881 313.125 186.3 312.448 185.137 312.448C184.305 312.448 183.708 312.688 183.345 313.168C182.993 313.648 182.817 314.347 182.817 315.264V320H181.425V314.48C181.425 313.125 180.839 312.448 179.665 312.448C178.801 312.448 178.204 312.715 177.873 313.248C177.543 313.781 177.377 314.549 177.377 315.552V320H175.969V311.424H177.105L177.313 312.592H177.393C177.66 312.144 178.017 311.813 178.465 311.6C178.924 311.376 179.409 311.264 179.921 311.264C181.265 311.264 182.14 311.744 182.545 312.704H182.625C182.913 312.213 183.303 311.851 183.793 311.616C184.295 311.381 184.823 311.264 185.377 311.264ZM194.235 311.264C194.971 311.264 195.6 311.424 196.123 311.744C196.656 312.064 197.061 312.517 197.339 313.104C197.627 313.68 197.771 314.357 197.771 315.136V315.984H191.899C191.92 316.955 192.165 317.696 192.635 318.208C193.115 318.709 193.781 318.96 194.635 318.96C195.179 318.96 195.659 318.912 196.075 318.816C196.501 318.709 196.939 318.56 197.387 318.368V319.6C196.949 319.792 196.517 319.931 196.091 320.016C195.664 320.112 195.157 320.16 194.571 320.16C193.76 320.16 193.04 319.995 192.411 319.664C191.792 319.333 191.307 318.843 190.955 318.192C190.613 317.531 190.443 316.725 190.443 315.776C190.443 314.837 190.597 314.032 190.907 313.36C191.227 312.688 191.669 312.171 192.235 311.808C192.811 311.445 193.477 311.264 194.235 311.264ZM194.219 312.416C193.547 312.416 193.013 312.635 192.619 313.072C192.235 313.499 192.005 314.096 191.931 314.864H196.299C196.288 314.139 196.117 313.552 195.787 313.104C195.456 312.645 194.933 312.416 194.219 312.416ZM204.082 311.264C205.106 311.264 205.879 311.515 206.402 312.016C206.924 312.507 207.186 313.307 207.186 314.416V320H205.794V314.512C205.794 313.136 205.154 312.448 203.874 312.448C202.924 312.448 202.268 312.715 201.906 313.248C201.543 313.781 201.362 314.549 201.362 315.552V320H199.954V311.424H201.09L201.298 312.592H201.378C201.655 312.144 202.039 311.813 202.53 311.6C203.02 311.376 203.538 311.264 204.082 311.264ZM212.708 319.008C212.922 319.008 213.14 318.992 213.364 318.96C213.588 318.917 213.77 318.875 213.908 318.832V319.904C213.759 319.979 213.546 320.037 213.268 320.08C212.991 320.133 212.724 320.16 212.468 320.16C212.02 320.16 211.604 320.085 211.22 319.936C210.847 319.776 210.543 319.504 210.308 319.12C210.074 318.736 209.956 318.197 209.956 317.504V312.512H208.74V311.84L209.972 311.28L210.532 309.456H211.364V311.424H213.844V312.512H211.364V317.472C211.364 317.995 211.487 318.384 211.732 318.64C211.988 318.885 212.314 319.008 212.708 319.008ZM221.21 317.632C221.21 318.464 220.9 319.093 220.282 319.52C219.663 319.947 218.831 320.16 217.786 320.16C217.188 320.16 216.671 320.112 216.234 320.016C215.807 319.92 215.428 319.787 215.098 319.616V318.336C215.439 318.507 215.85 318.667 216.33 318.816C216.82 318.955 217.316 319.024 217.818 319.024C218.532 319.024 219.05 318.912 219.37 318.688C219.69 318.453 219.85 318.144 219.85 317.76C219.85 317.547 219.791 317.355 219.674 317.184C219.556 317.013 219.343 316.843 219.034 316.672C218.735 316.501 218.303 316.309 217.738 316.096C217.183 315.883 216.708 315.669 216.314 315.456C215.919 315.243 215.615 314.987 215.402 314.688C215.188 314.389 215.082 314.005 215.082 313.536C215.082 312.811 215.375 312.251 215.962 311.856C216.559 311.461 217.338 311.264 218.298 311.264C218.82 311.264 219.306 311.317 219.754 311.424C220.212 311.52 220.639 311.659 221.034 311.84L220.554 312.96C220.191 312.811 219.812 312.683 219.418 312.576C219.023 312.469 218.618 312.416 218.202 312.416C217.626 312.416 217.183 312.512 216.874 312.704C216.575 312.885 216.426 313.136 216.426 313.456C216.426 313.691 216.495 313.893 216.634 314.064C216.772 314.224 217.002 314.384 217.322 314.544C217.652 314.693 218.09 314.875 218.634 315.088C219.178 315.291 219.642 315.499 220.026 315.712C220.41 315.925 220.703 316.187 220.906 316.496C221.108 316.795 221.21 317.173 221.21 317.632ZM228.158 308.208C228.371 308.208 228.558 308.283 228.718 308.432C228.889 308.571 228.974 308.795 228.974 309.104C228.974 309.403 228.889 309.627 228.718 309.776C228.558 309.925 228.371 310 228.158 310C227.923 310 227.726 309.925 227.566 309.776C227.406 309.627 227.326 309.403 227.326 309.104C227.326 308.795 227.406 308.571 227.566 308.432C227.726 308.283 227.923 308.208 228.158 308.208ZM228.846 311.424V320H227.438V311.424H228.846ZM235.691 311.264C236.715 311.264 237.488 311.515 238.011 312.016C238.534 312.507 238.795 313.307 238.795 314.416V320H237.403V314.512C237.403 313.136 236.763 312.448 235.483 312.448C234.534 312.448 233.878 312.715 233.515 313.248C233.152 313.781 232.971 314.549 232.971 315.552V320H231.563V311.424H232.699L232.907 312.592H232.987C233.264 312.144 233.648 311.813 234.139 311.6C234.63 311.376 235.147 311.264 235.691 311.264ZM251.194 317.632C251.194 318.464 250.885 319.093 250.266 319.52C249.647 319.947 248.815 320.16 247.77 320.16C247.173 320.16 246.655 320.112 246.218 320.016C245.791 319.92 245.413 319.787 245.082 319.616V318.336C245.423 318.507 245.834 318.667 246.314 318.816C246.805 318.955 247.301 319.024 247.802 319.024C248.517 319.024 249.034 318.912 249.354 318.688C249.674 318.453 249.834 318.144 249.834 317.76C249.834 317.547 249.775 317.355 249.658 317.184C249.541 317.013 249.327 316.843 249.018 316.672C248.719 316.501 248.287 316.309 247.722 316.096C247.167 315.883 246.693 315.669 246.298 315.456C245.903 315.243 245.599 314.987 245.386 314.688C245.173 314.389 245.066 314.005 245.066 313.536C245.066 312.811 245.359 312.251 245.946 311.856C246.543 311.461 247.322 311.264 248.282 311.264C248.805 311.264 249.29 311.317 249.738 311.424C250.197 311.52 250.623 311.659 251.018 311.84L250.538 312.96C250.175 312.811 249.797 312.683 249.402 312.576C249.007 312.469 248.602 312.416 248.186 312.416C247.61 312.416 247.167 312.512 246.858 312.704C246.559 312.885 246.41 313.136 246.41 313.456C246.41 313.691 246.479 313.893 246.618 314.064C246.757 314.224 246.986 314.384 247.306 314.544C247.637 314.693 248.074 314.875 248.618 315.088C249.162 315.291 249.626 315.499 250.01 315.712C250.394 315.925 250.687 316.187 250.89 316.496C251.093 316.795 251.194 317.173 251.194 317.632ZM260.722 315.696C260.722 317.115 260.36 318.213 259.634 318.992C258.92 319.771 257.949 320.16 256.722 320.16C255.965 320.16 255.288 319.989 254.69 319.648C254.104 319.296 253.64 318.789 253.298 318.128C252.957 317.456 252.786 316.645 252.786 315.696C252.786 314.277 253.144 313.184 253.858 312.416C254.573 311.648 255.544 311.264 256.77 311.264C257.549 311.264 258.232 311.44 258.818 311.792C259.416 312.133 259.88 312.635 260.21 313.296C260.552 313.947 260.722 314.747 260.722 315.696ZM254.242 315.696C254.242 316.709 254.44 317.515 254.834 318.112C255.24 318.699 255.88 318.992 256.754 318.992C257.618 318.992 258.253 318.699 258.658 318.112C259.064 317.515 259.266 316.709 259.266 315.696C259.266 314.683 259.064 313.888 258.658 313.312C258.253 312.736 257.613 312.448 256.738 312.448C255.864 312.448 255.229 312.736 254.834 313.312C254.44 313.888 254.242 314.683 254.242 315.696ZM266.906 312.512H264.746V320H263.338V312.512H261.834V311.856L263.338 311.376V310.88C263.338 309.771 263.583 308.976 264.074 308.496C264.564 308.005 265.247 307.76 266.122 307.76C266.463 307.76 266.772 307.792 267.05 307.856C267.338 307.909 267.583 307.973 267.786 308.048L267.418 309.152C267.247 309.099 267.05 309.045 266.826 308.992C266.602 308.939 266.372 308.912 266.138 308.912C265.668 308.912 265.316 309.072 265.082 309.392C264.858 309.701 264.746 310.192 264.746 310.864V311.424H266.906V312.512ZM271.318 319.008C271.531 319.008 271.75 318.992 271.974 318.96C272.198 318.917 272.379 318.875 272.518 318.832V319.904C272.368 319.979 272.155 320.037 271.878 320.08C271.6 320.133 271.334 320.16 271.078 320.16C270.63 320.16 270.214 320.085 269.83 319.936C269.456 319.776 269.152 319.504 268.918 319.12C268.683 318.736 268.566 318.197 268.566 317.504V312.512H267.35V311.84L268.582 311.28L269.142 309.456H269.974V311.424H272.454V312.512H269.974V317.472C269.974 317.995 270.096 318.384 270.342 318.64C270.598 318.885 270.923 319.008 271.318 319.008ZM281.243 319.984L279.771 315.152C279.632 314.715 279.51 314.288 279.403 313.872C279.307 313.445 279.232 313.115 279.179 312.88H279.115C279.072 313.115 279.003 313.445 278.907 313.872C278.811 314.288 278.688 314.72 278.539 315.168L277.003 319.984H275.403L273.051 311.408H274.507L275.691 315.984C275.808 316.443 275.92 316.907 276.027 317.376C276.134 317.845 276.208 318.235 276.251 318.544H276.315C276.358 318.363 276.406 318.139 276.459 317.872C276.523 317.605 276.592 317.328 276.667 317.04C276.742 316.741 276.816 316.475 276.891 316.24L278.411 311.408H279.947L281.419 316.24C281.536 316.603 281.648 316.997 281.755 317.424C281.872 317.851 281.952 318.219 281.995 318.528H282.059C282.091 318.261 282.16 317.893 282.267 317.424C282.384 316.955 282.507 316.475 282.635 315.984L283.835 311.408H285.275L282.891 319.984H281.243ZM290.061 311.28C291.106 311.28 291.88 311.509 292.381 311.968C292.882 312.427 293.133 313.157 293.133 314.16V320H292.109L291.837 318.784H291.773C291.4 319.253 291.005 319.6 290.589 319.824C290.184 320.048 289.618 320.16 288.893 320.16C288.114 320.16 287.469 319.957 286.957 319.552C286.445 319.136 286.189 318.491 286.189 317.616C286.189 316.763 286.525 316.107 287.197 315.648C287.869 315.179 288.904 314.923 290.301 314.88L291.757 314.832V314.32C291.757 313.605 291.602 313.109 291.293 312.832C290.984 312.555 290.546 312.416 289.981 312.416C289.533 312.416 289.106 312.485 288.701 312.624C288.296 312.752 287.917 312.901 287.565 313.072L287.133 312.016C287.506 311.813 287.949 311.643 288.461 311.504C288.973 311.355 289.506 311.28 290.061 311.28ZM291.741 315.808L290.477 315.856C289.41 315.899 288.669 316.069 288.253 316.368C287.848 316.667 287.645 317.088 287.645 317.632C287.645 318.112 287.789 318.464 288.077 318.688C288.376 318.912 288.754 319.024 289.213 319.024C289.938 319.024 290.541 318.827 291.021 318.432C291.501 318.027 291.741 317.408 291.741 316.576V315.808ZM299.782 311.264C299.942 311.264 300.113 311.275 300.294 311.296C300.486 311.307 300.651 311.328 300.79 311.36L300.614 312.656C300.475 312.624 300.321 312.597 300.15 312.576C299.99 312.555 299.835 312.544 299.686 312.544C299.249 312.544 298.838 312.667 298.454 312.912C298.07 313.147 297.761 313.483 297.526 313.92C297.302 314.347 297.19 314.848 297.19 315.424V320H295.782V311.424H296.934L297.094 312.992H297.158C297.435 312.523 297.793 312.117 298.23 311.776C298.667 311.435 299.185 311.264 299.782 311.264ZM305.391 311.264C306.127 311.264 306.756 311.424 307.279 311.744C307.812 312.064 308.217 312.517 308.495 313.104C308.783 313.68 308.927 314.357 308.927 315.136V315.984H303.055C303.076 316.955 303.321 317.696 303.791 318.208C304.271 318.709 304.937 318.96 305.791 318.96C306.335 318.96 306.815 318.912 307.231 318.816C307.657 318.709 308.095 318.56 308.543 318.368V319.6C308.105 319.792 307.673 319.931 307.247 320.016C306.82 320.112 306.313 320.16 305.727 320.16C304.916 320.16 304.196 319.995 303.567 319.664C302.948 319.333 302.463 318.843 302.111 318.192C301.769 317.531 301.599 316.725 301.599 315.776C301.599 314.837 301.753 314.032 302.063 313.36C302.383 312.688 302.825 312.171 303.391 311.808C303.967 311.445 304.633 311.264 305.391 311.264ZM305.375 312.416C304.703 312.416 304.169 312.635 303.775 313.072C303.391 313.499 303.161 314.096 303.087 314.864H307.455C307.444 314.139 307.273 313.552 306.943 313.104C306.612 312.645 306.089 312.416 305.375 312.416ZM119.452 341.28C120.497 341.28 121.27 341.509 121.772 341.968C122.273 342.427 122.524 343.157 122.524 344.16V350H121.5L121.228 348.784H121.164C120.79 349.253 120.396 349.6 119.98 349.824C119.574 350.048 119.009 350.16 118.284 350.16C117.505 350.16 116.86 349.957 116.348 349.552C115.836 349.136 115.58 348.491 115.58 347.616C115.58 346.763 115.916 346.107 116.588 345.648C117.26 345.179 118.294 344.923 119.692 344.88L121.148 344.832V344.32C121.148 343.605 120.993 343.109 120.684 342.832C120.374 342.555 119.937 342.416 119.372 342.416C118.924 342.416 118.497 342.485 118.092 342.624C117.686 342.752 117.308 342.901 116.956 343.072L116.524 342.016C116.897 341.813 117.34 341.643 117.852 341.504C118.364 341.355 118.897 341.28 119.452 341.28ZM121.132 345.808L119.868 345.856C118.801 345.899 118.06 346.069 117.644 346.368C117.238 346.667 117.036 347.088 117.036 347.632C117.036 348.112 117.18 348.464 117.468 348.688C117.766 348.912 118.145 349.024 118.604 349.024C119.329 349.024 119.932 348.827 120.412 348.432C120.892 348.027 121.132 347.408 121.132 346.576V345.808ZM129.301 341.264C130.325 341.264 131.098 341.515 131.621 342.016C132.143 342.507 132.405 343.307 132.405 344.416V350H131.013V344.512C131.013 343.136 130.373 342.448 129.093 342.448C128.143 342.448 127.487 342.715 127.125 343.248C126.762 343.781 126.581 344.549 126.581 345.552V350H125.173V341.424H126.309L126.517 342.592H126.597C126.874 342.144 127.258 341.813 127.749 341.6C128.239 341.376 128.757 341.264 129.301 341.264ZM138.103 350.16C137.036 350.16 136.183 349.792 135.543 349.056C134.903 348.309 134.583 347.2 134.583 345.728C134.583 344.256 134.903 343.147 135.543 342.4C136.194 341.643 137.052 341.264 138.119 341.264C138.78 341.264 139.319 341.387 139.735 341.632C140.162 341.877 140.508 342.176 140.775 342.528H140.871C140.86 342.389 140.839 342.187 140.807 341.92C140.786 341.643 140.775 341.424 140.775 341.264V337.84H142.183V350H141.047L140.839 348.848H140.775C140.519 349.211 140.178 349.52 139.751 349.776C139.324 350.032 138.775 350.16 138.103 350.16ZM138.327 348.992C139.234 348.992 139.868 348.747 140.231 348.256C140.604 347.755 140.791 347.003 140.791 346V345.744C140.791 344.677 140.615 343.861 140.263 343.296C139.911 342.72 139.26 342.432 138.311 342.432C137.554 342.432 136.983 342.736 136.599 343.344C136.226 343.941 136.039 344.747 136.039 345.76C136.039 346.784 136.226 347.579 136.599 348.144C136.983 348.709 137.559 348.992 138.327 348.992ZM150.471 337.84V341.408C150.471 341.835 150.444 342.235 150.391 342.608H150.487C150.764 342.171 151.138 341.84 151.607 341.616C152.087 341.392 152.604 341.28 153.159 341.28C154.204 341.28 154.988 341.531 155.511 342.032C156.034 342.523 156.295 343.317 156.295 344.416V350H154.903V344.512C154.903 343.136 154.263 342.448 152.983 342.448C152.023 342.448 151.362 342.72 150.999 343.264C150.647 343.797 150.471 344.565 150.471 345.568V350H149.063V337.84H150.471ZM162.202 341.28C163.247 341.28 164.02 341.509 164.522 341.968C165.023 342.427 165.274 343.157 165.274 344.16V350H164.25L163.978 348.784H163.914C163.54 349.253 163.146 349.6 162.73 349.824C162.324 350.048 161.759 350.16 161.034 350.16C160.255 350.16 159.61 349.957 159.098 349.552C158.586 349.136 158.33 348.491 158.33 347.616C158.33 346.763 158.666 346.107 159.338 345.648C160.01 345.179 161.044 344.923 162.442 344.88L163.898 344.832V344.32C163.898 343.605 163.743 343.109 163.434 342.832C163.124 342.555 162.687 342.416 162.122 342.416C161.674 342.416 161.247 342.485 160.842 342.624C160.436 342.752 160.058 342.901 159.706 343.072L159.274 342.016C159.647 341.813 160.09 341.643 160.602 341.504C161.114 341.355 161.647 341.28 162.202 341.28ZM163.882 345.808L162.618 345.856C161.551 345.899 160.81 346.069 160.394 346.368C159.988 346.667 159.786 347.088 159.786 347.632C159.786 348.112 159.93 348.464 160.218 348.688C160.516 348.912 160.895 349.024 161.354 349.024C162.079 349.024 162.682 348.827 163.162 348.432C163.642 348.027 163.882 347.408 163.882 346.576V345.808ZM171.923 341.264C172.083 341.264 172.253 341.275 172.435 341.296C172.627 341.307 172.792 341.328 172.931 341.36L172.755 342.656C172.616 342.624 172.461 342.597 172.291 342.576C172.131 342.555 171.976 342.544 171.827 342.544C171.389 342.544 170.979 342.667 170.595 342.912C170.211 343.147 169.901 343.483 169.667 343.92C169.443 344.347 169.331 344.848 169.331 345.424V350H167.923V341.424H169.075L169.235 342.992H169.299C169.576 342.523 169.933 342.117 170.371 341.776C170.808 341.435 171.325 341.264 171.923 341.264ZM177.259 350.16C176.193 350.16 175.339 349.792 174.699 349.056C174.059 348.309 173.739 347.2 173.739 345.728C173.739 344.256 174.059 343.147 174.699 342.4C175.35 341.643 176.209 341.264 177.275 341.264C177.937 341.264 178.475 341.387 178.891 341.632C179.318 341.877 179.665 342.176 179.931 342.528H180.027C180.017 342.389 179.995 342.187 179.963 341.92C179.942 341.643 179.931 341.424 179.931 341.264V337.84H181.339V350H180.203L179.995 348.848H179.931C179.675 349.211 179.334 349.52 178.907 349.776C178.481 350.032 177.931 350.16 177.259 350.16ZM177.483 348.992C178.39 348.992 179.025 348.747 179.387 348.256C179.761 347.755 179.947 347.003 179.947 346V345.744C179.947 344.677 179.771 343.861 179.419 343.296C179.067 342.72 178.417 342.432 177.467 342.432C176.71 342.432 176.139 342.736 175.755 343.344C175.382 343.941 175.195 344.747 175.195 345.76C175.195 346.784 175.382 347.579 175.755 348.144C176.139 348.709 176.715 348.992 177.483 348.992ZM191.071 349.984L189.599 345.152C189.46 344.715 189.338 344.288 189.231 343.872C189.135 343.445 189.06 343.115 189.007 342.88H188.943C188.9 343.115 188.831 343.445 188.735 343.872C188.639 344.288 188.516 344.72 188.367 345.168L186.831 349.984H185.231L182.879 341.408H184.335L185.519 345.984C185.636 346.443 185.748 346.907 185.855 347.376C185.962 347.845 186.036 348.235 186.079 348.544H186.143C186.186 348.363 186.234 348.139 186.287 347.872C186.351 347.605 186.42 347.328 186.495 347.04C186.57 346.741 186.644 346.475 186.719 346.24L188.239 341.408H189.775L191.247 346.24C191.364 346.603 191.476 346.997 191.583 347.424C191.7 347.851 191.78 348.219 191.823 348.528H191.887C191.919 348.261 191.988 347.893 192.095 347.424C192.212 346.955 192.335 346.475 192.463 345.984L193.663 341.408H195.103L192.719 349.984H191.071ZM199.889 341.28C200.935 341.28 201.708 341.509 202.209 341.968C202.711 342.427 202.961 343.157 202.961 344.16V350H201.937L201.665 348.784H201.601C201.228 349.253 200.833 349.6 200.417 349.824C200.012 350.048 199.447 350.16 198.721 350.16C197.943 350.16 197.297 349.957 196.785 349.552C196.273 349.136 196.017 348.491 196.017 347.616C196.017 346.763 196.353 346.107 197.025 345.648C197.697 345.179 198.732 344.923 200.129 344.88L201.585 344.832V344.32C201.585 343.605 201.431 343.109 201.121 342.832C200.812 342.555 200.375 342.416 199.809 342.416C199.361 342.416 198.935 342.485 198.529 342.624C198.124 342.752 197.745 342.901 197.393 343.072L196.961 342.016C197.335 341.813 197.777 341.643 198.289 341.504C198.801 341.355 199.335 341.28 199.889 341.28ZM201.569 345.808L200.305 345.856C199.239 345.899 198.497 346.069 198.081 346.368C197.676 346.667 197.473 347.088 197.473 347.632C197.473 348.112 197.617 348.464 197.905 348.688C198.204 348.912 198.583 349.024 199.041 349.024C199.767 349.024 200.369 348.827 200.849 348.432C201.329 348.027 201.569 347.408 201.569 346.576V345.808ZM209.61 341.264C209.77 341.264 209.941 341.275 210.122 341.296C210.314 341.307 210.479 341.328 210.618 341.36L210.442 342.656C210.303 342.624 210.149 342.597 209.978 342.576C209.818 342.555 209.663 342.544 209.514 342.544C209.077 342.544 208.666 342.667 208.282 342.912C207.898 343.147 207.589 343.483 207.354 343.92C207.13 344.347 207.018 344.848 207.018 345.424V350H205.61V341.424H206.762L206.922 342.992H206.986C207.263 342.523 207.621 342.117 208.058 341.776C208.495 341.435 209.013 341.264 209.61 341.264ZM215.219 341.264C215.955 341.264 216.584 341.424 217.107 341.744C217.64 342.064 218.046 342.517 218.323 343.104C218.611 343.68 218.755 344.357 218.755 345.136V345.984H212.883C212.904 346.955 213.15 347.696 213.619 348.208C214.099 348.709 214.766 348.96 215.619 348.96C216.163 348.96 216.643 348.912 217.059 348.816C217.486 348.709 217.923 348.56 218.371 348.368V349.6C217.934 349.792 217.502 349.931 217.075 350.016C216.648 350.112 216.142 350.16 215.555 350.16C214.744 350.16 214.024 349.995 213.395 349.664C212.776 349.333 212.291 348.843 211.939 348.192C211.598 347.531 211.427 346.725 211.427 345.776C211.427 344.837 211.582 344.032 211.891 343.36C212.211 342.688 212.654 342.171 213.219 341.808C213.795 341.445 214.462 341.264 215.219 341.264ZM215.203 342.416C214.531 342.416 213.998 342.635 213.603 343.072C213.219 343.499 212.99 344.096 212.915 344.864H217.283C217.272 344.139 217.102 343.552 216.771 343.104C216.44 342.645 215.918 342.416 215.203 342.416ZM227.958 349.008C228.172 349.008 228.39 348.992 228.614 348.96C228.838 348.917 229.02 348.875 229.158 348.832V349.904C229.009 349.979 228.796 350.037 228.518 350.08C228.241 350.133 227.974 350.16 227.718 350.16C227.27 350.16 226.854 350.085 226.47 349.936C226.097 349.776 225.793 349.504 225.558 349.12C225.324 348.736 225.206 348.197 225.206 347.504V342.512H223.99V341.84L225.222 341.28L225.782 339.456H226.614V341.424H229.094V342.512H226.614V347.472C226.614 347.995 226.737 348.384 226.982 348.64C227.238 348.885 227.564 349.008 227.958 349.008ZM234.188 341.264C234.924 341.264 235.553 341.424 236.076 341.744C236.609 342.064 237.014 342.517 237.292 343.104C237.58 343.68 237.724 344.357 237.724 345.136V345.984H231.852C231.873 346.955 232.118 347.696 232.588 348.208C233.068 348.709 233.734 348.96 234.588 348.96C235.132 348.96 235.612 348.912 236.028 348.816C236.454 348.709 236.892 348.56 237.34 348.368V349.6C236.902 349.792 236.47 349.931 236.044 350.016C235.617 350.112 235.11 350.16 234.524 350.16C233.713 350.16 232.993 349.995 232.364 349.664C231.745 349.333 231.26 348.843 230.908 348.192C230.566 347.531 230.396 346.725 230.396 345.776C230.396 344.837 230.55 344.032 230.86 343.36C231.18 342.688 231.622 342.171 232.188 341.808C232.764 341.445 233.43 341.264 234.188 341.264ZM234.172 342.416C233.5 342.416 232.966 342.635 232.572 343.072C232.188 343.499 231.958 344.096 231.884 344.864H236.252C236.241 344.139 236.07 343.552 235.74 343.104C235.409 342.645 234.886 342.416 234.172 342.416ZM243.347 350.16C242.59 350.16 241.912 350.005 241.315 349.696C240.728 349.387 240.264 348.907 239.923 348.256C239.592 347.605 239.427 346.773 239.427 345.76C239.427 344.704 239.603 343.845 239.955 343.184C240.307 342.523 240.782 342.037 241.379 341.728C241.987 341.419 242.675 341.264 243.443 341.264C243.88 341.264 244.302 341.312 244.707 341.408C245.112 341.493 245.443 341.6 245.699 341.728L245.267 342.896C245.011 342.8 244.712 342.709 244.371 342.624C244.03 342.539 243.71 342.496 243.411 342.496C241.726 342.496 240.883 343.579 240.883 345.744C240.883 346.779 241.086 347.573 241.491 348.128C241.907 348.672 242.52 348.944 243.331 348.944C243.8 348.944 244.211 348.896 244.563 348.8C244.926 348.704 245.256 348.587 245.555 348.448V349.696C245.267 349.845 244.947 349.957 244.595 350.032C244.254 350.117 243.838 350.16 243.347 350.16ZM249.002 337.84V341.408C249.002 341.835 248.976 342.235 248.922 342.608H249.018C249.296 342.171 249.669 341.84 250.138 341.616C250.618 341.392 251.136 341.28 251.69 341.28C252.736 341.28 253.52 341.531 254.042 342.032C254.565 342.523 254.826 343.317 254.826 344.416V350H253.434V344.512C253.434 343.136 252.794 342.448 251.514 342.448C250.554 342.448 249.893 342.72 249.53 343.264C249.178 343.797 249.002 344.565 249.002 345.568V350H247.594V337.84H249.002ZM261.613 341.264C262.637 341.264 263.41 341.515 263.933 342.016C264.456 342.507 264.717 343.307 264.717 344.416V350H263.325V344.512C263.325 343.136 262.685 342.448 261.405 342.448C260.456 342.448 259.8 342.715 259.437 343.248C259.074 343.781 258.893 344.549 258.893 345.552V350H257.485V341.424H258.621L258.829 342.592H258.909C259.186 342.144 259.57 341.813 260.061 341.6C260.552 341.376 261.069 341.264 261.613 341.264ZM274.832 345.696C274.832 347.115 274.469 348.213 273.744 348.992C273.029 349.771 272.058 350.16 270.832 350.16C270.074 350.16 269.397 349.989 268.8 349.648C268.213 349.296 267.749 348.789 267.408 348.128C267.066 347.456 266.896 346.645 266.896 345.696C266.896 344.277 267.253 343.184 267.968 342.416C268.682 341.648 269.653 341.264 270.88 341.264C271.658 341.264 272.341 341.44 272.928 341.792C273.525 342.133 273.989 342.635 274.32 343.296C274.661 343.947 274.832 344.747 274.832 345.696ZM268.352 345.696C268.352 346.709 268.549 347.515 268.944 348.112C269.349 348.699 269.989 348.992 270.864 348.992C271.728 348.992 272.362 348.699 272.768 348.112C273.173 347.515 273.376 346.709 273.376 345.696C273.376 344.683 273.173 343.888 272.768 343.312C272.362 342.736 271.722 342.448 270.848 342.448C269.973 342.448 269.338 342.736 268.944 343.312C268.549 343.888 268.352 344.683 268.352 345.696ZM278.471 350H277.063V337.84H278.471V350ZM288.644 345.696C288.644 347.115 288.281 348.213 287.556 348.992C286.841 349.771 285.871 350.16 284.644 350.16C283.887 350.16 283.209 349.989 282.612 349.648C282.025 349.296 281.561 348.789 281.22 348.128C280.879 347.456 280.708 346.645 280.708 345.696C280.708 344.277 281.065 343.184 281.78 342.416C282.495 341.648 283.465 341.264 284.692 341.264C285.471 341.264 286.153 341.44 286.74 341.792C287.337 342.133 287.801 342.635 288.132 343.296C288.473 343.947 288.644 344.747 288.644 345.696ZM282.164 345.696C282.164 346.709 282.361 347.515 282.756 348.112C283.161 348.699 283.801 348.992 284.676 348.992C285.54 348.992 286.175 348.699 286.58 348.112C286.985 347.515 287.188 346.709 287.188 345.696C287.188 344.683 286.985 343.888 286.58 343.312C286.175 342.736 285.535 342.448 284.66 342.448C283.785 342.448 283.151 342.736 282.756 343.312C282.361 343.888 282.164 344.683 282.164 345.696ZM293.916 341.264C294.481 341.264 294.988 341.371 295.436 341.584C295.894 341.797 296.284 342.123 296.604 342.56H296.684L296.876 341.424H297.996V350.144C297.996 351.371 297.681 352.293 297.052 352.912C296.433 353.531 295.468 353.84 294.156 353.84C292.897 353.84 291.868 353.659 291.068 353.296V352C291.91 352.448 292.966 352.672 294.236 352.672C294.972 352.672 295.548 352.453 295.964 352.016C296.39 351.589 296.604 351.003 296.604 350.256V349.92C296.604 349.792 296.609 349.611 296.62 349.376C296.63 349.131 296.641 348.96 296.652 348.864H296.588C296.012 349.728 295.126 350.16 293.932 350.16C292.822 350.16 291.953 349.771 291.324 348.992C290.705 348.213 290.396 347.125 290.396 345.728C290.396 344.363 290.705 343.28 291.324 342.48C291.953 341.669 292.817 341.264 293.916 341.264ZM294.108 342.448C293.393 342.448 292.838 342.736 292.444 343.312C292.049 343.877 291.852 344.688 291.852 345.744C291.852 346.8 292.044 347.611 292.428 348.176C292.822 348.731 293.393 349.008 294.14 349.008C295.004 349.008 295.633 348.779 296.028 348.32C296.422 347.851 296.62 347.099 296.62 346.064V345.728C296.62 344.555 296.417 343.717 296.012 343.216C295.606 342.704 294.972 342.448 294.108 342.448ZM299.375 341.424H300.879L302.735 346.304C302.895 346.731 303.039 347.141 303.167 347.536C303.295 347.92 303.391 348.288 303.455 348.64H303.519C303.583 348.373 303.685 348.027 303.823 347.6C303.962 347.163 304.106 346.725 304.255 346.288L305.999 341.424H307.519L303.823 351.184C303.525 351.995 303.135 352.64 302.655 353.12C302.186 353.6 301.535 353.84 300.703 353.84C300.447 353.84 300.223 353.824 300.031 353.792C299.839 353.771 299.674 353.744 299.535 353.712V352.592C299.653 352.613 299.791 352.635 299.951 352.656C300.122 352.677 300.298 352.688 300.479 352.688C300.97 352.688 301.365 352.549 301.663 352.272C301.973 351.995 302.213 351.627 302.383 351.168L302.831 350.032L299.375 341.424ZM308.027 349.136C308.027 348.741 308.123 348.464 308.315 348.304C308.507 348.144 308.736 348.064 309.003 348.064C309.28 348.064 309.515 348.144 309.707 348.304C309.91 348.464 310.011 348.741 310.011 349.136C310.011 349.52 309.91 349.797 309.707 349.968C309.515 350.139 309.28 350.224 309.003 350.224C308.736 350.224 308.507 350.139 308.315 349.968C308.123 349.797 308.027 349.52 308.027 349.136Z" fill="#A4A4A4"/>
<defs>
<filter id="filter0_d_447_4" x="0.910453" y="0.910453" width="437.478" height="485.478" filterUnits="userSpaceOnUse" color-interpolation-filters="sRGB">
<feFlood flood-opacity="0" result="BackgroundImageFix"/>
<feColorMatrix in="SourceAlpha" type="matrix" values="0 0 0 0 0 0 0 0 0 0 0 0 0 0 0 0 0 0 127 0" result="hardAlpha"/>
<feOffset dx="6.14925" dy="6.14925"/>
<feGaussianBlur stdDeviation="46.1194"/>
<feColorMatrix type="matrix" values="0 0 0 0 0.313726 0 0 0 0 0.317647 0 0 0 0 0.858824 0 0 0 0.08 0"/>
<feBlend mode="normal" in2="BackgroundImageFix" result="effect1_dropShadow_447_4"/>
<feBlend mode="normal" in="SourceGraphic" in2="effect1_dropShadow_447_4" result="shape"/>
</filter>
</defs>
</svg>
