<svg width="673" height="744" viewBox="0 0 673 744" fill="none" xmlns="http://www.w3.org/2000/svg">
<rect width="673" height="744" fill="#E5E5E5"/>
<g clip-path="url(#clip0_0_1)">
<rect width="1440" height="4084" transform="translate(-90 -2052)" fill="white"/>
<g filter="url(#filter0_d_0_1)">
<rect x="668" y="94" width="588" height="650" rx="6" fill="white"/>
</g>
<g filter="url(#filter1_d_0_1)">
<rect width="673" height="743.963" rx="6.86735" fill="white"/>
</g>
<rect y="736" width="673" height="8" rx="2" fill="#5051DB"/>
<circle cx="68.1011" cy="677.006" r="36.0536" fill="#5051DB"/>
<path d="M51.5049 677.006H84.6971M84.6971 677.006L76.1129 667.277M84.6971 677.006L76.1129 687.879" stroke="white" stroke-width="3.43367"/>
<path d="M56.706 503.663V512.123C56.706 513.027 56.5107 513.845 56.12 514.577C55.7416 515.298 55.1616 515.871 54.3803 516.299C53.5989 516.714 52.61 516.921 51.4136 516.921C49.7166 516.921 48.4286 516.482 47.5496 515.603C46.6706 514.712 46.231 513.54 46.231 512.087V503.663H48.5751V511.849C48.5751 512.923 48.8193 513.704 49.3076 514.193C49.796 514.681 50.5224 514.925 51.4869 514.925C52.5002 514.925 53.2327 514.663 53.6844 514.138C54.1483 513.601 54.3803 512.831 54.3803 511.83V503.663H56.706ZM58.9415 512.801V510.86H63.593V512.801H58.9415ZM69.8785 516.738H67.5344V505.641H63.7803V503.663H73.6326V505.641H69.8785V516.738ZM79.7035 506.629C79.8622 506.629 80.0331 506.636 80.2163 506.648C80.4116 506.66 80.5764 506.684 80.7107 506.721L80.5093 508.864C80.3872 508.839 80.2407 508.821 80.0698 508.809C79.8988 508.784 79.7462 508.772 79.6119 508.772C79.1236 508.772 78.6658 508.876 78.2385 509.083C77.8112 509.279 77.4632 509.59 77.1946 510.017C76.9382 510.432 76.8101 510.957 76.8101 511.592V516.738H74.5026V506.813H76.279L76.6086 508.534H76.7185C77.0115 508.009 77.4144 507.563 77.9271 507.197C78.4399 506.819 79.032 506.629 79.7035 506.629ZM86.1482 506.629C87.4301 506.629 88.4007 506.91 89.06 507.472C89.7314 508.033 90.0672 508.9 90.0672 510.072V516.738H88.4373L87.9795 515.365H87.9063C87.479 515.902 87.0272 516.299 86.5511 516.555C86.075 516.799 85.4279 516.921 84.6099 516.921C83.7187 516.921 82.9801 516.671 82.3941 516.17C81.8081 515.67 81.515 514.895 81.515 513.845C81.515 512.819 81.8874 512.05 82.6321 511.537C83.3891 511.025 84.5306 510.738 86.0567 510.677L87.7781 510.622V510.127C87.7781 509.505 87.6255 509.059 87.3202 508.79C87.015 508.51 86.5877 508.369 86.0383 508.369C85.5378 508.369 85.0555 508.442 84.5916 508.589C84.1399 508.735 83.6882 508.906 83.2365 509.102L82.5039 507.49C82.9923 507.234 83.5478 507.026 84.1704 506.867C84.8053 506.709 85.4645 506.629 86.1482 506.629ZM87.7781 512.05L86.5694 512.087C85.5561 512.123 84.8541 512.3 84.4634 512.618C84.0728 512.923 83.8774 513.338 83.8774 513.863C83.8774 514.339 84.0117 514.681 84.2803 514.889C84.5611 515.084 84.9274 515.182 85.3791 515.182C86.0505 515.182 86.6182 514.992 87.0822 514.614C87.5461 514.223 87.7781 513.649 87.7781 512.892V512.05ZM96.9692 516.921C95.5407 516.921 94.4176 516.512 93.5996 515.694C92.7816 514.876 92.3726 513.588 92.3726 511.83C92.3726 510.609 92.574 509.621 92.9769 508.864C93.392 508.094 93.9597 507.533 94.68 507.179C95.4003 506.813 96.2244 506.629 97.1523 506.629C97.7749 506.629 98.3304 506.69 98.8188 506.813C99.3071 506.935 99.7222 507.081 100.064 507.252L99.3865 509.065C99.008 508.919 98.6295 508.796 98.2511 508.699C97.8726 508.589 97.5063 508.534 97.1523 508.534C95.5407 508.534 94.735 509.627 94.735 511.812C94.735 512.874 94.9364 513.674 95.3393 514.211C95.7544 514.748 96.3465 515.017 97.1157 515.017C97.665 515.017 98.1534 514.95 98.5807 514.815C99.008 514.681 99.417 514.498 99.8077 514.266V516.262C99.4292 516.482 99.0202 516.647 98.5807 516.756C98.1534 516.866 97.6162 516.921 96.9692 516.921ZM104.422 502.82V509.431C104.422 509.749 104.41 510.084 104.385 510.439C104.361 510.793 104.337 511.128 104.312 511.446H104.367C104.514 511.226 104.697 510.976 104.917 510.695C105.136 510.414 105.344 510.164 105.539 509.944L108.469 506.813H111.088L107.114 511.098L111.344 516.738H108.652L105.576 512.49L104.422 513.442V516.738H102.133V502.82H104.422ZM118.81 502.985C119.164 502.985 119.463 503.077 119.707 503.26C119.963 503.431 120.092 503.742 120.092 504.194C120.092 504.646 119.963 504.963 119.707 505.146C119.463 505.329 119.164 505.421 118.81 505.421C118.456 505.421 118.15 505.329 117.894 505.146C117.65 504.963 117.528 504.646 117.528 504.194C117.528 503.742 117.65 503.431 117.894 503.26C118.15 503.077 118.456 502.985 118.81 502.985ZM119.963 506.813V516.738H117.656V506.813H119.963ZM129.671 513.863C129.671 514.864 129.311 515.627 128.591 516.152C127.883 516.665 126.863 516.921 125.533 516.921C124.837 516.921 124.238 516.872 123.738 516.775C123.25 516.677 122.773 516.525 122.31 516.317V514.357C122.798 514.589 123.335 514.785 123.921 514.943C124.519 515.102 125.081 515.182 125.606 515.182C126.241 515.182 126.699 515.084 126.979 514.889C127.26 514.693 127.401 514.431 127.401 514.101C127.401 513.906 127.346 513.735 127.236 513.588C127.126 513.43 126.906 513.259 126.576 513.076C126.259 512.892 125.783 512.667 125.148 512.398C124.513 512.154 123.982 511.904 123.555 511.647C123.14 511.379 122.822 511.067 122.603 510.713C122.395 510.359 122.291 509.901 122.291 509.34C122.291 508.449 122.639 507.777 123.335 507.325C124.043 506.861 124.983 506.629 126.155 506.629C126.766 506.629 127.339 506.69 127.877 506.813C128.426 506.935 128.975 507.118 129.525 507.362L128.792 509.065C128.328 508.87 127.877 508.705 127.437 508.571C126.998 508.436 126.546 508.369 126.082 508.369C125.069 508.369 124.562 508.656 124.562 509.23C124.562 509.437 124.623 509.614 124.745 509.761C124.879 509.907 125.105 510.066 125.423 510.237C125.752 510.396 126.216 510.591 126.815 510.823C127.401 511.055 127.907 511.299 128.334 511.556C128.762 511.8 129.091 512.105 129.323 512.471C129.555 512.838 129.671 513.301 129.671 513.863ZM140.604 506.629C141.886 506.629 142.857 506.91 143.516 507.472C144.187 508.033 144.523 508.9 144.523 510.072V516.738H142.893L142.435 515.365H142.362C141.935 515.902 141.483 516.299 141.007 516.555C140.531 516.799 139.884 516.921 139.066 516.921C138.175 516.921 137.436 516.671 136.85 516.17C136.264 515.67 135.971 514.895 135.971 513.845C135.971 512.819 136.343 512.05 137.088 511.537C137.845 511.025 138.986 510.738 140.513 510.677L142.234 510.622V510.127C142.234 509.505 142.081 509.059 141.776 508.79C141.471 508.51 141.044 508.369 140.494 508.369C139.994 508.369 139.511 508.442 139.048 508.589C138.596 508.735 138.144 508.906 137.692 509.102L136.96 507.49C137.448 507.234 138.004 507.026 138.626 506.867C139.261 506.709 139.92 506.629 140.604 506.629ZM142.234 512.05L141.025 512.087C140.012 512.123 139.31 512.3 138.919 512.618C138.529 512.923 138.333 513.338 138.333 513.863C138.333 514.339 138.468 514.681 138.736 514.889C139.017 515.084 139.383 515.182 139.835 515.182C140.506 515.182 141.074 514.992 141.538 514.614C142.002 514.223 142.234 513.649 142.234 512.892V512.05ZM152.725 506.629C153.836 506.629 154.703 506.916 155.326 507.49C155.961 508.064 156.278 508.992 156.278 510.274V516.738H153.971V510.732C153.971 509.242 153.36 508.497 152.139 508.497C151.211 508.497 150.577 508.79 150.235 509.376C149.893 509.962 149.722 510.799 149.722 511.885V516.738H147.415V506.813H149.191L149.521 508.113H149.649C149.966 507.6 150.4 507.228 150.949 506.996C151.511 506.752 152.103 506.629 152.725 506.629ZM172.785 511.757C172.785 513.405 172.357 514.681 171.503 515.584C170.648 516.476 169.488 516.921 168.023 516.921C167.12 516.921 166.314 516.72 165.606 516.317C164.898 515.914 164.342 515.328 163.94 514.559C163.537 513.79 163.335 512.856 163.335 511.757C163.335 510.109 163.756 508.845 164.599 507.966C165.453 507.075 166.613 506.629 168.078 506.629C168.994 506.629 169.806 506.831 170.514 507.234C171.222 507.624 171.777 508.204 172.18 508.973C172.583 509.73 172.785 510.658 172.785 511.757ZM165.698 511.757C165.698 512.807 165.881 513.619 166.247 514.193C166.625 514.766 167.23 515.053 168.06 515.053C168.89 515.053 169.488 514.766 169.855 514.193C170.233 513.619 170.422 512.807 170.422 511.757C170.422 510.707 170.233 509.901 169.855 509.34C169.488 508.778 168.884 508.497 168.042 508.497C167.224 508.497 166.625 508.778 166.247 509.34C165.881 509.901 165.698 510.707 165.698 511.757ZM180.481 506.629C181.592 506.629 182.459 506.916 183.081 507.49C183.716 508.064 184.034 508.992 184.034 510.274V516.738H181.726V510.732C181.726 509.242 181.116 508.497 179.895 508.497C178.967 508.497 178.332 508.79 177.99 509.376C177.648 509.962 177.477 510.799 177.477 511.885V516.738H175.17V506.813H176.946L177.276 508.113H177.404C177.722 507.6 178.155 507.228 178.704 506.996C179.266 506.752 179.858 506.629 180.481 506.629ZM194.955 516.921C193.795 516.921 192.861 516.488 192.153 515.621C191.445 514.754 191.091 513.478 191.091 511.794C191.091 510.084 191.451 508.796 192.171 507.93C192.891 507.063 193.838 506.629 195.01 506.629C195.742 506.629 196.34 506.77 196.804 507.051C197.28 507.331 197.659 507.673 197.94 508.076H198.05C198.013 507.905 197.976 507.643 197.94 507.289C197.903 506.935 197.885 506.605 197.885 506.3V502.82H200.192V516.738H198.398L197.976 515.438H197.885C197.604 515.853 197.232 516.207 196.768 516.5C196.304 516.781 195.699 516.921 194.955 516.921ZM195.651 515.053C196.505 515.053 197.103 514.809 197.445 514.321C197.799 513.833 197.982 513.094 197.995 512.105V511.812C197.995 510.75 197.824 509.938 197.482 509.376C197.152 508.803 196.53 508.516 195.614 508.516C194.906 508.516 194.363 508.809 193.984 509.395C193.618 509.968 193.435 510.78 193.435 511.83C193.435 512.88 193.624 513.68 194.002 514.229C194.381 514.779 194.93 515.053 195.651 515.053ZM207.132 506.629C208.463 506.629 209.513 507.026 210.282 507.82C211.064 508.613 211.454 509.718 211.454 511.134V512.306H204.898C204.923 513.21 205.173 513.912 205.649 514.412C206.125 514.901 206.784 515.145 207.627 515.145C208.262 515.145 208.836 515.084 209.348 514.962C209.861 514.828 210.386 514.638 210.923 514.394V516.244C210.435 516.476 209.928 516.647 209.403 516.756C208.878 516.866 208.25 516.921 207.517 516.921C206.553 516.921 205.692 516.738 204.935 516.372C204.19 515.993 203.604 515.426 203.177 514.669C202.762 513.912 202.554 512.972 202.554 511.849C202.554 510.152 202.975 508.857 203.818 507.966C204.66 507.075 205.765 506.629 207.132 506.629ZM207.132 508.333C206.51 508.333 206.003 508.534 205.612 508.937C205.234 509.328 205.014 509.914 204.953 510.695H209.22C209.208 510.011 209.031 509.45 208.689 509.01C208.359 508.558 207.841 508.333 207.132 508.333ZM225.153 506.629C226.277 506.629 227.119 506.916 227.681 507.49C228.254 508.064 228.541 508.992 228.541 510.274V516.738H226.234V510.713C226.234 509.236 225.672 508.497 224.549 508.497C223.743 508.497 223.169 508.76 222.828 509.285C222.486 509.81 222.315 510.573 222.315 511.574V516.738H220.007V510.713C220.007 509.236 219.44 508.497 218.304 508.497C217.462 508.497 216.882 508.79 216.565 509.376C216.247 509.962 216.088 510.799 216.088 511.885V516.738H213.781V506.813H215.557L215.887 508.113H216.015C216.308 507.6 216.717 507.228 217.242 506.996C217.779 506.752 218.335 506.629 218.909 506.629C219.653 506.629 220.276 506.758 220.777 507.014C221.289 507.258 221.68 507.643 221.949 508.168H222.132C222.437 507.631 222.864 507.24 223.414 506.996C223.963 506.752 224.543 506.629 225.153 506.629ZM235.388 506.629C236.67 506.629 237.64 506.91 238.3 507.472C238.971 508.033 239.307 508.9 239.307 510.072V516.738H237.677L237.219 515.365H237.146C236.719 515.902 236.267 516.299 235.791 516.555C235.315 516.799 234.668 516.921 233.85 516.921C232.958 516.921 232.22 516.671 231.634 516.17C231.048 515.67 230.755 514.895 230.755 513.845C230.755 512.819 231.127 512.05 231.872 511.537C232.629 511.025 233.77 510.738 235.296 510.677L237.018 510.622V510.127C237.018 509.505 236.865 509.059 236.56 508.79C236.255 508.51 235.827 508.369 235.278 508.369C234.777 508.369 234.295 508.442 233.831 508.589C233.38 508.735 232.928 508.906 232.476 509.102L231.744 507.49C232.232 507.234 232.787 507.026 233.41 506.867C234.045 506.709 234.704 506.629 235.388 506.629ZM237.018 512.05L235.809 512.087C234.796 512.123 234.094 512.3 233.703 512.618C233.312 512.923 233.117 513.338 233.117 513.863C233.117 514.339 233.251 514.681 233.52 514.889C233.801 515.084 234.167 515.182 234.619 515.182C235.29 515.182 235.858 514.992 236.322 514.614C236.786 514.223 237.018 513.649 237.018 512.892V512.05ZM247.509 506.629C248.62 506.629 249.487 506.916 250.109 507.49C250.744 508.064 251.062 508.992 251.062 510.274V516.738H248.754V510.732C248.754 509.242 248.144 508.497 246.923 508.497C245.995 508.497 245.36 508.79 245.018 509.376C244.677 509.962 244.506 510.799 244.506 511.885V516.738H242.198V506.813H243.975L244.304 508.113H244.432C244.75 507.6 245.183 507.228 245.733 506.996C246.294 506.752 246.886 506.629 247.509 506.629ZM257.226 516.921C256.066 516.921 255.132 516.488 254.424 515.621C253.716 514.754 253.362 513.478 253.362 511.794C253.362 510.084 253.722 508.796 254.442 507.93C255.163 507.063 256.109 506.629 257.281 506.629C258.013 506.629 258.612 506.77 259.075 507.051C259.552 507.331 259.93 507.673 260.211 508.076H260.321C260.284 507.905 260.248 507.643 260.211 507.289C260.174 506.935 260.156 506.605 260.156 506.3V502.82H262.463V516.738H260.669L260.248 515.438H260.156C259.875 515.853 259.503 516.207 259.039 516.5C258.575 516.781 257.971 516.921 257.226 516.921ZM257.922 515.053C258.776 515.053 259.375 514.809 259.716 514.321C260.07 513.833 260.254 513.094 260.266 512.105V511.812C260.266 510.75 260.095 509.938 259.753 509.376C259.423 508.803 258.801 508.516 257.885 508.516C257.177 508.516 256.634 508.809 256.255 509.395C255.889 509.968 255.706 510.78 255.706 511.83C255.706 512.88 255.895 513.68 256.274 514.229C256.652 514.779 257.201 515.053 257.922 515.053ZM274.179 516.921C272.75 516.921 271.627 516.512 270.809 515.694C269.991 514.876 269.582 513.588 269.582 511.83C269.582 510.609 269.784 509.621 270.187 508.864C270.602 508.094 271.169 507.533 271.89 507.179C272.61 506.813 273.434 506.629 274.362 506.629C274.985 506.629 275.54 506.69 276.029 506.813C276.517 506.935 276.932 507.081 277.274 507.252L276.596 509.065C276.218 508.919 275.839 508.796 275.461 508.699C275.082 508.589 274.716 508.534 274.362 508.534C272.75 508.534 271.945 509.627 271.945 511.812C271.945 512.874 272.146 513.674 272.549 514.211C272.964 514.748 273.556 515.017 274.325 515.017C274.875 515.017 275.363 514.95 275.79 514.815C276.218 514.681 276.627 514.498 277.017 514.266V516.262C276.639 516.482 276.23 516.647 275.79 516.756C275.363 516.866 274.826 516.921 274.179 516.921ZM281.65 516.738H279.343V502.82H281.65V516.738ZM293.464 511.757C293.464 513.405 293.037 514.681 292.182 515.584C291.327 516.476 290.168 516.921 288.703 516.921C287.799 516.921 286.993 516.72 286.285 516.317C285.577 515.914 285.022 515.328 284.619 514.559C284.216 513.79 284.015 512.856 284.015 511.757C284.015 510.109 284.436 508.845 285.278 507.966C286.133 507.075 287.293 506.629 288.758 506.629C289.673 506.629 290.485 506.831 291.193 507.234C291.901 507.624 292.457 508.204 292.86 508.973C293.263 509.73 293.464 510.658 293.464 511.757ZM286.377 511.757C286.377 512.807 286.56 513.619 286.926 514.193C287.305 514.766 287.909 515.053 288.739 515.053C289.569 515.053 290.168 514.766 290.534 514.193C290.912 513.619 291.102 512.807 291.102 511.757C291.102 510.707 290.912 509.901 290.534 509.34C290.168 508.778 289.563 508.497 288.721 508.497C287.903 508.497 287.305 508.778 286.926 509.34C286.56 509.901 286.377 510.707 286.377 511.757ZM304.658 506.813V516.738H302.845L302.534 515.456H302.424C302.094 515.969 301.648 516.341 301.087 516.573C300.538 516.805 299.952 516.921 299.329 516.921C298.218 516.921 297.345 516.634 296.71 516.061C296.087 515.487 295.776 514.565 295.776 513.295V506.813H298.084V512.838C298.084 514.315 298.694 515.053 299.915 515.053C300.843 515.053 301.478 514.766 301.819 514.193C302.173 513.607 302.35 512.764 302.35 511.665V506.813H304.658ZM310.877 516.921C309.717 516.921 308.783 516.488 308.075 515.621C307.367 514.754 307.013 513.478 307.013 511.794C307.013 510.084 307.373 508.796 308.093 507.93C308.814 507.063 309.76 506.629 310.932 506.629C311.664 506.629 312.263 506.77 312.727 507.051C313.203 507.331 313.581 507.673 313.862 508.076H313.972C313.935 507.905 313.899 507.643 313.862 507.289C313.825 506.935 313.807 506.605 313.807 506.3V502.82H316.115V516.738H314.32L313.899 515.438H313.807C313.526 515.853 313.154 516.207 312.69 516.5C312.226 516.781 311.622 516.921 310.877 516.921ZM311.573 515.053C312.428 515.053 313.026 514.809 313.368 514.321C313.722 513.833 313.905 513.094 313.917 512.105V511.812C313.917 510.75 313.746 509.938 313.404 509.376C313.075 508.803 312.452 508.516 311.536 508.516C310.828 508.516 310.285 508.809 309.906 509.395C309.54 509.968 309.357 510.78 309.357 511.83C309.357 512.88 309.546 513.68 309.925 514.229C310.303 514.779 310.853 515.053 311.573 515.053ZM327.83 516.921C326.402 516.921 325.278 516.512 324.46 515.694C323.643 514.876 323.234 513.588 323.234 511.83C323.234 510.609 323.435 509.621 323.838 508.864C324.253 508.094 324.821 507.533 325.541 507.179C326.261 506.813 327.085 506.629 328.013 506.629C328.636 506.629 329.191 506.69 329.68 506.813C330.168 506.935 330.583 507.081 330.925 507.252L330.247 509.065C329.869 508.919 329.49 508.796 329.112 508.699C328.733 508.589 328.367 508.534 328.013 508.534C326.402 508.534 325.596 509.627 325.596 511.812C325.596 512.874 325.797 513.674 326.2 514.211C326.615 514.748 327.207 515.017 327.977 515.017C328.526 515.017 329.014 514.95 329.442 514.815C329.869 514.681 330.278 514.498 330.669 514.266V516.262C330.29 516.482 329.881 516.647 329.442 516.756C329.014 516.866 328.477 516.921 327.83 516.921ZM341.857 511.757C341.857 513.405 341.43 514.681 340.575 515.584C339.721 516.476 338.561 516.921 337.096 516.921C336.193 516.921 335.387 516.72 334.679 516.317C333.971 515.914 333.415 515.328 333.012 514.559C332.609 513.79 332.408 512.856 332.408 511.757C332.408 510.109 332.829 508.845 333.671 507.966C334.526 507.075 335.686 506.629 337.151 506.629C338.067 506.629 338.878 506.831 339.587 507.234C340.295 507.624 340.85 508.204 341.253 508.973C341.656 509.73 341.857 510.658 341.857 511.757ZM334.77 511.757C334.77 512.807 334.953 513.619 335.32 514.193C335.698 514.766 336.302 515.053 337.133 515.053C337.963 515.053 338.561 514.766 338.927 514.193C339.306 513.619 339.495 512.807 339.495 511.757C339.495 510.707 339.306 509.901 338.927 509.34C338.561 508.778 337.957 508.497 337.114 508.497C336.296 508.497 335.698 508.778 335.32 509.34C334.953 509.901 334.77 510.707 334.77 511.757ZM355.615 506.629C356.738 506.629 357.581 506.916 358.142 507.49C358.716 508.064 359.003 508.992 359.003 510.274V516.738H356.696V510.713C356.696 509.236 356.134 508.497 355.011 508.497C354.205 508.497 353.631 508.76 353.289 509.285C352.947 509.81 352.777 510.573 352.777 511.574V516.738H350.469V510.713C350.469 509.236 349.901 508.497 348.766 508.497C347.924 508.497 347.344 508.79 347.026 509.376C346.709 509.962 346.55 510.799 346.55 511.885V516.738H344.243V506.813H346.019L346.349 508.113H346.477C346.77 507.6 347.179 507.228 347.704 506.996C348.241 506.752 348.797 506.629 349.37 506.629C350.115 506.629 350.738 506.758 351.238 507.014C351.751 507.258 352.142 507.643 352.41 508.168H352.593C352.899 507.631 353.326 507.24 353.875 506.996C354.425 506.752 355.005 506.629 355.615 506.629ZM367.113 506.629C368.273 506.629 369.207 507.063 369.915 507.93C370.623 508.784 370.977 510.06 370.977 511.757C370.977 513.454 370.611 514.742 369.878 515.621C369.158 516.488 368.218 516.921 367.058 516.921C366.326 516.921 365.734 516.787 365.282 516.518C364.83 516.25 364.47 515.938 364.201 515.584H364.055C364.092 515.816 364.122 516.073 364.146 516.354C364.183 516.622 364.201 516.872 364.201 517.104V521.133H361.894V506.813H363.762L364.092 508.131H364.201C364.47 507.716 364.836 507.362 365.3 507.069C365.764 506.776 366.368 506.629 367.113 506.629ZM366.454 508.497C365.636 508.497 365.056 508.742 364.714 509.23C364.385 509.718 364.214 510.457 364.201 511.446V511.739C364.201 512.801 364.36 513.619 364.678 514.193C365.007 514.754 365.611 515.035 366.491 515.035C367.211 515.035 367.742 514.742 368.084 514.156C368.438 513.558 368.615 512.746 368.615 511.72C368.615 510.695 368.438 509.901 368.084 509.34C367.742 508.778 367.199 508.497 366.454 508.497ZM382.166 506.813V516.738H380.353L380.042 515.456H379.932C379.602 515.969 379.157 516.341 378.595 516.573C378.046 516.805 377.46 516.921 376.837 516.921C375.726 516.921 374.853 516.634 374.218 516.061C373.595 515.487 373.284 514.565 373.284 513.295V506.813H375.592V512.838C375.592 514.315 376.202 515.053 377.423 515.053C378.351 515.053 378.986 514.766 379.327 514.193C379.681 513.607 379.859 512.764 379.859 511.665V506.813H382.166ZM388.953 515.072C389.234 515.072 389.508 515.047 389.777 514.998C390.058 514.937 390.314 514.87 390.546 514.797V516.518C390.302 516.628 389.984 516.72 389.594 516.793C389.203 516.879 388.794 516.921 388.367 516.921C387.805 516.921 387.292 516.83 386.828 516.647C386.365 516.451 385.998 516.122 385.73 515.658C385.461 515.194 385.327 514.547 385.327 513.717V508.552H383.99V507.545L385.455 506.739L386.187 504.633H387.634V506.813H390.454V508.552H387.634V513.698C387.634 514.162 387.756 514.51 388 514.742C388.245 514.962 388.562 515.072 388.953 515.072ZM393.7 502.985C394.054 502.985 394.354 503.077 394.598 503.26C394.854 503.431 394.982 503.742 394.982 504.194C394.982 504.646 394.854 504.963 394.598 505.146C394.354 505.329 394.054 505.421 393.7 505.421C393.346 505.421 393.041 505.329 392.785 505.146C392.541 504.963 392.418 504.646 392.418 504.194C392.418 503.742 392.541 503.431 392.785 503.26C393.041 503.077 393.346 502.985 393.7 502.985ZM394.854 506.813V516.738H392.547V506.813H394.854ZM403.115 506.629C404.226 506.629 405.093 506.916 405.716 507.49C406.351 508.064 406.668 508.992 406.668 510.274V516.738H404.361V510.732C404.361 509.242 403.75 508.497 402.529 508.497C401.601 508.497 400.967 508.79 400.625 509.376C400.283 509.962 400.112 510.799 400.112 511.885V516.738H397.804V506.813H399.581L399.91 508.113H400.039C400.356 507.6 400.789 507.228 401.339 506.996C401.9 506.752 402.493 506.629 403.115 506.629ZM412.887 506.629C414.145 506.629 415.127 507.118 415.835 508.094H415.927L416.147 506.813H418.07V516.811C418.07 518.228 417.667 519.302 416.861 520.034C416.067 520.767 414.877 521.133 413.29 521.133C412.582 521.133 411.929 521.084 411.33 520.987C410.732 520.901 410.165 520.749 409.627 520.529V518.624C410.763 519.137 412.032 519.394 413.436 519.394C414.193 519.394 414.767 519.18 415.158 518.753C415.561 518.337 415.762 517.727 415.762 516.921V516.665C415.762 516.482 415.768 516.268 415.78 516.024C415.793 515.78 415.811 515.584 415.835 515.438H415.762C415.42 515.951 414.999 516.329 414.499 516.573C414.01 516.805 413.455 516.921 412.832 516.921C411.623 516.921 410.677 516.47 409.994 515.566C409.31 514.663 408.968 513.405 408.968 511.794C408.968 510.182 409.31 508.919 409.994 508.003C410.689 507.087 411.654 506.629 412.887 506.629ZM413.491 508.516C412.051 508.516 411.33 509.621 411.33 511.83C411.33 514.003 412.063 515.09 413.528 515.09C414.334 515.09 414.926 514.87 415.304 514.431C415.695 513.979 415.89 513.222 415.89 512.16V511.812C415.89 510.64 415.695 509.798 415.304 509.285C414.926 508.772 414.322 508.516 413.491 508.516ZM432.532 513.863C432.532 514.864 432.172 515.627 431.452 516.152C430.744 516.665 429.724 516.921 428.393 516.921C427.697 516.921 427.099 516.872 426.599 516.775C426.11 516.677 425.634 516.525 425.17 516.317V514.357C425.659 514.589 426.196 514.785 426.782 514.943C427.38 515.102 427.942 515.182 428.467 515.182C429.101 515.182 429.559 515.084 429.84 514.889C430.121 514.693 430.261 514.431 430.261 514.101C430.261 513.906 430.206 513.735 430.096 513.588C429.987 513.43 429.767 513.259 429.437 513.076C429.12 512.892 428.644 512.667 428.009 512.398C427.374 512.154 426.843 511.904 426.416 511.647C426 511.379 425.683 511.067 425.463 510.713C425.256 510.359 425.152 509.901 425.152 509.34C425.152 508.449 425.5 507.777 426.196 507.325C426.904 506.861 427.844 506.629 429.016 506.629C429.626 506.629 430.2 506.69 430.737 506.813C431.287 506.935 431.836 507.118 432.386 507.362L431.653 509.065C431.189 508.87 430.737 508.705 430.298 508.571C429.858 508.436 429.407 508.369 428.943 508.369C427.929 508.369 427.423 508.656 427.423 509.23C427.423 509.437 427.484 509.614 427.606 509.761C427.74 509.907 427.966 510.066 428.283 510.237C428.613 510.396 429.077 510.591 429.675 510.823C430.261 511.055 430.768 511.299 431.195 511.556C431.623 511.8 431.952 512.105 432.184 512.471C432.416 512.838 432.532 513.301 432.532 513.863ZM443.616 511.757C443.616 513.405 443.188 514.681 442.334 515.584C441.479 516.476 440.319 516.921 438.854 516.921C437.951 516.921 437.145 516.72 436.437 516.317C435.729 515.914 435.173 515.328 434.771 514.559C434.368 513.79 434.166 512.856 434.166 511.757C434.166 510.109 434.587 508.845 435.43 507.966C436.284 507.075 437.444 506.629 438.909 506.629C439.825 506.629 440.637 506.831 441.345 507.234C442.053 507.624 442.608 508.204 443.011 508.973C443.414 509.73 443.616 510.658 443.616 511.757ZM436.529 511.757C436.529 512.807 436.712 513.619 437.078 514.193C437.456 514.766 438.061 515.053 438.891 515.053C439.721 515.053 440.319 514.766 440.686 514.193C441.064 513.619 441.253 512.807 441.253 511.757C441.253 510.707 441.064 509.901 440.686 509.34C440.319 508.778 439.715 508.497 438.873 508.497C438.055 508.497 437.456 508.778 437.078 509.34C436.712 509.901 436.529 510.707 436.529 511.757ZM448.309 516.738H446.001V502.82H448.309V516.738ZM460.067 506.813V516.738H458.254L457.943 515.456H457.833C457.504 515.969 457.058 516.341 456.496 516.573C455.947 516.805 455.361 516.921 454.738 516.921C453.627 516.921 452.754 516.634 452.12 516.061C451.497 515.487 451.186 514.565 451.186 513.295V506.813H453.493V512.838C453.493 514.315 454.104 515.053 455.324 515.053C456.252 515.053 456.887 514.766 457.229 514.193C457.583 513.607 457.76 512.764 457.76 511.665V506.813H460.067ZM466.854 515.072C467.135 515.072 467.41 515.047 467.678 514.998C467.959 514.937 468.215 514.87 468.447 514.797V516.518C468.203 516.628 467.886 516.72 467.495 516.793C467.104 516.879 466.695 516.921 466.268 516.921C465.707 516.921 465.194 516.83 464.73 516.647C464.266 516.451 463.9 516.122 463.631 515.658C463.363 515.194 463.228 514.547 463.228 513.717V508.552H461.891V507.545L463.356 506.739L464.089 504.633H465.536V506.813H468.356V508.552H465.536V513.698C465.536 514.162 465.658 514.51 465.902 514.742C466.146 514.962 466.464 515.072 466.854 515.072ZM471.602 502.985C471.956 502.985 472.255 503.077 472.499 503.26C472.756 503.431 472.884 503.742 472.884 504.194C472.884 504.646 472.756 504.963 472.499 505.146C472.255 505.329 471.956 505.421 471.602 505.421C471.248 505.421 470.943 505.329 470.686 505.146C470.442 504.963 470.32 504.646 470.32 504.194C470.32 503.742 470.442 503.431 470.686 503.26C470.943 503.077 471.248 502.985 471.602 502.985ZM472.756 506.813V516.738H470.448V506.813H472.756ZM484.569 511.757C484.569 513.405 484.142 514.681 483.287 515.584C482.433 516.476 481.273 516.921 479.808 516.921C478.905 516.921 478.099 516.72 477.391 516.317C476.683 515.914 476.127 515.328 475.724 514.559C475.321 513.79 475.12 512.856 475.12 511.757C475.12 510.109 475.541 508.845 476.384 507.966C477.238 507.075 478.398 506.629 479.863 506.629C480.779 506.629 481.59 506.831 482.299 507.234C483.007 507.624 483.562 508.204 483.965 508.973C484.368 509.73 484.569 510.658 484.569 511.757ZM477.482 511.757C477.482 512.807 477.665 513.619 478.032 514.193C478.41 514.766 479.014 515.053 479.845 515.053C480.675 515.053 481.273 514.766 481.639 514.193C482.018 513.619 482.207 512.807 482.207 511.757C482.207 510.707 482.018 509.901 481.639 509.34C481.273 508.778 480.669 508.497 479.826 508.497C479.008 508.497 478.41 508.778 478.032 509.34C477.665 509.901 477.482 510.707 477.482 511.757ZM492.266 506.629C493.377 506.629 494.243 506.916 494.866 507.49C495.501 508.064 495.818 508.992 495.818 510.274V516.738H493.511V510.732C493.511 509.242 492.9 508.497 491.68 508.497C490.752 508.497 490.117 508.79 489.775 509.376C489.433 509.962 489.262 510.799 489.262 511.885V516.738H486.955V506.813H488.731L489.061 508.113H489.189C489.506 507.6 489.94 507.228 490.489 506.996C491.051 506.752 491.643 506.629 492.266 506.629ZM508.607 508.552H506.208V516.738H503.901V508.552H502.308V507.454L503.901 506.794V506.117C503.901 504.847 504.2 503.968 504.798 503.48C505.409 502.979 506.239 502.729 507.289 502.729C507.765 502.729 508.198 502.771 508.589 502.857C508.992 502.93 509.322 503.016 509.578 503.113L508.992 504.835C508.784 504.774 508.552 504.719 508.296 504.67C508.052 504.609 507.783 504.578 507.49 504.578C507.051 504.578 506.727 504.719 506.52 505C506.312 505.268 506.208 505.659 506.208 506.172V506.813H508.607V508.552ZM519.121 511.757C519.121 513.405 518.693 514.681 517.839 515.584C516.984 516.476 515.824 516.921 514.359 516.921C513.456 516.921 512.65 516.72 511.942 516.317C511.234 515.914 510.679 515.328 510.276 514.559C509.873 513.79 509.671 512.856 509.671 511.757C509.671 510.109 510.092 508.845 510.935 507.966C511.789 507.075 512.949 506.629 514.414 506.629C515.33 506.629 516.142 506.831 516.85 507.234C517.558 507.624 518.114 508.204 518.516 508.973C518.919 509.73 519.121 510.658 519.121 511.757ZM512.034 511.757C512.034 512.807 512.217 513.619 512.583 514.193C512.962 514.766 513.566 515.053 514.396 515.053C515.226 515.053 515.824 514.766 516.191 514.193C516.569 513.619 516.758 512.807 516.758 511.757C516.758 510.707 516.569 509.901 516.191 509.34C515.824 508.778 515.22 508.497 514.378 508.497C513.56 508.497 512.962 508.778 512.583 509.34C512.217 509.901 512.034 510.707 512.034 511.757ZM526.707 506.629C526.866 506.629 527.037 506.636 527.22 506.648C527.415 506.66 527.58 506.684 527.714 506.721L527.513 508.864C527.391 508.839 527.244 508.821 527.073 508.809C526.902 508.784 526.75 508.772 526.615 508.772C526.127 508.772 525.669 508.876 525.242 509.083C524.815 509.279 524.467 509.59 524.198 510.017C523.942 510.432 523.814 510.957 523.814 511.592V516.738H521.506V506.813H523.282L523.612 508.534H523.722C524.015 508.009 524.418 507.563 524.931 507.197C525.443 506.819 526.036 506.629 526.707 506.629ZM539.512 506.629C539.67 506.629 539.841 506.636 540.025 506.648C540.22 506.66 540.385 506.684 540.519 506.721L540.318 508.864C540.195 508.839 540.049 508.821 539.878 508.809C539.707 508.784 539.554 508.772 539.42 508.772C538.932 508.772 538.474 508.876 538.047 509.083C537.619 509.279 537.271 509.59 537.003 510.017C536.747 510.432 536.618 510.957 536.618 511.592V516.738H534.311V506.813H536.087L536.417 508.534H536.527C536.82 508.009 537.223 507.563 537.735 507.197C538.248 506.819 538.84 506.629 539.512 506.629ZM545.993 506.629C547.324 506.629 548.374 507.026 549.143 507.82C549.924 508.613 550.315 509.718 550.315 511.134V512.306H543.759C543.783 513.21 544.034 513.912 544.51 514.412C544.986 514.901 545.645 515.145 546.488 515.145C547.122 515.145 547.696 515.084 548.209 514.962C548.722 514.828 549.247 514.638 549.784 514.394V516.244C549.296 516.476 548.789 516.647 548.264 516.756C547.739 516.866 547.11 516.921 546.378 516.921C545.413 516.921 544.552 516.738 543.796 516.372C543.051 515.993 542.465 515.426 542.038 514.669C541.622 513.912 541.415 512.972 541.415 511.849C541.415 510.152 541.836 508.857 542.678 507.966C543.521 507.075 544.626 506.629 545.993 506.629ZM545.993 508.333C545.37 508.333 544.864 508.534 544.473 508.937C544.095 509.328 543.875 509.914 543.814 510.695H548.081C548.069 510.011 547.892 509.45 547.55 509.01C547.22 508.558 546.701 508.333 545.993 508.333ZM564.014 506.629C565.137 506.629 565.98 506.916 566.541 507.49C567.115 508.064 567.402 508.992 567.402 510.274V516.738H565.094V510.713C565.094 509.236 564.533 508.497 563.41 508.497C562.604 508.497 562.03 508.76 561.688 509.285C561.346 509.81 561.176 510.573 561.176 511.574V516.738H558.868V510.713C558.868 509.236 558.3 508.497 557.165 508.497C556.323 508.497 555.743 508.79 555.425 509.376C555.108 509.962 554.949 510.799 554.949 511.885V516.738H552.642V506.813H554.418L554.748 508.113H554.876C555.169 507.6 555.578 507.228 556.103 506.996C556.64 506.752 557.196 506.629 557.769 506.629C558.514 506.629 559.137 506.758 559.637 507.014C560.15 507.258 560.541 507.643 560.809 508.168H560.992C561.298 507.631 561.725 507.24 562.274 506.996C562.824 506.752 563.404 506.629 564.014 506.629ZM579.156 511.757C579.156 513.405 578.729 514.681 577.874 515.584C577.02 516.476 575.86 516.921 574.395 516.921C573.492 516.921 572.686 516.72 571.978 516.317C571.27 515.914 570.714 515.328 570.311 514.559C569.908 513.79 569.707 512.856 569.707 511.757C569.707 510.109 570.128 508.845 570.97 507.966C571.825 507.075 572.985 506.629 574.45 506.629C575.366 506.629 576.177 506.831 576.886 507.234C577.594 507.624 578.149 508.204 578.552 508.973C578.955 509.73 579.156 510.658 579.156 511.757ZM572.069 511.757C572.069 512.807 572.252 513.619 572.619 514.193C572.997 514.766 573.601 515.053 574.432 515.053C575.262 515.053 575.86 514.766 576.226 514.193C576.605 513.619 576.794 512.807 576.794 511.757C576.794 510.707 576.605 509.901 576.226 509.34C575.86 508.778 575.256 508.497 574.413 508.497C573.595 508.497 572.997 508.778 572.619 509.34C572.252 509.901 572.069 510.707 572.069 511.757ZM585.388 515.072C585.668 515.072 585.943 515.047 586.212 514.998C586.492 514.937 586.749 514.87 586.981 514.797V516.518C586.737 516.628 586.419 516.72 586.028 516.793C585.638 516.879 585.229 516.921 584.802 516.921C584.24 516.921 583.727 516.83 583.263 516.647C582.799 516.451 582.433 516.122 582.164 515.658C581.896 515.194 581.762 514.547 581.762 513.717V508.552H580.425V507.545L581.89 506.739L582.622 504.633H584.069V506.813H586.889V508.552H584.069V513.698C584.069 514.162 584.191 514.51 584.435 514.742C584.679 514.962 584.997 515.072 585.388 515.072ZM592.974 506.629C594.304 506.629 595.354 507.026 596.123 507.82C596.905 508.613 597.295 509.718 597.295 511.134V512.306H590.739C590.764 513.21 591.014 513.912 591.49 514.412C591.966 514.901 592.626 515.145 593.468 515.145C594.103 515.145 594.677 515.084 595.189 514.962C595.702 514.828 596.227 514.638 596.764 514.394V516.244C596.276 516.476 595.769 516.647 595.244 516.756C594.719 516.866 594.091 516.921 593.358 516.921C592.394 516.921 591.533 516.738 590.776 516.372C590.031 515.993 589.445 515.426 589.018 514.669C588.603 513.912 588.395 512.972 588.395 511.849C588.395 510.152 588.817 508.857 589.659 507.966C590.501 507.075 591.606 506.629 592.974 506.629ZM592.974 508.333C592.351 508.333 591.844 508.534 591.454 508.937C591.075 509.328 590.855 509.914 590.794 510.695H595.061C595.049 510.011 594.872 509.45 594.53 509.01C594.201 508.558 593.682 508.333 592.974 508.333ZM57.4935 531.629C58.6167 531.629 59.4591 531.916 60.0207 532.49C60.5945 533.064 60.8814 533.992 60.8814 535.274V541.738H58.574V535.713C58.574 534.236 58.0124 533.497 56.8892 533.497C56.0834 533.497 55.5096 533.76 55.1678 534.285C54.8259 534.81 54.655 535.573 54.655 536.574V541.738H52.3476V535.713C52.3476 534.236 51.7799 533.497 50.6445 533.497C49.8021 533.497 49.2222 533.79 48.9047 534.376C48.5873 534.962 48.4286 535.799 48.4286 536.885V541.738H46.1212V531.813H47.8975L48.2272 533.113H48.3553C48.6483 532.6 49.0573 532.228 49.5823 531.996C50.1195 531.752 50.675 531.629 51.2488 531.629C51.9935 531.629 52.6161 531.758 53.1167 532.014C53.6295 532.258 54.0201 532.643 54.2887 533.168H54.4719C54.7771 532.631 55.2044 532.24 55.7538 531.996C56.3032 531.752 56.8831 531.629 57.4935 531.629ZM72.6359 536.757C72.6359 538.405 72.2085 539.681 71.3539 540.584C70.4993 541.476 69.3395 541.921 67.8745 541.921C66.9711 541.921 66.1653 541.72 65.4572 541.317C64.7491 540.914 64.1936 540.328 63.7907 539.559C63.3878 538.79 63.1864 537.856 63.1864 536.757C63.1864 535.109 63.6076 533.845 64.45 532.966C65.3046 532.075 66.4644 531.629 67.9294 531.629C68.8451 531.629 69.6569 531.831 70.365 532.234C71.0731 532.624 71.6286 533.204 72.0315 533.973C72.4344 534.73 72.6359 535.658 72.6359 536.757ZM65.5487 536.757C65.5487 537.807 65.7319 538.619 66.0981 539.193C66.4766 539.766 67.0809 540.053 67.9111 540.053C68.7413 540.053 69.3395 539.766 69.7058 539.193C70.0843 538.619 70.2735 537.807 70.2735 536.757C70.2735 535.707 70.0843 534.901 69.7058 534.34C69.3395 533.778 68.7352 533.497 67.8928 533.497C67.0748 533.497 66.4766 533.778 66.0981 534.34C65.7319 534.901 65.5487 535.707 65.5487 536.757ZM80.332 531.629C81.443 531.629 82.3098 531.916 82.9324 532.49C83.5673 533.064 83.8847 533.992 83.8847 535.274V541.738H81.5773V535.732C81.5773 534.242 80.9669 533.497 79.746 533.497C78.8181 533.497 78.1833 533.79 77.8414 534.376C77.4996 534.962 77.3287 535.799 77.3287 536.885V541.738H75.0213V531.813H76.7976L77.1272 533.113H77.2554C77.5729 532.6 78.0063 532.228 78.5556 531.996C79.1172 531.752 79.7094 531.629 80.332 531.629ZM87.9246 527.985C88.2786 527.985 88.5777 528.077 88.8219 528.26C89.0783 528.431 89.2065 528.742 89.2065 529.194C89.2065 529.646 89.0783 529.963 88.8219 530.146C88.5777 530.329 88.2786 530.421 87.9246 530.421C87.5705 530.421 87.2653 530.329 87.0089 530.146C86.7647 529.963 86.6427 529.646 86.6427 529.194C86.6427 528.742 86.7647 528.431 87.0089 528.26C87.2653 528.077 87.5705 527.985 87.9246 527.985ZM89.0783 531.813V541.738H86.7709V531.813H89.0783ZM95.8744 540.072C96.1552 540.072 96.4299 540.047 96.6985 539.998C96.9793 539.937 97.2356 539.87 97.4676 539.797V541.518C97.2234 541.628 96.906 541.72 96.5153 541.793C96.1247 541.879 95.7157 541.921 95.2884 541.921C94.7268 541.921 94.214 541.83 93.7501 541.647C93.2862 541.451 92.9199 541.122 92.6513 540.658C92.3827 540.194 92.2484 539.547 92.2484 538.717V533.552H90.9116V532.545L92.3766 531.739L93.1091 529.633H94.5559V531.813H97.376V533.552H94.5559V538.698C94.5559 539.162 94.6779 539.51 94.9221 539.742C95.1663 539.962 95.4837 540.072 95.8744 540.072ZM108.332 536.757C108.332 538.405 107.904 539.681 107.05 540.584C106.195 541.476 105.035 541.921 103.57 541.921C102.667 541.921 101.861 541.72 101.153 541.317C100.445 540.914 99.8895 540.328 99.4866 539.559C99.0837 538.79 98.8823 537.856 98.8823 536.757C98.8823 535.109 99.3035 533.845 100.146 532.966C101 532.075 102.16 531.629 103.625 531.629C104.541 531.629 105.353 531.831 106.061 532.234C106.769 532.624 107.325 533.204 107.727 533.973C108.13 534.73 108.332 535.658 108.332 536.757ZM101.245 536.757C101.245 537.807 101.428 538.619 101.794 539.193C102.173 539.766 102.777 540.053 103.607 540.053C104.437 540.053 105.035 539.766 105.402 539.193C105.78 538.619 105.969 537.807 105.969 536.757C105.969 535.707 105.78 534.901 105.402 534.34C105.035 533.778 104.431 533.497 103.589 533.497C102.771 533.497 102.173 533.778 101.794 534.34C101.428 534.901 101.245 535.707 101.245 536.757ZM115.918 531.629C116.077 531.629 116.248 531.636 116.431 531.648C116.626 531.66 116.791 531.684 116.925 531.721L116.724 533.864C116.602 533.839 116.455 533.821 116.284 533.809C116.113 533.784 115.961 533.772 115.826 533.772C115.338 533.772 114.88 533.876 114.453 534.083C114.026 534.279 113.678 534.59 113.409 535.017C113.153 535.432 113.025 535.957 113.025 536.592V541.738H110.717V531.813H112.494L112.823 533.534H112.933C113.226 533.009 113.629 532.563 114.142 532.197C114.654 531.819 115.247 531.629 115.918 531.629ZM119.919 527.985C120.273 527.985 120.572 528.077 120.816 528.26C121.072 528.431 121.2 528.742 121.2 529.194C121.2 529.646 121.072 529.963 120.816 530.146C120.572 530.329 120.273 530.421 119.919 530.421C119.564 530.421 119.259 530.329 119.003 530.146C118.759 529.963 118.637 529.646 118.637 529.194C118.637 528.742 118.759 528.431 119.003 528.26C119.259 528.077 119.564 527.985 119.919 527.985ZM121.072 531.813V541.738H118.765V531.813H121.072ZM129.333 531.629C130.444 531.629 131.311 531.916 131.934 532.49C132.569 533.064 132.886 533.992 132.886 535.274V541.738H130.579V535.732C130.579 534.242 129.968 533.497 128.747 533.497C127.82 533.497 127.185 533.79 126.843 534.376C126.501 534.962 126.33 535.799 126.33 536.885V541.738H124.023V531.813H125.799L126.129 533.113H126.257C126.574 532.6 127.008 532.228 127.557 531.996C128.119 531.752 128.711 531.629 129.333 531.629ZM139.105 531.629C140.363 531.629 141.345 532.118 142.054 533.094H142.145L142.365 531.813H144.288V541.811C144.288 543.228 143.885 544.302 143.079 545.034C142.286 545.767 141.095 546.133 139.508 546.133C138.8 546.133 138.147 546.084 137.549 545.987C136.95 545.901 136.383 545.749 135.845 545.529V543.624C136.981 544.137 138.251 544.394 139.655 544.394C140.412 544.394 140.985 544.18 141.376 543.753C141.779 543.337 141.98 542.727 141.98 541.921V541.665C141.98 541.482 141.986 541.268 141.999 541.024C142.011 540.78 142.029 540.584 142.054 540.438H141.98C141.638 540.951 141.217 541.329 140.717 541.573C140.228 541.805 139.673 541.921 139.05 541.921C137.842 541.921 136.895 541.47 136.212 540.566C135.528 539.663 135.186 538.405 135.186 536.794C135.186 535.182 135.528 533.919 136.212 533.003C136.908 532.087 137.872 531.629 139.105 531.629ZM139.71 533.516C138.269 533.516 137.549 534.621 137.549 536.83C137.549 539.003 138.281 540.09 139.746 540.09C140.552 540.09 141.144 539.87 141.523 539.431C141.913 538.979 142.109 538.222 142.109 537.16V536.812C142.109 535.64 141.913 534.798 141.523 534.285C141.144 533.772 140.54 533.516 139.71 533.516ZM160.856 536.757C160.856 538.405 160.429 539.681 159.574 540.584C158.72 541.476 157.56 541.921 156.095 541.921C155.191 541.921 154.386 541.72 153.678 541.317C152.969 540.914 152.414 540.328 152.011 539.559C151.608 538.79 151.407 537.856 151.407 536.757C151.407 535.109 151.828 533.845 152.67 532.966C153.525 532.075 154.685 531.629 156.15 531.629C157.065 531.629 157.877 531.831 158.585 532.234C159.294 532.624 159.849 533.204 160.252 533.973C160.655 534.73 160.856 535.658 160.856 536.757ZM153.769 536.757C153.769 537.807 153.952 538.619 154.319 539.193C154.697 539.766 155.301 540.053 156.131 540.053C156.962 540.053 157.56 539.766 157.926 539.193C158.305 538.619 158.494 537.807 158.494 536.757C158.494 535.707 158.305 534.901 157.926 534.34C157.56 533.778 156.956 533.497 156.113 533.497C155.295 533.497 154.697 533.778 154.319 534.34C153.952 534.901 153.769 535.707 153.769 536.757ZM168.388 533.552H165.989V541.738H163.681V533.552H162.088V532.454L163.681 531.794V531.117C163.681 529.847 163.98 528.968 164.578 528.48C165.189 527.979 166.019 527.729 167.069 527.729C167.545 527.729 167.979 527.771 168.369 527.857C168.772 527.93 169.102 528.016 169.358 528.113L168.772 529.835C168.565 529.774 168.333 529.719 168.076 529.67C167.832 529.609 167.563 529.578 167.27 529.578C166.831 529.578 166.507 529.719 166.3 530C166.092 530.268 165.989 530.659 165.989 531.172V531.813H168.388V533.552ZM178.64 540.072C178.921 540.072 179.196 540.047 179.464 539.998C179.745 539.937 180.001 539.87 180.233 539.797V541.518C179.989 541.628 179.672 541.72 179.281 541.793C178.891 541.879 178.482 541.921 178.054 541.921C177.493 541.921 176.98 541.83 176.516 541.647C176.052 541.451 175.686 541.122 175.417 540.658C175.149 540.194 175.014 539.547 175.014 538.717V533.552H173.677V532.545L175.142 531.739L175.875 529.633H177.322V531.813H180.142V533.552H177.322V538.698C177.322 539.162 177.444 539.51 177.688 539.742C177.932 539.962 178.25 540.072 178.64 540.072ZM186.19 531.629C187.472 531.629 188.442 531.91 189.101 532.472C189.773 533.033 190.109 533.9 190.109 535.072V541.738H188.479L188.021 540.365H187.948C187.52 540.902 187.069 541.299 186.593 541.555C186.116 541.799 185.469 541.921 184.651 541.921C183.76 541.921 183.022 541.671 182.436 541.17C181.85 540.67 181.557 539.895 181.557 538.845C181.557 537.819 181.929 537.05 182.674 536.537C183.431 536.025 184.572 535.738 186.098 535.677L187.82 535.622V535.127C187.82 534.505 187.667 534.059 187.362 533.79C187.057 533.51 186.629 533.369 186.08 533.369C185.579 533.369 185.097 533.442 184.633 533.589C184.181 533.735 183.73 533.906 183.278 534.102L182.545 532.49C183.034 532.234 183.589 532.026 184.212 531.867C184.847 531.709 185.506 531.629 186.19 531.629ZM187.82 537.05L186.611 537.087C185.598 537.123 184.896 537.3 184.505 537.618C184.114 537.923 183.919 538.338 183.919 538.863C183.919 539.339 184.053 539.681 184.322 539.889C184.603 540.084 184.969 540.182 185.421 540.182C186.092 540.182 186.66 539.992 187.124 539.614C187.588 539.223 187.82 538.649 187.82 537.892V537.05ZM198.311 531.629C199.422 531.629 200.289 531.916 200.911 532.49C201.546 533.064 201.864 533.992 201.864 535.274V541.738H199.556V535.732C199.556 534.242 198.946 533.497 197.725 533.497C196.797 533.497 196.162 533.79 195.82 534.376C195.478 534.962 195.308 535.799 195.308 536.885V541.738H193V531.813H194.776L195.106 533.113H195.234C195.552 532.6 195.985 532.228 196.535 531.996C197.096 531.752 197.688 531.629 198.311 531.629ZM207.039 527.82V534.431C207.039 534.749 207.027 535.084 207.002 535.439C206.978 535.793 206.953 536.128 206.929 536.446H206.984C207.13 536.226 207.314 535.976 207.533 535.695C207.753 535.414 207.961 535.164 208.156 534.944L211.086 531.813H213.705L209.731 536.098L213.961 541.738H211.269L208.193 537.49L207.039 538.442V541.738H204.75V527.82H207.039ZM222.273 538.863C222.273 539.864 221.913 540.627 221.193 541.152C220.485 541.665 219.465 541.921 218.134 541.921C217.439 541.921 216.84 541.872 216.34 541.775C215.851 541.677 215.375 541.525 214.911 541.317V539.357C215.4 539.589 215.937 539.785 216.523 539.943C217.121 540.102 217.683 540.182 218.208 540.182C218.843 540.182 219.3 540.084 219.581 539.889C219.862 539.693 220.002 539.431 220.002 539.101C220.002 538.906 219.947 538.735 219.838 538.588C219.728 538.43 219.508 538.259 219.178 538.076C218.861 537.892 218.385 537.667 217.75 537.398C217.115 537.154 216.584 536.904 216.157 536.647C215.742 536.379 215.424 536.067 215.204 535.713C214.997 535.359 214.893 534.901 214.893 534.34C214.893 533.449 215.241 532.777 215.937 532.325C216.645 531.861 217.585 531.629 218.757 531.629C219.368 531.629 219.941 531.69 220.479 531.813C221.028 531.935 221.577 532.118 222.127 532.362L221.394 534.065C220.93 533.87 220.479 533.705 220.039 533.571C219.6 533.436 219.148 533.369 218.684 533.369C217.671 533.369 217.164 533.656 217.164 534.23C217.164 534.437 217.225 534.614 217.347 534.761C217.481 534.907 217.707 535.066 218.025 535.237C218.354 535.396 218.818 535.591 219.416 535.823C220.002 536.055 220.509 536.299 220.936 536.556C221.364 536.8 221.693 537.105 221.925 537.471C222.157 537.838 222.273 538.301 222.273 538.863ZM233.206 531.629C234.488 531.629 235.459 531.91 236.118 532.472C236.789 533.033 237.125 533.9 237.125 535.072V541.738H235.495L235.037 540.365H234.964C234.537 540.902 234.085 541.299 233.609 541.555C233.133 541.799 232.486 541.921 231.668 541.921C230.777 541.921 230.038 541.671 229.452 541.17C228.866 540.67 228.573 539.895 228.573 538.845C228.573 537.819 228.945 537.05 229.69 536.537C230.447 536.025 231.588 535.738 233.114 535.677L234.836 535.622V535.127C234.836 534.505 234.683 534.059 234.378 533.79C234.073 533.51 233.646 533.369 233.096 533.369C232.596 533.369 232.113 533.442 231.649 533.589C231.198 533.735 230.746 533.906 230.294 534.102L229.562 532.49C230.05 532.234 230.606 532.026 231.228 531.867C231.863 531.709 232.522 531.629 233.206 531.629ZM234.836 537.05L233.627 537.087C232.614 537.123 231.912 537.3 231.521 537.618C231.131 537.923 230.935 538.338 230.935 538.863C230.935 539.339 231.07 539.681 231.338 539.889C231.619 540.084 231.985 540.182 232.437 540.182C233.108 540.182 233.676 539.992 234.14 539.614C234.604 539.223 234.836 538.649 234.836 537.892V537.05ZM245.327 531.629C246.438 531.629 247.305 531.916 247.928 532.49C248.562 533.064 248.88 533.992 248.88 535.274V541.738H246.572V535.732C246.572 534.242 245.962 533.497 244.741 533.497C243.813 533.497 243.178 533.79 242.837 534.376C242.495 534.962 242.324 535.799 242.324 536.885V541.738H240.016V531.813H241.793L242.122 533.113H242.251C242.568 532.6 243.001 532.228 243.551 531.996C244.112 531.752 244.705 531.629 245.327 531.629ZM255.044 541.921C253.884 541.921 252.95 541.488 252.242 540.621C251.534 539.754 251.18 538.478 251.18 536.794C251.18 535.084 251.54 533.796 252.26 532.93C252.981 532.063 253.927 531.629 255.099 531.629C255.832 531.629 256.43 531.77 256.894 532.051C257.37 532.331 257.748 532.673 258.029 533.076H258.139C258.102 532.905 258.066 532.643 258.029 532.289C257.992 531.935 257.974 531.605 257.974 531.3V527.82H260.282V541.738H258.487L258.066 540.438H257.974C257.693 540.853 257.321 541.207 256.857 541.5C256.393 541.781 255.789 541.921 255.044 541.921ZM255.74 540.053C256.595 540.053 257.193 539.809 257.535 539.321C257.889 538.833 258.072 538.094 258.084 537.105V536.812C258.084 535.75 257.913 534.938 257.571 534.376C257.242 533.803 256.619 533.516 255.703 533.516C254.995 533.516 254.452 533.809 254.073 534.395C253.707 534.968 253.524 535.78 253.524 536.83C253.524 537.88 253.713 538.68 254.092 539.229C254.47 539.779 255.02 540.053 255.74 540.053ZM271.832 540.072C272.113 540.072 272.388 540.047 272.656 539.998C272.937 539.937 273.194 539.87 273.426 539.797V541.518C273.181 541.628 272.864 541.72 272.473 541.793C272.083 541.879 271.674 541.921 271.246 541.921C270.685 541.921 270.172 541.83 269.708 541.647C269.244 541.451 268.878 541.122 268.609 540.658C268.341 540.194 268.206 539.547 268.206 538.717V533.552H266.869V532.545L268.335 531.739L269.067 529.633H270.514V531.813H273.334V533.552H270.514V538.698C270.514 539.162 270.636 539.51 270.88 539.742C271.124 539.962 271.442 540.072 271.832 540.072ZM279.382 531.629C280.664 531.629 281.634 531.91 282.294 532.472C282.965 533.033 283.301 533.9 283.301 535.072V541.738H281.671L281.213 540.365H281.14C280.713 540.902 280.261 541.299 279.785 541.555C279.309 541.799 278.661 541.921 277.843 541.921C276.952 541.921 276.214 541.671 275.628 541.17C275.042 540.67 274.749 539.895 274.749 538.845C274.749 537.819 275.121 537.05 275.866 536.537C276.623 536.025 277.764 535.738 279.29 535.677L281.012 535.622V535.127C281.012 534.505 280.859 534.059 280.554 533.79C280.249 533.51 279.821 533.369 279.272 533.369C278.771 533.369 278.289 533.442 277.825 533.589C277.373 533.735 276.922 533.906 276.47 534.102L275.738 532.49C276.226 532.234 276.781 532.026 277.404 531.867C278.039 531.709 278.698 531.629 279.382 531.629ZM281.012 537.05L279.803 537.087C278.79 537.123 278.088 537.3 277.697 537.618C277.306 537.923 277.111 538.338 277.111 538.863C277.111 539.339 277.245 539.681 277.514 539.889C277.795 540.084 278.161 540.182 278.613 540.182C279.284 540.182 279.852 539.992 280.316 539.614C280.78 539.223 281.012 538.649 281.012 537.892V537.05ZM291.503 531.629C292.614 531.629 293.481 531.916 294.103 532.49C294.738 533.064 295.056 533.992 295.056 535.274V541.738H292.748V535.732C292.748 534.242 292.138 533.497 290.917 533.497C289.989 533.497 289.354 533.79 289.012 534.376C288.671 534.962 288.5 535.799 288.5 536.885V541.738H286.192V531.813H287.969L288.298 533.113H288.426C288.744 532.6 289.177 532.228 289.727 531.996C290.288 531.752 290.88 531.629 291.503 531.629ZM300.231 527.82V534.431C300.231 534.749 300.219 535.084 300.194 535.439C300.17 535.793 300.145 536.128 300.121 536.446H300.176C300.322 536.226 300.506 535.976 300.725 535.695C300.945 535.414 301.153 535.164 301.348 534.944L304.278 531.813H306.897L302.923 536.098L307.153 541.738H304.461L301.385 537.49L300.231 538.442V541.738H297.942V527.82H300.231ZM312.7 531.629C314.031 531.629 315.081 532.026 315.85 532.82C316.631 533.613 317.022 534.718 317.022 536.134V537.306H310.466C310.49 538.21 310.741 538.912 311.217 539.412C311.693 539.901 312.352 540.145 313.194 540.145C313.829 540.145 314.403 540.084 314.916 539.962C315.429 539.828 315.954 539.638 316.491 539.394V541.244C316.002 541.476 315.496 541.647 314.971 541.756C314.446 541.866 313.817 541.921 313.085 541.921C312.12 541.921 311.259 541.738 310.502 541.372C309.758 540.993 309.172 540.426 308.744 539.669C308.329 538.912 308.122 537.972 308.122 536.849C308.122 535.152 308.543 533.857 309.385 532.966C310.228 532.075 311.333 531.629 312.7 531.629ZM312.7 533.333C312.077 533.333 311.571 533.534 311.18 533.937C310.802 534.328 310.582 534.914 310.521 535.695H314.788C314.775 535.011 314.598 534.45 314.257 534.01C313.927 533.558 313.408 533.333 312.7 533.333ZM324.549 531.629C324.708 531.629 324.879 531.636 325.062 531.648C325.258 531.66 325.422 531.684 325.557 531.721L325.355 533.864C325.233 533.839 325.087 533.821 324.916 533.809C324.745 533.784 324.592 533.772 324.458 533.772C323.97 533.772 323.512 533.876 323.084 534.083C322.657 534.279 322.309 534.59 322.041 535.017C321.784 535.432 321.656 535.957 321.656 536.592V541.738H319.349V531.813H321.125L321.455 533.534H321.564C321.857 533.009 322.26 532.563 322.773 532.197C323.286 531.819 323.878 531.629 324.549 531.629ZM334.154 538.863C334.154 539.864 333.794 540.627 333.073 541.152C332.365 541.665 331.346 541.921 330.015 541.921C329.319 541.921 328.721 541.872 328.22 541.775C327.732 541.677 327.256 541.525 326.792 541.317V539.357C327.28 539.589 327.817 539.785 328.403 539.943C329.002 540.102 329.563 540.182 330.088 540.182C330.723 540.182 331.181 540.084 331.462 539.889C331.743 539.693 331.883 539.431 331.883 539.101C331.883 538.906 331.828 538.735 331.718 538.588C331.608 538.43 331.388 538.259 331.059 538.076C330.741 537.892 330.265 537.667 329.63 537.398C328.996 537.154 328.465 536.904 328.037 536.647C327.622 536.379 327.305 536.067 327.085 535.713C326.877 535.359 326.774 534.901 326.774 534.34C326.774 533.449 327.122 532.777 327.817 532.325C328.526 531.861 329.466 531.629 330.638 531.629C331.248 531.629 331.822 531.69 332.359 531.813C332.908 531.935 333.458 532.118 334.007 532.362L333.275 534.065C332.811 533.87 332.359 533.705 331.92 533.571C331.48 533.436 331.028 533.369 330.564 533.369C329.551 533.369 329.044 533.656 329.044 534.23C329.044 534.437 329.105 534.614 329.228 534.761C329.362 534.907 329.588 535.066 329.905 535.237C330.235 535.396 330.699 535.591 331.297 535.823C331.883 536.055 332.39 536.299 332.817 536.556C333.244 536.8 333.574 537.105 333.806 537.471C334.038 537.838 334.154 538.301 334.154 538.863ZM349.262 541.738L348.163 537.471C348.102 537.239 348.029 536.952 347.943 536.611C347.858 536.256 347.766 535.89 347.669 535.512C347.583 535.133 347.504 534.785 347.431 534.468C347.357 534.151 347.302 533.906 347.266 533.735H347.193C347.156 533.906 347.101 534.151 347.028 534.468C346.954 534.785 346.875 535.139 346.79 535.53C346.704 535.909 346.613 536.275 346.515 536.629C346.43 536.971 346.356 537.258 346.295 537.49L345.141 541.738H342.614L339.831 531.794H342.156L343.383 536.537C343.469 536.867 343.548 537.233 343.622 537.636C343.707 538.027 343.774 538.411 343.823 538.79C343.884 539.156 343.933 539.455 343.969 539.687H344.043C344.067 539.467 344.11 539.168 344.171 538.79C344.244 538.411 344.317 538.045 344.391 537.691C344.464 537.325 344.525 537.05 344.574 536.867L346.002 531.794H348.529L349.903 536.867C349.952 537.087 350.013 537.374 350.086 537.728C350.171 538.082 350.245 538.442 350.306 538.808C350.367 539.162 350.403 539.449 350.416 539.669H350.489C350.513 539.473 350.556 539.193 350.617 538.826C350.678 538.46 350.751 538.069 350.837 537.654C350.922 537.239 351.014 536.867 351.112 536.537L352.357 531.794H354.646L351.826 541.738H349.262ZM357.486 527.985C357.84 527.985 358.139 528.077 358.383 528.26C358.64 528.431 358.768 528.742 358.768 529.194C358.768 529.646 358.64 529.963 358.383 530.146C358.139 530.329 357.84 530.421 357.486 530.421C357.132 530.421 356.827 530.329 356.57 530.146C356.326 529.963 356.204 529.646 356.204 529.194C356.204 528.742 356.326 528.431 356.57 528.26C356.827 528.077 357.132 527.985 357.486 527.985ZM358.64 531.813V541.738H356.332V531.813H358.64ZM365.436 540.072C365.716 540.072 365.991 540.047 366.26 539.998C366.541 539.937 366.797 539.87 367.029 539.797V541.518C366.785 541.628 366.467 541.72 366.077 541.793C365.686 541.879 365.277 541.921 364.85 541.921C364.288 541.921 363.775 541.83 363.311 541.647C362.847 541.451 362.481 541.122 362.213 540.658C361.944 540.194 361.81 539.547 361.81 538.717V533.552H360.473V532.545L361.938 531.739L362.67 529.633H364.117V531.813H366.937V533.552H364.117V538.698C364.117 539.162 364.239 539.51 364.483 539.742C364.728 539.962 365.045 540.072 365.436 540.072ZM371.337 527.82V531.135C371.337 531.526 371.319 531.91 371.282 532.289C371.258 532.655 371.233 532.93 371.209 533.113H371.355C371.673 532.612 372.088 532.24 372.601 531.996C373.113 531.752 373.681 531.629 374.304 531.629C375.427 531.629 376.306 531.916 376.941 532.49C377.576 533.064 377.893 533.992 377.893 535.274V541.738H375.586V535.732C375.586 534.242 374.975 533.497 373.754 533.497C372.826 533.497 372.192 533.79 371.85 534.376C371.508 534.962 371.337 535.799 371.337 536.885V541.738H369.03V527.82H371.337ZM381.933 527.985C382.287 527.985 382.586 528.077 382.83 528.26C383.087 528.431 383.215 528.742 383.215 529.194C383.215 529.646 383.087 529.963 382.83 530.146C382.586 530.329 382.287 530.421 381.933 530.421C381.579 530.421 381.274 530.329 381.017 530.146C380.773 529.963 380.651 529.646 380.651 529.194C380.651 528.742 380.773 528.431 381.017 528.26C381.274 528.077 381.579 527.985 381.933 527.985ZM383.087 531.813V541.738H380.779V531.813H383.087ZM391.348 531.629C392.459 531.629 393.326 531.916 393.948 532.49C394.583 533.064 394.9 533.992 394.9 535.274V541.738H392.593V535.732C392.593 534.242 391.983 533.497 390.762 533.497C389.834 533.497 389.199 533.79 388.857 534.376C388.515 534.962 388.344 535.799 388.344 536.885V541.738H386.037V531.813H387.813L388.143 533.113H388.271C388.589 532.6 389.022 532.228 389.571 531.996C390.133 531.752 390.725 531.629 391.348 531.629ZM406.389 540.072C406.67 540.072 406.945 540.047 407.213 539.998C407.494 539.937 407.751 539.87 407.983 539.797V541.518C407.738 541.628 407.421 541.72 407.03 541.793C406.64 541.879 406.231 541.921 405.803 541.921C405.242 541.921 404.729 541.83 404.265 541.647C403.801 541.451 403.435 541.122 403.166 540.658C402.898 540.194 402.763 539.547 402.763 538.717V533.552H401.427V532.545L402.892 531.739L403.624 529.633H405.071V531.813H407.891V533.552H405.071V538.698C405.071 539.162 405.193 539.51 405.437 539.742C405.681 539.962 405.999 540.072 406.389 540.072ZM412.291 527.82V531.135C412.291 531.526 412.272 531.91 412.236 532.289C412.211 532.655 412.187 532.93 412.163 533.113H412.309C412.626 532.612 413.042 532.24 413.554 531.996C414.067 531.752 414.635 531.629 415.257 531.629C416.381 531.629 417.26 531.916 417.894 532.49C418.529 533.064 418.847 533.992 418.847 535.274V541.738H416.539V535.732C416.539 534.242 415.929 533.497 414.708 533.497C413.78 533.497 413.145 533.79 412.803 534.376C412.462 534.962 412.291 535.799 412.291 536.885V541.738H409.983V527.82H412.291ZM425.725 531.629C427.056 531.629 428.106 532.026 428.875 532.82C429.656 533.613 430.047 534.718 430.047 536.134V537.306H423.491C423.515 538.21 423.766 538.912 424.242 539.412C424.718 539.901 425.377 540.145 426.22 540.145C426.854 540.145 427.428 540.084 427.941 539.962C428.454 539.828 428.979 539.638 429.516 539.394V541.244C429.028 541.476 428.521 541.647 427.996 541.756C427.471 541.866 426.842 541.921 426.11 541.921C425.145 541.921 424.284 541.738 423.528 541.372C422.783 540.993 422.197 540.426 421.77 539.669C421.354 538.912 421.147 537.972 421.147 536.849C421.147 535.152 421.568 533.857 422.41 532.966C423.253 532.075 424.358 531.629 425.725 531.629ZM425.725 533.333C425.102 533.333 424.596 533.534 424.205 533.937C423.827 534.328 423.607 534.914 423.546 535.695H427.813C427.801 535.011 427.624 534.45 427.282 534.01C426.952 533.558 426.433 533.333 425.725 533.333ZM445.994 536.757C445.994 538.405 445.567 539.681 444.712 540.584C443.858 541.476 442.698 541.921 441.233 541.921C440.329 541.921 439.524 541.72 438.816 541.317C438.107 540.914 437.552 540.328 437.149 539.559C436.746 538.79 436.545 537.856 436.545 536.757C436.545 535.109 436.966 533.845 437.808 532.966C438.663 532.075 439.823 531.629 441.288 531.629C442.203 531.629 443.015 531.831 443.723 532.234C444.432 532.624 444.987 533.204 445.39 533.973C445.793 534.73 445.994 535.658 445.994 536.757ZM438.907 536.757C438.907 537.807 439.09 538.619 439.457 539.193C439.835 539.766 440.439 540.053 441.269 540.053C442.1 540.053 442.698 539.766 443.064 539.193C443.443 538.619 443.632 537.807 443.632 536.757C443.632 535.707 443.443 534.901 443.064 534.34C442.698 533.778 442.094 533.497 441.251 533.497C440.433 533.497 439.835 533.778 439.457 534.34C439.09 534.901 438.907 535.707 438.907 536.757ZM449.533 527.985C449.887 527.985 450.186 528.077 450.431 528.26C450.687 528.431 450.815 528.742 450.815 529.194C450.815 529.646 450.687 529.963 450.431 530.146C450.186 530.329 449.887 530.421 449.533 530.421C449.179 530.421 448.874 530.329 448.618 530.146C448.374 529.963 448.251 529.646 448.251 529.194C448.251 528.742 448.374 528.431 448.618 528.26C448.874 528.077 449.179 527.985 449.533 527.985ZM450.687 531.813V541.738H448.38V531.813H450.687ZM455.945 541.738H453.637V527.82H455.945V541.738ZM467.608 531.629C468.89 531.629 469.86 531.91 470.52 532.472C471.191 533.033 471.527 533.9 471.527 535.072V541.738H469.897L469.439 540.365H469.366C468.939 540.902 468.487 541.299 468.011 541.555C467.535 541.799 466.888 541.921 466.07 541.921C465.178 541.921 464.44 541.671 463.854 541.17C463.268 540.67 462.975 539.895 462.975 538.845C462.975 537.819 463.347 537.05 464.092 536.537C464.849 536.025 465.99 535.738 467.516 535.677L469.238 535.622V535.127C469.238 534.505 469.085 534.059 468.78 533.79C468.475 533.51 468.047 533.369 467.498 533.369C466.997 533.369 466.515 533.442 466.051 533.589C465.6 533.735 465.148 533.906 464.696 534.102L463.964 532.49C464.452 532.234 465.007 532.026 465.63 531.867C466.265 531.709 466.924 531.629 467.608 531.629ZM469.238 537.05L468.029 537.087C467.016 537.123 466.314 537.3 465.923 537.618C465.532 537.923 465.337 538.338 465.337 538.863C465.337 539.339 465.471 539.681 465.74 539.889C466.021 540.084 466.387 540.182 466.839 540.182C467.51 540.182 468.078 539.992 468.542 539.614C469.006 539.223 469.238 538.649 469.238 537.892V537.05ZM479.729 531.629C480.84 531.629 481.707 531.916 482.329 532.49C482.964 533.064 483.282 533.992 483.282 535.274V541.738H480.974V535.732C480.974 534.242 480.364 533.497 479.143 533.497C478.215 533.497 477.58 533.79 477.239 534.376C476.897 534.962 476.726 535.799 476.726 536.885V541.738H474.418V531.813H476.195L476.524 533.113H476.652C476.97 532.6 477.403 532.228 477.953 531.996C478.514 531.752 479.106 531.629 479.729 531.629ZM489.446 541.921C488.286 541.921 487.352 541.488 486.644 540.621C485.936 539.754 485.582 538.478 485.582 536.794C485.582 535.084 485.942 533.796 486.662 532.93C487.383 532.063 488.329 531.629 489.501 531.629C490.233 531.629 490.832 531.77 491.296 532.051C491.772 532.331 492.15 532.673 492.431 533.076H492.541C492.504 532.905 492.468 532.643 492.431 532.289C492.394 531.935 492.376 531.605 492.376 531.3V527.82H494.683V541.738H492.889L492.468 540.438H492.376C492.095 540.853 491.723 541.207 491.259 541.5C490.795 541.781 490.191 541.921 489.446 541.921ZM490.142 540.053C490.996 540.053 491.595 539.809 491.936 539.321C492.291 538.833 492.474 538.094 492.486 537.105V536.812C492.486 535.75 492.315 534.938 491.973 534.376C491.643 533.803 491.021 533.516 490.105 533.516C489.397 533.516 488.854 533.809 488.475 534.395C488.109 534.968 487.926 535.78 487.926 536.83C487.926 537.88 488.115 538.68 488.494 539.229C488.872 539.779 489.422 540.053 490.142 540.053ZM505.721 531.629C506.979 531.629 507.962 532.118 508.67 533.094H508.761L508.981 531.813H510.904V541.811C510.904 543.228 510.501 544.302 509.695 545.034C508.902 545.767 507.711 546.133 506.124 546.133C505.416 546.133 504.763 546.084 504.165 545.987C503.567 545.901 502.999 545.749 502.462 545.529V543.624C503.597 544.137 504.867 544.394 506.271 544.394C507.028 544.394 507.602 544.18 507.992 543.753C508.395 543.337 508.597 542.727 508.597 541.921V541.665C508.597 541.482 508.603 541.268 508.615 541.024C508.627 540.78 508.645 540.584 508.67 540.438H508.597C508.255 540.951 507.834 541.329 507.333 541.573C506.845 541.805 506.289 541.921 505.666 541.921C504.458 541.921 503.512 541.47 502.828 540.566C502.144 539.663 501.802 538.405 501.802 536.794C501.802 535.182 502.144 533.919 502.828 533.003C503.524 532.087 504.488 531.629 505.721 531.629ZM506.326 533.516C504.885 533.516 504.165 534.621 504.165 536.83C504.165 539.003 504.897 540.09 506.362 540.09C507.168 540.09 507.76 539.87 508.139 539.431C508.529 538.979 508.725 538.222 508.725 537.16V536.812C508.725 535.64 508.529 534.798 508.139 534.285C507.76 533.772 507.156 533.516 506.326 533.516ZM517.808 531.629C519.089 531.629 520.06 531.91 520.719 532.472C521.391 533.033 521.726 533.9 521.726 535.072V541.738H520.097L519.639 540.365H519.566C519.138 540.902 518.687 541.299 518.21 541.555C517.734 541.799 517.087 541.921 516.269 541.921C515.378 541.921 514.639 541.671 514.053 541.17C513.467 540.67 513.174 539.895 513.174 538.845C513.174 537.819 513.547 537.05 514.291 536.537C515.048 536.025 516.19 535.738 517.716 535.677L519.437 535.622V535.127C519.437 534.505 519.285 534.059 518.98 533.79C518.674 533.51 518.247 533.369 517.698 533.369C517.197 533.369 516.715 533.442 516.251 533.589C515.799 533.735 515.347 533.906 514.896 534.102L514.163 532.49C514.652 532.234 515.207 532.026 515.83 531.867C516.465 531.709 517.124 531.629 517.808 531.629ZM519.437 537.05L518.229 537.087C517.215 537.123 516.513 537.3 516.123 537.618C515.732 537.923 515.537 538.338 515.537 538.863C515.537 539.339 515.671 539.681 515.94 539.889C516.22 540.084 516.587 540.182 517.038 540.182C517.71 540.182 518.278 539.992 518.741 539.614C519.205 539.223 519.437 538.649 519.437 537.892V537.05ZM531.375 538.863C531.375 539.864 531.015 540.627 530.295 541.152C529.587 541.665 528.567 541.921 527.237 541.921C526.541 541.921 525.943 541.872 525.442 541.775C524.954 541.677 524.478 541.525 524.014 541.317V539.357C524.502 539.589 525.039 539.785 525.625 539.943C526.223 540.102 526.785 540.182 527.31 540.182C527.945 540.182 528.403 540.084 528.683 539.889C528.964 539.693 529.105 539.431 529.105 539.101C529.105 538.906 529.05 538.735 528.94 538.588C528.83 538.43 528.61 538.259 528.281 538.076C527.963 537.892 527.487 537.667 526.852 537.398C526.217 537.154 525.686 536.904 525.259 536.647C524.844 536.379 524.526 536.067 524.307 535.713C524.099 535.359 523.995 534.901 523.995 534.34C523.995 533.449 524.343 532.777 525.039 532.325C525.747 531.861 526.687 531.629 527.859 531.629C528.47 531.629 529.044 531.69 529.581 531.813C530.13 531.935 530.68 532.118 531.229 532.362L530.496 534.065C530.032 533.87 529.581 533.705 529.141 533.571C528.702 533.436 528.25 533.369 527.786 533.369C526.773 533.369 526.266 533.656 526.266 534.23C526.266 534.437 526.327 534.614 526.449 534.761C526.584 534.907 526.809 535.066 527.127 535.237C527.456 535.396 527.92 535.591 528.519 535.823C529.105 536.055 529.611 536.299 530.039 536.556C530.466 536.8 530.795 537.105 531.027 537.471C531.259 537.838 531.375 538.301 531.375 538.863ZM539.506 527.985C539.86 527.985 540.159 528.077 540.404 528.26C540.66 528.431 540.788 528.742 540.788 529.194C540.788 529.646 540.66 529.963 540.404 530.146C540.159 530.329 539.86 530.421 539.506 530.421C539.152 530.421 538.847 530.329 538.591 530.146C538.347 529.963 538.224 529.646 538.224 529.194C538.224 528.742 538.347 528.431 538.591 528.26C538.847 528.077 539.152 527.985 539.506 527.985ZM540.66 531.813V541.738H538.353V531.813H540.66ZM548.921 531.629C550.032 531.629 550.899 531.916 551.522 532.49C552.156 533.064 552.474 533.992 552.474 535.274V541.738H550.166V535.732C550.166 534.242 549.556 533.497 548.335 533.497C547.407 533.497 546.772 533.79 546.431 534.376C546.089 534.962 545.918 535.799 545.918 536.885V541.738H543.61V531.813H545.387L545.716 533.113H545.845C546.162 532.6 546.595 532.228 547.145 531.996C547.706 531.752 548.299 531.629 548.921 531.629ZM558.638 541.921C557.478 541.921 556.544 541.488 555.836 540.621C555.128 539.754 554.774 538.478 554.774 536.794C554.774 535.084 555.134 533.796 555.854 532.93C556.575 532.063 557.521 531.629 558.693 531.629C559.425 531.629 560.024 531.77 560.488 532.051C560.964 532.331 561.342 532.673 561.623 533.076H561.733C561.696 532.905 561.66 532.643 561.623 532.289C561.586 531.935 561.568 531.605 561.568 531.3V527.82H563.876V541.738H562.081L561.66 540.438H561.568C561.287 540.853 560.915 541.207 560.451 541.5C559.987 541.781 559.383 541.921 558.638 541.921ZM559.334 540.053C560.189 540.053 560.787 539.809 561.129 539.321C561.483 538.833 561.666 538.094 561.678 537.105V536.812C561.678 535.75 561.507 534.938 561.165 534.376C560.836 533.803 560.213 533.516 559.297 533.516C558.589 533.516 558.046 533.809 557.667 534.395C557.301 534.968 557.118 535.78 557.118 536.83C557.118 537.88 557.307 538.68 557.686 539.229C558.064 539.779 558.614 540.053 559.334 540.053ZM575.632 531.813V541.738H573.819L573.508 540.456H573.398C573.068 540.969 572.623 541.341 572.061 541.573C571.512 541.805 570.926 541.921 570.303 541.921C569.192 541.921 568.319 541.634 567.684 541.061C567.062 540.487 566.75 539.565 566.75 538.295V531.813H569.058V537.838C569.058 539.315 569.668 540.053 570.889 540.053C571.817 540.053 572.452 539.766 572.794 539.193C573.148 538.607 573.325 537.764 573.325 536.665V531.813H575.632ZM585.331 538.863C585.331 539.864 584.97 540.627 584.25 541.152C583.542 541.665 582.523 541.921 581.192 541.921C580.496 541.921 579.898 541.872 579.397 541.775C578.909 541.677 578.433 541.525 577.969 541.317V539.357C578.457 539.589 578.994 539.785 579.58 539.943C580.179 540.102 580.74 540.182 581.265 540.182C581.9 540.182 582.358 540.084 582.639 539.889C582.919 539.693 583.06 539.431 583.06 539.101C583.06 538.906 583.005 538.735 582.895 538.588C582.785 538.43 582.565 538.259 582.236 538.076C581.918 537.892 581.442 537.667 580.807 537.398C580.172 537.154 579.641 536.904 579.214 536.647C578.799 536.379 578.482 536.067 578.262 535.713C578.054 535.359 577.95 534.901 577.95 534.34C577.95 533.449 578.298 532.777 578.994 532.325C579.702 531.861 580.642 531.629 581.814 531.629C582.425 531.629 582.999 531.69 583.536 531.813C584.085 531.935 584.635 532.118 585.184 532.362L584.452 534.065C583.988 533.87 583.536 533.705 583.096 533.571C582.657 533.436 582.205 533.369 581.741 533.369C580.728 533.369 580.221 533.656 580.221 534.23C580.221 534.437 580.282 534.614 580.404 534.761C580.539 534.907 580.765 535.066 581.082 535.237C581.412 535.396 581.876 535.591 582.474 535.823C583.06 536.055 583.566 536.299 583.994 536.556C584.421 536.8 584.751 537.105 584.983 537.471C585.215 537.838 585.331 538.301 585.331 538.863ZM591.396 540.072C591.677 540.072 591.952 540.047 592.221 539.998C592.501 539.937 592.758 539.87 592.99 539.797V541.518C592.745 541.628 592.428 541.72 592.037 541.793C591.647 541.879 591.238 541.921 590.81 541.921C590.249 541.921 589.736 541.83 589.272 541.647C588.808 541.451 588.442 541.122 588.173 540.658C587.905 540.194 587.77 539.547 587.77 538.717V533.552H586.434V532.545L587.899 531.739L588.631 529.633H590.078V531.813H592.898V533.552H590.078V538.698C590.078 539.162 590.2 539.51 590.444 539.742C590.688 539.962 591.006 540.072 591.396 540.072ZM600.191 531.629C600.35 531.629 600.521 531.636 600.704 531.648C600.899 531.66 601.064 531.684 601.198 531.721L600.997 533.864C600.875 533.839 600.728 533.821 600.557 533.809C600.387 533.784 600.234 533.772 600.1 533.772C599.611 533.772 599.154 533.876 598.726 534.083C598.299 534.279 597.951 534.59 597.682 535.017C597.426 535.432 597.298 535.957 597.298 536.592V541.738H594.99V531.813H596.767L597.096 533.534H597.206C597.499 533.009 597.902 532.563 598.415 532.197C598.928 531.819 599.52 531.629 600.191 531.629ZM601.555 531.813H604.064L606.041 537.416C606.176 537.77 606.286 538.118 606.371 538.46C606.456 538.802 606.517 539.15 606.554 539.504H606.627C606.676 539.199 606.749 538.863 606.847 538.497C606.945 538.131 607.055 537.77 607.177 537.416L609.081 531.813H611.572L607.342 543.057C606.963 544.046 606.444 544.803 605.785 545.327C605.138 545.865 604.338 546.133 603.386 546.133C603.081 546.133 602.818 546.115 602.599 546.078C602.379 546.054 602.183 546.023 602.013 545.987V544.155C602.147 544.18 602.306 544.204 602.489 544.229C602.684 544.253 602.885 544.265 603.093 544.265C603.667 544.265 604.118 544.094 604.448 543.753C604.79 543.423 605.052 543.008 605.236 542.507L605.529 541.702L601.555 531.813ZM611.99 540.566C611.99 540.053 612.124 539.693 612.393 539.486C612.661 539.266 612.991 539.156 613.382 539.156C613.76 539.156 614.09 539.266 614.371 539.486C614.651 539.693 614.792 540.053 614.792 540.566C614.792 541.067 614.651 541.427 614.371 541.647C614.09 541.866 613.76 541.976 613.382 541.976C612.991 541.976 612.661 541.866 612.393 541.647C612.124 541.427 611.99 541.067 611.99 540.566Z" fill="#353686" fill-opacity="0.5"/>
<path d="M66.3341 380.581C66.3341 384.448 65.2551 387.365 63.0972 389.33C60.9394 391.274 57.9269 392.247 54.0598 392.247H47.6182V369.365H54.7328C57.083 369.365 59.1233 369.792 60.8539 370.646C62.6058 371.501 63.9518 372.762 64.8919 374.428C65.8533 376.073 66.3341 378.124 66.3341 380.581ZM62.0397 380.709C62.0397 377.975 61.4094 375.966 60.1489 374.684C58.9097 373.403 57.1043 372.762 54.7328 372.762H51.7203V388.817H54.188C59.4225 388.817 62.0397 386.115 62.0397 380.709ZM77.8176 374.556C80.1464 374.556 81.9838 375.251 83.3298 376.639C84.6972 378.028 85.3809 379.962 85.3809 382.44V384.491H73.9078C73.9505 386.072 74.3885 387.301 75.2218 388.177C76.055 389.031 77.2087 389.458 78.6829 389.458C79.7939 389.458 80.798 389.352 81.6954 389.138C82.5927 388.903 83.5114 388.572 84.4515 388.144V391.381C83.5969 391.787 82.7102 392.086 81.7915 392.279C80.8728 392.471 79.7725 392.567 78.4906 392.567C76.8028 392.567 75.2965 392.247 73.9719 391.606C72.6686 390.943 71.6431 389.95 70.8953 388.625C70.1689 387.301 69.8057 385.655 69.8057 383.69C69.8057 380.72 70.5428 378.455 72.017 376.896C73.4912 375.336 75.4247 374.556 77.8176 374.556ZM77.8176 377.537C76.728 377.537 75.8413 377.889 75.1577 378.594C74.4953 379.278 74.1108 380.304 74.004 381.671H81.471C81.4497 380.474 81.1399 379.492 80.5417 378.722C79.9648 377.932 79.0568 377.537 77.8176 377.537ZM92.8327 392.247L86.2309 374.877H90.4932L93.9543 384.908C94.168 385.527 94.3603 386.211 94.5312 386.959C94.7235 387.707 94.841 388.337 94.8837 388.85H95.0119C95.076 388.315 95.2042 387.685 95.3965 386.959C95.5888 386.211 95.7917 385.527 96.0054 384.908L99.4665 374.877H103.729L97.1271 392.247H92.8327ZM108.34 368.179C108.96 368.179 109.484 368.339 109.911 368.66C110.359 368.959 110.584 369.503 110.584 370.294C110.584 371.084 110.359 371.64 109.911 371.96C109.484 372.281 108.96 372.441 108.34 372.441C107.721 372.441 107.187 372.281 106.738 371.96C106.311 371.64 106.097 371.084 106.097 370.294C106.097 369.503 106.311 368.959 106.738 368.66C107.187 368.339 107.721 368.179 108.34 368.179ZM110.359 374.877V392.247H106.321V374.877H110.359ZM122.541 392.567C120.041 392.567 118.076 391.851 116.644 390.42C115.213 388.988 114.497 386.734 114.497 383.658C114.497 381.521 114.85 379.791 115.555 378.466C116.281 377.12 117.275 376.137 118.535 375.518C119.796 374.877 121.238 374.556 122.862 374.556C123.951 374.556 124.923 374.663 125.778 374.877C126.632 375.09 127.359 375.347 127.957 375.646L126.771 378.819C126.109 378.562 125.447 378.349 124.784 378.178C124.122 377.985 123.481 377.889 122.862 377.889C120.041 377.889 118.631 379.801 118.631 383.626C118.631 385.485 118.984 386.884 119.689 387.824C120.415 388.764 121.451 389.234 122.797 389.234C123.759 389.234 124.613 389.117 125.361 388.882C126.109 388.647 126.825 388.326 127.508 387.92V391.413C126.846 391.798 126.13 392.086 125.361 392.279C124.613 392.471 123.673 392.567 122.541 392.567ZM138.564 374.556C140.893 374.556 142.73 375.251 144.076 376.639C145.444 378.028 146.127 379.962 146.127 382.44V384.491H134.654C134.697 386.072 135.135 387.301 135.968 388.177C136.802 389.031 137.955 389.458 139.429 389.458C140.54 389.458 141.545 389.352 142.442 389.138C143.339 388.903 144.258 388.572 145.198 388.144V391.381C144.343 391.787 143.457 392.086 142.538 392.279C141.619 392.471 140.519 392.567 139.237 392.567C137.549 392.567 136.043 392.247 134.718 391.606C133.415 390.943 132.39 389.95 131.642 388.625C130.915 387.301 130.552 385.655 130.552 383.69C130.552 380.72 131.289 378.455 132.764 376.896C134.238 375.336 136.171 374.556 138.564 374.556ZM138.564 377.537C137.475 377.537 136.588 377.889 135.904 378.594C135.242 379.278 134.857 380.304 134.75 381.671H142.218C142.196 380.474 141.886 379.492 141.288 378.722C140.711 377.932 139.803 377.537 138.564 377.537ZM158.909 392.247V369.365H163.011V388.785H172.561V392.247H158.909ZM191.655 383.53C191.655 386.414 190.907 388.647 189.412 390.228C187.916 391.787 185.886 392.567 183.323 392.567C181.742 392.567 180.332 392.215 179.092 391.509C177.853 390.804 176.881 389.779 176.176 388.433C175.471 387.087 175.118 385.452 175.118 383.53C175.118 380.645 175.856 378.434 177.33 376.896C178.825 375.336 180.855 374.556 183.419 374.556C185.021 374.556 186.442 374.909 187.681 375.614C188.92 376.298 189.892 377.312 190.597 378.658C191.302 379.983 191.655 381.607 191.655 383.53ZM179.253 383.53C179.253 385.367 179.573 386.788 180.214 387.792C180.876 388.796 181.934 389.298 183.387 389.298C184.84 389.298 185.886 388.796 186.527 387.792C187.19 386.788 187.521 385.367 187.521 383.53C187.521 381.692 187.19 380.282 186.527 379.299C185.886 378.317 184.829 377.825 183.355 377.825C181.923 377.825 180.876 378.317 180.214 379.299C179.573 380.282 179.253 381.692 179.253 383.53ZM201.662 374.556C203.863 374.556 205.583 375.411 206.822 377.12H206.982L207.367 374.877H210.732V392.375C210.732 394.853 210.027 396.733 208.616 398.015C207.228 399.297 205.145 399.938 202.367 399.938C201.128 399.938 199.985 399.853 198.938 399.682C197.891 399.532 196.898 399.265 195.958 398.88V395.547C197.945 396.445 200.167 396.893 202.624 396.893C203.948 396.893 204.952 396.52 205.636 395.772C206.341 395.045 206.694 393.977 206.694 392.567V392.118C206.694 391.798 206.704 391.424 206.726 390.997C206.747 390.569 206.779 390.228 206.822 389.971H206.694C206.095 390.869 205.358 391.531 204.482 391.958C203.628 392.364 202.656 392.567 201.566 392.567C199.451 392.567 197.795 391.777 196.599 390.196C195.402 388.615 194.804 386.414 194.804 383.594C194.804 380.774 195.402 378.562 196.599 376.96C197.816 375.357 199.504 374.556 201.662 374.556ZM202.72 377.857C200.199 377.857 198.938 379.791 198.938 383.658C198.938 387.461 200.22 389.362 202.784 389.362C204.194 389.362 205.23 388.978 205.892 388.209C206.576 387.418 206.918 386.093 206.918 384.235V383.626C206.918 381.575 206.576 380.101 205.892 379.203C205.23 378.306 204.173 377.857 202.72 377.857ZM217.91 368.179C218.529 368.179 219.053 368.339 219.48 368.66C219.929 368.959 220.153 369.503 220.153 370.294C220.153 371.084 219.929 371.64 219.48 371.96C219.053 372.281 218.529 372.441 217.91 372.441C217.29 372.441 216.756 372.281 216.307 371.96C215.88 371.64 215.666 371.084 215.666 370.294C215.666 369.503 215.88 368.959 216.307 368.66C216.756 368.339 217.29 368.179 217.91 368.179ZM219.929 374.877V392.247H215.891V374.877H219.929ZM236.917 387.215C236.917 388.967 236.287 390.302 235.026 391.221C233.787 392.118 232.003 392.567 229.675 392.567C228.457 392.567 227.41 392.482 226.534 392.311C225.679 392.14 224.846 391.873 224.034 391.509V388.08C224.889 388.486 225.829 388.828 226.854 389.106C227.901 389.384 228.884 389.523 229.803 389.523C230.914 389.523 231.715 389.352 232.206 389.01C232.698 388.668 232.943 388.209 232.943 387.632C232.943 387.29 232.847 386.991 232.655 386.734C232.463 386.457 232.078 386.158 231.501 385.837C230.946 385.517 230.113 385.121 229.002 384.651C227.891 384.224 226.961 383.786 226.213 383.337C225.487 382.867 224.931 382.323 224.547 381.703C224.184 381.083 224.002 380.282 224.002 379.299C224.002 377.74 224.611 376.565 225.829 375.774C227.068 374.962 228.713 374.556 230.764 374.556C231.832 374.556 232.837 374.663 233.777 374.877C234.738 375.09 235.699 375.411 236.661 375.838L235.379 378.819C234.567 378.477 233.777 378.188 233.007 377.953C232.238 377.718 231.448 377.601 230.636 377.601C228.863 377.601 227.976 378.103 227.976 379.107C227.976 379.47 228.083 379.78 228.296 380.036C228.531 380.293 228.927 380.571 229.482 380.87C230.059 381.147 230.871 381.489 231.918 381.895C232.943 382.301 233.83 382.728 234.578 383.177C235.326 383.604 235.902 384.139 236.308 384.779C236.714 385.42 236.917 386.232 236.917 387.215ZM247.533 389.33C248.024 389.33 248.505 389.288 248.975 389.202C249.466 389.095 249.915 388.978 250.321 388.85V391.862C249.893 392.054 249.338 392.215 248.654 392.343C247.971 392.492 247.255 392.567 246.507 392.567C245.524 392.567 244.627 392.407 243.815 392.086C243.003 391.745 242.362 391.168 241.892 390.356C241.422 389.544 241.187 388.412 241.187 386.959V377.921H238.848V376.159L241.411 374.749L242.693 371.063H245.225V374.877H250.16V377.921H245.225V386.927C245.225 387.739 245.439 388.347 245.866 388.753C246.293 389.138 246.849 389.33 247.533 389.33ZM255.841 368.179C256.46 368.179 256.984 368.339 257.411 368.66C257.86 368.959 258.084 369.503 258.084 370.294C258.084 371.084 257.86 371.64 257.411 371.96C256.984 372.281 256.46 372.441 255.841 372.441C255.221 372.441 254.687 372.281 254.239 371.96C253.811 371.64 253.598 371.084 253.598 370.294C253.598 369.503 253.811 368.959 254.239 368.66C254.687 368.339 255.221 368.179 255.841 368.179ZM257.86 374.877V392.247H253.822V374.877H257.86ZM270.041 392.567C267.542 392.567 265.576 391.851 264.145 390.42C262.713 388.988 261.998 386.734 261.998 383.658C261.998 381.521 262.35 379.791 263.055 378.466C263.782 377.12 264.775 376.137 266.036 375.518C267.296 374.877 268.738 374.556 270.362 374.556C271.452 374.556 272.424 374.663 273.278 374.877C274.133 375.09 274.859 375.347 275.458 375.646L274.272 378.819C273.609 378.562 272.947 378.349 272.285 378.178C271.623 377.985 270.982 377.889 270.362 377.889C267.542 377.889 266.132 379.801 266.132 383.626C266.132 385.485 266.484 386.884 267.189 387.824C267.916 388.764 268.952 389.234 270.298 389.234C271.259 389.234 272.114 389.117 272.862 388.882C273.609 388.647 274.325 388.326 275.009 387.92V391.413C274.347 391.798 273.631 392.086 272.862 392.279C272.114 392.471 271.174 392.567 270.041 392.567ZM290.904 387.215C290.904 388.967 290.273 390.302 289.013 391.221C287.774 392.118 285.99 392.567 283.661 392.567C282.443 392.567 281.396 392.482 280.52 392.311C279.666 392.14 278.832 391.873 278.021 391.509V388.08C278.875 388.486 279.815 388.828 280.841 389.106C281.888 389.384 282.87 389.523 283.789 389.523C284.9 389.523 285.701 389.352 286.193 389.01C286.684 388.668 286.93 388.209 286.93 387.632C286.93 387.29 286.834 386.991 286.641 386.734C286.449 386.457 286.065 386.158 285.488 385.837C284.932 385.517 284.099 385.121 282.988 384.651C281.877 384.224 280.948 383.786 280.2 383.337C279.473 382.867 278.918 382.323 278.533 381.703C278.17 381.083 277.989 380.282 277.989 379.299C277.989 377.74 278.597 376.565 279.815 375.774C281.054 374.962 282.7 374.556 284.751 374.556C285.819 374.556 286.823 374.663 287.763 374.877C288.725 375.09 289.686 375.411 290.647 375.838L289.365 378.819C288.554 378.477 287.763 378.188 286.994 377.953C286.225 377.718 285.434 377.601 284.622 377.601C282.849 377.601 281.962 378.103 281.962 379.107C281.962 379.47 282.069 379.78 282.283 380.036C282.518 380.293 282.913 380.571 283.469 380.87C284.046 381.147 284.857 381.489 285.904 381.895C286.93 382.301 287.816 382.728 288.564 383.177C289.312 383.604 289.889 384.139 290.295 384.779C290.701 385.42 290.904 386.232 290.904 387.215Z" fill="#353686"/>
<path d="M47.1925 459.354V439.741H50.7086V456.387H58.8944V459.354H47.1925ZM75.2608 451.882C75.2608 454.354 74.6199 456.268 73.338 457.623C72.0561 458.96 70.3163 459.628 68.1188 459.628C66.7636 459.628 65.555 459.326 64.4928 458.722C63.4307 458.118 62.5974 457.239 61.9931 456.085C61.3888 454.931 61.0866 453.53 61.0866 451.882C61.0866 449.41 61.7184 447.514 62.982 446.196C64.2639 444.859 66.0036 444.191 68.2012 444.191C69.5747 444.191 70.7925 444.493 71.8546 445.097C72.9168 445.683 73.75 446.553 74.3543 447.707C74.9587 448.842 75.2608 450.234 75.2608 451.882ZM64.6302 451.882C64.6302 453.457 64.9049 454.675 65.4542 455.536C66.0219 456.396 66.9284 456.827 68.1737 456.827C69.419 456.827 70.3163 456.396 70.8657 455.536C71.4334 454.675 71.7173 453.457 71.7173 451.882C71.7173 450.307 71.4334 449.099 70.8657 448.256C70.3163 447.414 69.4098 446.993 68.1462 446.993C66.9193 446.993 66.0219 447.414 65.4542 448.256C64.9049 449.099 64.6302 450.307 64.6302 451.882ZM86.6402 444.191C86.8783 444.191 87.1347 444.2 87.4094 444.218C87.7024 444.236 87.9496 444.273 88.151 444.328L87.8489 447.542C87.6658 447.505 87.446 447.478 87.1896 447.46C86.9332 447.423 86.7043 447.405 86.5029 447.405C85.7704 447.405 85.0836 447.56 84.4427 447.872C83.8017 448.165 83.2798 448.632 82.8769 449.272C82.4924 449.895 82.3001 450.683 82.3001 451.635V459.354H78.8389V444.465H81.5035L81.9979 447.047H82.1627C82.6022 446.26 83.2066 445.592 83.9757 445.042C84.7448 444.475 85.633 444.191 86.6402 444.191ZM96.3622 444.191C98.3584 444.191 99.9333 444.786 101.087 445.976C102.259 447.167 102.845 448.824 102.845 450.948V452.706H93.011C93.0476 454.061 93.423 455.114 94.1372 455.865C94.8514 456.598 95.8403 456.964 97.1039 456.964C98.0562 456.964 98.9169 456.872 99.686 456.689C100.455 456.488 101.243 456.204 102.048 455.838V458.612C101.316 458.96 100.556 459.216 99.7685 459.381C98.981 459.546 98.0379 459.628 96.9391 459.628C95.4924 459.628 94.2013 459.354 93.0659 458.804C91.9488 458.237 91.0698 457.385 90.4289 456.25C89.8062 455.114 89.4949 453.704 89.4949 452.019C89.4949 449.474 90.1267 447.533 91.3903 446.196C92.6539 444.859 94.3112 444.191 96.3622 444.191ZM96.3622 446.745C95.4283 446.745 94.6683 447.047 94.0823 447.652C93.5146 448.238 93.185 449.117 93.0934 450.289H99.4938C99.4754 449.263 99.2099 448.421 98.6971 447.762C98.2027 447.084 97.4244 446.745 96.3622 446.745ZM123.394 444.191C125.078 444.191 126.342 444.621 127.184 445.482C128.045 446.342 128.475 447.734 128.475 449.657V459.354H125.014V450.316C125.014 448.1 124.172 446.993 122.487 446.993C121.278 446.993 120.418 447.386 119.905 448.174C119.392 448.961 119.136 450.106 119.136 451.607V459.354H115.675V450.316C115.675 448.1 114.823 446.993 113.12 446.993C111.856 446.993 110.987 447.432 110.51 448.311C110.034 449.19 109.796 450.445 109.796 452.074V459.354H106.335V444.465H109L109.494 446.416H109.686C110.126 445.647 110.739 445.088 111.527 444.74C112.333 444.374 113.166 444.191 114.027 444.191C115.144 444.191 116.078 444.383 116.828 444.768C117.598 445.134 118.184 445.711 118.586 446.498H118.861C119.319 445.692 119.96 445.106 120.784 444.74C121.608 444.374 122.478 444.191 123.394 444.191ZM146.925 459.354H138.684V457.348L141.046 456.469V442.652L138.684 441.746V439.741H146.925V441.746L144.562 442.652V456.469L146.925 457.348V459.354ZM157.943 444.191C159.683 444.191 161.084 444.841 162.146 446.141C163.208 447.423 163.739 449.337 163.739 451.882C163.739 454.428 163.19 456.36 162.091 457.678C161.011 458.978 159.601 459.628 157.861 459.628C156.762 459.628 155.874 459.427 155.196 459.024C154.519 458.621 153.979 458.154 153.576 457.623H153.356C153.411 457.971 153.457 458.356 153.493 458.777C153.548 459.18 153.576 459.555 153.576 459.903V465.946H150.114V444.465H152.916L153.411 446.443H153.576C153.979 445.821 154.528 445.289 155.224 444.85C155.92 444.41 156.826 444.191 157.943 444.191ZM156.954 446.993C155.727 446.993 154.858 447.359 154.345 448.091C153.85 448.824 153.594 449.932 153.576 451.415V451.855C153.576 453.448 153.814 454.675 154.29 455.536C154.784 456.378 155.691 456.799 157.009 456.799C158.09 456.799 158.886 456.36 159.399 455.481C159.93 454.583 160.196 453.365 160.196 451.827C160.196 450.289 159.93 449.099 159.399 448.256C158.886 447.414 158.071 446.993 156.954 446.993ZM177.446 455.041C177.446 456.543 176.906 457.687 175.825 458.475C174.763 459.244 173.234 459.628 171.238 459.628C170.194 459.628 169.297 459.555 168.546 459.409C167.813 459.262 167.099 459.033 166.403 458.722V455.783C167.136 456.131 167.941 456.424 168.82 456.662C169.718 456.9 170.56 457.019 171.348 457.019C172.3 457.019 172.987 456.872 173.408 456.579C173.829 456.286 174.04 455.893 174.04 455.398C174.04 455.105 173.957 454.849 173.792 454.629C173.628 454.391 173.298 454.135 172.804 453.86C172.327 453.585 171.613 453.246 170.661 452.844C169.709 452.477 168.912 452.102 168.271 451.717C167.648 451.314 167.172 450.847 166.843 450.316C166.531 449.785 166.376 449.099 166.376 448.256C166.376 446.919 166.898 445.912 167.941 445.234C169.004 444.539 170.414 444.191 172.172 444.191C173.087 444.191 173.948 444.282 174.754 444.465C175.578 444.648 176.402 444.923 177.226 445.289L176.127 447.844C175.431 447.551 174.754 447.304 174.095 447.102C173.435 446.901 172.758 446.8 172.062 446.8C170.542 446.8 169.782 447.231 169.782 448.091C169.782 448.403 169.873 448.668 170.057 448.888C170.258 449.108 170.597 449.346 171.073 449.602C171.567 449.84 172.263 450.133 173.161 450.481C174.04 450.829 174.8 451.195 175.441 451.58C176.082 451.946 176.576 452.404 176.924 452.953C177.272 453.503 177.446 454.199 177.446 455.041ZM193.989 444.465V459.354H191.269L190.802 457.431H190.638C190.143 458.2 189.475 458.759 188.632 459.107C187.808 459.454 186.929 459.628 185.995 459.628C184.329 459.628 183.019 459.198 182.067 458.337C181.133 457.477 180.666 456.094 180.666 454.19V444.465H184.127V453.503C184.127 455.719 185.043 456.827 186.874 456.827C188.266 456.827 189.218 456.396 189.731 455.536C190.262 454.656 190.528 453.393 190.528 451.745V444.465H193.989ZM215.459 444.191C217.144 444.191 218.407 444.621 219.25 445.482C220.11 446.342 220.541 447.734 220.541 449.657V459.354H217.08V450.316C217.08 448.1 216.237 446.993 214.553 446.993C213.344 446.993 212.483 447.386 211.97 448.174C211.458 448.961 211.201 450.106 211.201 451.607V459.354H207.74V450.316C207.74 448.1 206.889 446.993 205.185 446.993C203.922 446.993 203.052 447.432 202.576 448.311C202.1 449.19 201.862 450.445 201.862 452.074V459.354H198.401V444.465H201.065L201.559 446.416H201.752C202.191 445.647 202.805 445.088 203.592 444.74C204.398 444.374 205.231 444.191 206.092 444.191C207.209 444.191 208.143 444.383 208.894 444.768C209.663 445.134 210.249 445.711 210.652 446.498H210.927C211.384 445.692 212.025 445.106 212.849 444.74C213.673 444.374 214.543 444.191 215.459 444.191ZM243.742 453.997C243.742 455.737 243.111 457.11 241.847 458.118C240.583 459.125 238.835 459.628 236.6 459.628C234.439 459.628 232.608 459.262 231.106 458.53V455.233C231.931 455.6 232.837 455.938 233.826 456.25C234.815 456.543 235.822 456.689 236.848 456.689C238.02 456.689 238.88 456.46 239.43 456.002C239.979 455.545 240.254 454.94 240.254 454.19C240.254 453.365 239.906 452.715 239.21 452.239C238.514 451.763 237.498 451.241 236.161 450.673C235.355 450.325 234.586 449.913 233.853 449.437C233.121 448.961 232.517 448.357 232.04 447.624C231.564 446.892 231.326 445.958 231.326 444.822C231.326 443.138 231.912 441.828 233.084 440.894C234.275 439.942 235.859 439.466 237.836 439.466C238.88 439.466 239.851 439.576 240.748 439.796C241.664 440.015 242.58 440.327 243.495 440.73L242.369 443.559C241.545 443.211 240.757 442.936 240.007 442.735C239.274 442.533 238.514 442.433 237.727 442.433C236.774 442.433 236.051 442.652 235.557 443.092C235.062 443.513 234.815 444.062 234.815 444.74C234.815 445.289 234.952 445.747 235.227 446.114C235.502 446.48 235.923 446.819 236.49 447.13C237.076 447.441 237.827 447.798 238.743 448.201C239.787 448.659 240.684 449.135 241.435 449.63C242.186 450.124 242.753 450.719 243.138 451.415C243.541 452.111 243.742 452.972 243.742 453.997ZM253.104 444.191C255.1 444.191 256.675 444.786 257.829 445.976C259.001 447.167 259.587 448.824 259.587 450.948V452.706H249.753C249.789 454.061 250.165 455.114 250.879 455.865C251.593 456.598 252.582 456.964 253.846 456.964C254.798 456.964 255.659 456.872 256.428 456.689C257.197 456.488 257.984 456.204 258.79 455.838V458.612C258.058 458.96 257.298 459.216 256.51 459.381C255.723 459.546 254.78 459.628 253.681 459.628C252.234 459.628 250.943 459.354 249.808 458.804C248.691 458.237 247.812 457.385 247.171 456.25C246.548 455.114 246.237 453.704 246.237 452.019C246.237 449.474 246.869 447.533 248.132 446.196C249.396 444.859 251.053 444.191 253.104 444.191ZM253.104 446.745C252.17 446.745 251.41 447.047 250.824 447.652C250.256 448.238 249.927 449.117 249.835 450.289H256.236C256.217 449.263 255.952 448.421 255.439 447.762C254.945 447.084 254.166 446.745 253.104 446.745ZM268.846 456.854C269.267 456.854 269.679 456.817 270.082 456.744C270.503 456.653 270.887 456.552 271.235 456.442V459.024C270.869 459.189 270.393 459.326 269.807 459.436C269.221 459.564 268.607 459.628 267.967 459.628C267.124 459.628 266.355 459.491 265.659 459.216C264.963 458.923 264.414 458.429 264.011 457.733C263.608 457.037 263.407 456.067 263.407 454.821V447.075H261.401V445.564L263.599 444.355L264.698 441.196H266.868V444.465H271.098V447.075H266.868V454.794C266.868 455.49 267.051 456.012 267.417 456.36C267.783 456.689 268.26 456.854 268.846 456.854ZM293.816 459.354L292.03 454.162H284.641L282.883 459.354H279.147L286.344 439.658H290.354L297.551 459.354H293.816ZM289.421 446.086C289.347 445.83 289.237 445.482 289.091 445.042C288.944 444.603 288.798 444.154 288.651 443.696C288.523 443.22 288.422 442.826 288.349 442.515C288.258 442.881 288.139 443.302 287.992 443.779C287.864 444.255 287.736 444.703 287.608 445.125C287.479 445.546 287.388 445.866 287.333 446.086L285.602 451.14H291.124L289.421 446.086ZM316.86 444.191C318.544 444.191 319.808 444.621 320.65 445.482C321.511 446.342 321.942 447.734 321.942 449.657V459.354H318.48V450.316C318.48 448.1 317.638 446.993 315.953 446.993C314.745 446.993 313.884 447.386 313.371 448.174C312.858 448.961 312.602 450.106 312.602 451.607V459.354H309.141V450.316C309.141 448.1 308.289 446.993 306.586 446.993C305.323 446.993 304.453 447.432 303.977 448.311C303.5 449.19 303.262 450.445 303.262 452.074V459.354H299.801V444.465H302.466L302.96 446.416H303.152C303.592 445.647 304.205 445.088 304.993 444.74C305.799 444.374 306.632 444.191 307.493 444.191C308.61 444.191 309.544 444.383 310.294 444.768C311.064 445.134 311.65 445.711 312.053 446.498H312.327C312.785 445.692 313.426 445.106 314.25 444.74C315.074 444.374 315.944 444.191 316.86 444.191ZM328.009 438.724C328.54 438.724 328.988 438.862 329.355 439.136C329.739 439.393 329.931 439.86 329.931 440.537C329.931 441.215 329.739 441.691 329.355 441.966C328.988 442.24 328.54 442.378 328.009 442.378C327.478 442.378 327.02 442.24 326.635 441.966C326.269 441.691 326.086 441.215 326.086 440.537C326.086 439.86 326.269 439.393 326.635 439.136C327.02 438.862 327.478 438.724 328.009 438.724ZM329.739 444.465V459.354H326.278V444.465H329.739ZM339.933 456.854C340.355 456.854 340.767 456.817 341.169 456.744C341.591 456.653 341.975 456.552 342.323 456.442V459.024C341.957 459.189 341.481 459.326 340.895 459.436C340.309 459.564 339.695 459.628 339.054 459.628C338.212 459.628 337.443 459.491 336.747 459.216C336.051 458.923 335.502 458.429 335.099 457.733C334.696 457.037 334.494 456.067 334.494 454.821V447.075H332.489V445.564L334.687 444.355L335.785 441.196H337.956V444.465H342.186V447.075H337.956V454.794C337.956 455.49 338.139 456.012 338.505 456.36C338.871 456.689 339.347 456.854 339.933 456.854Z" fill="#353686" fill-opacity="0.9"/>
<path d="M558.544 45.4261L552.982 61.7704H549.205L543.665 45.4261H547.167L550.235 55.1548C550.296 55.3227 550.38 55.6356 550.487 56.0934C550.609 56.5359 550.731 57.009 550.853 57.5126C550.975 58.001 551.059 58.413 551.105 58.7488C551.15 58.413 551.227 58.001 551.334 57.5126C551.456 57.009 551.578 56.5359 551.7 56.0934C551.822 55.6356 551.906 55.3227 551.952 55.1548L555.042 45.4261H558.544ZM559.24 57.0319V54.2392H565.237V57.0319H559.24ZM573.369 61.7704H569.912V48.3104H565.472V45.4261H577.81V48.3104H573.369V61.7704ZM585.897 49.0429C586.065 49.0429 586.264 49.0505 586.492 49.0658C586.721 49.0811 586.904 49.1039 587.042 49.1345L586.79 52.3392C586.683 52.3087 586.523 52.2858 586.309 52.2706C586.111 52.24 585.935 52.2248 585.783 52.2248C585.203 52.2248 584.646 52.3316 584.112 52.5452C583.578 52.7436 583.143 53.0717 582.807 53.5296C582.486 53.9874 582.326 54.6131 582.326 55.4066V61.7704H578.915V49.2718H581.502L582.006 51.3778H582.166C582.532 50.7368 583.036 50.1875 583.677 49.7296C584.318 49.2718 585.058 49.0429 585.897 49.0429ZM593.991 49.02C595.67 49.02 596.951 49.3863 597.837 50.1188C598.737 50.836 599.187 51.9424 599.187 53.438V61.7704H596.807L596.143 60.0764H596.051C595.517 60.7479 594.952 61.2363 594.357 61.5415C593.762 61.8467 592.946 61.9993 591.908 61.9993C590.794 61.9993 589.87 61.6788 589.138 61.0379C588.405 60.3817 588.039 59.3821 588.039 58.0391C588.039 56.7114 588.505 55.7348 589.436 55.1091C590.366 54.4681 591.763 54.1171 593.625 54.0561L595.799 53.9874V53.438C595.799 52.7818 595.624 52.3011 595.273 51.9959C594.937 51.6906 594.464 51.538 593.854 51.538C593.243 51.538 592.648 51.6296 592.068 51.8127C591.488 51.9806 590.908 52.1943 590.328 52.4537L589.207 50.1417C589.878 49.7907 590.618 49.516 591.427 49.3176C592.251 49.1192 593.106 49.02 593.991 49.02ZM594.472 56.0247C593.373 56.0552 592.61 56.2536 592.182 56.6199C591.755 56.9861 591.542 57.4668 591.542 58.062C591.542 58.5809 591.694 58.9548 591.999 59.1837C592.305 59.3973 592.701 59.5042 593.19 59.5042C593.922 59.5042 594.54 59.2905 595.044 58.8632C595.547 58.4206 595.799 57.8026 595.799 57.009V55.9789L594.472 56.0247ZM607.76 61.9993C605.898 61.9993 604.456 61.4881 603.434 60.4656C602.427 59.4279 601.923 57.8026 601.923 55.5898C601.923 54.0637 602.182 52.8199 602.701 51.8585C603.22 50.8971 603.937 50.1875 604.853 49.7296C605.784 49.2718 606.852 49.0429 608.058 49.0429C608.912 49.0429 609.653 49.1268 610.278 49.2947C610.919 49.4626 611.476 49.661 611.949 49.8899L610.942 52.5224C610.408 52.3087 609.904 52.1332 609.431 51.9959C608.974 51.8585 608.516 51.7898 608.058 51.7898C606.288 51.7898 605.402 53.0489 605.402 55.5669C605.402 56.8183 605.631 57.7415 606.089 58.3367C606.562 58.9319 607.219 59.2295 608.058 59.2295C608.775 59.2295 609.408 59.1379 609.958 58.9548C610.507 58.7564 611.041 58.4893 611.56 58.1536V61.0608C611.041 61.3965 610.492 61.633 609.912 61.7704C609.347 61.923 608.63 61.9993 607.76 61.9993ZM617.848 52.1561C617.848 52.6292 617.825 53.1023 617.779 53.5754C617.749 54.0332 617.71 54.4986 617.665 54.9717H617.71C617.939 54.6512 618.176 54.3308 618.42 54.0103C618.664 53.6745 618.924 53.3617 619.198 53.0717L622.701 49.2718H626.546L621.579 54.697L626.844 61.7704H622.907L619.313 56.7114L617.848 57.8789V61.7704H614.437V44.3731H617.848V52.1561Z" fill="#353686"/>
</g>
<defs>
<filter id="filter0_d_0_1" x="610" y="36" width="712" height="774" filterUnits="userSpaceOnUse" color-interpolation-filters="sRGB">
<feFlood flood-opacity="0" result="BackgroundImageFix"/>
<feColorMatrix in="SourceAlpha" type="matrix" values="0 0 0 0 0 0 0 0 0 0 0 0 0 0 0 0 0 0 127 0" result="hardAlpha"/>
<feMorphology radius="2" operator="dilate" in="SourceAlpha" result="effect1_dropShadow_0_1"/>
<feOffset dx="4" dy="4"/>
<feGaussianBlur stdDeviation="30"/>
<feColorMatrix type="matrix" values="0 0 0 0 0.313726 0 0 0 0 0.317647 0 0 0 0 0.858824 0 0 0 0.1 0"/>
<feBlend mode="normal" in2="BackgroundImageFix" result="effect1_dropShadow_0_1"/>
<feBlend mode="normal" in="SourceGraphic" in2="effect1_dropShadow_0_1" result="shape"/>
</filter>
<filter id="filter1_d_0_1" x="-62.2653" y="-62.2653" width="806.119" height="877.081" filterUnits="userSpaceOnUse" color-interpolation-filters="sRGB">
<feFlood flood-opacity="0" result="BackgroundImageFix"/>
<feColorMatrix in="SourceAlpha" type="matrix" values="0 0 0 0 0 0 0 0 0 0 0 0 0 0 0 0 0 0 127 0" result="hardAlpha"/>
<feMorphology radius="2.14708" operator="dilate" in="SourceAlpha" result="effect1_dropShadow_0_1"/>
<feOffset dx="4.29416" dy="4.29416"/>
<feGaussianBlur stdDeviation="32.2062"/>
<feColorMatrix type="matrix" values="0 0 0 0 0.313726 0 0 0 0 0.317647 0 0 0 0 0.858824 0 0 0 0.1 0"/>
<feBlend mode="normal" in2="BackgroundImageFix" result="effect1_dropShadow_0_1"/>
<feBlend mode="normal" in="SourceGraphic" in2="effect1_dropShadow_0_1" result="shape"/>
</filter>
<clipPath id="clip0_0_1">
<rect width="1440" height="4084" fill="white" transform="translate(-90 -2052)"/>
</clipPath>
</defs>
</svg>
