<svg width="588" height="650" viewBox="0 0 588 650" fill="none" xmlns="http://www.w3.org/2000/svg">
<rect width="588" height="650" fill="#E5E5E5"/>
<g clip-path="url(#clip0_0_1)">
<rect width="1440" height="4084" transform="translate(-758 -2146)" fill="white"/>
<g filter="url(#filter0_d_0_1)">
<rect width="588" height="650" rx="6" fill="white"/>
</g>
<path d="M51.544 439.576V446.968C51.544 447.757 51.3733 448.472 51.032 449.112C50.7013 449.741 50.1947 450.243 49.512 450.616C48.8293 450.979 47.9653 451.16 46.92 451.16C45.4373 451.16 44.312 450.776 43.544 450.008C42.776 449.229 42.392 448.205 42.392 446.936V439.576H44.44V446.728C44.44 447.667 44.6533 448.349 45.08 448.776C45.5067 449.203 46.1413 449.416 46.984 449.416C47.8693 449.416 48.5093 449.187 48.904 448.728C49.3093 448.259 49.512 447.587 49.512 446.712V439.576H51.544ZM53.4971 447.56V445.864H57.5611V447.56H53.4971ZM63.0528 451H61.0048V441.304H57.7248V439.576H66.3328V441.304H63.0528V451ZM71.6369 442.168C71.7755 442.168 71.9249 442.173 72.0849 442.184C72.2555 442.195 72.3995 442.216 72.5169 442.248L72.3409 444.12C72.2342 444.099 72.1062 444.083 71.9569 444.072C71.8075 444.051 71.6742 444.04 71.5569 444.04C71.1302 444.04 70.7302 444.131 70.3569 444.312C69.9835 444.483 69.6795 444.755 69.4449 445.128C69.2209 445.491 69.1089 445.949 69.1089 446.504V451H67.0929V442.328H68.6449L68.9329 443.832H69.0289C69.2849 443.373 69.6369 442.984 70.0849 442.664C70.5329 442.333 71.0502 442.168 71.6369 442.168ZM77.2676 442.168C78.3876 442.168 79.2356 442.413 79.8116 442.904C80.3983 443.395 80.6916 444.152 80.6916 445.176V451H79.2676L78.8676 449.8H78.8036C78.4303 450.269 78.0356 450.616 77.6196 450.84C77.2036 451.053 76.6383 451.16 75.9236 451.16C75.145 451.16 74.4996 450.941 73.9876 450.504C73.4756 450.067 73.2196 449.389 73.2196 448.472C73.2196 447.576 73.545 446.904 74.1956 446.456C74.857 446.008 75.8543 445.757 77.1876 445.704L78.6916 445.656V445.224C78.6916 444.68 78.5583 444.291 78.2916 444.056C78.025 443.811 77.6516 443.688 77.1716 443.688C76.7343 443.688 76.313 443.752 75.9076 443.88C75.513 444.008 75.1183 444.157 74.7236 444.328L74.0836 442.92C74.5103 442.696 74.9956 442.515 75.5396 442.376C76.0943 442.237 76.6703 442.168 77.2676 442.168ZM78.6916 446.904L77.6356 446.936C76.7503 446.968 76.137 447.123 75.7956 447.4C75.4543 447.667 75.2836 448.029 75.2836 448.488C75.2836 448.904 75.401 449.203 75.6356 449.384C75.881 449.555 76.201 449.64 76.5956 449.64C77.1823 449.64 77.6783 449.475 78.0836 449.144C78.489 448.803 78.6916 448.301 78.6916 447.64V446.904ZM86.7219 451.16C85.4739 451.16 84.4925 450.803 83.7779 450.088C83.0632 449.373 82.7059 448.248 82.7059 446.712C82.7059 445.645 82.8819 444.781 83.2339 444.12C83.5965 443.448 84.0925 442.957 84.7219 442.648C85.3512 442.328 86.0712 442.168 86.8819 442.168C87.4259 442.168 87.9112 442.221 88.3379 442.328C88.7645 442.435 89.1272 442.563 89.4259 442.712L88.8339 444.296C88.5032 444.168 88.1725 444.061 87.8419 443.976C87.5112 443.88 87.1912 443.832 86.8819 443.832C85.4739 443.832 84.7699 444.787 84.7699 446.696C84.7699 447.624 84.9459 448.323 85.2979 448.792C85.6605 449.261 86.1779 449.496 86.8499 449.496C87.3299 449.496 87.7565 449.437 88.1299 449.32C88.5032 449.203 88.8605 449.043 89.2019 448.84V450.584C88.8712 450.776 88.5139 450.92 88.1299 451.016C87.7565 451.112 87.2872 451.16 86.7219 451.16ZM93.2335 438.84V444.616C93.2335 444.893 93.2228 445.187 93.2015 445.496C93.1802 445.805 93.1588 446.099 93.1375 446.376H93.1855C93.3135 446.184 93.4735 445.965 93.6655 445.72C93.8575 445.475 94.0388 445.256 94.2095 445.064L96.7695 442.328H99.0575L95.5855 446.072L99.2815 451H96.9295L94.2415 447.288L93.2335 448.12V451H91.2335V438.84H93.2335ZM105.804 438.984C106.113 438.984 106.375 439.064 106.588 439.224C106.812 439.373 106.924 439.645 106.924 440.04C106.924 440.435 106.812 440.712 106.588 440.872C106.375 441.032 106.113 441.112 105.804 441.112C105.495 441.112 105.228 441.032 105.004 440.872C104.791 440.712 104.684 440.435 104.684 440.04C104.684 439.645 104.791 439.373 105.004 439.224C105.228 439.064 105.495 438.984 105.804 438.984ZM106.812 442.328V451H104.796V442.328H106.812ZM115.294 448.488C115.294 449.363 114.979 450.029 114.35 450.488C113.731 450.936 112.84 451.16 111.678 451.16C111.07 451.16 110.547 451.117 110.11 451.032C109.683 450.947 109.267 450.813 108.862 450.632V448.92C109.288 449.123 109.758 449.293 110.27 449.432C110.792 449.571 111.283 449.64 111.742 449.64C112.296 449.64 112.696 449.555 112.942 449.384C113.187 449.213 113.31 448.984 113.31 448.696C113.31 448.525 113.262 448.376 113.166 448.248C113.07 448.109 112.878 447.96 112.59 447.8C112.312 447.64 111.896 447.443 111.342 447.208C110.787 446.995 110.323 446.776 109.95 446.552C109.587 446.317 109.31 446.045 109.118 445.736C108.936 445.427 108.846 445.027 108.846 444.536C108.846 443.757 109.15 443.171 109.758 442.776C110.376 442.371 111.198 442.168 112.222 442.168C112.755 442.168 113.256 442.221 113.726 442.328C114.206 442.435 114.686 442.595 115.166 442.808L114.526 444.296C114.12 444.125 113.726 443.981 113.342 443.864C112.958 443.747 112.563 443.688 112.158 443.688C111.272 443.688 110.83 443.939 110.83 444.44C110.83 444.621 110.883 444.776 110.99 444.904C111.107 445.032 111.304 445.171 111.582 445.32C111.87 445.459 112.275 445.629 112.798 445.832C113.31 446.035 113.752 446.248 114.126 446.472C114.499 446.685 114.787 446.952 114.99 447.272C115.192 447.592 115.294 447.997 115.294 448.488ZM124.846 442.168C125.966 442.168 126.814 442.413 127.39 442.904C127.976 443.395 128.27 444.152 128.27 445.176V451H126.846L126.446 449.8H126.382C126.008 450.269 125.614 450.616 125.198 450.84C124.782 451.053 124.216 451.16 123.502 451.16C122.723 451.16 122.078 450.941 121.566 450.504C121.054 450.067 120.798 449.389 120.798 448.472C120.798 447.576 121.123 446.904 121.774 446.456C122.435 446.008 123.432 445.757 124.766 445.704L126.27 445.656V445.224C126.27 444.68 126.136 444.291 125.87 444.056C125.603 443.811 125.23 443.688 124.75 443.688C124.312 443.688 123.891 443.752 123.486 443.88C123.091 444.008 122.696 444.157 122.302 444.328L121.662 442.92C122.088 442.696 122.574 442.515 123.118 442.376C123.672 442.237 124.248 442.168 124.846 442.168ZM126.27 446.904L125.214 446.936C124.328 446.968 123.715 447.123 123.374 447.4C123.032 447.667 122.862 448.029 122.862 448.488C122.862 448.904 122.979 449.203 123.214 449.384C123.459 449.555 123.779 449.64 124.174 449.64C124.76 449.64 125.256 449.475 125.662 449.144C126.067 448.803 126.27 448.301 126.27 447.64V446.904ZM135.436 442.168C136.407 442.168 137.164 442.419 137.708 442.92C138.263 443.421 138.54 444.232 138.54 445.352V451H136.524V445.752C136.524 444.451 135.991 443.8 134.924 443.8C134.113 443.8 133.559 444.056 133.26 444.568C132.961 445.08 132.812 445.811 132.812 446.76V451H130.796V442.328H132.348L132.636 443.464H132.748C133.025 443.016 133.404 442.691 133.884 442.488C134.375 442.275 134.892 442.168 135.436 442.168ZM152.962 446.648C152.962 448.088 152.589 449.203 151.842 449.992C151.095 450.771 150.082 451.16 148.802 451.16C148.013 451.16 147.309 450.984 146.69 450.632C146.071 450.28 145.586 449.768 145.234 449.096C144.882 448.424 144.706 447.608 144.706 446.648C144.706 445.208 145.074 444.104 145.81 443.336C146.557 442.557 147.57 442.168 148.85 442.168C149.65 442.168 150.359 442.344 150.978 442.696C151.597 443.037 152.082 443.544 152.434 444.216C152.786 444.877 152.962 445.688 152.962 446.648ZM146.77 446.648C146.77 447.565 146.93 448.275 147.25 448.776C147.581 449.277 148.109 449.528 148.834 449.528C149.559 449.528 150.082 449.277 150.402 448.776C150.733 448.275 150.898 447.565 150.898 446.648C150.898 445.731 150.733 445.027 150.402 444.536C150.082 444.045 149.554 443.8 148.818 443.8C148.103 443.8 147.581 444.045 147.25 444.536C146.93 445.027 146.77 445.731 146.77 446.648ZM159.686 442.168C160.657 442.168 161.414 442.419 161.958 442.92C162.513 443.421 162.79 444.232 162.79 445.352V451H160.774V445.752C160.774 444.451 160.241 443.8 159.174 443.8C158.363 443.8 157.809 444.056 157.51 444.568C157.211 445.08 157.062 445.811 157.062 446.76V451H155.046V442.328H156.598L156.886 443.464H156.998C157.275 443.016 157.654 442.691 158.134 442.488C158.625 442.275 159.142 442.168 159.686 442.168ZM172.332 451.16C171.319 451.16 170.503 450.781 169.884 450.024C169.265 449.267 168.956 448.152 168.956 446.68C168.956 445.187 169.271 444.061 169.9 443.304C170.529 442.547 171.356 442.168 172.38 442.168C173.02 442.168 173.543 442.291 173.948 442.536C174.364 442.781 174.695 443.08 174.94 443.432H175.036C175.004 443.283 174.972 443.053 174.94 442.744C174.908 442.435 174.892 442.147 174.892 441.88V438.84H176.908V451H175.34L174.972 449.864H174.892C174.647 450.227 174.321 450.536 173.916 450.792C173.511 451.037 172.983 451.16 172.332 451.16ZM172.94 449.528C173.687 449.528 174.209 449.315 174.508 448.888C174.817 448.461 174.977 447.816 174.988 446.952V446.696C174.988 445.768 174.839 445.059 174.54 444.568C174.252 444.067 173.708 443.816 172.908 443.816C172.289 443.816 171.815 444.072 171.484 444.584C171.164 445.085 171.004 445.795 171.004 446.712C171.004 447.629 171.169 448.328 171.5 448.808C171.831 449.288 172.311 449.528 172.94 449.528ZM182.972 442.168C184.134 442.168 185.052 442.515 185.724 443.208C186.406 443.901 186.748 444.867 186.748 446.104V447.128H181.02C181.041 447.917 181.26 448.531 181.676 448.968C182.092 449.395 182.668 449.608 183.404 449.608C183.958 449.608 184.46 449.555 184.908 449.448C185.356 449.331 185.814 449.165 186.284 448.952V450.568C185.857 450.771 185.414 450.92 184.956 451.016C184.497 451.112 183.948 451.16 183.308 451.16C182.465 451.16 181.713 451 181.052 450.68C180.401 450.349 179.889 449.853 179.516 449.192C179.153 448.531 178.972 447.709 178.972 446.728C178.972 445.245 179.34 444.115 180.076 443.336C180.812 442.557 181.777 442.168 182.972 442.168ZM182.972 443.656C182.428 443.656 181.985 443.832 181.644 444.184C181.313 444.525 181.121 445.037 181.068 445.72H184.796C184.785 445.123 184.63 444.632 184.332 444.248C184.044 443.853 183.59 443.656 182.972 443.656ZM198.716 442.168C199.698 442.168 200.434 442.419 200.924 442.92C201.426 443.421 201.676 444.232 201.676 445.352V451H199.66V445.736C199.66 444.445 199.17 443.8 198.188 443.8C197.484 443.8 196.983 444.029 196.684 444.488C196.386 444.947 196.236 445.613 196.236 446.488V451H194.22V445.736C194.22 444.445 193.724 443.8 192.732 443.8C191.996 443.8 191.49 444.056 191.212 444.568C190.935 445.08 190.796 445.811 190.796 446.76V451H188.78V442.328H190.332L190.62 443.464H190.732C190.988 443.016 191.346 442.691 191.804 442.488C192.274 442.275 192.759 442.168 193.26 442.168C193.911 442.168 194.455 442.28 194.892 442.504C195.34 442.717 195.682 443.053 195.916 443.512H196.076C196.343 443.043 196.716 442.701 197.196 442.488C197.676 442.275 198.183 442.168 198.716 442.168ZM207.658 442.168C208.778 442.168 209.626 442.413 210.202 442.904C210.789 443.395 211.082 444.152 211.082 445.176V451H209.658L209.258 449.8H209.194C208.821 450.269 208.426 450.616 208.01 450.84C207.594 451.053 207.029 451.16 206.314 451.16C205.536 451.16 204.89 450.941 204.378 450.504C203.866 450.067 203.61 449.389 203.61 448.472C203.61 447.576 203.936 446.904 204.586 446.456C205.248 446.008 206.245 445.757 207.578 445.704L209.082 445.656V445.224C209.082 444.68 208.949 444.291 208.682 444.056C208.416 443.811 208.042 443.688 207.562 443.688C207.125 443.688 206.704 443.752 206.298 443.88C205.904 444.008 205.509 444.157 205.114 444.328L204.474 442.92C204.901 442.696 205.386 442.515 205.93 442.376C206.485 442.237 207.061 442.168 207.658 442.168ZM209.082 446.904L208.026 446.936C207.141 446.968 206.528 447.123 206.186 447.4C205.845 447.667 205.674 448.029 205.674 448.488C205.674 448.904 205.792 449.203 206.026 449.384C206.272 449.555 206.592 449.64 206.986 449.64C207.573 449.64 208.069 449.475 208.474 449.144C208.88 448.803 209.082 448.301 209.082 447.64V446.904ZM218.249 442.168C219.219 442.168 219.977 442.419 220.521 442.92C221.075 443.421 221.352 444.232 221.352 445.352V451H219.337V445.752C219.337 444.451 218.803 443.8 217.737 443.8C216.926 443.8 216.371 444.056 216.073 444.568C215.774 445.08 215.625 445.811 215.625 446.76V451H213.609V442.328H215.161L215.449 443.464H215.561C215.838 443.016 216.217 442.691 216.697 442.488C217.187 442.275 217.705 442.168 218.249 442.168ZM226.738 451.16C225.725 451.16 224.909 450.781 224.29 450.024C223.671 449.267 223.362 448.152 223.362 446.68C223.362 445.187 223.677 444.061 224.306 443.304C224.935 442.547 225.762 442.168 226.786 442.168C227.426 442.168 227.949 442.291 228.354 442.536C228.77 442.781 229.101 443.08 229.346 443.432H229.442C229.41 443.283 229.378 443.053 229.346 442.744C229.314 442.435 229.298 442.147 229.298 441.88V438.84H231.314V451H229.746L229.378 449.864H229.298C229.053 450.227 228.727 450.536 228.322 450.792C227.917 451.037 227.389 451.16 226.738 451.16ZM227.346 449.528C228.093 449.528 228.615 449.315 228.914 448.888C229.223 448.461 229.383 447.816 229.394 446.952V446.696C229.394 445.768 229.245 445.059 228.946 444.568C228.658 444.067 228.114 443.816 227.314 443.816C226.695 443.816 226.221 444.072 225.89 444.584C225.57 445.085 225.41 445.795 225.41 446.712C225.41 447.629 225.575 448.328 225.906 448.808C226.237 449.288 226.717 449.528 227.346 449.528ZM241.55 451.16C240.302 451.16 239.321 450.803 238.606 450.088C237.891 449.373 237.534 448.248 237.534 446.712C237.534 445.645 237.71 444.781 238.062 444.12C238.425 443.448 238.921 442.957 239.55 442.648C240.179 442.328 240.899 442.168 241.71 442.168C242.254 442.168 242.739 442.221 243.166 442.328C243.593 442.435 243.955 442.563 244.254 442.712L243.662 444.296C243.331 444.168 243.001 444.061 242.67 443.976C242.339 443.88 242.019 443.832 241.71 443.832C240.302 443.832 239.598 444.787 239.598 446.696C239.598 447.624 239.774 448.323 240.126 448.792C240.489 449.261 241.006 449.496 241.678 449.496C242.158 449.496 242.585 449.437 242.958 449.32C243.331 449.203 243.689 449.043 244.03 448.84V450.584C243.699 450.776 243.342 450.92 242.958 451.016C242.585 451.112 242.115 451.16 241.55 451.16ZM248.078 451H246.062V438.84H248.078V451ZM258.399 446.648C258.399 448.088 258.026 449.203 257.279 449.992C256.533 450.771 255.519 451.16 254.239 451.16C253.45 451.16 252.746 450.984 252.127 450.632C251.509 450.28 251.023 449.768 250.671 449.096C250.319 448.424 250.143 447.608 250.143 446.648C250.143 445.208 250.511 444.104 251.247 443.336C251.994 442.557 253.007 442.168 254.287 442.168C255.087 442.168 255.797 442.344 256.415 442.696C257.034 443.037 257.519 443.544 257.871 444.216C258.223 444.877 258.399 445.688 258.399 446.648ZM252.207 446.648C252.207 447.565 252.367 448.275 252.687 448.776C253.018 449.277 253.546 449.528 254.271 449.528C254.997 449.528 255.519 449.277 255.839 448.776C256.17 448.275 256.335 447.565 256.335 446.648C256.335 445.731 256.17 445.027 255.839 444.536C255.519 444.045 254.991 443.8 254.255 443.8C253.541 443.8 253.018 444.045 252.687 444.536C252.367 445.027 252.207 445.731 252.207 446.648ZM268.18 442.328V451H266.596L266.324 449.88H266.228C265.94 450.328 265.55 450.653 265.06 450.856C264.58 451.059 264.068 451.16 263.524 451.16C262.553 451.16 261.79 450.909 261.236 450.408C260.692 449.907 260.42 449.101 260.42 447.992V442.328H262.436V447.592C262.436 448.883 262.969 449.528 264.036 449.528C264.846 449.528 265.401 449.277 265.7 448.776C266.009 448.264 266.164 447.528 266.164 446.568V442.328H268.18ZM273.613 451.16C272.6 451.16 271.784 450.781 271.165 450.024C270.546 449.267 270.237 448.152 270.237 446.68C270.237 445.187 270.552 444.061 271.181 443.304C271.81 442.547 272.637 442.168 273.661 442.168C274.301 442.168 274.824 442.291 275.229 442.536C275.645 442.781 275.976 443.08 276.221 443.432H276.317C276.285 443.283 276.253 443.053 276.221 442.744C276.189 442.435 276.173 442.147 276.173 441.88V438.84H278.189V451H276.621L276.253 449.864H276.173C275.928 450.227 275.602 450.536 275.197 450.792C274.792 451.037 274.264 451.16 273.613 451.16ZM274.221 449.528C274.968 449.528 275.49 449.315 275.789 448.888C276.098 448.461 276.258 447.816 276.269 446.952V446.696C276.269 445.768 276.12 445.059 275.821 444.568C275.533 444.067 274.989 443.816 274.189 443.816C273.57 443.816 273.096 444.072 272.765 444.584C272.445 445.085 272.285 445.795 272.285 446.712C272.285 447.629 272.45 448.328 272.781 448.808C273.112 449.288 273.592 449.528 274.221 449.528ZM288.425 451.16C287.177 451.16 286.196 450.803 285.481 450.088C284.766 449.373 284.409 448.248 284.409 446.712C284.409 445.645 284.585 444.781 284.937 444.12C285.3 443.448 285.796 442.957 286.425 442.648C287.054 442.328 287.774 442.168 288.585 442.168C289.129 442.168 289.614 442.221 290.041 442.328C290.468 442.435 290.83 442.563 291.129 442.712L290.537 444.296C290.206 444.168 289.876 444.061 289.545 443.976C289.214 443.88 288.894 443.832 288.585 443.832C287.177 443.832 286.473 444.787 286.473 446.696C286.473 447.624 286.649 448.323 287.001 448.792C287.364 449.261 287.881 449.496 288.553 449.496C289.033 449.496 289.46 449.437 289.833 449.32C290.206 449.203 290.564 449.043 290.905 448.84V450.584C290.574 450.776 290.217 450.92 289.833 451.016C289.46 451.112 288.99 451.16 288.425 451.16ZM300.681 446.648C300.681 448.088 300.307 449.203 299.561 449.992C298.814 450.771 297.801 451.16 296.521 451.16C295.731 451.16 295.027 450.984 294.409 450.632C293.79 450.28 293.305 449.768 292.953 449.096C292.601 448.424 292.425 447.608 292.425 446.648C292.425 445.208 292.793 444.104 293.529 443.336C294.275 442.557 295.289 442.168 296.569 442.168C297.369 442.168 298.078 442.344 298.697 442.696C299.315 443.037 299.801 443.544 300.153 444.216C300.505 444.877 300.681 445.688 300.681 446.648ZM294.489 446.648C294.489 447.565 294.649 448.275 294.969 448.776C295.299 449.277 295.827 449.528 296.553 449.528C297.278 449.528 297.801 449.277 298.121 448.776C298.451 448.275 298.617 447.565 298.617 446.648C298.617 445.731 298.451 445.027 298.121 444.536C297.801 444.045 297.273 443.8 296.537 443.8C295.822 443.8 295.299 444.045 294.969 444.536C294.649 445.027 294.489 445.731 294.489 446.648ZM312.701 442.168C313.682 442.168 314.418 442.419 314.909 442.92C315.41 443.421 315.661 444.232 315.661 445.352V451H313.645V445.736C313.645 444.445 313.154 443.8 312.173 443.8C311.469 443.8 310.967 444.029 310.669 444.488C310.37 444.947 310.221 445.613 310.221 446.488V451H308.205V445.736C308.205 444.445 307.709 443.8 306.717 443.8C305.981 443.8 305.474 444.056 305.197 444.568C304.919 445.08 304.781 445.811 304.781 446.76V451H302.765V442.328H304.317L304.605 443.464H304.717C304.973 443.016 305.33 442.691 305.789 442.488C306.258 442.275 306.743 442.168 307.245 442.168C307.895 442.168 308.439 442.28 308.877 442.504C309.325 442.717 309.666 443.053 309.901 443.512H310.061C310.327 443.043 310.701 442.701 311.181 442.488C311.661 442.275 312.167 442.168 312.701 442.168ZM322.747 442.168C323.76 442.168 324.576 442.547 325.195 443.304C325.813 444.051 326.123 445.165 326.123 446.648C326.123 448.131 325.803 449.256 325.163 450.024C324.533 450.781 323.712 451.16 322.699 451.16C322.059 451.16 321.541 451.043 321.147 450.808C320.752 450.573 320.437 450.301 320.203 449.992H320.075C320.107 450.195 320.133 450.419 320.155 450.664C320.187 450.899 320.203 451.117 320.203 451.32V454.84H318.187V442.328H319.819L320.107 443.48H320.203C320.437 443.117 320.757 442.808 321.163 442.552C321.568 442.296 322.096 442.168 322.747 442.168ZM322.171 443.8C321.456 443.8 320.949 444.013 320.651 444.44C320.363 444.867 320.213 445.512 320.203 446.376V446.632C320.203 447.56 320.341 448.275 320.619 448.776C320.907 449.267 321.435 449.512 322.203 449.512C322.832 449.512 323.296 449.256 323.595 448.744C323.904 448.221 324.059 447.512 324.059 446.616C324.059 445.72 323.904 445.027 323.595 444.536C323.296 444.045 322.821 443.8 322.171 443.8ZM335.898 442.328V451H334.314L334.042 449.88H333.946C333.658 450.328 333.269 450.653 332.778 450.856C332.298 451.059 331.786 451.16 331.242 451.16C330.272 451.16 329.509 450.909 328.954 450.408C328.41 449.907 328.138 449.101 328.138 447.992V442.328H330.154V447.592C330.154 448.883 330.688 449.528 331.754 449.528C332.565 449.528 333.12 449.277 333.418 448.776C333.728 448.264 333.882 447.528 333.882 446.568V442.328H335.898ZM341.828 449.544C342.073 449.544 342.313 449.523 342.548 449.48C342.793 449.427 343.017 449.368 343.22 449.304V450.808C343.007 450.904 342.729 450.984 342.388 451.048C342.047 451.123 341.689 451.16 341.316 451.16C340.825 451.16 340.377 451.08 339.972 450.92C339.567 450.749 339.247 450.461 339.012 450.056C338.777 449.651 338.66 449.085 338.66 448.36V443.848H337.492V442.968L338.772 442.264L339.412 440.424H340.676V442.328H343.14V443.848H340.676V448.344C340.676 448.749 340.783 449.053 340.996 449.256C341.209 449.448 341.487 449.544 341.828 449.544ZM345.976 438.984C346.285 438.984 346.547 439.064 346.76 439.224C346.984 439.373 347.096 439.645 347.096 440.04C347.096 440.435 346.984 440.712 346.76 440.872C346.547 441.032 346.285 441.112 345.976 441.112C345.667 441.112 345.4 441.032 345.176 440.872C344.963 440.712 344.856 440.435 344.856 440.04C344.856 439.645 344.963 439.373 345.176 439.224C345.4 439.064 345.667 438.984 345.976 438.984ZM346.984 442.328V451H344.968V442.328H346.984ZM354.202 442.168C355.172 442.168 355.93 442.419 356.474 442.92C357.028 443.421 357.306 444.232 357.306 445.352V451H355.29V445.752C355.29 444.451 354.756 443.8 353.69 443.8C352.879 443.8 352.324 444.056 352.026 444.568C351.727 445.08 351.578 445.811 351.578 446.76V451H349.562V442.328H351.114L351.402 443.464H351.514C351.791 443.016 352.17 442.691 352.65 442.488C353.14 442.275 353.658 442.168 354.202 442.168ZM362.739 442.168C363.838 442.168 364.697 442.595 365.315 443.448H365.395L365.587 442.328H367.267V451.064C367.267 452.301 366.915 453.24 366.211 453.88C365.518 454.52 364.478 454.84 363.091 454.84C362.473 454.84 361.902 454.797 361.379 454.712C360.857 454.637 360.361 454.504 359.891 454.312V452.648C360.883 453.096 361.993 453.32 363.219 453.32C363.881 453.32 364.382 453.133 364.723 452.76C365.075 452.397 365.251 451.864 365.251 451.16V450.936C365.251 450.776 365.257 450.589 365.267 450.376C365.278 450.163 365.294 449.992 365.315 449.864H365.251C364.953 450.312 364.585 450.643 364.147 450.856C363.721 451.059 363.235 451.16 362.691 451.16C361.635 451.16 360.809 450.765 360.211 449.976C359.614 449.187 359.315 448.088 359.315 446.68C359.315 445.272 359.614 444.168 360.211 443.368C360.819 442.568 361.662 442.168 362.739 442.168ZM363.267 443.816C362.009 443.816 361.379 444.781 361.379 446.712C361.379 448.611 362.019 449.56 363.299 449.56C364.003 449.56 364.521 449.368 364.851 448.984C365.193 448.589 365.363 447.928 365.363 447V446.696C365.363 445.672 365.193 444.936 364.851 444.488C364.521 444.04 363.993 443.816 363.267 443.816ZM379.903 448.488C379.903 449.363 379.588 450.029 378.959 450.488C378.34 450.936 377.45 451.16 376.287 451.16C375.679 451.16 375.156 451.117 374.719 451.032C374.292 450.947 373.876 450.813 373.471 450.632V448.92C373.898 449.123 374.367 449.293 374.879 449.432C375.402 449.571 375.892 449.64 376.351 449.64C376.906 449.64 377.306 449.555 377.551 449.384C377.796 449.213 377.919 448.984 377.919 448.696C377.919 448.525 377.871 448.376 377.775 448.248C377.679 448.109 377.487 447.96 377.199 447.8C376.922 447.64 376.506 447.443 375.951 447.208C375.396 446.995 374.932 446.776 374.559 446.552C374.196 446.317 373.919 446.045 373.727 445.736C373.546 445.427 373.455 445.027 373.455 444.536C373.455 443.757 373.759 443.171 374.367 442.776C374.986 442.371 375.807 442.168 376.831 442.168C377.364 442.168 377.866 442.221 378.335 442.328C378.815 442.435 379.295 442.595 379.775 442.808L379.135 444.296C378.73 444.125 378.335 443.981 377.951 443.864C377.567 443.747 377.172 443.688 376.767 443.688C375.882 443.688 375.439 443.939 375.439 444.44C375.439 444.621 375.492 444.776 375.599 444.904C375.716 445.032 375.914 445.171 376.191 445.32C376.479 445.459 376.884 445.629 377.407 445.832C377.919 446.035 378.362 446.248 378.735 446.472C379.108 446.685 379.396 446.952 379.599 447.272C379.802 447.592 379.903 447.997 379.903 448.488ZM389.587 446.648C389.587 448.088 389.214 449.203 388.467 449.992C387.72 450.771 386.707 451.16 385.427 451.16C384.638 451.16 383.934 450.984 383.315 450.632C382.696 450.28 382.211 449.768 381.859 449.096C381.507 448.424 381.331 447.608 381.331 446.648C381.331 445.208 381.699 444.104 382.435 443.336C383.182 442.557 384.195 442.168 385.475 442.168C386.275 442.168 386.984 442.344 387.603 442.696C388.222 443.037 388.707 443.544 389.059 444.216C389.411 444.877 389.587 445.688 389.587 446.648ZM383.395 446.648C383.395 447.565 383.555 448.275 383.875 448.776C384.206 449.277 384.734 449.528 385.459 449.528C386.184 449.528 386.707 449.277 387.027 448.776C387.358 448.275 387.523 447.565 387.523 446.648C387.523 445.731 387.358 445.027 387.027 444.536C386.707 444.045 386.179 443.8 385.443 443.8C384.728 443.8 384.206 444.045 383.875 444.536C383.555 445.027 383.395 445.731 383.395 446.648ZM393.687 451H391.671V438.84H393.687V451ZM403.961 442.328V451H402.377L402.105 449.88H402.009C401.721 450.328 401.331 450.653 400.841 450.856C400.361 451.059 399.849 451.16 399.305 451.16C398.334 451.16 397.571 450.909 397.017 450.408C396.473 449.907 396.201 449.101 396.201 447.992V442.328H398.217V447.592C398.217 448.883 398.75 449.528 399.817 449.528C400.627 449.528 401.182 449.277 401.481 448.776C401.79 448.264 401.945 447.528 401.945 446.568V442.328H403.961ZM409.89 449.544C410.136 449.544 410.376 449.523 410.61 449.48C410.856 449.427 411.08 449.368 411.282 449.304V450.808C411.069 450.904 410.792 450.984 410.45 451.048C410.109 451.123 409.752 451.16 409.378 451.16C408.888 451.16 408.44 451.08 408.034 450.92C407.629 450.749 407.309 450.461 407.074 450.056C406.84 449.651 406.722 449.085 406.722 448.36V443.848H405.554V442.968L406.834 442.264L407.474 440.424H408.738V442.328H411.202V443.848H408.738V448.344C408.738 448.749 408.845 449.053 409.058 449.256C409.272 449.448 409.549 449.544 409.89 449.544ZM414.038 438.984C414.348 438.984 414.609 439.064 414.822 439.224C415.046 439.373 415.158 439.645 415.158 440.04C415.158 440.435 415.046 440.712 414.822 440.872C414.609 441.032 414.348 441.112 414.038 441.112C413.729 441.112 413.462 441.032 413.238 440.872C413.025 440.712 412.918 440.435 412.918 440.04C412.918 439.645 413.025 439.373 413.238 439.224C413.462 439.064 413.729 438.984 414.038 438.984ZM415.046 442.328V451H413.03V442.328H415.046ZM425.368 446.648C425.368 448.088 424.995 449.203 424.248 449.992C423.501 450.771 422.488 451.16 421.208 451.16C420.419 451.16 419.715 450.984 419.096 450.632C418.477 450.28 417.992 449.768 417.64 449.096C417.288 448.424 417.112 447.608 417.112 446.648C417.112 445.208 417.48 444.104 418.216 443.336C418.963 442.557 419.976 442.168 421.256 442.168C422.056 442.168 422.765 442.344 423.384 442.696C424.003 443.037 424.488 443.544 424.84 444.216C425.192 444.877 425.368 445.688 425.368 446.648ZM419.176 446.648C419.176 447.565 419.336 448.275 419.656 448.776C419.987 449.277 420.515 449.528 421.24 449.528C421.965 449.528 422.488 449.277 422.808 448.776C423.139 448.275 423.304 447.565 423.304 446.648C423.304 445.731 423.139 445.027 422.808 444.536C422.488 444.045 421.96 443.8 421.224 443.8C420.509 443.8 419.987 444.045 419.656 444.536C419.336 445.027 419.176 445.731 419.176 446.648ZM432.092 442.168C433.063 442.168 433.82 442.419 434.364 442.92C434.919 443.421 435.196 444.232 435.196 445.352V451H433.18V445.752C433.18 444.451 432.647 443.8 431.58 443.8C430.77 443.8 430.215 444.056 429.916 444.568C429.618 445.08 429.468 445.811 429.468 446.76V451H427.452V442.328H429.004L429.292 443.464H429.404C429.682 443.016 430.06 442.691 430.54 442.488C431.031 442.275 431.548 442.168 432.092 442.168ZM446.37 443.848H444.274V451H442.258V443.848H440.866V442.888L442.258 442.312V441.72C442.258 440.611 442.519 439.843 443.042 439.416C443.575 438.979 444.301 438.76 445.218 438.76C445.634 438.76 446.013 438.797 446.354 438.872C446.706 438.936 446.994 439.011 447.218 439.096L446.706 440.6C446.525 440.547 446.322 440.499 446.098 440.456C445.885 440.403 445.65 440.376 445.394 440.376C445.01 440.376 444.727 440.499 444.546 440.744C444.365 440.979 444.274 441.32 444.274 441.768V442.328H446.37V443.848ZM455.556 446.648C455.556 448.088 455.182 449.203 454.436 449.992C453.689 450.771 452.676 451.16 451.396 451.16C450.606 451.16 449.902 450.984 449.284 450.632C448.665 450.28 448.18 449.768 447.828 449.096C447.476 448.424 447.3 447.608 447.3 446.648C447.3 445.208 447.668 444.104 448.404 443.336C449.15 442.557 450.164 442.168 451.444 442.168C452.244 442.168 452.953 442.344 453.572 442.696C454.19 443.037 454.676 443.544 455.028 444.216C455.38 444.877 455.556 445.688 455.556 446.648ZM449.364 446.648C449.364 447.565 449.524 448.275 449.844 448.776C450.174 449.277 450.702 449.528 451.428 449.528C452.153 449.528 452.676 449.277 452.996 448.776C453.326 448.275 453.492 447.565 453.492 446.648C453.492 445.731 453.326 445.027 452.996 444.536C452.676 444.045 452.148 443.8 451.412 443.8C450.697 443.8 450.174 444.045 449.844 444.536C449.524 445.027 449.364 445.731 449.364 446.648ZM462.184 442.168C462.322 442.168 462.472 442.173 462.632 442.184C462.802 442.195 462.946 442.216 463.064 442.248L462.888 444.12C462.781 444.099 462.653 444.083 462.504 444.072C462.354 444.051 462.221 444.04 462.104 444.04C461.677 444.04 461.277 444.131 460.904 444.312C460.53 444.483 460.226 444.755 459.992 445.128C459.768 445.491 459.656 445.949 459.656 446.504V451H457.64V442.328H459.192L459.48 443.832H459.576C459.832 443.373 460.184 442.984 460.632 442.664C461.08 442.333 461.597 442.168 462.184 442.168ZM473.371 442.168C473.51 442.168 473.659 442.173 473.819 442.184C473.99 442.195 474.134 442.216 474.251 442.248L474.075 444.12C473.969 444.099 473.841 444.083 473.691 444.072C473.542 444.051 473.409 444.04 473.291 444.04C472.865 444.04 472.465 444.131 472.091 444.312C471.718 444.483 471.414 444.755 471.179 445.128C470.955 445.491 470.843 445.949 470.843 446.504V451H468.827V442.328H470.379L470.667 443.832H470.763C471.019 443.373 471.371 442.984 471.819 442.664C472.267 442.333 472.785 442.168 473.371 442.168ZM479.034 442.168C480.197 442.168 481.114 442.515 481.786 443.208C482.469 443.901 482.81 444.867 482.81 446.104V447.128H477.082C477.103 447.917 477.322 448.531 477.738 448.968C478.154 449.395 478.73 449.608 479.466 449.608C480.021 449.608 480.522 449.555 480.97 449.448C481.418 449.331 481.877 449.165 482.346 448.952V450.568C481.919 450.771 481.477 450.92 481.018 451.016C480.559 451.112 480.01 451.16 479.37 451.16C478.527 451.16 477.775 451 477.114 450.68C476.463 450.349 475.951 449.853 475.578 449.192C475.215 448.531 475.034 447.709 475.034 446.728C475.034 445.245 475.402 444.115 476.138 443.336C476.874 442.557 477.839 442.168 479.034 442.168ZM479.034 443.656C478.49 443.656 478.047 443.832 477.706 444.184C477.375 444.525 477.183 445.037 477.13 445.72H480.858C480.847 445.123 480.693 444.632 480.394 444.248C480.106 443.853 479.653 443.656 479.034 443.656ZM494.779 442.168C495.76 442.168 496.496 442.419 496.987 442.92C497.488 443.421 497.739 444.232 497.739 445.352V451H495.723V445.736C495.723 444.445 495.232 443.8 494.251 443.8C493.547 443.8 493.046 444.029 492.747 444.488C492.448 444.947 492.299 445.613 492.299 446.488V451H490.283V445.736C490.283 444.445 489.787 443.8 488.795 443.8C488.059 443.8 487.552 444.056 487.275 444.568C486.998 445.08 486.859 445.811 486.859 446.76V451H484.843V442.328H486.395L486.683 443.464H486.795C487.051 443.016 487.408 442.691 487.867 442.488C488.336 442.275 488.822 442.168 489.323 442.168C489.974 442.168 490.518 442.28 490.955 442.504C491.403 442.717 491.744 443.053 491.979 443.512H492.139C492.406 443.043 492.779 442.701 493.259 442.488C493.739 442.275 494.246 442.168 494.779 442.168ZM508.009 446.648C508.009 448.088 507.635 449.203 506.889 449.992C506.142 450.771 505.129 451.16 503.849 451.16C503.059 451.16 502.355 450.984 501.737 450.632C501.118 450.28 500.633 449.768 500.281 449.096C499.929 448.424 499.753 447.608 499.753 446.648C499.753 445.208 500.121 444.104 500.857 443.336C501.603 442.557 502.617 442.168 503.897 442.168C504.697 442.168 505.406 442.344 506.025 442.696C506.643 443.037 507.129 443.544 507.481 444.216C507.833 444.877 508.009 445.688 508.009 446.648ZM501.817 446.648C501.817 447.565 501.977 448.275 502.297 448.776C502.627 449.277 503.155 449.528 503.881 449.528C504.606 449.528 505.129 449.277 505.449 448.776C505.779 448.275 505.945 447.565 505.945 446.648C505.945 445.731 505.779 445.027 505.449 444.536C505.129 444.045 504.601 443.8 503.865 443.8C503.15 443.8 502.627 444.045 502.297 444.536C501.977 445.027 501.817 445.731 501.817 446.648ZM513.453 449.544C513.698 449.544 513.938 449.523 514.173 449.48C514.418 449.427 514.642 449.368 514.845 449.304V450.808C514.632 450.904 514.354 450.984 514.013 451.048C513.672 451.123 513.314 451.16 512.941 451.16C512.45 451.16 512.002 451.08 511.597 450.92C511.192 450.749 510.872 450.461 510.637 450.056C510.402 449.651 510.285 449.085 510.285 448.36V443.848H509.117V442.968L510.397 442.264L511.037 440.424H512.301V442.328H514.765V443.848H512.301V448.344C512.301 448.749 512.408 449.053 512.621 449.256C512.834 449.448 513.112 449.544 513.453 449.544ZM520.081 442.168C521.244 442.168 522.161 442.515 522.833 443.208C523.516 443.901 523.857 444.867 523.857 446.104V447.128H518.129C518.15 447.917 518.369 448.531 518.785 448.968C519.201 449.395 519.777 449.608 520.513 449.608C521.068 449.608 521.569 449.555 522.017 449.448C522.465 449.331 522.924 449.165 523.393 448.952V450.568C522.966 450.771 522.524 450.92 522.065 451.016C521.606 451.112 521.057 451.16 520.417 451.16C519.574 451.16 518.822 451 518.161 450.68C517.51 450.349 516.998 449.853 516.625 449.192C516.262 448.531 516.081 447.709 516.081 446.728C516.081 445.245 516.449 444.115 517.185 443.336C517.921 442.557 518.886 442.168 520.081 442.168ZM520.081 443.656C519.537 443.656 519.094 443.832 518.753 444.184C518.422 444.525 518.23 445.037 518.177 445.72H521.905C521.894 445.123 521.74 444.632 521.441 444.248C521.153 443.853 520.7 443.656 520.081 443.656ZM52.232 464.168C53.2133 464.168 53.9493 464.419 54.44 464.92C54.9413 465.421 55.192 466.232 55.192 467.352V473H53.176V467.736C53.176 466.445 52.6853 465.8 51.704 465.8C51 465.8 50.4987 466.029 50.2 466.488C49.9013 466.947 49.752 467.613 49.752 468.488V473H47.736V467.736C47.736 466.445 47.24 465.8 46.248 465.8C45.512 465.8 45.0053 466.056 44.728 466.568C44.4507 467.08 44.312 467.811 44.312 468.76V473H42.296V464.328H43.848L44.136 465.464H44.248C44.504 465.016 44.8613 464.691 45.32 464.488C45.7893 464.275 46.2747 464.168 46.776 464.168C47.4267 464.168 47.9707 464.28 48.408 464.504C48.856 464.717 49.1973 465.053 49.432 465.512H49.592C49.8587 465.043 50.232 464.701 50.712 464.488C51.192 464.275 51.6987 464.168 52.232 464.168ZM65.4619 468.648C65.4619 470.088 65.0885 471.203 64.3419 471.992C63.5952 472.771 62.5819 473.16 61.3019 473.16C60.5125 473.16 59.8085 472.984 59.1899 472.632C58.5712 472.28 58.0859 471.768 57.7339 471.096C57.3819 470.424 57.2059 469.608 57.2059 468.648C57.2059 467.208 57.5739 466.104 58.3099 465.336C59.0565 464.557 60.0699 464.168 61.3499 464.168C62.1499 464.168 62.8592 464.344 63.4779 464.696C64.0965 465.037 64.5819 465.544 64.9339 466.216C65.2859 466.877 65.4619 467.688 65.4619 468.648ZM59.2699 468.648C59.2699 469.565 59.4299 470.275 59.7499 470.776C60.0805 471.277 60.6085 471.528 61.3339 471.528C62.0592 471.528 62.5819 471.277 62.9019 470.776C63.2325 470.275 63.3979 469.565 63.3979 468.648C63.3979 467.731 63.2325 467.027 62.9019 466.536C62.5819 466.045 62.0539 465.8 61.3179 465.8C60.6032 465.8 60.0805 466.045 59.7499 466.536C59.4299 467.027 59.2699 467.731 59.2699 468.648ZM72.186 464.168C73.1567 464.168 73.914 464.419 74.458 464.92C75.0127 465.421 75.29 466.232 75.29 467.352V473H73.274V467.752C73.274 466.451 72.7407 465.8 71.674 465.8C70.8633 465.8 70.3087 466.056 70.01 466.568C69.7113 467.08 69.562 467.811 69.562 468.76V473H67.546V464.328H69.098L69.386 465.464H69.498C69.7753 465.016 70.154 464.691 70.634 464.488C71.1247 464.275 71.642 464.168 72.186 464.168ZM78.8196 460.984C79.129 460.984 79.3903 461.064 79.6036 461.224C79.8276 461.373 79.9396 461.645 79.9396 462.04C79.9396 462.435 79.8276 462.712 79.6036 462.872C79.3903 463.032 79.129 463.112 78.8196 463.112C78.5103 463.112 78.2436 463.032 78.0196 462.872C77.8063 462.712 77.6996 462.435 77.6996 462.04C77.6996 461.645 77.8063 461.373 78.0196 461.224C78.2436 461.064 78.5103 460.984 78.8196 460.984ZM79.8276 464.328V473H77.8116V464.328H79.8276ZM85.7654 471.544C86.0107 471.544 86.2507 471.523 86.4854 471.48C86.7307 471.427 86.9547 471.368 87.1574 471.304V472.808C86.944 472.904 86.6667 472.984 86.3254 473.048C85.984 473.123 85.6267 473.16 85.2534 473.16C84.7627 473.16 84.3147 473.08 83.9094 472.92C83.504 472.749 83.184 472.461 82.9494 472.056C82.7147 471.651 82.5974 471.085 82.5974 470.36V465.848H81.4294V464.968L82.7094 464.264L83.3494 462.424H84.6134V464.328H87.0774V465.848H84.6134V470.344C84.6134 470.749 84.72 471.053 84.9334 471.256C85.1467 471.448 85.424 471.544 85.7654 471.544ZM96.6494 468.648C96.6494 470.088 96.276 471.203 95.5294 471.992C94.7827 472.771 93.7694 473.16 92.4894 473.16C91.7 473.16 90.996 472.984 90.3774 472.632C89.7587 472.28 89.2734 471.768 88.9214 471.096C88.5694 470.424 88.3934 469.608 88.3934 468.648C88.3934 467.208 88.7614 466.104 89.4974 465.336C90.244 464.557 91.2574 464.168 92.5374 464.168C93.3374 464.168 94.0467 464.344 94.6654 464.696C95.284 465.037 95.7694 465.544 96.1214 466.216C96.4734 466.877 96.6494 467.688 96.6494 468.648ZM90.4574 468.648C90.4574 469.565 90.6174 470.275 90.9374 470.776C91.268 471.277 91.796 471.528 92.5214 471.528C93.2467 471.528 93.7694 471.277 94.0894 470.776C94.42 470.275 94.5854 469.565 94.5854 468.648C94.5854 467.731 94.42 467.027 94.0894 466.536C93.7694 466.045 93.2414 465.8 92.5054 465.8C91.7907 465.8 91.268 466.045 90.9374 466.536C90.6174 467.027 90.4574 467.731 90.4574 468.648ZM103.278 464.168C103.416 464.168 103.566 464.173 103.726 464.184C103.896 464.195 104.04 464.216 104.158 464.248L103.982 466.12C103.875 466.099 103.747 466.083 103.598 466.072C103.448 466.051 103.315 466.04 103.198 466.04C102.771 466.04 102.371 466.131 101.998 466.312C101.624 466.483 101.32 466.755 101.086 467.128C100.862 467.491 100.75 467.949 100.75 468.504V473H98.7335V464.328H100.286L100.574 465.832H100.67C100.926 465.373 101.278 464.984 101.726 464.664C102.174 464.333 102.691 464.168 103.278 464.168ZM106.773 460.984C107.082 460.984 107.343 461.064 107.557 461.224C107.781 461.373 107.893 461.645 107.893 462.04C107.893 462.435 107.781 462.712 107.557 462.872C107.343 463.032 107.082 463.112 106.773 463.112C106.463 463.112 106.197 463.032 105.973 462.872C105.759 462.712 105.653 462.435 105.653 462.04C105.653 461.645 105.759 461.373 105.973 461.224C106.197 461.064 106.463 460.984 106.773 460.984ZM107.781 464.328V473H105.765V464.328H107.781ZM114.999 464.168C115.969 464.168 116.727 464.419 117.271 464.92C117.825 465.421 118.102 466.232 118.102 467.352V473H116.087V467.752C116.087 466.451 115.553 465.8 114.487 465.8C113.676 465.8 113.121 466.056 112.823 466.568C112.524 467.08 112.375 467.811 112.375 468.76V473H110.359V464.328H111.911L112.199 465.464H112.311C112.588 465.016 112.967 464.691 113.447 464.488C113.937 464.275 114.455 464.168 114.999 464.168ZM123.536 464.168C124.635 464.168 125.493 464.595 126.112 465.448H126.192L126.384 464.328H128.064V473.064C128.064 474.301 127.712 475.24 127.008 475.88C126.315 476.52 125.275 476.84 123.888 476.84C123.269 476.84 122.699 476.797 122.176 476.712C121.653 476.637 121.157 476.504 120.688 476.312V474.648C121.68 475.096 122.789 475.32 124.016 475.32C124.677 475.32 125.179 475.133 125.52 474.76C125.872 474.397 126.048 473.864 126.048 473.16V472.936C126.048 472.776 126.053 472.589 126.064 472.376C126.075 472.163 126.091 471.992 126.112 471.864H126.048C125.749 472.312 125.381 472.643 124.944 472.856C124.517 473.059 124.032 473.16 123.488 473.16C122.432 473.16 121.605 472.765 121.008 471.976C120.411 471.187 120.112 470.088 120.112 468.68C120.112 467.272 120.411 466.168 121.008 465.368C121.616 464.568 122.459 464.168 123.536 464.168ZM124.064 465.816C122.805 465.816 122.176 466.781 122.176 468.712C122.176 470.611 122.816 471.56 124.096 471.56C124.8 471.56 125.317 471.368 125.648 470.984C125.989 470.589 126.16 469.928 126.16 469V468.696C126.16 467.672 125.989 466.936 125.648 466.488C125.317 466.04 124.789 465.816 124.064 465.816ZM142.54 468.648C142.54 470.088 142.167 471.203 141.42 471.992C140.673 472.771 139.66 473.16 138.38 473.16C137.591 473.16 136.887 472.984 136.268 472.632C135.649 472.28 135.164 471.768 134.812 471.096C134.46 470.424 134.284 469.608 134.284 468.648C134.284 467.208 134.652 466.104 135.388 465.336C136.135 464.557 137.148 464.168 138.428 464.168C139.228 464.168 139.937 464.344 140.556 464.696C141.175 465.037 141.66 465.544 142.012 466.216C142.364 466.877 142.54 467.688 142.54 468.648ZM136.348 468.648C136.348 469.565 136.508 470.275 136.828 470.776C137.159 471.277 137.687 471.528 138.412 471.528C139.137 471.528 139.66 471.277 139.98 470.776C140.311 470.275 140.476 469.565 140.476 468.648C140.476 467.731 140.311 467.027 139.98 466.536C139.66 466.045 139.132 465.8 138.396 465.8C137.681 465.8 137.159 466.045 136.828 466.536C136.508 467.027 136.348 467.731 136.348 468.648ZM149.12 465.848H147.024V473H145.008V465.848H143.616V464.888L145.008 464.312V463.72C145.008 462.611 145.269 461.843 145.792 461.416C146.325 460.979 147.051 460.76 147.968 460.76C148.384 460.76 148.763 460.797 149.104 460.872C149.456 460.936 149.744 461.011 149.968 461.096L149.456 462.6C149.275 462.547 149.072 462.499 148.848 462.456C148.635 462.403 148.4 462.376 148.144 462.376C147.76 462.376 147.477 462.499 147.296 462.744C147.115 462.979 147.024 463.32 147.024 463.768V464.328H149.12V465.848ZM158.078 471.544C158.323 471.544 158.563 471.523 158.798 471.48C159.043 471.427 159.267 471.368 159.47 471.304V472.808C159.257 472.904 158.979 472.984 158.638 473.048C158.297 473.123 157.939 473.16 157.566 473.16C157.075 473.16 156.627 473.08 156.222 472.92C155.817 472.749 155.497 472.461 155.262 472.056C155.027 471.651 154.91 471.085 154.91 470.36V465.848H153.742V464.968L155.022 464.264L155.662 462.424H156.926V464.328H159.39V465.848H156.926V470.344C156.926 470.749 157.033 471.053 157.246 471.256C157.459 471.448 157.737 471.544 158.078 471.544ZM164.674 464.168C165.794 464.168 166.642 464.413 167.218 464.904C167.805 465.395 168.098 466.152 168.098 467.176V473H166.674L166.274 471.8H166.21C165.837 472.269 165.442 472.616 165.026 472.84C164.61 473.053 164.045 473.16 163.33 473.16C162.551 473.16 161.906 472.941 161.394 472.504C160.882 472.067 160.626 471.389 160.626 470.472C160.626 469.576 160.951 468.904 161.602 468.456C162.263 468.008 163.261 467.757 164.594 467.704L166.098 467.656V467.224C166.098 466.68 165.965 466.291 165.698 466.056C165.431 465.811 165.058 465.688 164.578 465.688C164.141 465.688 163.719 465.752 163.314 465.88C162.919 466.008 162.525 466.157 162.13 466.328L161.49 464.92C161.917 464.696 162.402 464.515 162.946 464.376C163.501 464.237 164.077 464.168 164.674 464.168ZM166.098 468.904L165.042 468.936C164.157 468.968 163.543 469.123 163.202 469.4C162.861 469.667 162.69 470.029 162.69 470.488C162.69 470.904 162.807 471.203 163.042 471.384C163.287 471.555 163.607 471.64 164.002 471.64C164.589 471.64 165.085 471.475 165.49 471.144C165.895 470.803 166.098 470.301 166.098 469.64V468.904ZM175.264 464.168C176.235 464.168 176.992 464.419 177.536 464.92C178.091 465.421 178.368 466.232 178.368 467.352V473H176.352V467.752C176.352 466.451 175.819 465.8 174.752 465.8C173.941 465.8 173.387 466.056 173.088 466.568C172.789 467.08 172.64 467.811 172.64 468.76V473H170.624V464.328H172.176L172.464 465.464H172.576C172.853 465.016 173.232 464.691 173.712 464.488C174.203 464.275 174.72 464.168 175.264 464.168ZM182.89 460.84V466.616C182.89 466.893 182.879 467.187 182.858 467.496C182.836 467.805 182.815 468.099 182.794 468.376H182.842C182.97 468.184 183.13 467.965 183.322 467.72C183.514 467.475 183.695 467.256 183.866 467.064L186.426 464.328H188.714L185.242 468.072L188.938 473H186.586L183.898 469.288L182.89 470.12V473H180.89V460.84H182.89ZM196.2 470.488C196.2 471.363 195.885 472.029 195.256 472.488C194.637 472.936 193.747 473.16 192.584 473.16C191.976 473.16 191.453 473.117 191.016 473.032C190.589 472.947 190.173 472.813 189.768 472.632V470.92C190.195 471.123 190.664 471.293 191.176 471.432C191.699 471.571 192.189 471.64 192.648 471.64C193.203 471.64 193.603 471.555 193.848 471.384C194.093 471.213 194.216 470.984 194.216 470.696C194.216 470.525 194.168 470.376 194.072 470.248C193.976 470.109 193.784 469.96 193.496 469.8C193.219 469.64 192.803 469.443 192.248 469.208C191.693 468.995 191.229 468.776 190.856 468.552C190.493 468.317 190.216 468.045 190.024 467.736C189.843 467.427 189.752 467.027 189.752 466.536C189.752 465.757 190.056 465.171 190.664 464.776C191.283 464.371 192.104 464.168 193.128 464.168C193.661 464.168 194.163 464.221 194.632 464.328C195.112 464.435 195.592 464.595 196.072 464.808L195.432 466.296C195.027 466.125 194.632 465.981 194.248 465.864C193.864 465.747 193.469 465.688 193.064 465.688C192.179 465.688 191.736 465.939 191.736 466.44C191.736 466.621 191.789 466.776 191.896 466.904C192.013 467.032 192.211 467.171 192.488 467.32C192.776 467.459 193.181 467.629 193.704 467.832C194.216 468.035 194.659 468.248 195.032 468.472C195.405 468.685 195.693 468.952 195.896 469.272C196.099 469.592 196.2 469.997 196.2 470.488ZM205.752 464.168C206.872 464.168 207.72 464.413 208.296 464.904C208.883 465.395 209.176 466.152 209.176 467.176V473H207.752L207.352 471.8H207.288C206.915 472.269 206.52 472.616 206.104 472.84C205.688 473.053 205.123 473.16 204.408 473.16C203.629 473.16 202.984 472.941 202.472 472.504C201.96 472.067 201.704 471.389 201.704 470.472C201.704 469.576 202.029 468.904 202.68 468.456C203.341 468.008 204.339 467.757 205.672 467.704L207.176 467.656V467.224C207.176 466.68 207.043 466.291 206.776 466.056C206.509 465.811 206.136 465.688 205.656 465.688C205.219 465.688 204.797 465.752 204.392 465.88C203.997 466.008 203.603 466.157 203.208 466.328L202.568 464.92C202.995 464.696 203.48 464.515 204.024 464.376C204.579 464.237 205.155 464.168 205.752 464.168ZM207.176 468.904L206.12 468.936C205.235 468.968 204.621 469.123 204.28 469.4C203.939 469.667 203.768 470.029 203.768 470.488C203.768 470.904 203.885 471.203 204.12 471.384C204.365 471.555 204.685 471.64 205.08 471.64C205.667 471.64 206.163 471.475 206.568 471.144C206.973 470.803 207.176 470.301 207.176 469.64V468.904ZM216.342 464.168C217.313 464.168 218.07 464.419 218.614 464.92C219.169 465.421 219.446 466.232 219.446 467.352V473H217.43V467.752C217.43 466.451 216.897 465.8 215.83 465.8C215.02 465.8 214.465 466.056 214.166 466.568C213.868 467.08 213.718 467.811 213.718 468.76V473H211.702V464.328H213.254L213.542 465.464H213.654C213.932 465.016 214.31 464.691 214.79 464.488C215.281 464.275 215.798 464.168 216.342 464.168ZM224.832 473.16C223.819 473.16 223.003 472.781 222.384 472.024C221.765 471.267 221.456 470.152 221.456 468.68C221.456 467.187 221.771 466.061 222.4 465.304C223.029 464.547 223.856 464.168 224.88 464.168C225.52 464.168 226.043 464.291 226.448 464.536C226.864 464.781 227.195 465.08 227.44 465.432H227.536C227.504 465.283 227.472 465.053 227.44 464.744C227.408 464.435 227.392 464.147 227.392 463.88V460.84H229.408V473H227.84L227.472 471.864H227.392C227.147 472.227 226.821 472.536 226.416 472.792C226.011 473.037 225.483 473.16 224.832 473.16ZM225.44 471.528C226.187 471.528 226.709 471.315 227.008 470.888C227.317 470.461 227.477 469.816 227.488 468.952V468.696C227.488 467.768 227.339 467.059 227.04 466.568C226.752 466.067 226.208 465.816 225.408 465.816C224.789 465.816 224.315 466.072 223.984 466.584C223.664 467.085 223.504 467.795 223.504 468.712C223.504 469.629 223.669 470.328 224 470.808C224.331 471.288 224.811 471.528 225.44 471.528ZM239.5 471.544C239.745 471.544 239.985 471.523 240.22 471.48C240.465 471.427 240.689 471.368 240.892 471.304V472.808C240.678 472.904 240.401 472.984 240.06 473.048C239.718 473.123 239.361 473.16 238.988 473.16C238.497 473.16 238.049 473.08 237.644 472.92C237.238 472.749 236.918 472.461 236.684 472.056C236.449 471.651 236.332 471.085 236.332 470.36V465.848H235.164V464.968L236.444 464.264L237.084 462.424H238.348V464.328H240.812V465.848H238.348V470.344C238.348 470.749 238.454 471.053 238.668 471.256C238.881 471.448 239.158 471.544 239.5 471.544ZM246.096 464.168C247.216 464.168 248.064 464.413 248.64 464.904C249.226 465.395 249.52 466.152 249.52 467.176V473H248.096L247.696 471.8H247.632C247.258 472.269 246.864 472.616 246.448 472.84C246.032 473.053 245.466 473.16 244.752 473.16C243.973 473.16 243.328 472.941 242.816 472.504C242.304 472.067 242.048 471.389 242.048 470.472C242.048 469.576 242.373 468.904 243.024 468.456C243.685 468.008 244.682 467.757 246.016 467.704L247.52 467.656V467.224C247.52 466.68 247.386 466.291 247.12 466.056C246.853 465.811 246.48 465.688 246 465.688C245.562 465.688 245.141 465.752 244.736 465.88C244.341 466.008 243.946 466.157 243.552 466.328L242.912 464.92C243.338 464.696 243.824 464.515 244.368 464.376C244.922 464.237 245.498 464.168 246.096 464.168ZM247.52 468.904L246.464 468.936C245.578 468.968 244.965 469.123 244.624 469.4C244.282 469.667 244.112 470.029 244.112 470.488C244.112 470.904 244.229 471.203 244.464 471.384C244.709 471.555 245.029 471.64 245.424 471.64C246.01 471.64 246.506 471.475 246.912 471.144C247.317 470.803 247.52 470.301 247.52 469.64V468.904ZM256.686 464.168C257.657 464.168 258.414 464.419 258.958 464.92C259.513 465.421 259.79 466.232 259.79 467.352V473H257.774V467.752C257.774 466.451 257.241 465.8 256.174 465.8C255.363 465.8 254.809 466.056 254.51 466.568C254.211 467.08 254.062 467.811 254.062 468.76V473H252.046V464.328H253.598L253.886 465.464H253.998C254.275 465.016 254.654 464.691 255.134 464.488C255.625 464.275 256.142 464.168 256.686 464.168ZM264.312 460.84V466.616C264.312 466.893 264.301 467.187 264.28 467.496C264.258 467.805 264.237 468.099 264.216 468.376H264.264C264.392 468.184 264.552 467.965 264.744 467.72C264.936 467.475 265.117 467.256 265.288 467.064L267.848 464.328H270.136L266.664 468.072L270.36 473H268.008L265.32 469.288L264.312 470.12V473H262.312V460.84H264.312ZM275.206 464.168C276.369 464.168 277.286 464.515 277.958 465.208C278.641 465.901 278.982 466.867 278.982 468.104V469.128H273.254C273.275 469.917 273.494 470.531 273.91 470.968C274.326 471.395 274.902 471.608 275.638 471.608C276.193 471.608 276.694 471.555 277.142 471.448C277.59 471.331 278.049 471.165 278.518 470.952V472.568C278.091 472.771 277.649 472.92 277.19 473.016C276.731 473.112 276.182 473.16 275.542 473.16C274.699 473.16 273.947 473 273.286 472.68C272.635 472.349 272.123 471.853 271.75 471.192C271.387 470.531 271.206 469.709 271.206 468.728C271.206 467.245 271.574 466.115 272.31 465.336C273.046 464.557 274.011 464.168 275.206 464.168ZM275.206 465.656C274.662 465.656 274.219 465.832 273.878 466.184C273.547 466.525 273.355 467.037 273.302 467.72H277.03C277.019 467.123 276.865 466.632 276.566 466.248C276.278 465.853 275.825 465.656 275.206 465.656ZM285.559 464.168C285.697 464.168 285.847 464.173 286.007 464.184C286.177 464.195 286.321 464.216 286.439 464.248L286.263 466.12C286.156 466.099 286.028 466.083 285.879 466.072C285.729 466.051 285.596 466.04 285.479 466.04C285.052 466.04 284.652 466.131 284.279 466.312C283.905 466.483 283.601 466.755 283.367 467.128C283.143 467.491 283.031 467.949 283.031 468.504V473H281.015V464.328H282.567L282.855 465.832H282.951C283.207 465.373 283.559 464.984 284.007 464.664C284.455 464.333 284.972 464.168 285.559 464.168ZM293.95 470.488C293.95 471.363 293.635 472.029 293.006 472.488C292.387 472.936 291.497 473.16 290.334 473.16C289.726 473.16 289.203 473.117 288.766 473.032C288.339 472.947 287.923 472.813 287.518 472.632V470.92C287.945 471.123 288.414 471.293 288.926 471.432C289.449 471.571 289.939 471.64 290.398 471.64C290.953 471.64 291.353 471.555 291.598 471.384C291.843 471.213 291.966 470.984 291.966 470.696C291.966 470.525 291.918 470.376 291.822 470.248C291.726 470.109 291.534 469.96 291.246 469.8C290.969 469.64 290.553 469.443 289.998 469.208C289.443 468.995 288.979 468.776 288.606 468.552C288.243 468.317 287.966 468.045 287.774 467.736C287.593 467.427 287.502 467.027 287.502 466.536C287.502 465.757 287.806 465.171 288.414 464.776C289.033 464.371 289.854 464.168 290.878 464.168C291.411 464.168 291.913 464.221 292.382 464.328C292.862 464.435 293.342 464.595 293.822 464.808L293.182 466.296C292.777 466.125 292.382 465.981 291.998 465.864C291.614 465.747 291.219 465.688 290.814 465.688C289.929 465.688 289.486 465.939 289.486 466.44C289.486 466.621 289.539 466.776 289.646 466.904C289.763 467.032 289.961 467.171 290.238 467.32C290.526 467.459 290.931 467.629 291.454 467.832C291.966 468.035 292.409 468.248 292.782 468.472C293.155 468.685 293.443 468.952 293.646 469.272C293.849 469.592 293.95 469.997 293.95 470.488ZM307.15 473L306.19 469.272C306.137 469.069 306.073 468.819 305.998 468.52C305.923 468.211 305.843 467.891 305.758 467.56C305.683 467.229 305.614 466.925 305.55 466.648C305.486 466.371 305.438 466.157 305.406 466.008H305.342C305.31 466.157 305.262 466.371 305.198 466.648C305.134 466.925 305.065 467.235 304.99 467.576C304.915 467.907 304.835 468.227 304.75 468.536C304.675 468.835 304.611 469.085 304.558 469.288L303.55 473H301.342L298.91 464.312H300.942L302.014 468.456C302.089 468.744 302.158 469.064 302.222 469.416C302.297 469.757 302.355 470.093 302.398 470.424C302.451 470.744 302.494 471.005 302.526 471.208H302.59C302.611 471.016 302.649 470.755 302.702 470.424C302.766 470.093 302.83 469.773 302.894 469.464C302.958 469.144 303.011 468.904 303.054 468.744L304.302 464.312H306.51L307.71 468.744C307.753 468.936 307.806 469.187 307.87 469.496C307.945 469.805 308.009 470.12 308.062 470.44C308.115 470.749 308.147 471 308.158 471.192H308.222C308.243 471.021 308.281 470.776 308.334 470.456C308.387 470.136 308.451 469.795 308.526 469.432C308.601 469.069 308.681 468.744 308.766 468.456L309.854 464.312H311.854L309.39 473H307.15ZM314.335 460.984C314.645 460.984 314.906 461.064 315.119 461.224C315.343 461.373 315.455 461.645 315.455 462.04C315.455 462.435 315.343 462.712 315.119 462.872C314.906 463.032 314.645 463.112 314.335 463.112C314.026 463.112 313.759 463.032 313.535 462.872C313.322 462.712 313.215 462.435 313.215 462.04C313.215 461.645 313.322 461.373 313.535 461.224C313.759 461.064 314.026 460.984 314.335 460.984ZM315.343 464.328V473H313.327V464.328H315.343ZM321.281 471.544C321.526 471.544 321.766 471.523 322.001 471.48C322.246 471.427 322.47 471.368 322.673 471.304V472.808C322.46 472.904 322.182 472.984 321.841 473.048C321.5 473.123 321.142 473.16 320.769 473.16C320.278 473.16 319.83 473.08 319.425 472.92C319.02 472.749 318.7 472.461 318.465 472.056C318.23 471.651 318.113 471.085 318.113 470.36V465.848H316.945V464.968L318.225 464.264L318.865 462.424H320.129V464.328H322.593V465.848H320.129V470.344C320.129 470.749 320.236 471.053 320.449 471.256C320.662 471.448 320.94 471.544 321.281 471.544ZM326.437 460.84V463.736C326.437 464.077 326.421 464.413 326.389 464.744C326.368 465.064 326.346 465.304 326.325 465.464H326.453C326.73 465.027 327.093 464.701 327.541 464.488C327.989 464.275 328.485 464.168 329.029 464.168C330.01 464.168 330.778 464.419 331.333 464.92C331.888 465.421 332.165 466.232 332.165 467.352V473H330.149V467.752C330.149 466.451 329.616 465.8 328.549 465.8C327.738 465.8 327.184 466.056 326.885 466.568C326.586 467.08 326.437 467.811 326.437 468.76V473H324.421V460.84H326.437ZM335.695 460.984C336.004 460.984 336.265 461.064 336.479 461.224C336.703 461.373 336.815 461.645 336.815 462.04C336.815 462.435 336.703 462.712 336.479 462.872C336.265 463.032 336.004 463.112 335.695 463.112C335.385 463.112 335.119 463.032 334.895 462.872C334.681 462.712 334.575 462.435 334.575 462.04C334.575 461.645 334.681 461.373 334.895 461.224C335.119 461.064 335.385 460.984 335.695 460.984ZM336.703 464.328V473H334.687V464.328H336.703ZM343.92 464.168C344.891 464.168 345.648 464.419 346.192 464.92C346.747 465.421 347.024 466.232 347.024 467.352V473H345.008V467.752C345.008 466.451 344.475 465.8 343.408 465.8C342.598 465.8 342.043 466.056 341.744 466.568C341.446 467.08 341.296 467.811 341.296 468.76V473H339.28V464.328H340.832L341.12 465.464H341.232C341.51 465.016 341.888 464.691 342.368 464.488C342.859 464.275 343.376 464.168 343.92 464.168ZM357.062 471.544C357.308 471.544 357.548 471.523 357.782 471.48C358.028 471.427 358.252 471.368 358.454 471.304V472.808C358.241 472.904 357.964 472.984 357.622 473.048C357.281 473.123 356.924 473.16 356.55 473.16C356.06 473.16 355.612 473.08 355.206 472.92C354.801 472.749 354.481 472.461 354.246 472.056C354.012 471.651 353.894 471.085 353.894 470.36V465.848H352.726V464.968L354.006 464.264L354.646 462.424H355.91V464.328H358.374V465.848H355.91V470.344C355.91 470.749 356.017 471.053 356.23 471.256C356.444 471.448 356.721 471.544 357.062 471.544ZM362.218 460.84V463.736C362.218 464.077 362.202 464.413 362.17 464.744C362.149 465.064 362.128 465.304 362.106 465.464H362.234C362.512 465.027 362.874 464.701 363.322 464.488C363.77 464.275 364.266 464.168 364.81 464.168C365.792 464.168 366.56 464.419 367.114 464.92C367.669 465.421 367.946 466.232 367.946 467.352V473H365.93V467.752C365.93 466.451 365.397 465.8 364.33 465.8C363.52 465.8 362.965 466.056 362.666 466.568C362.368 467.08 362.218 467.811 362.218 468.76V473H360.202V460.84H362.218ZM373.956 464.168C375.119 464.168 376.036 464.515 376.708 465.208C377.391 465.901 377.732 466.867 377.732 468.104V469.128H372.004C372.025 469.917 372.244 470.531 372.66 470.968C373.076 471.395 373.652 471.608 374.388 471.608C374.943 471.608 375.444 471.555 375.892 471.448C376.34 471.331 376.799 471.165 377.268 470.952V472.568C376.841 472.771 376.399 472.92 375.94 473.016C375.481 473.112 374.932 473.16 374.292 473.16C373.449 473.16 372.697 473 372.036 472.68C371.385 472.349 370.873 471.853 370.5 471.192C370.137 470.531 369.956 469.709 369.956 468.728C369.956 467.245 370.324 466.115 371.06 465.336C371.796 464.557 372.761 464.168 373.956 464.168ZM373.956 465.656C373.412 465.656 372.969 465.832 372.628 466.184C372.297 466.525 372.105 467.037 372.052 467.72H375.78C375.769 467.123 375.615 466.632 375.316 466.248C375.028 465.853 374.575 465.656 373.956 465.656ZM391.665 468.648C391.665 470.088 391.292 471.203 390.545 471.992C389.798 472.771 388.785 473.16 387.505 473.16C386.716 473.16 386.012 472.984 385.393 472.632C384.774 472.28 384.289 471.768 383.937 471.096C383.585 470.424 383.409 469.608 383.409 468.648C383.409 467.208 383.777 466.104 384.513 465.336C385.26 464.557 386.273 464.168 387.553 464.168C388.353 464.168 389.062 464.344 389.681 464.696C390.3 465.037 390.785 465.544 391.137 466.216C391.489 466.877 391.665 467.688 391.665 468.648ZM385.473 468.648C385.473 469.565 385.633 470.275 385.953 470.776C386.284 471.277 386.812 471.528 387.537 471.528C388.262 471.528 388.785 471.277 389.105 470.776C389.436 470.275 389.601 469.565 389.601 468.648C389.601 467.731 389.436 467.027 389.105 466.536C388.785 466.045 388.257 465.8 387.521 465.8C386.806 465.8 386.284 466.045 385.953 466.536C385.633 467.027 385.473 467.731 385.473 468.648ZM394.757 460.984C395.066 460.984 395.328 461.064 395.541 461.224C395.765 461.373 395.877 461.645 395.877 462.04C395.877 462.435 395.765 462.712 395.541 462.872C395.328 463.032 395.066 463.112 394.757 463.112C394.448 463.112 394.181 463.032 393.957 462.872C393.744 462.712 393.637 462.435 393.637 462.04C393.637 461.645 393.744 461.373 393.957 461.224C394.181 461.064 394.448 460.984 394.757 460.984ZM395.765 464.328V473H393.749V464.328H395.765ZM400.359 473H398.343V460.84H400.359V473ZM410.549 464.168C411.669 464.168 412.517 464.413 413.093 464.904C413.68 465.395 413.973 466.152 413.973 467.176V473H412.549L412.149 471.8H412.085C411.712 472.269 411.317 472.616 410.901 472.84C410.485 473.053 409.92 473.16 409.205 473.16C408.426 473.16 407.781 472.941 407.269 472.504C406.757 472.067 406.501 471.389 406.501 470.472C406.501 469.576 406.826 468.904 407.477 468.456C408.138 468.008 409.136 467.757 410.469 467.704L411.973 467.656V467.224C411.973 466.68 411.84 466.291 411.573 466.056C411.306 465.811 410.933 465.688 410.453 465.688C410.016 465.688 409.594 465.752 409.189 465.88C408.794 466.008 408.4 466.157 408.005 466.328L407.365 464.92C407.792 464.696 408.277 464.515 408.821 464.376C409.376 464.237 409.952 464.168 410.549 464.168ZM411.973 468.904L410.917 468.936C410.032 468.968 409.418 469.123 409.077 469.4C408.736 469.667 408.565 470.029 408.565 470.488C408.565 470.904 408.682 471.203 408.917 471.384C409.162 471.555 409.482 471.64 409.877 471.64C410.464 471.64 410.96 471.475 411.365 471.144C411.77 470.803 411.973 470.301 411.973 469.64V468.904ZM421.139 464.168C422.11 464.168 422.867 464.419 423.411 464.92C423.966 465.421 424.243 466.232 424.243 467.352V473H422.227V467.752C422.227 466.451 421.694 465.8 420.627 465.8C419.816 465.8 419.262 466.056 418.963 466.568C418.664 467.08 418.515 467.811 418.515 468.76V473H416.499V464.328H418.051L418.339 465.464H418.451C418.728 465.016 419.107 464.691 419.587 464.488C420.078 464.275 420.595 464.168 421.139 464.168ZM429.629 473.16C428.615 473.16 427.799 472.781 427.181 472.024C426.562 471.267 426.253 470.152 426.253 468.68C426.253 467.187 426.567 466.061 427.197 465.304C427.826 464.547 428.653 464.168 429.677 464.168C430.317 464.168 430.839 464.291 431.245 464.536C431.661 464.781 431.991 465.08 432.237 465.432H432.333C432.301 465.283 432.269 465.053 432.237 464.744C432.205 464.435 432.189 464.147 432.189 463.88V460.84H434.205V473H432.637L432.269 471.864H432.189C431.943 472.227 431.618 472.536 431.213 472.792C430.807 473.037 430.279 473.16 429.629 473.16ZM430.237 471.528C430.983 471.528 431.506 471.315 431.805 470.888C432.114 470.461 432.274 469.816 432.285 468.952V468.696C432.285 467.768 432.135 467.059 431.837 466.568C431.549 466.067 431.005 465.816 430.205 465.816C429.586 465.816 429.111 466.072 428.781 466.584C428.461 467.085 428.301 467.795 428.301 468.712C428.301 469.629 428.466 470.328 428.797 470.808C429.127 471.288 429.607 471.528 430.237 471.528ZM443.849 464.168C444.947 464.168 445.806 464.595 446.425 465.448H446.505L446.697 464.328H448.377V473.064C448.377 474.301 448.025 475.24 447.321 475.88C446.627 476.52 445.587 476.84 444.201 476.84C443.582 476.84 443.011 476.797 442.489 476.712C441.966 476.637 441.47 476.504 441.001 476.312V474.648C441.993 475.096 443.102 475.32 444.329 475.32C444.99 475.32 445.491 475.133 445.833 474.76C446.185 474.397 446.361 473.864 446.361 473.16V472.936C446.361 472.776 446.366 472.589 446.377 472.376C446.387 472.163 446.403 471.992 446.425 471.864H446.361C446.062 472.312 445.694 472.643 445.257 472.856C444.83 473.059 444.345 473.16 443.801 473.16C442.745 473.16 441.918 472.765 441.321 471.976C440.723 471.187 440.425 470.088 440.425 468.68C440.425 467.272 440.723 466.168 441.321 465.368C441.929 464.568 442.771 464.168 443.849 464.168ZM444.377 465.816C443.118 465.816 442.489 466.781 442.489 468.712C442.489 470.611 443.129 471.56 444.409 471.56C445.113 471.56 445.63 471.368 445.961 470.984C446.302 470.589 446.473 469.928 446.473 469V468.696C446.473 467.672 446.302 466.936 445.961 466.488C445.63 466.04 445.102 465.816 444.377 465.816ZM454.408 464.168C455.528 464.168 456.376 464.413 456.952 464.904C457.539 465.395 457.832 466.152 457.832 467.176V473H456.408L456.008 471.8H455.944C455.571 472.269 455.176 472.616 454.76 472.84C454.344 473.053 453.779 473.16 453.064 473.16C452.286 473.16 451.64 472.941 451.128 472.504C450.616 472.067 450.36 471.389 450.36 470.472C450.36 469.576 450.686 468.904 451.336 468.456C451.998 468.008 452.995 467.757 454.328 467.704L455.832 467.656V467.224C455.832 466.68 455.699 466.291 455.432 466.056C455.166 465.811 454.792 465.688 454.312 465.688C453.875 465.688 453.454 465.752 453.048 465.88C452.654 466.008 452.259 466.157 451.864 466.328L451.224 464.92C451.651 464.696 452.136 464.515 452.68 464.376C453.235 464.237 453.811 464.168 454.408 464.168ZM455.832 468.904L454.776 468.936C453.891 468.968 453.278 469.123 452.936 469.4C452.595 469.667 452.424 470.029 452.424 470.488C452.424 470.904 452.542 471.203 452.776 471.384C453.022 471.555 453.342 471.64 453.736 471.64C454.323 471.64 454.819 471.475 455.224 471.144C455.63 470.803 455.832 470.301 455.832 469.64V468.904ZM466.263 470.488C466.263 471.363 465.948 472.029 465.319 472.488C464.7 472.936 463.809 473.16 462.647 473.16C462.039 473.16 461.516 473.117 461.079 473.032C460.652 472.947 460.236 472.813 459.831 472.632V470.92C460.257 471.123 460.727 471.293 461.239 471.432C461.761 471.571 462.252 471.64 462.711 471.64C463.265 471.64 463.665 471.555 463.911 471.384C464.156 471.213 464.279 470.984 464.279 470.696C464.279 470.525 464.231 470.376 464.135 470.248C464.039 470.109 463.847 469.96 463.559 469.8C463.281 469.64 462.865 469.443 462.311 469.208C461.756 468.995 461.292 468.776 460.919 468.552C460.556 468.317 460.279 468.045 460.087 467.736C459.905 467.427 459.815 467.027 459.815 466.536C459.815 465.757 460.119 465.171 460.727 464.776C461.345 464.371 462.167 464.168 463.191 464.168C463.724 464.168 464.225 464.221 464.695 464.328C465.175 464.435 465.655 464.595 466.135 464.808L465.495 466.296C465.089 466.125 464.695 465.981 464.311 465.864C463.927 465.747 463.532 465.688 463.127 465.688C462.241 465.688 461.799 465.939 461.799 466.44C461.799 466.621 461.852 466.776 461.959 466.904C462.076 467.032 462.273 467.171 462.551 467.32C462.839 467.459 463.244 467.629 463.766 467.832C464.279 468.035 464.721 468.248 465.095 468.472C465.468 468.685 465.756 468.952 465.959 469.272C466.161 469.592 466.263 469.997 466.263 470.488ZM473.367 460.984C473.676 460.984 473.937 461.064 474.151 461.224C474.375 461.373 474.487 461.645 474.487 462.04C474.487 462.435 474.375 462.712 474.151 462.872C473.937 463.032 473.676 463.112 473.367 463.112C473.057 463.112 472.791 463.032 472.567 462.872C472.353 462.712 472.247 462.435 472.247 462.04C472.247 461.645 472.353 461.373 472.567 461.224C472.791 461.064 473.057 460.984 473.367 460.984ZM474.375 464.328V473H472.359V464.328H474.375ZM481.592 464.168C482.563 464.168 483.32 464.419 483.864 464.92C484.419 465.421 484.696 466.232 484.696 467.352V473H482.68V467.752C482.68 466.451 482.147 465.8 481.08 465.8C480.27 465.8 479.715 466.056 479.416 466.568C479.118 467.08 478.968 467.811 478.968 468.76V473H476.952V464.328H478.504L478.792 465.464H478.904C479.182 465.016 479.56 464.691 480.04 464.488C480.531 464.275 481.048 464.168 481.592 464.168ZM490.082 473.16C489.069 473.16 488.253 472.781 487.634 472.024C487.015 471.267 486.706 470.152 486.706 468.68C486.706 467.187 487.021 466.061 487.65 465.304C488.279 464.547 489.106 464.168 490.13 464.168C490.77 464.168 491.293 464.291 491.698 464.536C492.114 464.781 492.445 465.08 492.69 465.432H492.786C492.754 465.283 492.722 465.053 492.69 464.744C492.658 464.435 492.642 464.147 492.642 463.88V460.84H494.658V473H493.09L492.722 471.864H492.642C492.397 472.227 492.071 472.536 491.666 472.792C491.261 473.037 490.733 473.16 490.082 473.16ZM490.69 471.528C491.437 471.528 491.959 471.315 492.258 470.888C492.567 470.461 492.727 469.816 492.738 468.952V468.696C492.738 467.768 492.589 467.059 492.29 466.568C492.002 466.067 491.458 465.816 490.658 465.816C490.039 465.816 489.565 466.072 489.234 466.584C488.914 467.085 488.754 467.795 488.754 468.712C488.754 469.629 488.919 470.328 489.25 470.808C489.581 471.288 490.061 471.528 490.69 471.528ZM504.93 464.328V473H503.346L503.074 471.88H502.978C502.69 472.328 502.3 472.653 501.81 472.856C501.33 473.059 500.818 473.16 500.274 473.16C499.303 473.16 498.54 472.909 497.986 472.408C497.442 471.907 497.17 471.101 497.17 469.992V464.328H499.186V469.592C499.186 470.883 499.719 471.528 500.786 471.528C501.596 471.528 502.151 471.277 502.45 470.776C502.759 470.264 502.914 469.528 502.914 468.568V464.328H504.93ZM513.403 470.488C513.403 471.363 513.088 472.029 512.459 472.488C511.84 472.936 510.95 473.16 509.787 473.16C509.179 473.16 508.656 473.117 508.219 473.032C507.792 472.947 507.376 472.813 506.971 472.632V470.92C507.398 471.123 507.867 471.293 508.379 471.432C508.902 471.571 509.392 471.64 509.851 471.64C510.406 471.64 510.806 471.555 511.051 471.384C511.296 471.213 511.419 470.984 511.419 470.696C511.419 470.525 511.371 470.376 511.275 470.248C511.179 470.109 510.987 469.96 510.699 469.8C510.422 469.64 510.006 469.443 509.451 469.208C508.896 468.995 508.432 468.776 508.059 468.552C507.696 468.317 507.419 468.045 507.227 467.736C507.046 467.427 506.955 467.027 506.955 466.536C506.955 465.757 507.259 465.171 507.867 464.776C508.486 464.371 509.307 464.168 510.331 464.168C510.864 464.168 511.366 464.221 511.835 464.328C512.315 464.435 512.795 464.595 513.275 464.808L512.635 466.296C512.23 466.125 511.835 465.981 511.451 465.864C511.067 465.747 510.672 465.688 510.267 465.688C509.382 465.688 508.939 465.939 508.939 466.44C508.939 466.621 508.992 466.776 509.099 466.904C509.216 467.032 509.414 467.171 509.691 467.32C509.979 467.459 510.384 467.629 510.907 467.832C511.419 468.035 511.862 468.248 512.235 468.472C512.608 468.685 512.896 468.952 513.099 469.272C513.302 469.592 513.403 469.997 513.403 470.488ZM518.703 471.544C518.948 471.544 519.188 471.523 519.423 471.48C519.668 471.427 519.892 471.368 520.095 471.304V472.808C519.882 472.904 519.604 472.984 519.263 473.048C518.922 473.123 518.564 473.16 518.191 473.16C517.7 473.16 517.252 473.08 516.847 472.92C516.442 472.749 516.122 472.461 515.887 472.056C515.652 471.651 515.535 471.085 515.535 470.36V465.848H514.367V464.968L515.647 464.264L516.287 462.424H517.551V464.328H520.015V465.848H517.551V470.344C517.551 470.749 517.658 471.053 517.871 471.256C518.084 471.448 518.362 471.544 518.703 471.544ZM526.387 464.168C526.526 464.168 526.675 464.173 526.835 464.184C527.006 464.195 527.15 464.216 527.267 464.248L527.091 466.12C526.984 466.099 526.856 466.083 526.707 466.072C526.558 466.051 526.424 466.04 526.307 466.04C525.88 466.04 525.48 466.131 525.107 466.312C524.734 466.483 524.43 466.755 524.195 467.128C523.971 467.491 523.859 467.949 523.859 468.504V473H521.843V464.328H523.395L523.683 465.832H523.779C524.035 465.373 524.387 464.984 524.835 464.664C525.283 464.333 525.8 464.168 526.387 464.168ZM527.578 464.328H529.77L531.498 469.224C531.615 469.533 531.711 469.837 531.786 470.136C531.861 470.435 531.914 470.739 531.946 471.048H532.01C532.053 470.781 532.117 470.488 532.202 470.168C532.287 469.848 532.383 469.533 532.49 469.224L534.154 464.328H536.33L532.634 474.152C532.303 475.016 531.85 475.677 531.274 476.136C530.709 476.605 530.01 476.84 529.178 476.84C528.911 476.84 528.682 476.824 528.49 476.792C528.298 476.771 528.127 476.744 527.978 476.712V475.112C528.095 475.133 528.234 475.155 528.394 475.176C528.565 475.197 528.741 475.208 528.922 475.208C529.423 475.208 529.818 475.059 530.106 474.76C530.405 474.472 530.634 474.109 530.794 473.672L531.05 472.968L527.578 464.328ZM536.696 471.976C536.696 471.528 536.813 471.213 537.048 471.032C537.282 470.84 537.57 470.744 537.912 470.744C538.242 470.744 538.53 470.84 538.776 471.032C539.021 471.213 539.144 471.528 539.144 471.976C539.144 472.413 539.021 472.728 538.776 472.92C538.53 473.112 538.242 473.208 537.912 473.208C537.57 473.208 537.282 473.112 537.048 472.92C536.813 472.728 536.696 472.413 536.696 471.976Z" fill="#353686" fill-opacity="0.5"/>
<path d="M43.604 343V323.008H47.188V339.976H55.532V343H43.604ZM72.2145 335.384C72.2145 337.904 71.5612 339.855 70.2545 341.236C68.9479 342.599 67.1745 343.28 64.9345 343.28C63.5532 343.28 62.3212 342.972 61.2385 342.356C60.1559 341.74 59.3065 340.844 58.6905 339.668C58.0745 338.492 57.7665 337.064 57.7665 335.384C57.7665 332.864 58.4105 330.932 59.6985 329.588C61.0052 328.225 62.7785 327.544 65.0185 327.544C66.4185 327.544 67.6599 327.852 68.7425 328.468C69.8252 329.065 70.6745 329.952 71.2905 331.128C71.9065 332.285 72.2145 333.704 72.2145 335.384ZM61.3785 335.384C61.3785 336.989 61.6585 338.231 62.2185 339.108C62.7972 339.985 63.7212 340.424 64.9905 340.424C66.2599 340.424 67.1745 339.985 67.7345 339.108C68.3132 338.231 68.6025 336.989 68.6025 335.384C68.6025 333.779 68.3132 332.547 67.7345 331.688C67.1745 330.829 66.2505 330.4 64.9625 330.4C63.7119 330.4 62.7972 330.829 62.2185 331.688C61.6585 332.547 61.3785 333.779 61.3785 335.384ZM80.9578 327.544C82.8804 327.544 84.3831 328.291 85.4658 329.784H85.6058L85.9418 327.824H88.8818V343.112C88.8818 345.277 88.2658 346.92 87.0338 348.04C85.8204 349.16 84.0004 349.72 81.5738 349.72C80.4911 349.72 79.4924 349.645 78.5778 349.496C77.6631 349.365 76.7951 349.132 75.9738 348.796V345.884C77.7098 346.668 79.6511 347.06 81.7978 347.06C82.9551 347.06 83.8324 346.733 84.4298 346.08C85.0458 345.445 85.3538 344.512 85.3538 343.28V342.888C85.3538 342.608 85.3631 342.281 85.3818 341.908C85.4004 341.535 85.4284 341.236 85.4658 341.012H85.3538C84.8311 341.796 84.1871 342.375 83.4218 342.748C82.6751 343.103 81.8258 343.28 80.8738 343.28C79.0258 343.28 77.5791 342.589 76.5338 341.208C75.4884 339.827 74.9658 337.904 74.9658 335.44C74.9658 332.976 75.4884 331.044 76.5338 329.644C77.5978 328.244 79.0724 327.544 80.9578 327.544ZM81.8818 330.428C79.6791 330.428 78.5778 332.117 78.5778 335.496C78.5778 338.819 79.6978 340.48 81.9378 340.48C83.1698 340.48 84.0751 340.144 84.6538 339.472C85.2511 338.781 85.5498 337.624 85.5498 336V335.468C85.5498 333.676 85.2511 332.388 84.6538 331.604C84.0751 330.82 83.1511 330.428 81.8818 330.428ZM95.1531 321.972C95.6944 321.972 96.1518 322.112 96.5251 322.392C96.9171 322.653 97.1131 323.129 97.1131 323.82C97.1131 324.511 96.9171 324.996 96.5251 325.276C96.1518 325.556 95.6944 325.696 95.1531 325.696C94.6118 325.696 94.1451 325.556 93.7531 325.276C93.3798 324.996 93.1931 324.511 93.1931 323.82C93.1931 323.129 93.3798 322.653 93.7531 322.392C94.1451 322.112 94.6118 321.972 95.1531 321.972ZM96.9171 327.824V343H93.3891V327.824H96.9171ZM111.76 338.604C111.76 340.135 111.209 341.301 110.108 342.104C109.025 342.888 107.467 343.28 105.432 343.28C104.368 343.28 103.453 343.205 102.688 343.056C101.941 342.907 101.213 342.673 100.504 342.356V339.36C101.251 339.715 102.072 340.013 102.968 340.256C103.883 340.499 104.741 340.62 105.544 340.62C106.515 340.62 107.215 340.471 107.644 340.172C108.073 339.873 108.288 339.472 108.288 338.968C108.288 338.669 108.204 338.408 108.036 338.184C107.868 337.941 107.532 337.68 107.028 337.4C106.543 337.12 105.815 336.775 104.844 336.364C103.873 335.991 103.061 335.608 102.408 335.216C101.773 334.805 101.288 334.329 100.952 333.788C100.635 333.247 100.476 332.547 100.476 331.688C100.476 330.325 101.008 329.299 102.072 328.608C103.155 327.899 104.592 327.544 106.384 327.544C107.317 327.544 108.195 327.637 109.016 327.824C109.856 328.011 110.696 328.291 111.536 328.664L110.416 331.268C109.707 330.969 109.016 330.717 108.344 330.512C107.672 330.307 106.981 330.204 106.272 330.204C104.723 330.204 103.948 330.643 103.948 331.52C103.948 331.837 104.041 332.108 104.228 332.332C104.433 332.556 104.779 332.799 105.264 333.06C105.768 333.303 106.477 333.601 107.392 333.956C108.288 334.311 109.063 334.684 109.716 335.076C110.369 335.449 110.873 335.916 111.228 336.476C111.583 337.036 111.76 337.745 111.76 338.604ZM121.035 340.452C121.464 340.452 121.884 340.415 122.295 340.34C122.724 340.247 123.116 340.144 123.471 340.032V342.664C123.097 342.832 122.612 342.972 122.015 343.084C121.417 343.215 120.792 343.28 120.139 343.28C119.28 343.28 118.496 343.14 117.787 342.86C117.077 342.561 116.517 342.057 116.107 341.348C115.696 340.639 115.491 339.649 115.491 338.38V330.484H113.447V328.944L115.687 327.712L116.807 324.492H119.019V327.824H123.331V330.484H119.019V338.352C119.019 339.061 119.205 339.593 119.579 339.948C119.952 340.284 120.437 340.452 121.035 340.452ZM128.294 321.972C128.835 321.972 129.292 322.112 129.666 322.392C130.058 322.653 130.254 323.129 130.254 323.82C130.254 324.511 130.058 324.996 129.666 325.276C129.292 325.556 128.835 325.696 128.294 325.696C127.752 325.696 127.286 325.556 126.894 325.276C126.52 324.996 126.334 324.511 126.334 323.82C126.334 323.129 126.52 322.653 126.894 322.392C127.286 322.112 127.752 321.972 128.294 321.972ZM130.058 327.824V343H126.53V327.824H130.058ZM140.701 343.28C138.517 343.28 136.799 342.655 135.549 341.404C134.298 340.153 133.673 338.184 133.673 335.496C133.673 333.629 133.981 332.117 134.597 330.96C135.231 329.784 136.099 328.925 137.201 328.384C138.302 327.824 139.562 327.544 140.981 327.544C141.933 327.544 142.782 327.637 143.529 327.824C144.275 328.011 144.91 328.235 145.433 328.496L144.397 331.268C143.818 331.044 143.239 330.857 142.661 330.708C142.082 330.54 141.522 330.456 140.981 330.456C138.517 330.456 137.285 332.127 137.285 335.468C137.285 337.092 137.593 338.315 138.209 339.136C138.843 339.957 139.749 340.368 140.925 340.368C141.765 340.368 142.511 340.265 143.165 340.06C143.818 339.855 144.443 339.575 145.041 339.22V342.272C144.462 342.608 143.837 342.86 143.165 343.028C142.511 343.196 141.69 343.28 140.701 343.28ZM158.928 338.604C158.928 340.135 158.377 341.301 157.276 342.104C156.193 342.888 154.635 343.28 152.6 343.28C151.536 343.28 150.621 343.205 149.856 343.056C149.109 342.907 148.381 342.673 147.672 342.356V339.36C148.419 339.715 149.24 340.013 150.136 340.256C151.051 340.499 151.909 340.62 152.712 340.62C153.683 340.62 154.383 340.471 154.812 340.172C155.241 339.873 155.456 339.472 155.456 338.968C155.456 338.669 155.372 338.408 155.204 338.184C155.036 337.941 154.7 337.68 154.196 337.4C153.711 337.12 152.983 336.775 152.012 336.364C151.041 335.991 150.229 335.608 149.576 335.216C148.941 334.805 148.456 334.329 148.12 333.788C147.803 333.247 147.644 332.547 147.644 331.688C147.644 330.325 148.176 329.299 149.24 328.608C150.323 327.899 151.76 327.544 153.552 327.544C154.485 327.544 155.363 327.637 156.184 327.824C157.024 328.011 157.864 328.291 158.704 328.664L157.584 331.268C156.875 330.969 156.184 330.717 155.512 330.512C154.84 330.307 154.149 330.204 153.44 330.204C151.891 330.204 151.116 330.643 151.116 331.52C151.116 331.837 151.209 332.108 151.396 332.332C151.601 332.556 151.947 332.799 152.432 333.06C152.936 333.303 153.645 333.601 154.56 333.956C155.456 334.311 156.231 334.684 156.884 335.076C157.537 335.449 158.041 335.916 158.396 336.476C158.751 337.036 158.928 337.745 158.928 338.604Z" fill="#353686"/>
<path d="M43.232 402V384.864H46.304V399.408H53.456V402H43.232ZM67.7553 395.472C67.7553 397.632 67.1953 399.304 66.0753 400.488C64.9553 401.656 63.4353 402.24 61.5153 402.24C60.3313 402.24 59.2753 401.976 58.3473 401.448C57.4193 400.92 56.6913 400.152 56.1633 399.144C55.6353 398.136 55.3713 396.912 55.3713 395.472C55.3713 393.312 55.9233 391.656 57.0273 390.504C58.1473 389.336 59.6673 388.752 61.5873 388.752C62.7873 388.752 63.8513 389.016 64.7793 389.544C65.7073 390.056 66.4353 390.816 66.9633 391.824C67.4913 392.816 67.7553 394.032 67.7553 395.472ZM58.4673 395.472C58.4673 396.848 58.7073 397.912 59.1873 398.664C59.6833 399.416 60.4753 399.792 61.5633 399.792C62.6513 399.792 63.4353 399.416 63.9153 398.664C64.4113 397.912 64.6593 396.848 64.6593 395.472C64.6593 394.096 64.4113 393.04 63.9153 392.304C63.4353 391.568 62.6433 391.2 61.5393 391.2C60.4673 391.2 59.6833 391.568 59.1873 392.304C58.7073 393.04 58.4673 394.096 58.4673 395.472ZM77.6975 388.752C77.9055 388.752 78.1295 388.76 78.3695 388.776C78.6255 388.792 78.8415 388.824 79.0175 388.872L78.7535 391.68C78.5935 391.648 78.4015 391.624 78.1775 391.608C77.9535 391.576 77.7535 391.56 77.5775 391.56C76.9375 391.56 76.3375 391.696 75.7775 391.968C75.2175 392.224 74.7615 392.632 74.4095 393.192C74.0735 393.736 73.9055 394.424 73.9055 395.256V402H70.8815V388.992H73.2095L73.6415 391.248H73.7855C74.1695 390.56 74.6975 389.976 75.3695 389.496C76.0415 389 76.8175 388.752 77.6975 388.752ZM86.1916 388.752C87.9356 388.752 89.3116 389.272 90.3196 390.312C91.3436 391.352 91.8556 392.8 91.8556 394.656V396.192H83.2636C83.2956 397.376 83.6236 398.296 84.2476 398.952C84.8716 399.592 85.7356 399.912 86.8396 399.912C87.6716 399.912 88.4236 399.832 89.0956 399.672C89.7676 399.496 90.4556 399.248 91.1596 398.928V401.352C90.5196 401.656 89.8556 401.88 89.1676 402.024C88.4796 402.168 87.6556 402.24 86.6956 402.24C85.4316 402.24 84.3036 402 83.3116 401.52C82.3356 401.024 81.5676 400.28 81.0076 399.288C80.4636 398.296 80.1916 397.064 80.1916 395.592C80.1916 393.368 80.7436 391.672 81.8476 390.504C82.9516 389.336 84.3996 388.752 86.1916 388.752ZM86.1916 390.984C85.3756 390.984 84.7116 391.248 84.1996 391.776C83.7036 392.288 83.4156 393.056 83.3356 394.08H88.9276C88.9116 393.184 88.6796 392.448 88.2316 391.872C87.7996 391.28 87.1196 390.984 86.1916 390.984ZM109.809 388.752C111.281 388.752 112.385 389.128 113.121 389.88C113.873 390.632 114.249 391.848 114.249 393.528V402H111.225V394.104C111.225 392.168 110.489 391.2 109.017 391.2C107.961 391.2 107.209 391.544 106.761 392.232C106.313 392.92 106.089 393.92 106.089 395.232V402H103.065V394.104C103.065 392.168 102.321 391.2 100.833 391.2C99.7289 391.2 98.9689 391.584 98.5529 392.352C98.1369 393.12 97.9289 394.216 97.9289 395.64V402H94.9049V388.992H97.2329L97.6649 390.696H97.8329C98.2169 390.024 98.7529 389.536 99.4409 389.232C100.145 388.912 100.873 388.752 101.625 388.752C102.601 388.752 103.417 388.92 104.073 389.256C104.745 389.576 105.257 390.08 105.609 390.768H105.849C106.249 390.064 106.809 389.552 107.529 389.232C108.249 388.912 109.009 388.752 109.809 388.752ZM130.368 402H123.168V400.248L125.232 399.48V387.408L123.168 386.616V384.864H130.368V386.616L128.304 387.408V399.48L130.368 400.248V402ZM139.995 388.752C141.515 388.752 142.739 389.32 143.667 390.456C144.595 391.576 145.059 393.248 145.059 395.472C145.059 397.696 144.579 399.384 143.619 400.536C142.675 401.672 141.443 402.24 139.923 402.24C138.963 402.24 138.187 402.064 137.595 401.712C137.003 401.36 136.531 400.952 136.179 400.488H135.987C136.035 400.792 136.075 401.128 136.107 401.496C136.155 401.848 136.179 402.176 136.179 402.48V407.76H133.155V388.992H135.603L136.035 390.72H136.179C136.531 390.176 137.011 389.712 137.619 389.328C138.227 388.944 139.019 388.752 139.995 388.752ZM139.131 391.2C138.059 391.2 137.299 391.52 136.851 392.16C136.419 392.8 136.195 393.768 136.179 395.064V395.448C136.179 396.84 136.387 397.912 136.803 398.664C137.235 399.4 138.027 399.768 139.179 399.768C140.123 399.768 140.819 399.384 141.267 398.616C141.731 397.832 141.963 396.768 141.963 395.424C141.963 394.08 141.731 393.04 141.267 392.304C140.819 391.568 140.107 391.2 139.131 391.2ZM157.034 398.232C157.034 399.544 156.562 400.544 155.618 401.232C154.69 401.904 153.354 402.24 151.61 402.24C150.698 402.24 149.914 402.176 149.258 402.048C148.618 401.92 147.994 401.72 147.386 401.448V398.88C148.026 399.184 148.73 399.44 149.498 399.648C150.282 399.856 151.018 399.96 151.706 399.96C152.538 399.96 153.138 399.832 153.506 399.576C153.874 399.32 154.058 398.976 154.058 398.544C154.058 398.288 153.986 398.064 153.842 397.872C153.698 397.664 153.41 397.44 152.978 397.2C152.562 396.96 151.938 396.664 151.106 396.312C150.274 395.992 149.578 395.664 149.018 395.328C148.474 394.976 148.058 394.568 147.77 394.104C147.498 393.64 147.362 393.04 147.362 392.304C147.362 391.136 147.818 390.256 148.73 389.664C149.658 389.056 150.89 388.752 152.426 388.752C153.226 388.752 153.978 388.832 154.682 388.992C155.402 389.152 156.122 389.392 156.842 389.712L155.882 391.944C155.274 391.688 154.682 391.472 154.106 391.296C153.53 391.12 152.938 391.032 152.33 391.032C151.002 391.032 150.338 391.408 150.338 392.16C150.338 392.432 150.418 392.664 150.578 392.856C150.754 393.048 151.05 393.256 151.466 393.48C151.898 393.688 152.506 393.944 153.29 394.248C154.058 394.552 154.722 394.872 155.282 395.208C155.842 395.528 156.274 395.928 156.578 396.408C156.882 396.888 157.034 397.496 157.034 398.232ZM171.488 388.992V402H169.112L168.704 400.32H168.56C168.128 400.992 167.544 401.48 166.808 401.784C166.088 402.088 165.32 402.24 164.504 402.24C163.048 402.24 161.904 401.864 161.072 401.112C160.256 400.36 159.848 399.152 159.848 397.488V388.992H162.872V396.888C162.872 398.824 163.672 399.792 165.272 399.792C166.488 399.792 167.32 399.416 167.768 398.664C168.232 397.896 168.464 396.792 168.464 395.352V388.992H171.488ZM190.246 388.752C191.718 388.752 192.822 389.128 193.558 389.88C194.31 390.632 194.686 391.848 194.686 393.528V402H191.662V394.104C191.662 392.168 190.926 391.2 189.454 391.2C188.398 391.2 187.646 391.544 187.198 392.232C186.75 392.92 186.526 393.92 186.526 395.232V402H183.502V394.104C183.502 392.168 182.758 391.2 181.27 391.2C180.166 391.2 179.406 391.584 178.99 392.352C178.574 393.12 178.366 394.216 178.366 395.64V402H175.342V388.992H177.67L178.102 390.696H178.27C178.654 390.024 179.19 389.536 179.878 389.232C180.582 388.912 181.31 388.752 182.062 388.752C183.038 388.752 183.854 388.92 184.51 389.256C185.182 389.576 185.694 390.08 186.046 390.768H186.286C186.686 390.064 187.246 389.552 187.966 389.232C188.686 388.912 189.446 388.752 190.246 388.752ZM214.958 397.32C214.958 398.84 214.406 400.04 213.302 400.92C212.198 401.8 210.67 402.24 208.718 402.24C206.83 402.24 205.23 401.92 203.918 401.28V398.4C204.638 398.72 205.43 399.016 206.294 399.288C207.158 399.544 208.038 399.672 208.934 399.672C209.958 399.672 210.71 399.472 211.19 399.072C211.67 398.672 211.91 398.144 211.91 397.488C211.91 396.768 211.606 396.2 210.998 395.784C210.39 395.368 209.502 394.912 208.334 394.416C207.63 394.112 206.958 393.752 206.318 393.336C205.678 392.92 205.15 392.392 204.734 391.752C204.318 391.112 204.11 390.296 204.11 389.304C204.11 387.832 204.622 386.688 205.646 385.872C206.686 385.04 208.07 384.624 209.798 384.624C210.71 384.624 211.558 384.72 212.342 384.912C213.142 385.104 213.942 385.376 214.742 385.728L213.758 388.2C213.038 387.896 212.35 387.656 211.694 387.48C211.054 387.304 210.39 387.216 209.702 387.216C208.87 387.216 208.238 387.408 207.806 387.792C207.374 388.16 207.158 388.64 207.158 389.232C207.158 389.712 207.278 390.112 207.518 390.432C207.758 390.752 208.126 391.048 208.622 391.32C209.134 391.592 209.79 391.904 210.59 392.256C211.502 392.656 212.286 393.072 212.942 393.504C213.598 393.936 214.094 394.456 214.43 395.064C214.782 395.672 214.958 396.424 214.958 397.32ZM223.137 388.752C224.881 388.752 226.257 389.272 227.265 390.312C228.289 391.352 228.801 392.8 228.801 394.656V396.192H220.209C220.241 397.376 220.569 398.296 221.193 398.952C221.817 399.592 222.681 399.912 223.785 399.912C224.617 399.912 225.369 399.832 226.041 399.672C226.713 399.496 227.401 399.248 228.105 398.928V401.352C227.465 401.656 226.801 401.88 226.113 402.024C225.425 402.168 224.601 402.24 223.641 402.24C222.377 402.24 221.249 402 220.257 401.52C219.281 401.024 218.513 400.28 217.953 399.288C217.409 398.296 217.137 397.064 217.137 395.592C217.137 393.368 217.689 391.672 218.793 390.504C219.897 389.336 221.345 388.752 223.137 388.752ZM223.137 390.984C222.321 390.984 221.657 391.248 221.145 391.776C220.649 392.288 220.361 393.056 220.281 394.08H225.873C225.857 393.184 225.625 392.448 225.177 391.872C224.745 391.28 224.065 390.984 223.137 390.984ZM236.89 399.816C237.258 399.816 237.618 399.784 237.97 399.72C238.338 399.64 238.674 399.552 238.978 399.456V401.712C238.658 401.856 238.242 401.976 237.73 402.072C237.218 402.184 236.682 402.24 236.122 402.24C235.386 402.24 234.714 402.12 234.106 401.88C233.498 401.624 233.018 401.192 232.666 400.584C232.314 399.976 232.138 399.128 232.138 398.04V391.272H230.386V389.952L232.306 388.896L233.266 386.136H235.162V388.992H238.858V391.272H235.162V398.016C235.162 398.624 235.322 399.08 235.642 399.384C235.962 399.672 236.378 399.816 236.89 399.816ZM258.707 402L257.147 397.464H250.691L249.155 402H245.891L252.179 384.792H255.683L261.971 402H258.707ZM254.867 390.408C254.803 390.184 254.707 389.88 254.579 389.496C254.451 389.112 254.323 388.72 254.195 388.32C254.083 387.904 253.995 387.56 253.931 387.288C253.851 387.608 253.747 387.976 253.619 388.392C253.507 388.808 253.395 389.2 253.283 389.568C253.171 389.936 253.091 390.216 253.043 390.408L251.531 394.824H256.355L254.867 390.408ZM278.84 388.752C280.312 388.752 281.416 389.128 282.152 389.88C282.904 390.632 283.28 391.848 283.28 393.528V402H280.256V394.104C280.256 392.168 279.52 391.2 278.048 391.2C276.992 391.2 276.24 391.544 275.792 392.232C275.344 392.92 275.12 393.92 275.12 395.232V402H272.096V394.104C272.096 392.168 271.352 391.2 269.864 391.2C268.76 391.2 268 391.584 267.584 392.352C267.168 393.12 266.96 394.216 266.96 395.64V402H263.936V388.992H266.264L266.696 390.696H266.864C267.248 390.024 267.784 389.536 268.472 389.232C269.176 388.912 269.904 388.752 270.656 388.752C271.632 388.752 272.448 388.92 273.104 389.256C273.776 389.576 274.288 390.08 274.64 390.768H274.88C275.28 390.064 275.84 389.552 276.56 389.232C277.28 388.912 278.04 388.752 278.84 388.752ZM288.581 383.976C289.045 383.976 289.437 384.096 289.757 384.336C290.093 384.56 290.261 384.968 290.261 385.56C290.261 386.152 290.093 386.568 289.757 386.808C289.437 387.048 289.045 387.168 288.581 387.168C288.117 387.168 287.717 387.048 287.381 386.808C287.061 386.568 286.901 386.152 286.901 385.56C286.901 384.968 287.061 384.56 287.381 384.336C287.717 384.096 288.117 383.976 288.581 383.976ZM290.093 388.992V402H287.069V388.992H290.093ZM299 399.816C299.368 399.816 299.728 399.784 300.08 399.72C300.448 399.64 300.784 399.552 301.088 399.456V401.712C300.768 401.856 300.352 401.976 299.84 402.072C299.328 402.184 298.792 402.24 298.232 402.24C297.496 402.24 296.824 402.12 296.216 401.88C295.608 401.624 295.128 401.192 294.776 400.584C294.424 399.976 294.248 399.128 294.248 398.04V391.272H292.496V389.952L294.416 388.896L295.376 386.136H297.272V388.992H300.968V391.272H297.272V398.016C297.272 398.624 297.432 399.08 297.752 399.384C298.072 399.672 298.488 399.816 299 399.816Z" fill="#353686" fill-opacity="0.9"/>
<path d="M487.42 39.72V48.96C487.42 49.9467 487.2 50.84 486.76 51.64C486.333 52.4267 485.68 53.0533 484.8 53.52C483.933 53.9733 482.833 54.2 481.5 54.2C479.607 54.2 478.167 53.72 477.18 52.76C476.193 51.7867 475.7 50.5067 475.7 48.92V39.72H478.72V48.46C478.72 49.6333 478.96 50.46 479.44 50.94C479.92 51.42 480.633 51.66 481.58 51.66C482.567 51.66 483.28 51.4 483.72 50.88C484.173 50.36 484.4 49.5467 484.4 48.44V39.72H487.42ZM489.717 49.86V47.42H494.957V49.86H489.717ZM502.062 54H499.042V42.24H495.162V39.72H505.942V42.24H502.062V54ZM513.008 42.88C513.154 42.88 513.328 42.8867 513.528 42.9C513.728 42.9133 513.888 42.9333 514.008 42.96L513.788 45.76C513.694 45.7333 513.554 45.7133 513.368 45.7C513.194 45.6733 513.041 45.66 512.908 45.66C512.401 45.66 511.914 45.7533 511.448 45.94C510.981 46.1133 510.601 46.4 510.308 46.8C510.028 47.2 509.888 47.7467 509.888 48.44V54H506.908V43.08H509.168L509.608 44.92H509.748C510.068 44.36 510.508 43.88 511.068 43.48C511.628 43.08 512.274 42.88 513.008 42.88ZM520.079 42.86C521.546 42.86 522.666 43.18 523.439 43.82C524.226 44.4467 524.619 45.4133 524.619 46.72V54H522.539L521.959 52.52H521.879C521.412 53.1067 520.919 53.5333 520.399 53.8C519.879 54.0667 519.166 54.2 518.259 54.2C517.286 54.2 516.479 53.92 515.839 53.36C515.199 52.7867 514.879 51.9133 514.879 50.74C514.879 49.58 515.286 48.7267 516.099 48.18C516.912 47.62 518.132 47.3133 519.759 47.26L521.659 47.2V46.72C521.659 46.1467 521.506 45.7267 521.199 45.46C520.906 45.1933 520.492 45.06 519.959 45.06C519.426 45.06 518.906 45.14 518.399 45.3C517.892 45.4467 517.386 45.6333 516.879 45.86L515.899 43.84C516.486 43.5333 517.132 43.2933 517.839 43.12C518.559 42.9467 519.306 42.86 520.079 42.86ZM521.659 48.94L520.499 48.98C519.539 49.0067 518.872 49.18 518.499 49.5C518.126 49.82 517.939 50.24 517.939 50.76C517.939 51.2133 518.072 51.54 518.339 51.74C518.606 51.9267 518.952 52.02 519.379 52.02C520.019 52.02 520.559 51.8333 520.999 51.46C521.439 51.0733 521.659 50.5333 521.659 49.84V48.94ZM532.109 54.2C530.483 54.2 529.223 53.7533 528.329 52.86C527.449 51.9533 527.009 50.5333 527.009 48.6C527.009 47.2667 527.236 46.18 527.689 45.34C528.143 44.5 528.769 43.88 529.569 43.48C530.383 43.08 531.316 42.88 532.369 42.88C533.116 42.88 533.763 42.9533 534.309 43.1C534.869 43.2467 535.356 43.42 535.769 43.62L534.889 45.92C534.423 45.7333 533.983 45.58 533.569 45.46C533.169 45.34 532.769 45.28 532.369 45.28C530.823 45.28 530.049 46.38 530.049 48.58C530.049 49.6733 530.249 50.48 530.649 51C531.063 51.52 531.636 51.78 532.369 51.78C532.996 51.78 533.549 51.7 534.029 51.54C534.509 51.3667 534.976 51.1333 535.429 50.84V53.38C534.976 53.6733 534.496 53.88 533.989 54C533.496 54.1333 532.869 54.2 532.109 54.2ZM540.923 38.8V45.6C540.923 46.0133 540.903 46.4267 540.863 46.84C540.836 47.24 540.803 47.6467 540.763 48.06H540.803C541.003 47.78 541.209 47.5 541.423 47.22C541.636 46.9267 541.863 46.6533 542.103 46.4L545.163 43.08H548.523L544.183 47.82L548.783 54H545.343L542.203 49.58L540.923 50.6V54H537.943V38.8H540.923Z" fill="#353686" fill-opacity="0.5"/>
<g filter="url(#filter1_d_0_1)">
<rect x="-668" y="-94" width="673" height="743.963" rx="6.86735" fill="white"/>
</g>
<rect x="-668" y="642" width="673" height="8" rx="2" fill="#5051DB"/>
</g>
<defs>
<filter id="filter0_d_0_1" x="-58" y="-58" width="712" height="774" filterUnits="userSpaceOnUse" color-interpolation-filters="sRGB">
<feFlood flood-opacity="0" result="BackgroundImageFix"/>
<feColorMatrix in="SourceAlpha" type="matrix" values="0 0 0 0 0 0 0 0 0 0 0 0 0 0 0 0 0 0 127 0" result="hardAlpha"/>
<feMorphology radius="2" operator="dilate" in="SourceAlpha" result="effect1_dropShadow_0_1"/>
<feOffset dx="4" dy="4"/>
<feGaussianBlur stdDeviation="30"/>
<feColorMatrix type="matrix" values="0 0 0 0 0.313726 0 0 0 0 0.317647 0 0 0 0 0.858824 0 0 0 0.1 0"/>
<feBlend mode="normal" in2="BackgroundImageFix" result="effect1_dropShadow_0_1"/>
<feBlend mode="normal" in="SourceGraphic" in2="effect1_dropShadow_0_1" result="shape"/>
</filter>
<filter id="filter1_d_0_1" x="-730.265" y="-156.265" width="806.119" height="877.081" filterUnits="userSpaceOnUse" color-interpolation-filters="sRGB">
<feFlood flood-opacity="0" result="BackgroundImageFix"/>
<feColorMatrix in="SourceAlpha" type="matrix" values="0 0 0 0 0 0 0 0 0 0 0 0 0 0 0 0 0 0 127 0" result="hardAlpha"/>
<feMorphology radius="2.14708" operator="dilate" in="SourceAlpha" result="effect1_dropShadow_0_1"/>
<feOffset dx="4.29416" dy="4.29416"/>
<feGaussianBlur stdDeviation="32.2062"/>
<feColorMatrix type="matrix" values="0 0 0 0 0.313726 0 0 0 0 0.317647 0 0 0 0 0.858824 0 0 0 0.1 0"/>
<feBlend mode="normal" in2="BackgroundImageFix" result="effect1_dropShadow_0_1"/>
<feBlend mode="normal" in="SourceGraphic" in2="effect1_dropShadow_0_1" result="shape"/>
</filter>
<clipPath id="clip0_0_1">
<rect width="1440" height="4084" fill="white" transform="translate(-758 -2146)"/>
</clipPath>
</defs>
</svg>
