<svg width="373" height="421" viewBox="0 0 373 421" fill="none" xmlns="http://www.w3.org/2000/svg">
<g filter="url(#filter0_d_447_5)">
<rect x="56" y="56" width="253" height="301" rx="2" fill="white"/>
</g>
<path d="M142.808 193.272C142.808 194.456 142.611 195.491 142.216 196.376C141.832 197.251 141.24 197.933 140.44 198.424C139.64 198.915 138.616 199.16 137.368 199.16C136.131 199.16 135.107 198.915 134.296 198.424C133.496 197.933 132.899 197.245 132.504 196.36C132.12 195.475 131.928 194.44 131.928 193.256C131.928 192.072 132.12 191.043 132.504 190.168C132.899 189.293 133.496 188.616 134.296 188.136C135.107 187.645 136.136 187.4 137.384 187.4C138.621 187.4 139.64 187.645 140.44 188.136C141.24 188.616 141.832 189.299 142.216 190.184C142.611 191.059 142.808 192.088 142.808 193.272ZM134.472 193.272C134.472 194.467 134.701 195.411 135.16 196.104C135.619 196.787 136.355 197.128 137.368 197.128C138.403 197.128 139.144 196.787 139.592 196.104C140.04 195.411 140.264 194.467 140.264 193.272C140.264 192.067 140.04 191.123 139.592 190.44C139.144 189.757 138.408 189.416 137.384 189.416C136.36 189.416 135.619 189.757 135.16 190.44C134.701 191.123 134.472 192.067 134.472 193.272ZM152.998 190.264V199H151.174L150.854 197.88H150.726C150.449 198.328 150.065 198.653 149.574 198.856C149.094 199.059 148.582 199.16 148.038 199.16C147.1 199.16 146.348 198.909 145.782 198.408C145.217 197.896 144.934 197.08 144.934 195.96V190.264H147.318V195.368C147.318 195.987 147.43 196.456 147.654 196.776C147.878 197.096 148.236 197.256 148.726 197.256C149.452 197.256 149.948 197.011 150.214 196.52C150.481 196.019 150.614 195.304 150.614 194.376V190.264H152.998ZM160.378 190.104C160.495 190.104 160.634 190.109 160.794 190.12C160.954 190.131 161.082 190.147 161.178 190.168L161.002 192.408C160.927 192.387 160.815 192.371 160.666 192.36C160.527 192.339 160.405 192.328 160.298 192.328C159.893 192.328 159.503 192.403 159.13 192.552C158.757 192.691 158.453 192.92 158.218 193.24C157.994 193.56 157.882 193.997 157.882 194.552V199H155.498V190.264H157.306L157.658 191.736H157.77C158.026 191.288 158.378 190.904 158.826 190.584C159.274 190.264 159.791 190.104 160.378 190.104ZM171.944 199L169.192 190.04H169.128C169.139 190.253 169.155 190.573 169.176 191C169.197 191.427 169.219 191.885 169.24 192.376C169.261 192.856 169.272 193.293 169.272 193.688V199H167.112V187.576H170.408L173.112 196.312H173.16L176.024 187.576H179.32V199H177.064V193.592C177.064 193.229 177.069 192.813 177.08 192.344C177.101 191.875 177.117 191.432 177.128 191.016C177.149 190.589 177.165 190.269 177.176 190.056H177.112L174.168 199H171.944ZM183.214 186.84C183.566 186.84 183.87 186.925 184.126 187.096C184.382 187.256 184.51 187.56 184.51 188.008C184.51 188.445 184.382 188.749 184.126 188.92C183.87 189.091 183.566 189.176 183.214 189.176C182.851 189.176 182.542 189.091 182.286 188.92C182.04 188.749 181.918 188.445 181.918 188.008C181.918 187.56 182.04 187.256 182.286 187.096C182.542 186.925 182.851 186.84 183.214 186.84ZM184.398 190.264V199H182.014V190.264H184.398ZM192.985 196.408C192.985 197.293 192.67 197.976 192.041 198.456C191.422 198.925 190.494 199.16 189.257 199.16C188.649 199.16 188.126 199.117 187.689 199.032C187.251 198.957 186.814 198.829 186.377 198.648V196.68C186.846 196.893 187.353 197.069 187.897 197.208C188.441 197.347 188.921 197.416 189.337 197.416C189.806 197.416 190.137 197.347 190.329 197.208C190.531 197.069 190.633 196.888 190.633 196.664C190.633 196.515 190.59 196.381 190.505 196.264C190.43 196.147 190.259 196.013 189.993 195.864C189.726 195.715 189.31 195.523 188.745 195.288C188.201 195.053 187.753 194.824 187.401 194.6C187.049 194.365 186.787 194.088 186.617 193.768C186.446 193.437 186.361 193.027 186.361 192.536C186.361 191.725 186.675 191.117 187.305 190.712C187.934 190.307 188.771 190.104 189.817 190.104C190.361 190.104 190.878 190.157 191.369 190.264C191.859 190.371 192.366 190.547 192.889 190.792L192.169 192.504C191.742 192.323 191.337 192.173 190.953 192.056C190.569 191.928 190.179 191.864 189.785 191.864C189.081 191.864 188.729 192.056 188.729 192.44C188.729 192.579 188.771 192.707 188.857 192.824C188.953 192.931 189.129 193.048 189.385 193.176C189.651 193.304 190.041 193.475 190.553 193.688C191.054 193.891 191.486 194.104 191.849 194.328C192.211 194.541 192.489 194.813 192.681 195.144C192.883 195.464 192.985 195.885 192.985 196.408ZM200.938 196.408C200.938 197.293 200.623 197.976 199.994 198.456C199.375 198.925 198.447 199.16 197.21 199.16C196.602 199.16 196.079 199.117 195.642 199.032C195.204 198.957 194.767 198.829 194.33 198.648V196.68C194.799 196.893 195.306 197.069 195.85 197.208C196.394 197.347 196.874 197.416 197.29 197.416C197.759 197.416 198.09 197.347 198.282 197.208C198.484 197.069 198.586 196.888 198.586 196.664C198.586 196.515 198.543 196.381 198.458 196.264C198.383 196.147 198.212 196.013 197.946 195.864C197.679 195.715 197.263 195.523 196.698 195.288C196.154 195.053 195.706 194.824 195.354 194.6C195.002 194.365 194.74 194.088 194.57 193.768C194.399 193.437 194.314 193.027 194.314 192.536C194.314 191.725 194.628 191.117 195.258 190.712C195.887 190.307 196.724 190.104 197.77 190.104C198.314 190.104 198.831 190.157 199.322 190.264C199.812 190.371 200.319 190.547 200.842 190.792L200.122 192.504C199.695 192.323 199.29 192.173 198.906 192.056C198.522 191.928 198.132 191.864 197.738 191.864C197.034 191.864 196.682 192.056 196.682 192.44C196.682 192.579 196.724 192.707 196.81 192.824C196.906 192.931 197.082 193.048 197.338 193.176C197.604 193.304 197.994 193.475 198.506 193.688C199.007 193.891 199.439 194.104 199.802 194.328C200.164 194.541 200.442 194.813 200.634 195.144C200.836 195.464 200.938 195.885 200.938 196.408ZM203.995 186.84C204.347 186.84 204.651 186.925 204.907 187.096C205.163 187.256 205.291 187.56 205.291 188.008C205.291 188.445 205.163 188.749 204.907 188.92C204.651 189.091 204.347 189.176 203.995 189.176C203.632 189.176 203.323 189.091 203.067 188.92C202.822 188.749 202.699 188.445 202.699 188.008C202.699 187.56 202.822 187.256 203.067 187.096C203.323 186.925 203.632 186.84 203.995 186.84ZM205.179 190.264V199H202.795V190.264H205.179ZM215.606 194.616C215.606 196.067 215.222 197.187 214.454 197.976C213.697 198.765 212.662 199.16 211.35 199.16C210.539 199.16 209.814 198.984 209.174 198.632C208.545 198.28 208.049 197.768 207.686 197.096C207.323 196.413 207.142 195.587 207.142 194.616C207.142 193.165 207.521 192.051 208.278 191.272C209.035 190.493 210.075 190.104 211.398 190.104C212.219 190.104 212.945 190.28 213.574 190.632C214.203 190.984 214.699 191.496 215.062 192.168C215.425 192.829 215.606 193.645 215.606 194.616ZM209.574 194.616C209.574 195.48 209.713 196.136 209.99 196.584C210.278 197.021 210.742 197.24 211.382 197.24C212.011 197.24 212.465 197.021 212.742 196.584C213.03 196.136 213.174 195.48 213.174 194.616C213.174 193.752 213.03 193.107 212.742 192.68C212.465 192.243 212.006 192.024 211.366 192.024C210.737 192.024 210.278 192.243 209.99 192.68C209.713 193.107 209.574 193.752 209.574 194.616ZM222.536 190.104C223.475 190.104 224.227 190.36 224.792 190.872C225.357 191.373 225.64 192.184 225.64 193.304V199H223.256V193.896C223.256 193.267 223.144 192.797 222.92 192.488C222.696 192.168 222.339 192.008 221.848 192.008C221.123 192.008 220.627 192.259 220.36 192.76C220.093 193.251 219.96 193.96 219.96 194.888V199H217.576V190.264H219.4L219.72 191.384H219.848C220.125 190.936 220.504 190.611 220.984 190.408C221.475 190.205 221.992 190.104 222.536 190.104Z" fill="#353686"/>
<path d="M99.4883 229H98.0483V218.84H94.4803V217.576H103.04V218.84H99.4883V229ZM110.902 224.696C110.902 226.115 110.539 227.213 109.814 227.992C109.099 228.771 108.129 229.16 106.902 229.16C106.145 229.16 105.467 228.989 104.87 228.648C104.283 228.296 103.819 227.789 103.478 227.128C103.137 226.456 102.966 225.645 102.966 224.696C102.966 223.277 103.323 222.184 104.038 221.416C104.753 220.648 105.723 220.264 106.95 220.264C107.729 220.264 108.411 220.44 108.998 220.792C109.595 221.133 110.059 221.635 110.39 222.296C110.731 222.947 110.902 223.747 110.902 224.696ZM104.422 224.696C104.422 225.709 104.619 226.515 105.014 227.112C105.419 227.699 106.059 227.992 106.934 227.992C107.798 227.992 108.433 227.699 108.838 227.112C109.243 226.515 109.446 225.709 109.446 224.696C109.446 223.683 109.243 222.888 108.838 222.312C108.433 221.736 107.793 221.448 106.918 221.448C106.043 221.448 105.409 221.736 105.014 222.312C104.619 222.888 104.422 223.683 104.422 224.696ZM118.01 217.208C118.223 217.208 118.41 217.283 118.57 217.432C118.74 217.571 118.826 217.795 118.826 218.104C118.826 218.403 118.74 218.627 118.57 218.776C118.41 218.925 118.223 219 118.01 219C117.775 219 117.578 218.925 117.418 218.776C117.258 218.627 117.178 218.403 117.178 218.104C117.178 217.795 117.258 217.571 117.418 217.432C117.578 217.283 117.775 217.208 118.01 217.208ZM118.698 220.424V229H117.29V220.424H118.698ZM130.823 220.264C131.793 220.264 132.519 220.515 132.999 221.016C133.479 221.507 133.719 222.307 133.719 223.416V229H132.327V223.48C132.327 222.125 131.745 221.448 130.583 221.448C129.751 221.448 129.153 221.688 128.791 222.168C128.439 222.648 128.263 223.347 128.263 224.264V229H126.871V223.48C126.871 222.125 126.284 221.448 125.111 221.448C124.247 221.448 123.649 221.715 123.319 222.248C122.988 222.781 122.823 223.549 122.823 224.552V229H121.415V220.424H122.551L122.759 221.592H122.839C123.105 221.144 123.463 220.813 123.911 220.6C124.369 220.376 124.855 220.264 125.367 220.264C126.711 220.264 127.585 220.744 127.991 221.704H128.071C128.359 221.213 128.748 220.851 129.239 220.616C129.74 220.381 130.268 220.264 130.823 220.264ZM140.448 220.264C141.504 220.264 142.352 220.632 142.992 221.368C143.642 222.104 143.968 223.213 143.968 224.696C143.968 226.157 143.642 227.267 142.992 228.024C142.352 228.781 141.498 229.16 140.432 229.16C139.77 229.16 139.221 229.037 138.784 228.792C138.357 228.536 138.021 228.243 137.776 227.912H137.68C137.701 228.093 137.722 228.323 137.744 228.6C137.765 228.877 137.776 229.117 137.776 229.32V232.84H136.368V220.424H137.52L137.712 221.592H137.776C138.032 221.219 138.368 220.904 138.784 220.648C139.2 220.392 139.754 220.264 140.448 220.264ZM140.192 221.448C139.317 221.448 138.698 221.693 138.336 222.184C137.984 222.675 137.797 223.421 137.776 224.424V224.696C137.776 225.752 137.946 226.568 138.288 227.144C138.64 227.709 139.285 227.992 140.224 227.992C140.746 227.992 141.173 227.848 141.504 227.56C141.845 227.272 142.096 226.883 142.256 226.392C142.426 225.891 142.512 225.32 142.512 224.68C142.512 223.699 142.32 222.915 141.936 222.328C141.562 221.741 140.981 221.448 140.192 221.448ZM150.212 220.264C150.372 220.264 150.542 220.275 150.724 220.296C150.916 220.307 151.081 220.328 151.22 220.36L151.044 221.656C150.905 221.624 150.75 221.597 150.58 221.576C150.42 221.555 150.265 221.544 150.116 221.544C149.678 221.544 149.268 221.667 148.884 221.912C148.5 222.147 148.19 222.483 147.956 222.92C147.732 223.347 147.62 223.848 147.62 224.424V229H146.212V220.424H147.364L147.524 221.992H147.588C147.865 221.523 148.222 221.117 148.66 220.776C149.097 220.435 149.614 220.264 150.212 220.264ZM159.964 224.696C159.964 226.115 159.602 227.213 158.876 227.992C158.162 228.771 157.191 229.16 155.964 229.16C155.207 229.16 154.53 228.989 153.932 228.648C153.346 228.296 152.882 227.789 152.54 227.128C152.199 226.456 152.028 225.645 152.028 224.696C152.028 223.277 152.386 222.184 153.1 221.416C153.815 220.648 154.786 220.264 156.012 220.264C156.791 220.264 157.474 220.44 158.06 220.792C158.658 221.133 159.122 221.635 159.452 222.296C159.794 222.947 159.964 223.747 159.964 224.696ZM153.484 224.696C153.484 225.709 153.682 226.515 154.076 227.112C154.482 227.699 155.122 227.992 155.996 227.992C156.86 227.992 157.495 227.699 157.9 227.112C158.306 226.515 158.508 225.709 158.508 224.696C158.508 223.683 158.306 222.888 157.9 222.312C157.495 221.736 156.855 221.448 155.98 221.448C155.106 221.448 154.471 221.736 154.076 222.312C153.682 222.888 153.484 223.683 153.484 224.696ZM163.771 229L160.523 220.424H162.027L163.851 225.48C163.937 225.715 164.027 225.976 164.123 226.264C164.219 226.552 164.305 226.829 164.379 227.096C164.454 227.352 164.507 227.571 164.539 227.752H164.603C164.646 227.571 164.705 227.347 164.779 227.08C164.865 226.813 164.955 226.536 165.051 226.248C165.158 225.96 165.249 225.704 165.323 225.48L167.147 220.424H168.651L165.387 229H163.771ZM173.32 220.264C174.056 220.264 174.686 220.424 175.208 220.744C175.742 221.064 176.147 221.517 176.424 222.104C176.712 222.68 176.856 223.357 176.856 224.136V224.984H170.984C171.006 225.955 171.251 226.696 171.72 227.208C172.2 227.709 172.867 227.96 173.72 227.96C174.264 227.96 174.744 227.912 175.16 227.816C175.587 227.709 176.024 227.56 176.472 227.368V228.6C176.035 228.792 175.603 228.931 175.176 229.016C174.75 229.112 174.243 229.16 173.656 229.16C172.846 229.16 172.126 228.995 171.496 228.664C170.878 228.333 170.392 227.843 170.04 227.192C169.699 226.531 169.528 225.725 169.528 224.776C169.528 223.837 169.683 223.032 169.992 222.36C170.312 221.688 170.755 221.171 171.32 220.808C171.896 220.445 172.563 220.264 173.32 220.264ZM173.304 221.416C172.632 221.416 172.099 221.635 171.704 222.072C171.32 222.499 171.091 223.096 171.016 223.864H175.384C175.374 223.139 175.203 222.552 174.872 222.104C174.542 221.645 174.019 221.416 173.304 221.416ZM184.604 229H183.196V216.84H184.604V229ZM188.041 217.208C188.254 217.208 188.441 217.283 188.601 217.432C188.772 217.571 188.857 217.795 188.857 218.104C188.857 218.403 188.772 218.627 188.601 218.776C188.441 218.925 188.254 219 188.041 219C187.806 219 187.609 218.925 187.449 218.776C187.289 218.627 187.209 218.403 187.209 218.104C187.209 217.795 187.289 217.571 187.449 217.432C187.609 217.283 187.806 217.208 188.041 217.208ZM188.729 220.424V229H187.321V220.424H188.729ZM195.398 221.512H193.238V229H191.83V221.512H190.326V220.856L191.83 220.376V219.88C191.83 218.771 192.075 217.976 192.566 217.496C193.057 217.005 193.739 216.76 194.614 216.76C194.955 216.76 195.265 216.792 195.542 216.856C195.83 216.909 196.075 216.973 196.278 217.048L195.91 218.152C195.739 218.099 195.542 218.045 195.318 217.992C195.094 217.939 194.865 217.912 194.63 217.912C194.161 217.912 193.809 218.072 193.574 218.392C193.35 218.701 193.238 219.192 193.238 219.864V220.424H195.398V221.512ZM200.258 220.264C200.994 220.264 201.623 220.424 202.146 220.744C202.679 221.064 203.085 221.517 203.362 222.104C203.65 222.68 203.794 223.357 203.794 224.136V224.984H197.922C197.943 225.955 198.189 226.696 198.658 227.208C199.138 227.709 199.805 227.96 200.658 227.96C201.202 227.96 201.682 227.912 202.098 227.816C202.525 227.709 202.962 227.56 203.41 227.368V228.6C202.973 228.792 202.541 228.931 202.114 229.016C201.687 229.112 201.181 229.16 200.594 229.16C199.783 229.16 199.063 228.995 198.434 228.664C197.815 228.333 197.33 227.843 196.978 227.192C196.637 226.531 196.466 225.725 196.466 224.776C196.466 223.837 196.621 223.032 196.93 222.36C197.25 221.688 197.693 221.171 198.258 220.808C198.834 220.445 199.501 220.264 200.258 220.264ZM200.242 221.416C199.57 221.416 199.037 221.635 198.642 222.072C198.258 222.499 198.029 223.096 197.954 223.864H202.322C202.311 223.139 202.141 222.552 201.81 222.104C201.479 221.645 200.957 221.416 200.242 221.416ZM213.381 220.28C214.427 220.28 215.2 220.509 215.701 220.968C216.203 221.427 216.453 222.157 216.453 223.16V229H215.429L215.157 227.784H215.093C214.72 228.253 214.325 228.6 213.909 228.824C213.504 229.048 212.939 229.16 212.213 229.16C211.435 229.16 210.789 228.957 210.277 228.552C209.765 228.136 209.509 227.491 209.509 226.616C209.509 225.763 209.845 225.107 210.517 224.648C211.189 224.179 212.224 223.923 213.621 223.88L215.077 223.832V223.32C215.077 222.605 214.923 222.109 214.613 221.832C214.304 221.555 213.867 221.416 213.301 221.416C212.853 221.416 212.427 221.485 212.021 221.624C211.616 221.752 211.237 221.901 210.885 222.072L210.453 221.016C210.827 220.813 211.269 220.643 211.781 220.504C212.293 220.355 212.827 220.28 213.381 220.28ZM215.061 224.808L213.797 224.856C212.731 224.899 211.989 225.069 211.573 225.368C211.168 225.667 210.965 226.088 210.965 226.632C210.965 227.112 211.109 227.464 211.397 227.688C211.696 227.912 212.075 228.024 212.533 228.024C213.259 228.024 213.861 227.827 214.341 227.432C214.821 227.027 215.061 226.408 215.061 225.576V224.808ZM223.23 220.264C224.254 220.264 225.028 220.515 225.55 221.016C226.073 221.507 226.334 222.307 226.334 223.416V229H224.942V223.512C224.942 222.136 224.302 221.448 223.022 221.448C222.073 221.448 221.417 221.715 221.054 222.248C220.692 222.781 220.51 223.549 220.51 224.552V229H219.102V220.424H220.238L220.446 221.592H220.526C220.804 221.144 221.188 220.813 221.678 220.6C222.169 220.376 222.686 220.264 223.23 220.264ZM232.033 229.16C230.966 229.16 230.113 228.792 229.473 228.056C228.833 227.309 228.513 226.2 228.513 224.728C228.513 223.256 228.833 222.147 229.473 221.4C230.123 220.643 230.982 220.264 232.049 220.264C232.71 220.264 233.249 220.387 233.665 220.632C234.091 220.877 234.438 221.176 234.705 221.528H234.801C234.79 221.389 234.769 221.187 234.737 220.92C234.715 220.643 234.705 220.424 234.705 220.264V216.84H236.113V229H234.977L234.769 227.848H234.705C234.449 228.211 234.107 228.52 233.681 228.776C233.254 229.032 232.705 229.16 232.033 229.16ZM232.257 227.992C233.163 227.992 233.798 227.747 234.161 227.256C234.534 226.755 234.721 226.003 234.721 225V224.744C234.721 223.677 234.545 222.861 234.193 222.296C233.841 221.72 233.19 221.432 232.241 221.432C231.483 221.432 230.913 221.736 230.529 222.344C230.155 222.941 229.969 223.747 229.969 224.76C229.969 225.784 230.155 226.579 230.529 227.144C230.913 227.709 231.489 227.992 232.257 227.992ZM244.401 216.84V220.408C244.401 220.835 244.374 221.235 244.321 221.608H244.417C244.694 221.171 245.067 220.84 245.537 220.616C246.017 220.392 246.534 220.28 247.089 220.28C248.134 220.28 248.918 220.531 249.441 221.032C249.963 221.523 250.225 222.317 250.225 223.416V229H248.833V223.512C248.833 222.136 248.193 221.448 246.913 221.448C245.953 221.448 245.291 221.72 244.929 222.264C244.577 222.797 244.401 223.565 244.401 224.568V229H242.993V216.84H244.401ZM256.195 220.264C256.931 220.264 257.561 220.424 258.083 220.744C258.617 221.064 259.022 221.517 259.299 222.104C259.587 222.68 259.731 223.357 259.731 224.136V224.984H253.859C253.881 225.955 254.126 226.696 254.595 227.208C255.075 227.709 255.742 227.96 256.595 227.96C257.139 227.96 257.619 227.912 258.035 227.816C258.462 227.709 258.899 227.56 259.347 227.368V228.6C258.91 228.792 258.478 228.931 258.051 229.016C257.625 229.112 257.118 229.16 256.531 229.16C255.721 229.16 255.001 228.995 254.371 228.664C253.753 228.333 253.267 227.843 252.915 227.192C252.574 226.531 252.403 225.725 252.403 224.776C252.403 223.837 252.558 223.032 252.867 222.36C253.187 221.688 253.63 221.171 254.195 220.808C254.771 220.445 255.438 220.264 256.195 220.264ZM256.179 221.416C255.507 221.416 254.974 221.635 254.579 222.072C254.195 222.499 253.966 223.096 253.891 223.864H258.259C258.249 223.139 258.078 222.552 257.747 222.104C257.417 221.645 256.894 221.416 256.179 221.416ZM263.323 229H261.915V216.84H263.323V229ZM270.12 220.264C271.176 220.264 272.024 220.632 272.664 221.368C273.314 222.104 273.64 223.213 273.64 224.696C273.64 226.157 273.314 227.267 272.664 228.024C272.024 228.781 271.17 229.16 270.104 229.16C269.442 229.16 268.893 229.037 268.456 228.792C268.029 228.536 267.693 228.243 267.448 227.912H267.352C267.373 228.093 267.394 228.323 267.416 228.6C267.437 228.877 267.448 229.117 267.448 229.32V232.84H266.04V220.424H267.192L267.384 221.592H267.448C267.704 221.219 268.04 220.904 268.456 220.648C268.872 220.392 269.426 220.264 270.12 220.264ZM269.864 221.448C268.989 221.448 268.37 221.693 268.008 222.184C267.656 222.675 267.469 223.421 267.448 224.424V224.696C267.448 225.752 267.618 226.568 267.96 227.144C268.312 227.709 268.957 227.992 269.896 227.992C270.418 227.992 270.845 227.848 271.176 227.56C271.517 227.272 271.768 226.883 271.928 226.392C272.098 225.891 272.184 225.32 272.184 224.68C272.184 223.699 271.992 222.915 271.608 222.328C271.234 221.741 270.653 221.448 269.864 221.448ZM85.5805 246.84V249.8C85.5805 250.163 85.5698 250.504 85.5485 250.824C85.5378 251.133 85.5218 251.379 85.5005 251.56H85.5805C85.8258 251.197 86.1618 250.893 86.5885 250.648C87.0152 250.403 87.5645 250.28 88.2365 250.28C89.3032 250.28 90.1565 250.653 90.7965 251.4C91.4472 252.136 91.7725 253.24 91.7725 254.712C91.7725 256.184 91.4472 257.293 90.7965 258.04C90.1458 258.787 89.2925 259.16 88.2365 259.16C87.5645 259.16 87.0152 259.037 86.5885 258.792C86.1618 258.547 85.8258 258.253 85.5805 257.912H85.4685L85.1805 259H84.1725V246.84H85.5805ZM87.9965 251.448C87.0898 251.448 86.4605 251.709 86.1085 252.232C85.7565 252.755 85.5805 253.565 85.5805 254.664V254.728C85.5805 255.784 85.7512 256.595 86.0925 257.16C86.4445 257.715 87.0898 257.992 88.0285 257.992C88.7965 257.992 89.3672 257.709 89.7405 257.144C90.1245 256.579 90.3165 255.763 90.3165 254.696C90.3165 252.531 89.5432 251.448 87.9965 251.448ZM101.184 250.424V259H100.032L99.8243 257.864H99.7603C99.4829 258.312 99.0989 258.643 98.6083 258.856C98.1176 259.059 97.5949 259.16 97.0403 259.16C96.0056 259.16 95.2269 258.915 94.7043 258.424C94.1816 257.923 93.9203 257.128 93.9203 256.04V250.424H95.3443V255.944C95.3443 257.309 95.9789 257.992 97.2483 257.992C98.1976 257.992 98.8536 257.725 99.2163 257.192C99.5896 256.659 99.7763 255.891 99.7763 254.888V250.424H101.184ZM109.491 256.632C109.491 257.464 109.182 258.093 108.563 258.52C107.944 258.947 107.112 259.16 106.067 259.16C105.47 259.16 104.952 259.112 104.515 259.016C104.088 258.92 103.71 258.787 103.379 258.616V257.336C103.72 257.507 104.131 257.667 104.611 257.816C105.102 257.955 105.598 258.024 106.099 258.024C106.814 258.024 107.331 257.912 107.651 257.688C107.971 257.453 108.131 257.144 108.131 256.76C108.131 256.547 108.072 256.355 107.955 256.184C107.838 256.013 107.624 255.843 107.315 255.672C107.016 255.501 106.584 255.309 106.019 255.096C105.464 254.883 104.99 254.669 104.595 254.456C104.2 254.243 103.896 253.987 103.683 253.688C103.47 253.389 103.363 253.005 103.363 252.536C103.363 251.811 103.656 251.251 104.243 250.856C104.84 250.461 105.619 250.264 106.579 250.264C107.102 250.264 107.587 250.317 108.035 250.424C108.494 250.52 108.92 250.659 109.315 250.84L108.835 251.96C108.472 251.811 108.094 251.683 107.699 251.576C107.304 251.469 106.899 251.416 106.483 251.416C105.907 251.416 105.464 251.512 105.155 251.704C104.856 251.885 104.707 252.136 104.707 252.456C104.707 252.691 104.776 252.893 104.915 253.064C105.054 253.224 105.283 253.384 105.603 253.544C105.934 253.693 106.371 253.875 106.915 254.088C107.459 254.291 107.923 254.499 108.307 254.712C108.691 254.925 108.984 255.187 109.187 255.496C109.39 255.795 109.491 256.173 109.491 256.632ZM112.283 247.208C112.496 247.208 112.683 247.283 112.843 247.432C113.014 247.571 113.099 247.795 113.099 248.104C113.099 248.403 113.014 248.627 112.843 248.776C112.683 248.925 112.496 249 112.283 249C112.048 249 111.851 248.925 111.691 248.776C111.531 248.627 111.451 248.403 111.451 248.104C111.451 247.795 111.531 247.571 111.691 247.432C111.851 247.283 112.048 247.208 112.283 247.208ZM112.971 250.424V259H111.563V250.424H112.971ZM119.816 250.264C120.84 250.264 121.613 250.515 122.136 251.016C122.659 251.507 122.92 252.307 122.92 253.416V259H121.528V253.512C121.528 252.136 120.888 251.448 119.608 251.448C118.659 251.448 118.003 251.715 117.64 252.248C117.277 252.781 117.096 253.549 117.096 254.552V259H115.688V250.424H116.824L117.032 251.592H117.112C117.389 251.144 117.773 250.813 118.264 250.6C118.755 250.376 119.272 250.264 119.816 250.264ZM128.891 250.264C129.627 250.264 130.256 250.424 130.779 250.744C131.312 251.064 131.717 251.517 131.995 252.104C132.283 252.68 132.427 253.357 132.427 254.136V254.984H126.555C126.576 255.955 126.821 256.696 127.291 257.208C127.771 257.709 128.437 257.96 129.291 257.96C129.835 257.96 130.315 257.912 130.731 257.816C131.157 257.709 131.595 257.56 132.043 257.368V258.6C131.605 258.792 131.173 258.931 130.747 259.016C130.32 259.112 129.813 259.16 129.227 259.16C128.416 259.16 127.696 258.995 127.067 258.664C126.448 258.333 125.963 257.843 125.611 257.192C125.269 256.531 125.099 255.725 125.099 254.776C125.099 253.837 125.253 253.032 125.563 252.36C125.883 251.688 126.325 251.171 126.891 250.808C127.467 250.445 128.133 250.264 128.891 250.264ZM128.875 251.416C128.203 251.416 127.669 251.635 127.275 252.072C126.891 252.499 126.661 253.096 126.587 253.864H130.955C130.944 253.139 130.773 252.552 130.443 252.104C130.112 251.645 129.589 251.416 128.875 251.416ZM140.194 256.632C140.194 257.464 139.885 258.093 139.266 258.52C138.647 258.947 137.815 259.16 136.77 259.16C136.173 259.16 135.655 259.112 135.218 259.016C134.791 258.92 134.413 258.787 134.082 258.616V257.336C134.423 257.507 134.834 257.667 135.314 257.816C135.805 257.955 136.301 258.024 136.802 258.024C137.517 258.024 138.034 257.912 138.354 257.688C138.674 257.453 138.834 257.144 138.834 256.76C138.834 256.547 138.775 256.355 138.658 256.184C138.541 256.013 138.327 255.843 138.018 255.672C137.719 255.501 137.287 255.309 136.722 255.096C136.167 254.883 135.693 254.669 135.298 254.456C134.903 254.243 134.599 253.987 134.386 253.688C134.173 253.389 134.066 253.005 134.066 252.536C134.066 251.811 134.359 251.251 134.946 250.856C135.543 250.461 136.322 250.264 137.282 250.264C137.805 250.264 138.29 250.317 138.738 250.424C139.197 250.52 139.623 250.659 140.018 250.84L139.538 251.96C139.175 251.811 138.797 251.683 138.402 251.576C138.007 251.469 137.602 251.416 137.186 251.416C136.61 251.416 136.167 251.512 135.858 251.704C135.559 251.885 135.41 252.136 135.41 252.456C135.41 252.691 135.479 252.893 135.618 253.064C135.757 253.224 135.986 253.384 136.306 253.544C136.637 253.693 137.074 253.875 137.618 254.088C138.162 254.291 138.626 254.499 139.01 254.712C139.394 254.925 139.687 255.187 139.89 255.496C140.093 255.795 140.194 256.173 140.194 256.632ZM147.85 256.632C147.85 257.464 147.541 258.093 146.922 258.52C146.304 258.947 145.472 259.16 144.426 259.16C143.829 259.16 143.312 259.112 142.874 259.016C142.448 258.92 142.069 258.787 141.738 258.616V257.336C142.08 257.507 142.49 257.667 142.97 257.816C143.461 257.955 143.957 258.024 144.458 258.024C145.173 258.024 145.69 257.912 146.01 257.688C146.33 257.453 146.49 257.144 146.49 256.76C146.49 256.547 146.432 256.355 146.314 256.184C146.197 256.013 145.984 255.843 145.674 255.672C145.376 255.501 144.944 255.309 144.378 255.096C143.824 254.883 143.349 254.669 142.954 254.456C142.56 254.243 142.256 253.987 142.042 253.688C141.829 253.389 141.722 253.005 141.722 252.536C141.722 251.811 142.016 251.251 142.602 250.856C143.2 250.461 143.978 250.264 144.938 250.264C145.461 250.264 145.946 250.317 146.394 250.424C146.853 250.52 147.28 250.659 147.674 250.84L147.194 251.96C146.832 251.811 146.453 251.683 146.058 251.576C145.664 251.469 145.258 251.416 144.842 251.416C144.266 251.416 143.824 251.512 143.514 251.704C143.216 251.885 143.066 252.136 143.066 252.456C143.066 252.691 143.136 252.893 143.274 253.064C143.413 253.224 143.642 253.384 143.962 253.544C144.293 253.693 144.73 253.875 145.274 254.088C145.818 254.291 146.282 254.499 146.666 254.712C147.05 254.925 147.344 255.187 147.546 255.496C147.749 255.795 147.85 256.173 147.85 256.632ZM153.235 250.264C153.971 250.264 154.6 250.424 155.123 250.744C155.656 251.064 156.061 251.517 156.339 252.104C156.627 252.68 156.771 253.357 156.771 254.136V254.984H150.899C150.92 255.955 151.165 256.696 151.635 257.208C152.115 257.709 152.781 257.96 153.635 257.96C154.179 257.96 154.659 257.912 155.075 257.816C155.501 257.709 155.939 257.56 156.387 257.368V258.6C155.949 258.792 155.517 258.931 155.091 259.016C154.664 259.112 154.157 259.16 153.571 259.16C152.76 259.16 152.04 258.995 151.411 258.664C150.792 258.333 150.307 257.843 149.955 257.192C149.613 256.531 149.443 255.725 149.443 254.776C149.443 253.837 149.597 253.032 149.907 252.36C150.227 251.688 150.669 251.171 151.235 250.808C151.811 250.445 152.477 250.264 153.235 250.264ZM153.219 251.416C152.547 251.416 152.013 251.635 151.619 252.072C151.235 252.499 151.005 253.096 150.931 253.864H155.299C155.288 253.139 155.117 252.552 154.787 252.104C154.456 251.645 153.933 251.416 153.219 251.416ZM164.538 256.632C164.538 257.464 164.228 258.093 163.61 258.52C162.991 258.947 162.159 259.16 161.114 259.16C160.516 259.16 159.999 259.112 159.562 259.016C159.135 258.92 158.756 258.787 158.426 258.616V257.336C158.767 257.507 159.178 257.667 159.658 257.816C160.148 257.955 160.644 258.024 161.146 258.024C161.86 258.024 162.378 257.912 162.698 257.688C163.018 257.453 163.178 257.144 163.178 256.76C163.178 256.547 163.119 256.355 163.002 256.184C162.884 256.013 162.671 255.843 162.362 255.672C162.063 255.501 161.631 255.309 161.066 255.096C160.511 254.883 160.036 254.669 159.642 254.456C159.247 254.243 158.943 253.987 158.73 253.688C158.516 253.389 158.41 253.005 158.41 252.536C158.41 251.811 158.703 251.251 159.29 250.856C159.887 250.461 160.666 250.264 161.626 250.264C162.148 250.264 162.634 250.317 163.082 250.424C163.54 250.52 163.967 250.659 164.362 250.84L163.882 251.96C163.519 251.811 163.14 251.683 162.746 251.576C162.351 251.469 161.946 251.416 161.53 251.416C160.954 251.416 160.511 251.512 160.202 251.704C159.903 251.885 159.754 252.136 159.754 252.456C159.754 252.691 159.823 252.893 159.962 253.064C160.1 253.224 160.33 253.384 160.65 253.544C160.98 253.693 161.418 253.875 161.962 254.088C162.506 254.291 162.97 254.499 163.354 254.712C163.738 254.925 164.031 255.187 164.234 255.496C164.436 255.795 164.538 256.173 164.538 256.632ZM174.766 250.264C174.926 250.264 175.097 250.275 175.278 250.296C175.47 250.307 175.636 250.328 175.774 250.36L175.598 251.656C175.46 251.624 175.305 251.597 175.134 251.576C174.974 251.555 174.82 251.544 174.67 251.544C174.233 251.544 173.822 251.667 173.438 251.912C173.054 252.147 172.745 252.483 172.51 252.92C172.286 253.347 172.174 253.848 172.174 254.424V259H170.766V250.424H171.918L172.078 251.992H172.142C172.42 251.523 172.777 251.117 173.214 250.776C173.652 250.435 174.169 250.264 174.766 250.264ZM180.375 250.264C181.111 250.264 181.74 250.424 182.263 250.744C182.796 251.064 183.202 251.517 183.479 252.104C183.767 252.68 183.911 253.357 183.911 254.136V254.984H178.039C178.06 255.955 178.306 256.696 178.775 257.208C179.255 257.709 179.922 257.96 180.775 257.96C181.319 257.96 181.799 257.912 182.215 257.816C182.642 257.709 183.079 257.56 183.527 257.368V258.6C183.09 258.792 182.658 258.931 182.231 259.016C181.804 259.112 181.298 259.16 180.711 259.16C179.9 259.16 179.18 258.995 178.551 258.664C177.932 258.333 177.447 257.843 177.095 257.192C176.754 256.531 176.583 255.725 176.583 254.776C176.583 253.837 176.738 253.032 177.047 252.36C177.367 251.688 177.81 251.171 178.375 250.808C178.951 250.445 179.618 250.264 180.375 250.264ZM180.359 251.416C179.687 251.416 179.154 251.635 178.759 252.072C178.375 252.499 178.146 253.096 178.071 253.864H182.439C182.428 253.139 182.258 252.552 181.927 252.104C181.596 251.645 181.074 251.416 180.359 251.416ZM189.342 250.28C190.388 250.28 191.161 250.509 191.662 250.968C192.164 251.427 192.414 252.157 192.414 253.16V259H191.39L191.118 257.784H191.054C190.681 258.253 190.286 258.6 189.87 258.824C189.465 259.048 188.9 259.16 188.174 259.16C187.396 259.16 186.75 258.957 186.238 258.552C185.726 258.136 185.47 257.491 185.47 256.616C185.47 255.763 185.806 255.107 186.478 254.648C187.15 254.179 188.185 253.923 189.582 253.88L191.038 253.832V253.32C191.038 252.605 190.884 252.109 190.574 251.832C190.265 251.555 189.828 251.416 189.262 251.416C188.814 251.416 188.388 251.485 187.982 251.624C187.577 251.752 187.198 251.901 186.846 252.072L186.414 251.016C186.788 250.813 187.23 250.643 187.742 250.504C188.254 250.355 188.788 250.28 189.342 250.28ZM191.022 254.808L189.758 254.856C188.692 254.899 187.95 255.069 187.534 255.368C187.129 255.667 186.926 256.088 186.926 256.632C186.926 257.112 187.07 257.464 187.358 257.688C187.657 257.912 188.036 258.024 188.494 258.024C189.22 258.024 189.822 257.827 190.302 257.432C190.782 257.027 191.022 256.408 191.022 255.576V254.808ZM196.471 259H195.063V246.84H196.471V259ZM199.908 247.208C200.121 247.208 200.308 247.283 200.468 247.432C200.639 247.571 200.724 247.795 200.724 248.104C200.724 248.403 200.639 248.627 200.468 248.776C200.308 248.925 200.121 249 199.908 249C199.673 249 199.476 248.925 199.316 248.776C199.156 248.627 199.076 248.403 199.076 248.104C199.076 247.795 199.156 247.571 199.316 247.432C199.476 247.283 199.673 247.208 199.908 247.208ZM200.596 250.424V259H199.188V250.424H200.596ZM208.897 256.632C208.897 257.464 208.588 258.093 207.969 258.52C207.35 258.947 206.518 259.16 205.473 259.16C204.876 259.16 204.358 259.112 203.921 259.016C203.494 258.92 203.116 258.787 202.785 258.616V257.336C203.126 257.507 203.537 257.667 204.017 257.816C204.508 257.955 205.004 258.024 205.505 258.024C206.22 258.024 206.737 257.912 207.057 257.688C207.377 257.453 207.537 257.144 207.537 256.76C207.537 256.547 207.478 256.355 207.361 256.184C207.244 256.013 207.03 255.843 206.721 255.672C206.422 255.501 205.99 255.309 205.425 255.096C204.87 254.883 204.396 254.669 204.001 254.456C203.606 254.243 203.302 253.987 203.089 253.688C202.876 253.389 202.769 253.005 202.769 252.536C202.769 251.811 203.062 251.251 203.649 250.856C204.246 250.461 205.025 250.264 205.985 250.264C206.508 250.264 206.993 250.317 207.441 250.424C207.9 250.52 208.326 250.659 208.721 250.84L208.241 251.96C207.878 251.811 207.5 251.683 207.105 251.576C206.71 251.469 206.305 251.416 205.889 251.416C205.313 251.416 204.87 251.512 204.561 251.704C204.262 251.885 204.113 252.136 204.113 252.456C204.113 252.691 204.182 252.893 204.321 253.064C204.46 253.224 204.689 253.384 205.009 253.544C205.34 253.693 205.777 253.875 206.321 254.088C206.865 254.291 207.329 254.499 207.713 254.712C208.097 254.925 208.39 255.187 208.593 255.496C208.796 255.795 208.897 256.173 208.897 256.632ZM214.281 250.264C215.017 250.264 215.647 250.424 216.169 250.744C216.703 251.064 217.108 251.517 217.385 252.104C217.673 252.68 217.817 253.357 217.817 254.136V254.984H211.945C211.967 255.955 212.212 256.696 212.681 257.208C213.161 257.709 213.828 257.96 214.681 257.96C215.225 257.96 215.705 257.912 216.121 257.816C216.548 257.709 216.985 257.56 217.433 257.368V258.6C216.996 258.792 216.564 258.931 216.137 259.016C215.711 259.112 215.204 259.16 214.617 259.16C213.807 259.16 213.087 258.995 212.457 258.664C211.839 258.333 211.353 257.843 211.001 257.192C210.66 256.531 210.489 255.725 210.489 254.776C210.489 253.837 210.644 253.032 210.953 252.36C211.273 251.688 211.716 251.171 212.281 250.808C212.857 250.445 213.524 250.264 214.281 250.264ZM214.265 251.416C213.593 251.416 213.06 251.635 212.665 252.072C212.281 252.499 212.052 253.096 211.977 253.864H216.345C216.335 253.139 216.164 252.552 215.833 252.104C215.503 251.645 214.98 251.416 214.265 251.416ZM227.021 258.008C227.234 258.008 227.453 257.992 227.677 257.96C227.901 257.917 228.082 257.875 228.221 257.832V258.904C228.072 258.979 227.858 259.037 227.581 259.08C227.304 259.133 227.037 259.16 226.781 259.16C226.333 259.16 225.917 259.085 225.533 258.936C225.16 258.776 224.856 258.504 224.621 258.12C224.386 257.736 224.269 257.197 224.269 256.504V251.512H223.053V250.84L224.285 250.28L224.845 248.456H225.677V250.424H228.157V251.512H225.677V256.472C225.677 256.995 225.8 257.384 226.045 257.64C226.301 257.885 226.626 258.008 227.021 258.008ZM231.346 246.84V250.408C231.346 250.835 231.319 251.235 231.266 251.608H231.362C231.639 251.171 232.013 250.84 232.482 250.616C232.962 250.392 233.479 250.28 234.034 250.28C235.079 250.28 235.863 250.531 236.386 251.032C236.909 251.523 237.17 252.317 237.17 253.416V259H235.778V253.512C235.778 252.136 235.138 251.448 233.858 251.448C232.898 251.448 232.237 251.72 231.874 252.264C231.522 252.797 231.346 253.565 231.346 254.568V259H229.938V246.84H231.346ZM243.141 250.264C243.877 250.264 244.506 250.424 245.029 250.744C245.562 251.064 245.967 251.517 246.245 252.104C246.533 252.68 246.677 253.357 246.677 254.136V254.984H240.805C240.826 255.955 241.071 256.696 241.541 257.208C242.021 257.709 242.687 257.96 243.541 257.96C244.085 257.96 244.565 257.912 244.981 257.816C245.407 257.709 245.845 257.56 246.293 257.368V258.6C245.855 258.792 245.423 258.931 244.997 259.016C244.57 259.112 244.063 259.16 243.477 259.16C242.666 259.16 241.946 258.995 241.317 258.664C240.698 258.333 240.213 257.843 239.861 257.192C239.519 256.531 239.349 255.725 239.349 254.776C239.349 253.837 239.503 253.032 239.813 252.36C240.133 251.688 240.575 251.171 241.141 250.808C241.717 250.445 242.383 250.264 243.141 250.264ZM243.125 251.416C242.453 251.416 241.919 251.635 241.525 252.072C241.141 252.499 240.911 253.096 240.837 253.864H245.205C245.194 253.139 245.023 252.552 244.693 252.104C244.362 251.645 243.839 251.416 243.125 251.416ZM249.58 247.208C249.793 247.208 249.98 247.283 250.14 247.432C250.311 247.571 250.396 247.795 250.396 248.104C250.396 248.403 250.311 248.627 250.14 248.776C249.98 248.925 249.793 249 249.58 249C249.345 249 249.148 248.925 248.988 248.776C248.828 248.627 248.748 248.403 248.748 248.104C248.748 247.795 248.828 247.571 248.988 247.432C249.148 247.283 249.345 247.208 249.58 247.208ZM250.268 250.424V259H248.86V250.424H250.268ZM256.985 250.264C257.145 250.264 257.316 250.275 257.497 250.296C257.689 250.307 257.854 250.328 257.993 250.36L257.817 251.656C257.678 251.624 257.524 251.597 257.353 251.576C257.193 251.555 257.038 251.544 256.889 251.544C256.452 251.544 256.041 251.667 255.657 251.912C255.273 252.147 254.964 252.483 254.729 252.92C254.505 253.347 254.393 253.848 254.393 254.424V259H252.985V250.424H254.137L254.297 251.992H254.361C254.638 251.523 254.996 251.117 255.433 250.776C255.87 250.435 256.388 250.264 256.985 250.264ZM267.703 251.512H265.543V259H264.135V251.512H262.631V250.856L264.135 250.376V249.88C264.135 248.771 264.38 247.976 264.871 247.496C265.361 247.005 266.044 246.76 266.919 246.76C267.26 246.76 267.569 246.792 267.847 246.856C268.135 246.909 268.38 246.973 268.583 247.048L268.215 248.152C268.044 248.099 267.847 248.045 267.623 247.992C267.399 247.939 267.169 247.912 266.935 247.912C266.465 247.912 266.113 248.072 265.879 248.392C265.655 248.701 265.543 249.192 265.543 249.864V250.424H267.703V251.512ZM276.419 250.424V259H275.267L275.059 257.864H274.995C274.717 258.312 274.333 258.643 273.843 258.856C273.352 259.059 272.829 259.16 272.275 259.16C271.24 259.16 270.461 258.915 269.939 258.424C269.416 257.923 269.155 257.128 269.155 256.04V250.424H270.579V255.944C270.579 257.309 271.213 257.992 272.483 257.992C273.432 257.992 274.088 257.725 274.451 257.192C274.824 256.659 275.011 255.891 275.011 254.888V250.424H276.419ZM280.549 259H279.141V246.84H280.549V259ZM284.674 259H283.266V246.84H284.674V259ZM82.7291 280.264C83.7851 280.264 84.6331 280.632 85.2731 281.368C85.9237 282.104 86.2491 283.213 86.2491 284.696C86.2491 286.157 85.9237 287.267 85.2731 288.024C84.6331 288.781 83.7797 289.16 82.7131 289.16C82.0517 289.16 81.5024 289.037 81.0651 288.792C80.6384 288.536 80.3024 288.243 80.0571 287.912H79.9611C79.9824 288.093 80.0037 288.323 80.0251 288.6C80.0464 288.877 80.0571 289.117 80.0571 289.32V292.84H78.6491V280.424H79.8011L79.9931 281.592H80.0571C80.3131 281.219 80.6491 280.904 81.0651 280.648C81.4811 280.392 82.0357 280.264 82.7291 280.264ZM82.4731 281.448C81.5984 281.448 80.9797 281.693 80.6171 282.184C80.2651 282.675 80.0784 283.421 80.0571 284.424V284.696C80.0571 285.752 80.2277 286.568 80.5691 287.144C80.9211 287.709 81.5664 287.992 82.5051 287.992C83.0277 287.992 83.4544 287.848 83.7851 287.56C84.1264 287.272 84.3771 286.883 84.5371 286.392C84.7077 285.891 84.7931 285.32 84.7931 284.68C84.7931 283.699 84.6011 282.915 84.2171 282.328C83.8437 281.741 83.2624 281.448 82.4731 281.448ZM95.9488 284.696C95.9488 286.115 95.5861 287.213 94.8608 287.992C94.1461 288.771 93.1755 289.16 91.9488 289.16C91.1915 289.16 90.5141 288.989 89.9168 288.648C89.3301 288.296 88.8661 287.789 88.5248 287.128C88.1835 286.456 88.0128 285.645 88.0128 284.696C88.0128 283.277 88.3701 282.184 89.0848 281.416C89.7995 280.648 90.7701 280.264 91.9968 280.264C92.7755 280.264 93.4581 280.44 94.0448 280.792C94.6421 281.133 95.1061 281.635 95.4368 282.296C95.7781 282.947 95.9488 283.747 95.9488 284.696ZM89.4688 284.696C89.4688 285.709 89.6661 286.515 90.0608 287.112C90.4661 287.699 91.1061 287.992 91.9808 287.992C92.8448 287.992 93.4795 287.699 93.8848 287.112C94.2901 286.515 94.4928 285.709 94.4928 284.696C94.4928 283.683 94.2901 282.888 93.8848 282.312C93.4795 281.736 92.8395 281.448 91.9648 281.448C91.0901 281.448 90.4555 281.736 90.0608 282.312C89.6661 282.888 89.4688 283.683 89.4688 284.696ZM101.044 288.008C101.258 288.008 101.476 287.992 101.7 287.96C101.924 287.917 102.106 287.875 102.244 287.832V288.904C102.095 288.979 101.882 289.037 101.604 289.08C101.327 289.133 101.06 289.16 100.804 289.16C100.356 289.16 99.9403 289.085 99.5563 288.936C99.183 288.776 98.879 288.504 98.6443 288.12C98.4096 287.736 98.2923 287.197 98.2923 286.504V281.512H97.0763V280.84L98.3083 280.28L98.8683 278.456H99.7003V280.424H102.18V281.512H99.7003V286.472C99.7003 286.995 99.823 287.384 100.068 287.64C100.324 287.885 100.65 288.008 101.044 288.008ZM107.274 280.264C108.01 280.264 108.639 280.424 109.162 280.744C109.695 281.064 110.1 281.517 110.378 282.104C110.666 282.68 110.81 283.357 110.81 284.136V284.984H104.938C104.959 285.955 105.204 286.696 105.674 287.208C106.154 287.709 106.82 287.96 107.674 287.96C108.218 287.96 108.698 287.912 109.114 287.816C109.54 287.709 109.978 287.56 110.426 287.368V288.6C109.988 288.792 109.556 288.931 109.13 289.016C108.703 289.112 108.196 289.16 107.61 289.16C106.799 289.16 106.079 288.995 105.45 288.664C104.831 288.333 104.346 287.843 103.994 287.192C103.652 286.531 103.482 285.725 103.482 284.776C103.482 283.837 103.636 283.032 103.946 282.36C104.266 281.688 104.708 281.171 105.274 280.808C105.85 280.445 106.516 280.264 107.274 280.264ZM107.258 281.416C106.586 281.416 106.052 281.635 105.658 282.072C105.274 282.499 105.044 283.096 104.97 283.864H109.338C109.327 283.139 109.156 282.552 108.826 282.104C108.495 281.645 107.972 281.416 107.258 281.416ZM117.121 280.264C118.145 280.264 118.918 280.515 119.441 281.016C119.963 281.507 120.225 282.307 120.225 283.416V289H118.833V283.512C118.833 282.136 118.193 281.448 116.913 281.448C115.963 281.448 115.307 281.715 114.945 282.248C114.582 282.781 114.401 283.549 114.401 284.552V289H112.993V280.424H114.129L114.337 281.592H114.417C114.694 281.144 115.078 280.813 115.569 280.6C116.059 280.376 116.577 280.264 117.121 280.264ZM125.747 288.008C125.961 288.008 126.179 287.992 126.403 287.96C126.627 287.917 126.809 287.875 126.947 287.832V288.904C126.798 288.979 126.585 289.037 126.307 289.08C126.03 289.133 125.763 289.16 125.507 289.16C125.059 289.16 124.643 289.085 124.259 288.936C123.886 288.776 123.582 288.504 123.347 288.12C123.113 287.736 122.995 287.197 122.995 286.504V281.512H121.779V280.84L123.011 280.28L123.571 278.456H124.403V280.424H126.883V281.512H124.403V286.472C124.403 286.995 124.526 287.384 124.771 287.64C125.027 287.885 125.353 288.008 125.747 288.008ZM131.913 280.28C132.958 280.28 133.731 280.509 134.233 280.968C134.734 281.427 134.985 282.157 134.985 283.16V289H133.961L133.689 287.784H133.625C133.251 288.253 132.857 288.6 132.441 288.824C132.035 289.048 131.47 289.16 130.745 289.16C129.966 289.16 129.321 288.957 128.809 288.552C128.297 288.136 128.041 287.491 128.041 286.616C128.041 285.763 128.377 285.107 129.049 284.648C129.721 284.179 130.755 283.923 132.153 283.88L133.609 283.832V283.32C133.609 282.605 133.454 282.109 133.145 281.832C132.835 281.555 132.398 281.416 131.833 281.416C131.385 281.416 130.958 281.485 130.553 281.624C130.147 281.752 129.769 281.901 129.417 282.072L128.985 281.016C129.358 280.813 129.801 280.643 130.313 280.504C130.825 280.355 131.358 280.28 131.913 280.28ZM133.593 284.808L132.329 284.856C131.262 284.899 130.521 285.069 130.105 285.368C129.699 285.667 129.497 286.088 129.497 286.632C129.497 287.112 129.641 287.464 129.929 287.688C130.227 287.912 130.606 288.024 131.065 288.024C131.79 288.024 132.393 287.827 132.873 287.432C133.353 287.027 133.593 286.408 133.593 285.576V284.808ZM138.353 277.208C138.567 277.208 138.753 277.283 138.913 277.432C139.084 277.571 139.169 277.795 139.169 278.104C139.169 278.403 139.084 278.627 138.913 278.776C138.753 278.925 138.567 279 138.353 279C138.119 279 137.921 278.925 137.761 278.776C137.601 278.627 137.521 278.403 137.521 278.104C137.521 277.795 137.601 277.571 137.761 277.432C137.921 277.283 138.119 277.208 138.353 277.208ZM139.041 280.424V289H137.633V280.424H139.041ZM143.166 289H141.758V276.84H143.166V289ZM152.904 288.008C153.117 288.008 153.336 287.992 153.56 287.96C153.784 287.917 153.965 287.875 154.104 287.832V288.904C153.954 288.979 153.741 289.037 153.464 289.08C153.186 289.133 152.92 289.16 152.664 289.16C152.216 289.16 151.8 289.085 151.416 288.936C151.042 288.776 150.738 288.504 150.504 288.12C150.269 287.736 150.152 287.197 150.152 286.504V281.512H148.936V280.84L150.168 280.28L150.728 278.456H151.56V280.424H154.04V281.512H151.56V286.472C151.56 286.995 151.682 287.384 151.928 287.64C152.184 287.885 152.509 288.008 152.904 288.008ZM157.229 276.84V280.408C157.229 280.835 157.202 281.235 157.149 281.608H157.245C157.522 281.171 157.896 280.84 158.365 280.616C158.845 280.392 159.362 280.28 159.917 280.28C160.962 280.28 161.746 280.531 162.269 281.032C162.792 281.523 163.053 282.317 163.053 283.416V289H161.661V283.512C161.661 282.136 161.021 281.448 159.741 281.448C158.781 281.448 158.12 281.72 157.757 282.264C157.405 282.797 157.229 283.565 157.229 284.568V289H155.821V276.84H157.229ZM169.712 280.264C169.872 280.264 170.042 280.275 170.224 280.296C170.416 280.307 170.581 280.328 170.72 280.36L170.544 281.656C170.405 281.624 170.25 281.597 170.08 281.576C169.92 281.555 169.765 281.544 169.616 281.544C169.178 281.544 168.768 281.667 168.384 281.912C168 282.147 167.69 282.483 167.456 282.92C167.232 283.347 167.12 283.848 167.12 284.424V289H165.712V280.424H166.864L167.024 281.992H167.088C167.365 281.523 167.722 281.117 168.16 280.776C168.597 280.435 169.114 280.264 169.712 280.264ZM179.464 284.696C179.464 286.115 179.102 287.213 178.376 287.992C177.662 288.771 176.691 289.16 175.464 289.16C174.707 289.16 174.03 288.989 173.432 288.648C172.846 288.296 172.382 287.789 172.04 287.128C171.699 286.456 171.528 285.645 171.528 284.696C171.528 283.277 171.886 282.184 172.6 281.416C173.315 280.648 174.286 280.264 175.512 280.264C176.291 280.264 176.974 280.44 177.56 280.792C178.158 281.133 178.622 281.635 178.952 282.296C179.294 282.947 179.464 283.747 179.464 284.696ZM172.984 284.696C172.984 285.709 173.182 286.515 173.576 287.112C173.982 287.699 174.622 287.992 175.496 287.992C176.36 287.992 176.995 287.699 177.4 287.112C177.806 286.515 178.008 285.709 178.008 284.696C178.008 283.683 177.806 282.888 177.4 282.312C176.995 281.736 176.355 281.448 175.48 281.448C174.606 281.448 173.971 281.736 173.576 282.312C173.182 282.888 172.984 283.683 172.984 284.696ZM188.864 280.424V289H187.712L187.504 287.864H187.44C187.163 288.312 186.779 288.643 186.288 288.856C185.797 289.059 185.275 289.16 184.72 289.16C183.685 289.16 182.907 288.915 182.384 288.424C181.861 287.923 181.6 287.128 181.6 286.04V280.424H183.024V285.944C183.024 287.309 183.659 287.992 184.928 287.992C185.877 287.992 186.533 287.725 186.896 287.192C187.269 286.659 187.456 285.891 187.456 284.888V280.424H188.864ZM194.627 280.264C195.192 280.264 195.699 280.371 196.147 280.584C196.605 280.797 196.995 281.123 197.315 281.56H197.395L197.587 280.424H198.707V289.144C198.707 290.371 198.392 291.293 197.763 291.912C197.144 292.531 196.179 292.84 194.867 292.84C193.608 292.84 192.579 292.659 191.779 292.296V291C192.621 291.448 193.677 291.672 194.947 291.672C195.683 291.672 196.259 291.453 196.675 291.016C197.101 290.589 197.315 290.003 197.315 289.256V288.92C197.315 288.792 197.32 288.611 197.331 288.376C197.341 288.131 197.352 287.96 197.363 287.864H197.299C196.723 288.728 195.837 289.16 194.643 289.16C193.533 289.16 192.664 288.771 192.035 287.992C191.416 287.213 191.107 286.125 191.107 284.728C191.107 283.363 191.416 282.28 192.035 281.48C192.664 280.669 193.528 280.264 194.627 280.264ZM194.819 281.448C194.104 281.448 193.549 281.736 193.155 282.312C192.76 282.877 192.563 283.688 192.563 284.744C192.563 285.8 192.755 286.611 193.139 287.176C193.533 287.731 194.104 288.008 194.851 288.008C195.715 288.008 196.344 287.779 196.739 287.32C197.133 286.851 197.331 286.099 197.331 285.064V284.728C197.331 283.555 197.128 282.717 196.723 282.216C196.317 281.704 195.683 281.448 194.819 281.448ZM202.838 276.84V280.408C202.838 280.835 202.812 281.235 202.758 281.608H202.854C203.132 281.171 203.505 280.84 203.974 280.616C204.454 280.392 204.972 280.28 205.526 280.28C206.572 280.28 207.356 280.531 207.878 281.032C208.401 281.523 208.662 282.317 208.662 283.416V289H207.27V283.512C207.27 282.136 206.63 281.448 205.35 281.448C204.39 281.448 203.729 281.72 203.366 282.264C203.014 282.797 202.838 283.565 202.838 284.568V289H201.43V276.84H202.838ZM216.197 277.208C216.411 277.208 216.597 277.283 216.757 277.432C216.928 277.571 217.013 277.795 217.013 278.104C217.013 278.403 216.928 278.627 216.757 278.776C216.597 278.925 216.411 279 216.197 279C215.963 279 215.765 278.925 215.605 278.776C215.445 278.627 215.365 278.403 215.365 278.104C215.365 277.795 215.445 277.571 215.605 277.432C215.765 277.283 215.963 277.208 216.197 277.208ZM216.885 280.424V289H215.477V280.424H216.885ZM223.73 280.264C224.754 280.264 225.528 280.515 226.05 281.016C226.573 281.507 226.834 282.307 226.834 283.416V289H225.442V283.512C225.442 282.136 224.802 281.448 223.522 281.448C222.573 281.448 221.917 281.715 221.554 282.248C221.192 282.781 221.01 283.549 221.01 284.552V289H219.602V280.424H220.738L220.946 281.592H221.026C221.304 281.144 221.688 280.813 222.178 280.6C222.669 280.376 223.186 280.264 223.73 280.264ZM233.621 280.264C234.645 280.264 235.418 280.515 235.941 281.016C236.463 281.507 236.725 282.307 236.725 283.416V289H235.333V283.512C235.333 282.136 234.693 281.448 233.413 281.448C232.463 281.448 231.807 281.715 231.445 282.248C231.082 282.781 230.901 283.549 230.901 284.552V289H229.493V280.424H230.629L230.837 281.592H230.917C231.194 281.144 231.578 280.813 232.069 280.6C232.559 280.376 233.077 280.264 233.621 280.264ZM246.839 284.696C246.839 286.115 246.477 287.213 245.751 287.992C245.037 288.771 244.066 289.16 242.839 289.16C242.082 289.16 241.405 288.989 240.807 288.648C240.221 288.296 239.757 287.789 239.415 287.128C239.074 286.456 238.903 285.645 238.903 284.696C238.903 283.277 239.261 282.184 239.975 281.416C240.69 280.648 241.661 280.264 242.887 280.264C243.666 280.264 244.349 280.44 244.935 280.792C245.533 281.133 245.997 281.635 246.327 282.296C246.669 282.947 246.839 283.747 246.839 284.696ZM240.359 284.696C240.359 285.709 240.557 286.515 240.951 287.112C241.357 287.699 241.997 287.992 242.871 287.992C243.735 287.992 244.37 287.699 244.775 287.112C245.181 286.515 245.383 285.709 245.383 284.696C245.383 283.683 245.181 282.888 244.775 282.312C244.37 281.736 243.73 281.448 242.855 281.448C241.981 281.448 241.346 281.736 240.951 282.312C240.557 282.888 240.359 283.683 240.359 284.696ZM250.646 289L247.398 280.424H248.902L250.726 285.48C250.812 285.715 250.902 285.976 250.998 286.264C251.094 286.552 251.18 286.829 251.254 287.096C251.329 287.352 251.382 287.571 251.414 287.752H251.478C251.521 287.571 251.58 287.347 251.654 287.08C251.74 286.813 251.83 286.536 251.926 286.248C252.033 285.96 252.124 285.704 252.198 285.48L254.022 280.424H255.526L252.262 289H250.646ZM260.131 280.28C261.177 280.28 261.95 280.509 262.451 280.968C262.953 281.427 263.203 282.157 263.203 283.16V289H262.179L261.907 287.784H261.843C261.47 288.253 261.075 288.6 260.659 288.824C260.254 289.048 259.689 289.16 258.963 289.16C258.185 289.16 257.539 288.957 257.027 288.552C256.515 288.136 256.259 287.491 256.259 286.616C256.259 285.763 256.595 285.107 257.267 284.648C257.939 284.179 258.974 283.923 260.371 283.88L261.827 283.832V283.32C261.827 282.605 261.673 282.109 261.363 281.832C261.054 281.555 260.617 281.416 260.051 281.416C259.603 281.416 259.177 281.485 258.771 281.624C258.366 281.752 257.987 281.901 257.635 282.072L257.203 281.016C257.577 280.813 258.019 280.643 258.531 280.504C259.043 280.355 259.577 280.28 260.131 280.28ZM261.811 284.808L260.547 284.856C259.481 284.899 258.739 285.069 258.323 285.368C257.918 285.667 257.715 286.088 257.715 286.632C257.715 287.112 257.859 287.464 258.147 287.688C258.446 287.912 258.825 288.024 259.283 288.024C260.009 288.024 260.611 287.827 261.091 287.432C261.571 287.027 261.811 286.408 261.811 285.576V284.808ZM268.716 288.008C268.93 288.008 269.148 287.992 269.372 287.96C269.596 287.917 269.778 287.875 269.916 287.832V288.904C269.767 288.979 269.554 289.037 269.276 289.08C268.999 289.133 268.732 289.16 268.476 289.16C268.028 289.16 267.612 289.085 267.228 288.936C266.855 288.776 266.551 288.504 266.316 288.12C266.082 287.736 265.964 287.197 265.964 286.504V281.512H264.748V280.84L265.98 280.28L266.54 278.456H267.372V280.424H269.852V281.512H267.372V286.472C267.372 286.995 267.495 287.384 267.74 287.64C267.996 287.885 268.322 288.008 268.716 288.008ZM272.353 277.208C272.567 277.208 272.753 277.283 272.913 277.432C273.084 277.571 273.169 277.795 273.169 278.104C273.169 278.403 273.084 278.627 272.913 278.776C272.753 278.925 272.567 279 272.353 279C272.119 279 271.921 278.925 271.761 278.776C271.601 278.627 271.521 278.403 271.521 278.104C271.521 277.795 271.601 277.571 271.761 277.432C271.921 277.283 272.119 277.208 272.353 277.208ZM273.041 280.424V289H271.633V280.424H273.041ZM277.646 289L274.398 280.424H275.902L277.726 285.48C277.812 285.715 277.902 285.976 277.998 286.264C278.094 286.552 278.18 286.829 278.254 287.096C278.329 287.352 278.382 287.571 278.414 287.752H278.478C278.521 287.571 278.58 287.347 278.654 287.08C278.74 286.813 278.83 286.536 278.926 286.248C279.033 285.96 279.124 285.704 279.198 285.48L281.022 280.424H282.526L279.262 289H277.646ZM287.195 280.264C287.931 280.264 288.561 280.424 289.083 280.744C289.617 281.064 290.022 281.517 290.299 282.104C290.587 282.68 290.731 283.357 290.731 284.136V284.984H284.859C284.881 285.955 285.126 286.696 285.595 287.208C286.075 287.709 286.742 287.96 287.595 287.96C288.139 287.96 288.619 287.912 289.035 287.816C289.462 287.709 289.899 287.56 290.347 287.368V288.6C289.91 288.792 289.478 288.931 289.051 289.016C288.625 289.112 288.118 289.16 287.531 289.16C286.721 289.16 286.001 288.995 285.371 288.664C284.753 288.333 284.267 287.843 283.915 287.192C283.574 286.531 283.403 285.725 283.403 284.776C283.403 283.837 283.558 283.032 283.867 282.36C284.187 281.688 284.63 281.171 285.195 280.808C285.771 280.445 286.438 280.264 287.195 280.264ZM287.179 281.416C286.507 281.416 285.974 281.635 285.579 282.072C285.195 282.499 284.966 283.096 284.891 283.864H289.259C289.249 283.139 289.078 282.552 288.747 282.104C288.417 281.645 287.894 281.416 287.179 281.416ZM101.99 318.008C102.203 318.008 102.422 317.992 102.646 317.96C102.87 317.917 103.051 317.875 103.19 317.832V318.904C103.04 318.979 102.827 319.037 102.55 319.08C102.272 319.133 102.006 319.16 101.75 319.16C101.302 319.16 100.886 319.085 100.502 318.936C100.128 318.776 99.8243 318.504 99.5896 318.12C99.355 317.736 99.2376 317.197 99.2376 316.504V311.512H98.0216V310.84L99.2536 310.28L99.8136 308.456H100.646V310.424H103.126V311.512H100.646V316.472C100.646 316.995 100.768 317.384 101.014 317.64C101.27 317.885 101.595 318.008 101.99 318.008ZM108.219 310.264C108.955 310.264 109.584 310.424 110.107 310.744C110.64 311.064 111.046 311.517 111.323 312.104C111.611 312.68 111.755 313.357 111.755 314.136V314.984H105.883C105.904 315.955 106.15 316.696 106.619 317.208C107.099 317.709 107.766 317.96 108.619 317.96C109.163 317.96 109.643 317.912 110.059 317.816C110.486 317.709 110.923 317.56 111.371 317.368V318.6C110.934 318.792 110.502 318.931 110.075 319.016C109.648 319.112 109.142 319.16 108.555 319.16C107.744 319.16 107.024 318.995 106.395 318.664C105.776 318.333 105.291 317.843 104.939 317.192C104.598 316.531 104.427 315.725 104.427 314.776C104.427 313.837 104.582 313.032 104.891 312.36C105.211 311.688 105.654 311.171 106.219 310.808C106.795 310.445 107.462 310.264 108.219 310.264ZM108.203 311.416C107.531 311.416 106.998 311.635 106.603 312.072C106.219 312.499 105.99 313.096 105.915 313.864H110.283C110.272 313.139 110.102 312.552 109.771 312.104C109.44 311.645 108.918 311.416 108.203 311.416ZM117.378 319.16C116.621 319.16 115.943 319.005 115.346 318.696C114.759 318.387 114.295 317.907 113.954 317.256C113.623 316.605 113.458 315.773 113.458 314.76C113.458 313.704 113.634 312.845 113.986 312.184C114.338 311.523 114.813 311.037 115.41 310.728C116.018 310.419 116.706 310.264 117.474 310.264C117.911 310.264 118.333 310.312 118.738 310.408C119.143 310.493 119.474 310.6 119.73 310.728L119.298 311.896C119.042 311.8 118.743 311.709 118.402 311.624C118.061 311.539 117.741 311.496 117.442 311.496C115.757 311.496 114.914 312.579 114.914 314.744C114.914 315.779 115.117 316.573 115.522 317.128C115.938 317.672 116.551 317.944 117.362 317.944C117.831 317.944 118.242 317.896 118.594 317.8C118.957 317.704 119.287 317.587 119.586 317.448V318.696C119.298 318.845 118.978 318.957 118.626 319.032C118.285 319.117 117.869 319.16 117.378 319.16ZM123.034 306.84V310.408C123.034 310.835 123.007 311.235 122.954 311.608H123.05C123.327 311.171 123.7 310.84 124.17 310.616C124.65 310.392 125.167 310.28 125.722 310.28C126.767 310.28 127.551 310.531 128.074 311.032C128.596 311.523 128.858 312.317 128.858 313.416V319H127.466V313.512C127.466 312.136 126.826 311.448 125.546 311.448C124.586 311.448 123.924 311.72 123.562 312.264C123.21 312.797 123.034 313.565 123.034 314.568V319H121.626V306.84H123.034ZM135.644 310.264C136.668 310.264 137.442 310.515 137.964 311.016C138.487 311.507 138.748 312.307 138.748 313.416V319H137.356V313.512C137.356 312.136 136.716 311.448 135.436 311.448C134.487 311.448 133.831 311.715 133.468 312.248C133.106 312.781 132.924 313.549 132.924 314.552V319H131.516V310.424H132.652L132.86 311.592H132.94C133.218 311.144 133.602 310.813 134.092 310.6C134.583 310.376 135.1 310.264 135.644 310.264ZM148.863 314.696C148.863 316.115 148.5 317.213 147.775 317.992C147.06 318.771 146.09 319.16 144.863 319.16C144.106 319.16 143.428 318.989 142.831 318.648C142.244 318.296 141.78 317.789 141.439 317.128C141.098 316.456 140.927 315.645 140.927 314.696C140.927 313.277 141.284 312.184 141.999 311.416C142.714 310.648 143.684 310.264 144.911 310.264C145.69 310.264 146.372 310.44 146.959 310.792C147.556 311.133 148.02 311.635 148.351 312.296C148.692 312.947 148.863 313.747 148.863 314.696ZM142.383 314.696C142.383 315.709 142.58 316.515 142.975 317.112C143.38 317.699 144.02 317.992 144.895 317.992C145.759 317.992 146.394 317.699 146.799 317.112C147.204 316.515 147.407 315.709 147.407 314.696C147.407 313.683 147.204 312.888 146.799 312.312C146.394 311.736 145.754 311.448 144.879 311.448C144.004 311.448 143.37 311.736 142.975 312.312C142.58 312.888 142.383 313.683 142.383 314.696ZM152.502 319H151.094V306.84H152.502V319ZM162.675 314.696C162.675 316.115 162.313 317.213 161.587 317.992C160.873 318.771 159.902 319.16 158.675 319.16C157.918 319.16 157.241 318.989 156.643 318.648C156.057 318.296 155.593 317.789 155.251 317.128C154.91 316.456 154.739 315.645 154.739 314.696C154.739 313.277 155.097 312.184 155.811 311.416C156.526 310.648 157.497 310.264 158.723 310.264C159.502 310.264 160.185 310.44 160.771 310.792C161.369 311.133 161.833 311.635 162.163 312.296C162.505 312.947 162.675 313.747 162.675 314.696ZM156.195 314.696C156.195 315.709 156.393 316.515 156.787 317.112C157.193 317.699 157.833 317.992 158.707 317.992C159.571 317.992 160.206 317.699 160.611 317.112C161.017 316.515 161.219 315.709 161.219 314.696C161.219 313.683 161.017 312.888 160.611 312.312C160.206 311.736 159.566 311.448 158.691 311.448C157.817 311.448 157.182 311.736 156.787 312.312C156.393 312.888 156.195 313.683 156.195 314.696ZM167.947 310.264C168.512 310.264 169.019 310.371 169.467 310.584C169.926 310.797 170.315 311.123 170.635 311.56H170.715L170.907 310.424H172.027V319.144C172.027 320.371 171.712 321.293 171.083 321.912C170.464 322.531 169.499 322.84 168.187 322.84C166.928 322.84 165.899 322.659 165.099 322.296V321C165.942 321.448 166.998 321.672 168.267 321.672C169.003 321.672 169.579 321.453 169.995 321.016C170.422 320.589 170.635 320.003 170.635 319.256V318.92C170.635 318.792 170.64 318.611 170.651 318.376C170.662 318.131 170.672 317.96 170.683 317.864H170.619C170.043 318.728 169.158 319.16 167.963 319.16C166.854 319.16 165.984 318.771 165.355 317.992C164.736 317.213 164.427 316.125 164.427 314.728C164.427 313.363 164.736 312.28 165.355 311.48C165.984 310.669 166.848 310.264 167.947 310.264ZM168.139 311.448C167.424 311.448 166.87 311.736 166.475 312.312C166.08 312.877 165.883 313.688 165.883 314.744C165.883 315.8 166.075 316.611 166.459 317.176C166.854 317.731 167.424 318.008 168.171 318.008C169.035 318.008 169.664 317.779 170.059 317.32C170.454 316.851 170.651 316.099 170.651 315.064V314.728C170.651 313.555 170.448 312.717 170.043 312.216C169.638 311.704 169.003 311.448 168.139 311.448ZM175.471 307.208C175.684 307.208 175.871 307.283 176.031 307.432C176.201 307.571 176.287 307.795 176.287 308.104C176.287 308.403 176.201 308.627 176.031 308.776C175.871 308.925 175.684 309 175.471 309C175.236 309 175.039 308.925 174.879 308.776C174.719 308.627 174.639 308.403 174.639 308.104C174.639 307.795 174.719 307.571 174.879 307.432C175.039 307.283 175.236 307.208 175.471 307.208ZM176.159 310.424V319H174.751V310.424H176.159ZM182.316 319.16C181.558 319.16 180.881 319.005 180.284 318.696C179.697 318.387 179.233 317.907 178.892 317.256C178.561 316.605 178.396 315.773 178.396 314.76C178.396 313.704 178.572 312.845 178.924 312.184C179.276 311.523 179.75 311.037 180.348 310.728C180.956 310.419 181.644 310.264 182.412 310.264C182.849 310.264 183.27 310.312 183.676 310.408C184.081 310.493 184.412 310.6 184.668 310.728L184.236 311.896C183.98 311.8 183.681 311.709 183.34 311.624C182.998 311.539 182.678 311.496 182.38 311.496C180.694 311.496 179.852 312.579 179.852 314.744C179.852 315.779 180.054 316.573 180.46 317.128C180.876 317.672 181.489 317.944 182.3 317.944C182.769 317.944 183.18 317.896 183.532 317.8C183.894 317.704 184.225 317.587 184.524 317.448V318.696C184.236 318.845 183.916 318.957 183.564 319.032C183.222 319.117 182.806 319.16 182.316 319.16ZM189.811 310.28C190.856 310.28 191.63 310.509 192.131 310.968C192.632 311.427 192.883 312.157 192.883 313.16V319H191.859L191.587 317.784H191.523C191.15 318.253 190.755 318.6 190.339 318.824C189.934 319.048 189.368 319.16 188.643 319.16C187.864 319.16 187.219 318.957 186.707 318.552C186.195 318.136 185.939 317.491 185.939 316.616C185.939 315.763 186.275 315.107 186.947 314.648C187.619 314.179 188.654 313.923 190.051 313.88L191.507 313.832V313.32C191.507 312.605 191.352 312.109 191.043 311.832C190.734 311.555 190.296 311.416 189.731 311.416C189.283 311.416 188.856 311.485 188.451 311.624C188.046 311.752 187.667 311.901 187.315 312.072L186.883 311.016C187.256 310.813 187.699 310.643 188.211 310.504C188.723 310.355 189.256 310.28 189.811 310.28ZM191.491 314.808L190.227 314.856C189.16 314.899 188.419 315.069 188.003 315.368C187.598 315.667 187.395 316.088 187.395 316.632C187.395 317.112 187.539 317.464 187.827 317.688C188.126 317.912 188.504 318.024 188.963 318.024C189.688 318.024 190.291 317.827 190.771 317.432C191.251 317.027 191.491 316.408 191.491 315.576V314.808ZM196.94 319H195.532V306.84H196.94V319ZM209.397 316.632C209.397 317.464 209.088 318.093 208.469 318.52C207.85 318.947 207.018 319.16 205.973 319.16C205.376 319.16 204.858 319.112 204.421 319.016C203.994 318.92 203.616 318.787 203.285 318.616V317.336C203.626 317.507 204.037 317.667 204.517 317.816C205.008 317.955 205.504 318.024 206.005 318.024C206.72 318.024 207.237 317.912 207.557 317.688C207.877 317.453 208.037 317.144 208.037 316.76C208.037 316.547 207.978 316.355 207.861 316.184C207.744 316.013 207.53 315.843 207.221 315.672C206.922 315.501 206.49 315.309 205.925 315.096C205.37 314.883 204.896 314.669 204.501 314.456C204.106 314.243 203.802 313.987 203.589 313.688C203.376 313.389 203.269 313.005 203.269 312.536C203.269 311.811 203.562 311.251 204.149 310.856C204.746 310.461 205.525 310.264 206.485 310.264C207.008 310.264 207.493 310.317 207.941 310.424C208.4 310.52 208.826 310.659 209.221 310.84L208.741 311.96C208.378 311.811 208 311.683 207.605 311.576C207.21 311.469 206.805 311.416 206.389 311.416C205.813 311.416 205.37 311.512 205.061 311.704C204.762 311.885 204.613 312.136 204.613 312.456C204.613 312.691 204.682 312.893 204.821 313.064C204.96 313.224 205.189 313.384 205.509 313.544C205.84 313.693 206.277 313.875 206.821 314.088C207.365 314.291 207.829 314.499 208.213 314.712C208.597 314.925 208.89 315.187 209.093 315.496C209.296 315.795 209.397 316.173 209.397 316.632ZM218.925 314.696C218.925 316.115 218.563 317.213 217.837 317.992C217.123 318.771 216.152 319.16 214.925 319.16C214.168 319.16 213.491 318.989 212.893 318.648C212.307 318.296 211.843 317.789 211.501 317.128C211.16 316.456 210.989 315.645 210.989 314.696C210.989 313.277 211.347 312.184 212.061 311.416C212.776 310.648 213.747 310.264 214.973 310.264C215.752 310.264 216.435 310.44 217.021 310.792C217.619 311.133 218.083 311.635 218.413 312.296C218.755 312.947 218.925 313.747 218.925 314.696ZM212.445 314.696C212.445 315.709 212.643 316.515 213.037 317.112C213.443 317.699 214.083 317.992 214.957 317.992C215.821 317.992 216.456 317.699 216.861 317.112C217.267 316.515 217.469 315.709 217.469 314.696C217.469 313.683 217.267 312.888 216.861 312.312C216.456 311.736 215.816 311.448 214.941 311.448C214.067 311.448 213.432 311.736 213.037 312.312C212.643 312.888 212.445 313.683 212.445 314.696ZM222.565 319H221.157V306.84H222.565V319ZM232.45 310.424V319H231.298L231.09 317.864H231.026C230.749 318.312 230.365 318.643 229.874 318.856C229.383 319.059 228.861 319.16 228.306 319.16C227.271 319.16 226.493 318.915 225.97 318.424C225.447 317.923 225.186 317.128 225.186 316.04V310.424H226.61V315.944C226.61 317.309 227.245 317.992 228.514 317.992C229.463 317.992 230.119 317.725 230.482 317.192C230.855 316.659 231.042 315.891 231.042 314.888V310.424H232.45ZM238.036 318.008C238.25 318.008 238.469 317.992 238.693 317.96C238.917 317.917 239.098 317.875 239.237 317.832V318.904C239.087 318.979 238.874 319.037 238.597 319.08C238.319 319.133 238.053 319.16 237.797 319.16C237.349 319.16 236.933 319.085 236.549 318.936C236.175 318.776 235.871 318.504 235.637 318.12C235.402 317.736 235.285 317.197 235.285 316.504V311.512H234.069V310.84L235.301 310.28L235.861 308.456H236.693V310.424H239.173V311.512H236.693V316.472C236.693 316.995 236.815 317.384 237.061 317.64C237.317 317.885 237.642 318.008 238.036 318.008ZM241.674 307.208C241.887 307.208 242.074 307.283 242.234 307.432C242.404 307.571 242.49 307.795 242.49 308.104C242.49 308.403 242.404 308.627 242.234 308.776C242.074 308.925 241.887 309 241.674 309C241.439 309 241.242 308.925 241.082 308.776C240.922 308.627 240.842 308.403 240.842 308.104C240.842 307.795 240.922 307.571 241.082 307.432C241.242 307.283 241.439 307.208 241.674 307.208ZM242.362 310.424V319H240.954V310.424H242.362ZM252.535 314.696C252.535 316.115 252.172 317.213 251.447 317.992C250.732 318.771 249.761 319.16 248.535 319.16C247.777 319.16 247.1 318.989 246.503 318.648C245.916 318.296 245.452 317.789 245.111 317.128C244.769 316.456 244.599 315.645 244.599 314.696C244.599 313.277 244.956 312.184 245.671 311.416C246.385 310.648 247.356 310.264 248.583 310.264C249.361 310.264 250.044 310.44 250.631 310.792C251.228 311.133 251.692 311.635 252.023 312.296C252.364 312.947 252.535 313.747 252.535 314.696ZM246.055 314.696C246.055 315.709 246.252 316.515 246.647 317.112C247.052 317.699 247.692 317.992 248.567 317.992C249.431 317.992 250.065 317.699 250.471 317.112C250.876 316.515 251.079 315.709 251.079 314.696C251.079 313.683 250.876 312.888 250.471 312.312C250.065 311.736 249.425 311.448 248.551 311.448C247.676 311.448 247.041 311.736 246.647 312.312C246.252 312.888 246.055 313.683 246.055 314.696ZM258.894 310.264C259.918 310.264 260.692 310.515 261.214 311.016C261.737 311.507 261.998 312.307 261.998 313.416V319H260.606V313.512C260.606 312.136 259.966 311.448 258.686 311.448C257.737 311.448 257.081 311.715 256.718 312.248C256.356 312.781 256.174 313.549 256.174 314.552V319H254.766V310.424H255.902L256.11 311.592H256.19C256.468 311.144 256.852 310.813 257.342 310.6C257.833 310.376 258.35 310.264 258.894 310.264ZM270.241 316.632C270.241 317.464 269.932 318.093 269.313 318.52C268.694 318.947 267.862 319.16 266.817 319.16C266.22 319.16 265.702 319.112 265.265 319.016C264.838 318.92 264.46 318.787 264.129 318.616V317.336C264.47 317.507 264.881 317.667 265.361 317.816C265.852 317.955 266.348 318.024 266.849 318.024C267.564 318.024 268.081 317.912 268.401 317.688C268.721 317.453 268.881 317.144 268.881 316.76C268.881 316.547 268.822 316.355 268.705 316.184C268.588 316.013 268.374 315.843 268.065 315.672C267.766 315.501 267.334 315.309 266.769 315.096C266.214 314.883 265.74 314.669 265.345 314.456C264.95 314.243 264.646 313.987 264.433 313.688C264.22 313.389 264.113 313.005 264.113 312.536C264.113 311.811 264.406 311.251 264.993 310.856C265.59 310.461 266.369 310.264 267.329 310.264C267.852 310.264 268.337 310.317 268.785 310.424C269.244 310.52 269.67 310.659 270.065 310.84L269.585 311.96C269.222 311.811 268.844 311.683 268.449 311.576C268.054 311.469 267.649 311.416 267.233 311.416C266.657 311.416 266.214 311.512 265.905 311.704C265.606 311.885 265.457 312.136 265.457 312.456C265.457 312.691 265.526 312.893 265.665 313.064C265.804 313.224 266.033 313.384 266.353 313.544C266.684 313.693 267.121 313.875 267.665 314.088C268.209 314.291 268.673 314.499 269.057 314.712C269.441 314.925 269.734 315.187 269.937 315.496C270.14 315.795 270.241 316.173 270.241 316.632ZM272.105 318.136C272.105 317.741 272.201 317.464 272.393 317.304C272.585 317.144 272.814 317.064 273.081 317.064C273.358 317.064 273.593 317.144 273.785 317.304C273.988 317.464 274.089 317.741 274.089 318.136C274.089 318.52 273.988 318.797 273.785 318.968C273.593 319.139 273.358 319.224 273.081 319.224C272.814 319.224 272.585 319.139 272.393 318.968C272.201 318.797 272.105 318.52 272.105 318.136Z" fill="#A4A4A4"/>
<path d="M162.313 148.442C163.243 141.463 166.987 135.036 172.589 130.775V125.984C172.589 117.69 175.82 109.893 181.684 104.027L181.786 103.925C182.219 103.492 182.92 103.492 183.354 103.925L183.456 104.027C189.32 109.891 192.551 117.69 192.551 125.984V130.775C198.153 135.036 201.897 141.463 202.827 148.442L203.63 154.466C203.7 154.992 203.388 155.494 202.886 155.664C202.768 155.703 202.649 155.721 202.531 155.721C202.142 155.721 201.769 155.515 201.569 155.162L200.434 153.176C198.78 150.282 195.824 148.388 192.551 148.032V149.068C192.551 149.68 192.054 150.177 191.442 150.177H190.333V153.503C190.333 154.116 189.836 154.612 189.224 154.612H183.679V159.048H181.461V154.612H175.916C175.304 154.612 174.807 154.116 174.807 153.503V150.177H173.698C173.086 150.177 172.589 149.68 172.589 149.068V148.033C169.316 148.388 166.36 150.283 164.706 153.177L163.571 155.164C163.369 155.515 162.998 155.721 162.609 155.721C162.491 155.721 162.371 155.703 162.254 155.663C161.751 155.493 161.44 154.992 161.51 154.465L162.313 148.442ZM182.57 106.301C180.24 108.791 178.406 111.629 177.103 114.69H188.037C186.734 111.629 184.9 108.791 182.57 106.301ZM200.785 149.9L200.629 148.735C199.854 142.917 196.933 137.531 192.551 133.663V145.8C195.725 146.083 198.671 147.559 200.785 149.9ZM177.025 152.394H188.115V150.177H177.025V152.394ZM174.807 147.959H190.333V125.984C190.333 122.852 189.831 119.798 188.877 116.908H176.262C175.308 119.798 174.807 122.852 174.807 125.984V147.959ZM172.589 145.801V133.663C168.207 137.532 165.287 142.918 164.51 148.735L164.355 149.9C166.469 147.559 169.414 146.083 172.589 145.801Z" fill="#5051DB"/>
<path d="M182.57 123.562C186.239 123.562 189.224 126.546 189.224 130.215C189.224 133.885 186.239 136.869 182.57 136.869C178.9 136.869 175.916 133.885 175.916 130.215C175.916 126.546 178.9 123.562 182.57 123.562ZM182.57 134.651C185.016 134.651 187.006 132.662 187.006 130.215C187.006 127.769 185.016 125.779 182.57 125.779C180.124 125.779 178.134 127.769 178.134 130.215C178.134 132.662 180.124 134.651 182.57 134.651Z" fill="#5051DB"/>
<path d="M177.211 156.215L179.057 157.445L177.878 159.213C177.32 160.051 177.025 161.024 177.025 162.03C177.025 163.387 177.553 164.662 178.512 165.621L182.57 169.679L186.627 165.621C187.587 164.662 188.115 163.387 188.115 162.03C188.115 161.024 187.82 160.051 187.262 159.213L186.083 157.445L187.928 156.215L189.107 157.984C189.909 159.186 190.333 160.585 190.333 162.03C190.333 163.979 189.574 165.812 188.196 167.189L183.354 172.031C183.138 172.247 182.854 172.356 182.57 172.356C182.286 172.356 182.002 172.247 181.786 172.031L176.944 167.189C175.566 165.812 174.807 163.979 174.807 162.03C174.807 160.585 175.231 159.186 176.032 157.984L177.211 156.215Z" fill="#5051DB"/>
<defs>
<filter id="filter0_d_447_5" x="0" y="0" width="373" height="421" filterUnits="userSpaceOnUse" color-interpolation-filters="sRGB">
<feFlood flood-opacity="0" result="BackgroundImageFix"/>
<feColorMatrix in="SourceAlpha" type="matrix" values="0 0 0 0 0 0 0 0 0 0 0 0 0 0 0 0 0 0 127 0" result="hardAlpha"/>
<feOffset dx="4" dy="4"/>
<feGaussianBlur stdDeviation="30"/>
<feColorMatrix type="matrix" values="0 0 0 0 0.313726 0 0 0 0 0.317647 0 0 0 0 0.858824 0 0 0 0.08 0"/>
<feBlend mode="normal" in2="BackgroundImageFix" result="effect1_dropShadow_447_5"/>
<feBlend mode="normal" in="SourceGraphic" in2="effect1_dropShadow_447_5" result="shape"/>
</filter>
</defs>
</svg>
