<svg width="377" height="425" viewBox="0 0 377 425" fill="none" xmlns="http://www.w3.org/2000/svg">
<g filter="url(#filter0_d_447_6)">
<rect x="58" y="58" width="253" height="301" rx="2" fill="white"/>
</g>
<path d="M73.7149 231H72.2749V220.84H68.7069V219.576H77.2669V220.84H73.7149V231ZM85.1285 226.696C85.1285 228.115 84.7658 229.213 84.0405 229.992C83.3258 230.771 82.3552 231.16 81.1285 231.16C80.3712 231.16 79.6938 230.989 79.0965 230.648C78.5098 230.296 78.0458 229.789 77.7045 229.128C77.3632 228.456 77.1925 227.645 77.1925 226.696C77.1925 225.277 77.5498 224.184 78.2645 223.416C78.9792 222.648 79.9498 222.264 81.1765 222.264C81.9552 222.264 82.6378 222.44 83.2245 222.792C83.8218 223.133 84.2858 223.635 84.6165 224.296C84.9578 224.947 85.1285 225.747 85.1285 226.696ZM78.6485 226.696C78.6485 227.709 78.8458 228.515 79.2405 229.112C79.6458 229.699 80.2858 229.992 81.1605 229.992C82.0245 229.992 82.6592 229.699 83.0645 229.112C83.4698 228.515 83.6725 227.709 83.6725 226.696C83.6725 225.683 83.4698 224.888 83.0645 224.312C82.6592 223.736 82.0192 223.448 81.1445 223.448C80.2698 223.448 79.6352 223.736 79.2405 224.312C78.8458 224.888 78.6485 225.683 78.6485 226.696ZM92.9243 218.84V221.8C92.9243 222.163 92.9136 222.504 92.8923 222.824C92.8816 223.133 92.8656 223.379 92.8443 223.56H92.9243C93.1696 223.197 93.5056 222.893 93.9323 222.648C94.3589 222.403 94.9083 222.28 95.5803 222.28C96.6469 222.28 97.5003 222.653 98.1403 223.4C98.7909 224.136 99.1163 225.24 99.1163 226.712C99.1163 228.184 98.7909 229.293 98.1403 230.04C97.4896 230.787 96.6363 231.16 95.5803 231.16C94.9083 231.16 94.3589 231.037 93.9323 230.792C93.5056 230.547 93.1696 230.253 92.9243 229.912H92.8123L92.5243 231H91.5163V218.84H92.9243ZM95.3403 223.448C94.4336 223.448 93.8043 223.709 93.4523 224.232C93.1003 224.755 92.9243 225.565 92.9243 226.664V226.728C92.9243 227.784 93.0949 228.595 93.4363 229.16C93.7883 229.715 94.4336 229.992 95.3723 229.992C96.1403 229.992 96.7109 229.709 97.0843 229.144C97.4683 228.579 97.6603 227.763 97.6603 226.696C97.6603 224.531 96.8869 223.448 95.3403 223.448ZM104.672 222.264C105.408 222.264 106.037 222.424 106.56 222.744C107.093 223.064 107.499 223.517 107.776 224.104C108.064 224.68 108.208 225.357 108.208 226.136V226.984H102.336C102.357 227.955 102.603 228.696 103.072 229.208C103.552 229.709 104.219 229.96 105.072 229.96C105.616 229.96 106.096 229.912 106.512 229.816C106.939 229.709 107.376 229.56 107.824 229.368V230.6C107.387 230.792 106.955 230.931 106.528 231.016C106.101 231.112 105.595 231.16 105.008 231.16C104.197 231.16 103.477 230.995 102.848 230.664C102.229 230.333 101.744 229.843 101.392 229.192C101.051 228.531 100.88 227.725 100.88 226.776C100.88 225.837 101.035 225.032 101.344 224.36C101.664 223.688 102.107 223.171 102.672 222.808C103.248 222.445 103.915 222.264 104.672 222.264ZM104.656 223.416C103.984 223.416 103.451 223.635 103.056 224.072C102.672 224.499 102.443 225.096 102.368 225.864H106.736C106.725 225.139 106.555 224.552 106.224 224.104C105.893 223.645 105.371 223.416 104.656 223.416ZM117.411 230.008C117.625 230.008 117.844 229.992 118.068 229.96C118.292 229.917 118.473 229.875 118.612 229.832V230.904C118.462 230.979 118.249 231.037 117.972 231.08C117.694 231.133 117.428 231.16 117.172 231.16C116.724 231.16 116.308 231.085 115.924 230.936C115.55 230.776 115.246 230.504 115.012 230.12C114.777 229.736 114.66 229.197 114.66 228.504V223.512H113.444V222.84L114.676 222.28L115.236 220.456H116.068V222.424H118.548V223.512H116.068V228.472C116.068 228.995 116.19 229.384 116.436 229.64C116.692 229.885 117.017 230.008 117.411 230.008ZM121.737 218.84V222.408C121.737 222.835 121.71 223.235 121.657 223.608H121.753C122.03 223.171 122.403 222.84 122.873 222.616C123.353 222.392 123.87 222.28 124.425 222.28C125.47 222.28 126.254 222.531 126.777 223.032C127.299 223.523 127.561 224.317 127.561 225.416V231H126.169V225.512C126.169 224.136 125.529 223.448 124.249 223.448C123.289 223.448 122.627 223.72 122.265 224.264C121.913 224.797 121.737 225.565 121.737 226.568V231H120.329V218.84H121.737ZM133.531 222.264C134.267 222.264 134.897 222.424 135.419 222.744C135.953 223.064 136.358 223.517 136.635 224.104C136.923 224.68 137.067 225.357 137.067 226.136V226.984H131.195C131.217 227.955 131.462 228.696 131.931 229.208C132.411 229.709 133.078 229.96 133.931 229.96C134.475 229.96 134.955 229.912 135.371 229.816C135.798 229.709 136.235 229.56 136.683 229.368V230.6C136.246 230.792 135.814 230.931 135.387 231.016C134.961 231.112 134.454 231.16 133.867 231.16C133.057 231.16 132.337 230.995 131.707 230.664C131.089 230.333 130.603 229.843 130.251 229.192C129.91 228.531 129.739 227.725 129.739 226.776C129.739 225.837 129.894 225.032 130.203 224.36C130.523 223.688 130.966 223.171 131.531 222.808C132.107 222.445 132.774 222.264 133.531 222.264ZM133.515 223.416C132.843 223.416 132.31 223.635 131.915 224.072C131.531 224.499 131.302 225.096 131.227 225.864H135.595C135.585 225.139 135.414 224.552 135.083 224.104C134.753 223.645 134.23 223.416 133.515 223.416ZM150.863 226.696C150.863 228.115 150.5 229.213 149.775 229.992C149.06 230.771 148.09 231.16 146.863 231.16C146.106 231.16 145.428 230.989 144.831 230.648C144.244 230.296 143.78 229.789 143.439 229.128C143.098 228.456 142.927 227.645 142.927 226.696C142.927 225.277 143.284 224.184 143.999 223.416C144.714 222.648 145.684 222.264 146.911 222.264C147.69 222.264 148.372 222.44 148.959 222.792C149.556 223.133 150.02 223.635 150.351 224.296C150.692 224.947 150.863 225.747 150.863 226.696ZM144.383 226.696C144.383 227.709 144.58 228.515 144.975 229.112C145.38 229.699 146.02 229.992 146.895 229.992C147.759 229.992 148.394 229.699 148.799 229.112C149.204 228.515 149.407 227.709 149.407 226.696C149.407 225.683 149.204 224.888 148.799 224.312C148.394 223.736 147.754 223.448 146.879 223.448C146.004 223.448 145.37 223.736 144.975 224.312C144.58 224.888 144.383 225.683 144.383 226.696ZM157.222 222.264C158.246 222.264 159.02 222.515 159.542 223.016C160.065 223.507 160.326 224.307 160.326 225.416V231H158.934V225.512C158.934 224.136 158.294 223.448 157.014 223.448C156.065 223.448 155.409 223.715 155.046 224.248C154.684 224.781 154.502 225.549 154.502 226.552V231H153.094V222.424H154.23L154.438 223.592H154.518C154.796 223.144 155.18 222.813 155.67 222.6C156.161 222.376 156.678 222.264 157.222 222.264ZM166.297 222.264C167.033 222.264 167.662 222.424 168.185 222.744C168.718 223.064 169.124 223.517 169.401 224.104C169.689 224.68 169.833 225.357 169.833 226.136V226.984H163.961C163.982 227.955 164.228 228.696 164.697 229.208C165.177 229.709 165.844 229.96 166.697 229.96C167.241 229.96 167.721 229.912 168.137 229.816C168.564 229.709 169.001 229.56 169.449 229.368V230.6C169.012 230.792 168.58 230.931 168.153 231.016C167.726 231.112 167.22 231.16 166.633 231.16C165.822 231.16 165.102 230.995 164.473 230.664C163.854 230.333 163.369 229.843 163.017 229.192C162.676 228.531 162.505 227.725 162.505 226.776C162.505 225.837 162.66 225.032 162.969 224.36C163.289 223.688 163.732 223.171 164.297 222.808C164.873 222.445 165.54 222.264 166.297 222.264ZM166.281 223.416C165.609 223.416 165.076 223.635 164.681 224.072C164.297 224.499 164.068 225.096 163.993 225.864H168.361C168.35 225.139 168.18 224.552 167.849 224.104C167.518 223.645 166.996 223.416 166.281 223.416ZM171.296 227.336V226.088H175.168V227.336H171.296ZM182.757 228.632C182.757 229.464 182.447 230.093 181.829 230.52C181.21 230.947 180.378 231.16 179.333 231.16C178.735 231.16 178.218 231.112 177.781 231.016C177.354 230.92 176.975 230.787 176.645 230.616V229.336C176.986 229.507 177.397 229.667 177.877 229.816C178.367 229.955 178.863 230.024 179.365 230.024C180.079 230.024 180.597 229.912 180.917 229.688C181.237 229.453 181.397 229.144 181.397 228.76C181.397 228.547 181.338 228.355 181.221 228.184C181.103 228.013 180.89 227.843 180.581 227.672C180.282 227.501 179.85 227.309 179.285 227.096C178.73 226.883 178.255 226.669 177.861 226.456C177.466 226.243 177.162 225.987 176.949 225.688C176.735 225.389 176.629 225.005 176.629 224.536C176.629 223.811 176.922 223.251 177.509 222.856C178.106 222.461 178.885 222.264 179.845 222.264C180.367 222.264 180.853 222.317 181.301 222.424C181.759 222.52 182.186 222.659 182.581 222.84L182.101 223.96C181.738 223.811 181.359 223.683 180.965 223.576C180.57 223.469 180.165 223.416 179.749 223.416C179.173 223.416 178.73 223.512 178.421 223.704C178.122 223.885 177.973 224.136 177.973 224.456C177.973 224.691 178.042 224.893 178.181 225.064C178.319 225.224 178.549 225.384 178.869 225.544C179.199 225.693 179.637 225.875 180.181 226.088C180.725 226.291 181.189 226.499 181.573 226.712C181.957 226.925 182.25 227.187 182.453 227.496C182.655 227.795 182.757 228.173 182.757 228.632ZM187.693 230.008C187.906 230.008 188.125 229.992 188.349 229.96C188.573 229.917 188.754 229.875 188.893 229.832V230.904C188.743 230.979 188.53 231.037 188.253 231.08C187.975 231.133 187.709 231.16 187.453 231.16C187.005 231.16 186.589 231.085 186.205 230.936C185.831 230.776 185.527 230.504 185.293 230.12C185.058 229.736 184.941 229.197 184.941 228.504V223.512H183.725V222.84L184.957 222.28L185.517 220.456H186.349V222.424H188.829V223.512H186.349V228.472C186.349 228.995 186.471 229.384 186.717 229.64C186.973 229.885 187.298 230.008 187.693 230.008ZM198.066 226.696C198.066 228.115 197.703 229.213 196.978 229.992C196.263 230.771 195.293 231.16 194.066 231.16C193.309 231.16 192.631 230.989 192.034 230.648C191.447 230.296 190.983 229.789 190.642 229.128C190.301 228.456 190.13 227.645 190.13 226.696C190.13 225.277 190.487 224.184 191.202 223.416C191.917 222.648 192.887 222.264 194.114 222.264C194.893 222.264 195.575 222.44 196.162 222.792C196.759 223.133 197.223 223.635 197.554 224.296C197.895 224.947 198.066 225.747 198.066 226.696ZM191.586 226.696C191.586 227.709 191.783 228.515 192.178 229.112C192.583 229.699 193.223 229.992 194.098 229.992C194.962 229.992 195.597 229.699 196.002 229.112C196.407 228.515 196.61 227.709 196.61 226.696C196.61 225.683 196.407 224.888 196.002 224.312C195.597 223.736 194.957 223.448 194.082 223.448C193.207 223.448 192.573 223.736 192.178 224.312C191.783 224.888 191.586 225.683 191.586 226.696ZM204.378 222.264C205.434 222.264 206.282 222.632 206.922 223.368C207.572 224.104 207.898 225.213 207.898 226.696C207.898 228.157 207.572 229.267 206.922 230.024C206.282 230.781 205.428 231.16 204.362 231.16C203.7 231.16 203.151 231.037 202.714 230.792C202.287 230.536 201.951 230.243 201.706 229.912H201.61C201.631 230.093 201.652 230.323 201.674 230.6C201.695 230.877 201.706 231.117 201.706 231.32V234.84H200.298V222.424H201.45L201.642 223.592H201.706C201.962 223.219 202.298 222.904 202.714 222.648C203.13 222.392 203.684 222.264 204.378 222.264ZM204.122 223.448C203.247 223.448 202.628 223.693 202.266 224.184C201.914 224.675 201.727 225.421 201.706 226.424V226.696C201.706 227.752 201.876 228.568 202.218 229.144C202.57 229.709 203.215 229.992 204.154 229.992C204.676 229.992 205.103 229.848 205.434 229.56C205.775 229.272 206.026 228.883 206.186 228.392C206.356 227.891 206.442 227.32 206.442 226.68C206.442 225.699 206.25 224.915 205.866 224.328C205.492 223.741 204.911 223.448 204.122 223.448ZM218.25 223.512H216.09V231H214.682V223.512H213.178V222.856L214.682 222.376V221.88C214.682 220.771 214.927 219.976 215.418 219.496C215.908 219.005 216.591 218.76 217.466 218.76C217.807 218.76 218.116 218.792 218.394 218.856C218.682 218.909 218.927 218.973 219.13 219.048L218.762 220.152C218.591 220.099 218.394 220.045 218.17 219.992C217.946 219.939 217.716 219.912 217.482 219.912C217.012 219.912 216.66 220.072 216.426 220.392C216.202 220.701 216.09 221.192 216.09 221.864V222.424H218.25V223.512ZM227.253 226.696C227.253 228.115 226.891 229.213 226.166 229.992C225.451 230.771 224.48 231.16 223.254 231.16C222.496 231.16 221.819 230.989 221.222 230.648C220.635 230.296 220.171 229.789 219.83 229.128C219.488 228.456 219.318 227.645 219.318 226.696C219.318 225.277 219.675 224.184 220.39 223.416C221.104 222.648 222.075 222.264 223.302 222.264C224.08 222.264 224.763 222.44 225.35 222.792C225.947 223.133 226.411 223.635 226.742 224.296C227.083 224.947 227.253 225.747 227.253 226.696ZM220.774 226.696C220.774 227.709 220.971 228.515 221.366 229.112C221.771 229.699 222.411 229.992 223.286 229.992C224.15 229.992 224.784 229.699 225.19 229.112C225.595 228.515 225.798 227.709 225.798 226.696C225.798 225.683 225.595 224.888 225.19 224.312C224.784 223.736 224.144 223.448 223.27 223.448C222.395 223.448 221.76 223.736 221.366 224.312C220.971 224.888 220.774 225.683 220.774 226.696ZM233.485 222.264C233.645 222.264 233.816 222.275 233.997 222.296C234.189 222.307 234.354 222.328 234.493 222.36L234.317 223.656C234.178 223.624 234.024 223.597 233.853 223.576C233.693 223.555 233.538 223.544 233.389 223.544C232.952 223.544 232.541 223.667 232.157 223.912C231.773 224.147 231.464 224.483 231.229 224.92C231.005 225.347 230.893 225.848 230.893 226.424V231H229.485V222.424H230.637L230.797 223.992H230.861C231.138 223.523 231.496 223.117 231.933 222.776C232.37 222.435 232.888 222.264 233.485 222.264ZM243.499 222.28C244.544 222.28 245.317 222.509 245.819 222.968C246.32 223.427 246.571 224.157 246.571 225.16V231H245.547L245.275 229.784H245.211C244.837 230.253 244.443 230.6 244.027 230.824C243.621 231.048 243.056 231.16 242.331 231.16C241.552 231.16 240.907 230.957 240.395 230.552C239.883 230.136 239.627 229.491 239.627 228.616C239.627 227.763 239.963 227.107 240.635 226.648C241.307 226.179 242.341 225.923 243.739 225.88L245.195 225.832V225.32C245.195 224.605 245.04 224.109 244.731 223.832C244.421 223.555 243.984 223.416 243.419 223.416C242.971 223.416 242.544 223.485 242.139 223.624C241.733 223.752 241.355 223.901 241.003 224.072L240.571 223.016C240.944 222.813 241.387 222.643 241.899 222.504C242.411 222.355 242.944 222.28 243.499 222.28ZM245.179 226.808L243.915 226.856C242.848 226.899 242.107 227.069 241.691 227.368C241.285 227.667 241.083 228.088 241.083 228.632C241.083 229.112 241.227 229.464 241.515 229.688C241.813 229.912 242.192 230.024 242.651 230.024C243.376 230.024 243.979 229.827 244.459 229.432C244.939 229.027 245.179 228.408 245.179 227.576V226.808ZM250.627 231H249.219V218.84H250.627V231ZM254.752 231H253.344V218.84H254.752V231ZM269.082 226.696C269.082 228.115 268.719 229.213 267.994 229.992C267.279 230.771 266.308 231.16 265.082 231.16C264.324 231.16 263.647 230.989 263.05 230.648C262.463 230.296 261.999 229.789 261.658 229.128C261.316 228.456 261.146 227.645 261.146 226.696C261.146 225.277 261.503 224.184 262.218 223.416C262.932 222.648 263.903 222.264 265.13 222.264C265.908 222.264 266.591 222.44 267.178 222.792C267.775 223.133 268.239 223.635 268.57 224.296C268.911 224.947 269.082 225.747 269.082 226.696ZM262.602 226.696C262.602 227.709 262.799 228.515 263.194 229.112C263.599 229.699 264.239 229.992 265.114 229.992C265.978 229.992 266.612 229.699 267.018 229.112C267.423 228.515 267.626 227.709 267.626 226.696C267.626 225.683 267.423 224.888 267.018 224.312C266.612 223.736 265.972 223.448 265.098 223.448C264.223 223.448 263.588 223.736 263.194 224.312C262.799 224.888 262.602 225.683 262.602 226.696ZM278.481 222.424V231H277.329L277.121 229.864H277.057C276.78 230.312 276.396 230.643 275.905 230.856C275.414 231.059 274.892 231.16 274.337 231.16C273.302 231.16 272.524 230.915 272.001 230.424C271.478 229.923 271.217 229.128 271.217 228.04V222.424H272.641V227.944C272.641 229.309 273.276 229.992 274.545 229.992C275.494 229.992 276.15 229.725 276.513 229.192C276.886 228.659 277.073 227.891 277.073 226.888V222.424H278.481ZM285.204 222.264C285.364 222.264 285.534 222.275 285.716 222.296C285.908 222.307 286.073 222.328 286.212 222.36L286.036 223.656C285.897 223.624 285.742 223.597 285.572 223.576C285.412 223.555 285.257 223.544 285.108 223.544C284.67 223.544 284.26 223.667 283.876 223.912C283.492 224.147 283.182 224.483 282.948 224.92C282.724 225.347 282.612 225.848 282.612 226.424V231H281.204V222.424H282.356L282.516 223.992H282.58C282.857 223.523 283.214 223.117 283.652 222.776C284.089 222.435 284.606 222.264 285.204 222.264ZM85.2453 261.16C84.488 261.16 83.8106 261.005 83.2133 260.696C82.6266 260.387 82.1626 259.907 81.8213 259.256C81.4906 258.605 81.3253 257.773 81.3253 256.76C81.3253 255.704 81.5013 254.845 81.8533 254.184C82.2053 253.523 82.68 253.037 83.2773 252.728C83.8853 252.419 84.5733 252.264 85.3413 252.264C85.7786 252.264 86.2 252.312 86.6053 252.408C87.0106 252.493 87.3413 252.6 87.5973 252.728L87.1653 253.896C86.9093 253.8 86.6106 253.709 86.2693 253.624C85.928 253.539 85.608 253.496 85.3093 253.496C83.624 253.496 82.7813 254.579 82.7813 256.744C82.7813 257.779 82.984 258.573 83.3893 259.128C83.8053 259.672 84.4186 259.944 85.2293 259.944C85.6986 259.944 86.1093 259.896 86.4613 259.8C86.824 259.704 87.1546 259.587 87.4533 259.448V260.696C87.1653 260.845 86.8453 260.957 86.4933 261.032C86.152 261.117 85.736 261.16 85.2453 261.16ZM90.9008 261H89.4928V248.84H90.9008V261ZM94.3378 249.208C94.5511 249.208 94.7378 249.283 94.8978 249.432C95.0685 249.571 95.1538 249.795 95.1538 250.104C95.1538 250.403 95.0685 250.627 94.8978 250.776C94.7378 250.925 94.5511 251 94.3378 251C94.1031 251 93.9058 250.925 93.7458 250.776C93.5858 250.627 93.5058 250.403 93.5058 250.104C93.5058 249.795 93.5858 249.571 93.7458 249.432C93.9058 249.283 94.1031 249.208 94.3378 249.208ZM95.0258 252.424V261H93.6178V252.424H95.0258ZM101.055 252.264C101.791 252.264 102.42 252.424 102.943 252.744C103.476 253.064 103.881 253.517 104.159 254.104C104.447 254.68 104.591 255.357 104.591 256.136V256.984H98.7188C98.7401 257.955 98.9855 258.696 99.4548 259.208C99.9348 259.709 100.601 259.96 101.455 259.96C101.999 259.96 102.479 259.912 102.895 259.816C103.321 259.709 103.759 259.56 104.207 259.368V260.6C103.769 260.792 103.337 260.931 102.911 261.016C102.484 261.112 101.977 261.16 101.391 261.16C100.58 261.16 99.8601 260.995 99.2308 260.664C98.6121 260.333 98.1268 259.843 97.7748 259.192C97.4335 258.531 97.2628 257.725 97.2628 256.776C97.2628 255.837 97.4175 255.032 97.7268 254.36C98.0468 253.688 98.4895 253.171 99.0548 252.808C99.6308 252.445 100.297 252.264 101.055 252.264ZM101.039 253.416C100.367 253.416 99.8335 253.635 99.4388 254.072C99.0548 254.499 98.8255 255.096 98.7508 255.864H103.119C103.108 255.139 102.937 254.552 102.607 254.104C102.276 253.645 101.753 253.416 101.039 253.416ZM110.902 252.264C111.926 252.264 112.699 252.515 113.222 253.016C113.745 253.507 114.006 254.307 114.006 255.416V261H112.614V255.512C112.614 254.136 111.974 253.448 110.694 253.448C109.745 253.448 109.089 253.715 108.726 254.248C108.363 254.781 108.182 255.549 108.182 256.552V261H106.774V252.424H107.91L108.118 253.592H108.198C108.475 253.144 108.859 252.813 109.35 252.6C109.841 252.376 110.358 252.264 110.902 252.264ZM119.529 260.008C119.742 260.008 119.961 259.992 120.185 259.96C120.409 259.917 120.59 259.875 120.729 259.832V260.904C120.579 260.979 120.366 261.037 120.089 261.08C119.811 261.133 119.545 261.16 119.289 261.16C118.841 261.16 118.425 261.085 118.041 260.936C117.667 260.776 117.363 260.504 117.129 260.12C116.894 259.736 116.777 259.197 116.777 258.504V253.512H115.561V252.84L116.793 252.28L117.353 250.456H118.185V252.424H120.665V253.512H118.185V258.472C118.185 258.995 118.307 259.384 118.553 259.64C118.809 259.885 119.134 260.008 119.529 260.008ZM128.03 258.632C128.03 259.464 127.721 260.093 127.102 260.52C126.483 260.947 125.651 261.16 124.606 261.16C124.009 261.16 123.491 261.112 123.054 261.016C122.627 260.92 122.249 260.787 121.918 260.616V259.336C122.259 259.507 122.67 259.667 123.15 259.816C123.641 259.955 124.137 260.024 124.638 260.024C125.353 260.024 125.87 259.912 126.19 259.688C126.51 259.453 126.67 259.144 126.67 258.76C126.67 258.547 126.611 258.355 126.494 258.184C126.377 258.013 126.163 257.843 125.854 257.672C125.555 257.501 125.123 257.309 124.558 257.096C124.003 256.883 123.529 256.669 123.134 256.456C122.739 256.243 122.435 255.987 122.222 255.688C122.009 255.389 121.902 255.005 121.902 254.536C121.902 253.811 122.195 253.251 122.782 252.856C123.379 252.461 124.158 252.264 125.118 252.264C125.641 252.264 126.126 252.317 126.574 252.424C127.033 252.52 127.459 252.659 127.854 252.84L127.374 253.96C127.011 253.811 126.633 253.683 126.238 253.576C125.843 253.469 125.438 253.416 125.022 253.416C124.446 253.416 124.003 253.512 123.694 253.704C123.395 253.885 123.246 254.136 123.246 254.456C123.246 254.691 123.315 254.893 123.454 255.064C123.593 255.224 123.822 255.384 124.142 255.544C124.473 255.693 124.91 255.875 125.454 256.088C125.998 256.291 126.462 256.499 126.846 256.712C127.23 256.925 127.523 257.187 127.726 257.496C127.929 257.795 128.03 258.173 128.03 258.632ZM139.842 258.632C139.842 259.464 139.533 260.093 138.914 260.52C138.296 260.947 137.464 261.16 136.418 261.16C135.821 261.16 135.304 261.112 134.866 261.016C134.44 260.92 134.061 260.787 133.73 260.616V259.336C134.072 259.507 134.482 259.667 134.962 259.816C135.453 259.955 135.949 260.024 136.45 260.024C137.165 260.024 137.682 259.912 138.002 259.688C138.322 259.453 138.482 259.144 138.482 258.76C138.482 258.547 138.424 258.355 138.306 258.184C138.189 258.013 137.976 257.843 137.666 257.672C137.368 257.501 136.936 257.309 136.37 257.096C135.816 256.883 135.341 256.669 134.946 256.456C134.552 256.243 134.248 255.987 134.034 255.688C133.821 255.389 133.714 255.005 133.714 254.536C133.714 253.811 134.008 253.251 134.594 252.856C135.192 252.461 135.97 252.264 136.93 252.264C137.453 252.264 137.938 252.317 138.386 252.424C138.845 252.52 139.272 252.659 139.666 252.84L139.186 253.96C138.824 253.811 138.445 253.683 138.05 253.576C137.656 253.469 137.25 253.416 136.834 253.416C136.258 253.416 135.816 253.512 135.506 253.704C135.208 253.885 135.058 254.136 135.058 254.456C135.058 254.691 135.128 254.893 135.266 255.064C135.405 255.224 135.634 255.384 135.954 255.544C136.285 255.693 136.722 255.875 137.266 256.088C137.81 256.291 138.274 256.499 138.658 256.712C139.042 256.925 139.336 257.187 139.538 257.496C139.741 257.795 139.842 258.173 139.842 258.632ZM149.371 256.696C149.371 258.115 149.008 259.213 148.283 259.992C147.568 260.771 146.597 261.16 145.371 261.16C144.613 261.16 143.936 260.989 143.339 260.648C142.752 260.296 142.288 259.789 141.947 259.128C141.605 258.456 141.435 257.645 141.435 256.696C141.435 255.277 141.792 254.184 142.507 253.416C143.221 252.648 144.192 252.264 145.419 252.264C146.197 252.264 146.88 252.44 147.467 252.792C148.064 253.133 148.528 253.635 148.859 254.296C149.2 254.947 149.371 255.747 149.371 256.696ZM142.891 256.696C142.891 257.709 143.088 258.515 143.483 259.112C143.888 259.699 144.528 259.992 145.403 259.992C146.267 259.992 146.901 259.699 147.307 259.112C147.712 258.515 147.915 257.709 147.915 256.696C147.915 255.683 147.712 254.888 147.307 254.312C146.901 253.736 146.261 253.448 145.387 253.448C144.512 253.448 143.877 253.736 143.483 254.312C143.088 254.888 142.891 255.683 142.891 256.696ZM155.554 253.512H153.394V261H151.986V253.512H150.482V252.856L151.986 252.376V251.88C151.986 250.771 152.232 249.976 152.722 249.496C153.213 249.005 153.896 248.76 154.77 248.76C155.112 248.76 155.421 248.792 155.698 248.856C155.986 248.909 156.232 248.973 156.434 249.048L156.066 250.152C155.896 250.099 155.698 250.045 155.474 249.992C155.25 249.939 155.021 249.912 154.786 249.912C154.317 249.912 153.965 250.072 153.73 250.392C153.506 250.701 153.394 251.192 153.394 251.864V252.424H155.554V253.512ZM159.966 260.008C160.18 260.008 160.398 259.992 160.622 259.96C160.846 259.917 161.028 259.875 161.166 259.832V260.904C161.017 260.979 160.804 261.037 160.526 261.08C160.249 261.133 159.982 261.16 159.726 261.16C159.278 261.16 158.862 261.085 158.478 260.936C158.105 260.776 157.801 260.504 157.566 260.12C157.332 259.736 157.214 259.197 157.214 258.504V253.512H155.998V252.84L157.23 252.28L157.79 250.456H158.622V252.424H161.102V253.512H158.622V258.472C158.622 258.995 158.745 259.384 158.99 259.64C159.246 259.885 159.572 260.008 159.966 260.008ZM169.891 260.984L168.419 256.152C168.281 255.715 168.158 255.288 168.051 254.872C167.955 254.445 167.881 254.115 167.827 253.88H167.763C167.721 254.115 167.651 254.445 167.555 254.872C167.459 255.288 167.337 255.72 167.187 256.168L165.651 260.984H164.051L161.699 252.408H163.155L164.339 256.984C164.457 257.443 164.569 257.907 164.675 258.376C164.782 258.845 164.857 259.235 164.899 259.544H164.963C165.006 259.363 165.054 259.139 165.107 258.872C165.171 258.605 165.241 258.328 165.315 258.04C165.39 257.741 165.465 257.475 165.539 257.24L167.059 252.408H168.595L170.067 257.24C170.185 257.603 170.297 257.997 170.403 258.424C170.521 258.851 170.601 259.219 170.643 259.528H170.707C170.739 259.261 170.809 258.893 170.915 258.424C171.033 257.955 171.155 257.475 171.283 256.984L172.483 252.408H173.923L171.539 260.984H169.891ZM178.71 252.28C179.755 252.28 180.528 252.509 181.03 252.968C181.531 253.427 181.782 254.157 181.782 255.16V261H180.758L180.486 259.784H180.422C180.048 260.253 179.654 260.6 179.238 260.824C178.832 261.048 178.267 261.16 177.542 261.16C176.763 261.16 176.118 260.957 175.606 260.552C175.094 260.136 174.838 259.491 174.838 258.616C174.838 257.763 175.174 257.107 175.846 256.648C176.518 256.179 177.552 255.923 178.95 255.88L180.406 255.832V255.32C180.406 254.605 180.251 254.109 179.942 253.832C179.632 253.555 179.195 253.416 178.63 253.416C178.182 253.416 177.755 253.485 177.35 253.624C176.944 253.752 176.566 253.901 176.214 254.072L175.782 253.016C176.155 252.813 176.598 252.643 177.11 252.504C177.622 252.355 178.155 252.28 178.71 252.28ZM180.39 256.808L179.126 256.856C178.059 256.899 177.318 257.069 176.902 257.368C176.496 257.667 176.294 258.088 176.294 258.632C176.294 259.112 176.438 259.464 176.726 259.688C177.024 259.912 177.403 260.024 177.862 260.024C178.587 260.024 179.19 259.827 179.67 259.432C180.15 259.027 180.39 258.408 180.39 257.576V256.808ZM188.43 252.264C188.59 252.264 188.761 252.275 188.942 252.296C189.134 252.307 189.3 252.328 189.438 252.36L189.262 253.656C189.124 253.624 188.969 253.597 188.798 253.576C188.638 253.555 188.484 253.544 188.334 253.544C187.897 253.544 187.486 253.667 187.102 253.912C186.718 254.147 186.409 254.483 186.174 254.92C185.95 255.347 185.838 255.848 185.838 256.424V261H184.43V252.424H185.582L185.742 253.992H185.806C186.084 253.523 186.441 253.117 186.878 252.776C187.316 252.435 187.833 252.264 188.43 252.264ZM194.039 252.264C194.775 252.264 195.405 252.424 195.927 252.744C196.461 253.064 196.866 253.517 197.143 254.104C197.431 254.68 197.575 255.357 197.575 256.136V256.984H191.703C191.725 257.955 191.97 258.696 192.439 259.208C192.919 259.709 193.586 259.96 194.439 259.96C194.983 259.96 195.463 259.912 195.879 259.816C196.306 259.709 196.743 259.56 197.191 259.368V260.6C196.754 260.792 196.322 260.931 195.895 261.016C195.469 261.112 194.962 261.16 194.375 261.16C193.565 261.16 192.845 260.995 192.215 260.664C191.597 260.333 191.111 259.843 190.759 259.192C190.418 258.531 190.247 257.725 190.247 256.776C190.247 255.837 190.402 255.032 190.711 254.36C191.031 253.688 191.474 253.171 192.039 252.808C192.615 252.445 193.282 252.264 194.039 252.264ZM194.023 253.416C193.351 253.416 192.818 253.635 192.423 254.072C192.039 254.499 191.81 255.096 191.735 255.864H196.103C196.093 255.139 195.922 254.552 195.591 254.104C195.261 253.645 194.738 253.416 194.023 253.416ZM201.358 259.144L201.47 259.32C201.332 259.885 201.129 260.504 200.862 261.176C200.606 261.859 200.35 262.488 200.094 263.064H199.054C199.204 262.456 199.353 261.789 199.502 261.064C199.662 260.339 199.78 259.699 199.854 259.144H201.358ZM205.448 248.84V252.408C205.448 252.835 205.421 253.235 205.368 253.608H205.464C205.741 253.171 206.114 252.84 206.584 252.616C207.064 252.392 207.581 252.28 208.136 252.28C209.181 252.28 209.965 252.531 210.488 253.032C211.01 253.523 211.272 254.317 211.272 255.416V261H209.88V255.512C209.88 254.136 209.24 253.448 207.96 253.448C207 253.448 206.338 253.72 205.976 254.264C205.624 254.797 205.448 255.565 205.448 256.568V261H204.04V248.84H205.448ZM217.178 252.28C218.224 252.28 218.997 252.509 219.498 252.968C220 253.427 220.25 254.157 220.25 255.16V261H219.226L218.954 259.784H218.89C218.517 260.253 218.122 260.6 217.706 260.824C217.301 261.048 216.736 261.16 216.01 261.16C215.232 261.16 214.586 260.957 214.074 260.552C213.562 260.136 213.306 259.491 213.306 258.616C213.306 257.763 213.642 257.107 214.314 256.648C214.986 256.179 216.021 255.923 217.418 255.88L218.874 255.832V255.32C218.874 254.605 218.72 254.109 218.41 253.832C218.101 253.555 217.664 253.416 217.098 253.416C216.65 253.416 216.224 253.485 215.818 253.624C215.413 253.752 215.034 253.901 214.682 254.072L214.25 253.016C214.624 252.813 215.066 252.643 215.578 252.504C216.09 252.355 216.624 252.28 217.178 252.28ZM218.858 256.808L217.594 256.856C216.528 256.899 215.786 257.069 215.37 257.368C214.965 257.667 214.762 258.088 214.762 258.632C214.762 259.112 214.906 259.464 215.194 259.688C215.493 259.912 215.872 260.024 216.33 260.024C217.056 260.024 217.658 259.827 218.138 259.432C218.618 259.027 218.858 258.408 218.858 257.576V256.808ZM226.899 252.264C227.059 252.264 227.23 252.275 227.411 252.296C227.603 252.307 227.768 252.328 227.907 252.36L227.731 253.656C227.592 253.624 227.438 253.597 227.267 253.576C227.107 253.555 226.952 253.544 226.803 253.544C226.366 253.544 225.955 253.667 225.571 253.912C225.187 254.147 224.878 254.483 224.643 254.92C224.419 255.347 224.307 255.848 224.307 256.424V261H222.899V252.424H224.051L224.211 253.992H224.275C224.552 253.523 224.91 253.117 225.347 252.776C225.784 252.435 226.302 252.264 226.899 252.264ZM232.236 261.16C231.169 261.16 230.316 260.792 229.676 260.056C229.036 259.309 228.716 258.2 228.716 256.728C228.716 255.256 229.036 254.147 229.676 253.4C230.327 252.643 231.185 252.264 232.252 252.264C232.913 252.264 233.452 252.387 233.868 252.632C234.295 252.877 234.641 253.176 234.908 253.528H235.004C234.993 253.389 234.972 253.187 234.94 252.92C234.919 252.643 234.908 252.424 234.908 252.264V248.84H236.316V261H235.18L234.972 259.848H234.908C234.652 260.211 234.311 260.52 233.884 260.776C233.457 261.032 232.908 261.16 232.236 261.16ZM232.46 259.992C233.367 259.992 234.001 259.747 234.364 259.256C234.737 258.755 234.924 258.003 234.924 257V256.744C234.924 255.677 234.748 254.861 234.396 254.296C234.044 253.72 233.393 253.432 232.444 253.432C231.687 253.432 231.116 253.736 230.732 254.344C230.359 254.941 230.172 255.747 230.172 256.76C230.172 257.784 230.359 258.579 230.732 259.144C231.116 259.709 231.692 259.992 232.46 259.992ZM246.048 260.984L244.576 256.152C244.437 255.715 244.314 255.288 244.208 254.872C244.112 254.445 244.037 254.115 243.984 253.88H243.92C243.877 254.115 243.808 254.445 243.712 254.872C243.616 255.288 243.493 255.72 243.344 256.168L241.808 260.984H240.208L237.856 252.408H239.312L240.496 256.984C240.613 257.443 240.725 257.907 240.832 258.376C240.938 258.845 241.013 259.235 241.056 259.544H241.12C241.162 259.363 241.21 259.139 241.264 258.872C241.328 258.605 241.397 258.328 241.472 258.04C241.546 257.741 241.621 257.475 241.696 257.24L243.216 252.408H244.752L246.224 257.24C246.341 257.603 246.453 257.997 246.56 258.424C246.677 258.851 246.757 259.219 246.8 259.528H246.864C246.896 259.261 246.965 258.893 247.072 258.424C247.189 257.955 247.312 257.475 247.44 256.984L248.64 252.408H250.08L247.696 260.984H246.048ZM254.866 252.28C255.911 252.28 256.684 252.509 257.186 252.968C257.687 253.427 257.938 254.157 257.938 255.16V261H256.914L256.642 259.784H256.578C256.204 260.253 255.81 260.6 255.394 260.824C254.988 261.048 254.423 261.16 253.698 261.16C252.919 261.16 252.274 260.957 251.762 260.552C251.25 260.136 250.994 259.491 250.994 258.616C250.994 257.763 251.33 257.107 252.002 256.648C252.674 256.179 253.708 255.923 255.106 255.88L256.562 255.832V255.32C256.562 254.605 256.407 254.109 256.098 253.832C255.788 253.555 255.351 253.416 254.786 253.416C254.338 253.416 253.911 253.485 253.506 253.624C253.1 253.752 252.722 253.901 252.37 254.072L251.938 253.016C252.311 252.813 252.754 252.643 253.266 252.504C253.778 252.355 254.311 252.28 254.866 252.28ZM256.546 256.808L255.282 256.856C254.215 256.899 253.474 257.069 253.058 257.368C252.652 257.667 252.45 258.088 252.45 258.632C252.45 259.112 252.594 259.464 252.882 259.688C253.18 259.912 253.559 260.024 254.018 260.024C254.743 260.024 255.346 259.827 255.826 259.432C256.306 259.027 256.546 258.408 256.546 257.576V256.808ZM264.587 252.264C264.747 252.264 264.917 252.275 265.099 252.296C265.291 252.307 265.456 252.328 265.595 252.36L265.419 253.656C265.28 253.624 265.125 253.597 264.955 253.576C264.795 253.555 264.64 253.544 264.491 253.544C264.053 253.544 263.643 253.667 263.259 253.912C262.875 254.147 262.565 254.483 262.331 254.92C262.107 255.347 261.995 255.848 261.995 256.424V261H260.587V252.424H261.739L261.899 253.992H261.963C262.24 253.523 262.597 253.117 263.035 252.776C263.472 252.435 263.989 252.264 264.587 252.264ZM270.195 252.264C270.931 252.264 271.561 252.424 272.083 252.744C272.617 253.064 273.022 253.517 273.299 254.104C273.587 254.68 273.731 255.357 273.731 256.136V256.984H267.859C267.881 257.955 268.126 258.696 268.595 259.208C269.075 259.709 269.742 259.96 270.595 259.96C271.139 259.96 271.619 259.912 272.035 259.816C272.462 259.709 272.899 259.56 273.347 259.368V260.6C272.91 260.792 272.478 260.931 272.051 261.016C271.625 261.112 271.118 261.16 270.531 261.16C269.721 261.16 269.001 260.995 268.371 260.664C267.753 260.333 267.267 259.843 266.915 259.192C266.574 258.531 266.403 257.725 266.403 256.776C266.403 255.837 266.558 255.032 266.867 254.36C267.187 253.688 267.63 253.171 268.195 252.808C268.771 252.445 269.438 252.264 270.195 252.264ZM270.179 253.416C269.507 253.416 268.974 253.635 268.579 254.072C268.195 254.499 267.966 255.096 267.891 255.864H272.259C272.249 255.139 272.078 254.552 271.747 254.104C271.417 253.645 270.894 253.416 270.179 253.416ZM97.2877 282.28C98.333 282.28 99.1064 282.509 99.6077 282.968C100.109 283.427 100.36 284.157 100.36 285.16V291H99.3357L99.0637 289.784H98.9997C98.6264 290.253 98.2317 290.6 97.8157 290.824C97.4104 291.048 96.845 291.16 96.1197 291.16C95.341 291.16 94.6957 290.957 94.1837 290.552C93.6717 290.136 93.4157 289.491 93.4157 288.616C93.4157 287.763 93.7517 287.107 94.4237 286.648C95.0957 286.179 96.1304 285.923 97.5277 285.88L98.9837 285.832V285.32C98.9837 284.605 98.829 284.109 98.5197 283.832C98.2104 283.555 97.773 283.416 97.2077 283.416C96.7597 283.416 96.333 283.485 95.9277 283.624C95.5224 283.752 95.1437 283.901 94.7917 284.072L94.3597 283.016C94.733 282.813 95.1757 282.643 95.6877 282.504C96.1997 282.355 96.733 282.28 97.2877 282.28ZM98.9677 286.808L97.7037 286.856C96.637 286.899 95.8957 287.069 95.4797 287.368C95.0744 287.667 94.8717 288.088 94.8717 288.632C94.8717 289.112 95.0157 289.464 95.3037 289.688C95.6024 289.912 95.981 290.024 96.4397 290.024C97.165 290.024 97.7677 289.827 98.2477 289.432C98.7277 289.027 98.9677 288.408 98.9677 287.576V286.808ZM107.136 282.264C108.16 282.264 108.934 282.515 109.456 283.016C109.979 283.507 110.24 284.307 110.24 285.416V291H108.848V285.512C108.848 284.136 108.208 283.448 106.928 283.448C105.979 283.448 105.323 283.715 104.96 284.248C104.598 284.781 104.416 285.549 104.416 286.552V291H103.008V282.424H104.144L104.352 283.592H104.432C104.71 283.144 105.094 282.813 105.584 282.6C106.075 282.376 106.592 282.264 107.136 282.264ZM115.939 291.16C114.872 291.16 114.019 290.792 113.379 290.056C112.739 289.309 112.419 288.2 112.419 286.728C112.419 285.256 112.739 284.147 113.379 283.4C114.03 282.643 114.888 282.264 115.955 282.264C116.616 282.264 117.155 282.387 117.571 282.632C117.998 282.877 118.344 283.176 118.611 283.528H118.707C118.696 283.389 118.675 283.187 118.643 282.92C118.622 282.643 118.611 282.424 118.611 282.264V278.84H120.019V291H118.883L118.675 289.848H118.611C118.355 290.211 118.014 290.52 117.587 290.776C117.16 291.032 116.611 291.16 115.939 291.16ZM116.163 289.992C117.07 289.992 117.704 289.747 118.067 289.256C118.44 288.755 118.627 288.003 118.627 287V286.744C118.627 285.677 118.451 284.861 118.099 284.296C117.747 283.72 117.096 283.432 116.147 283.432C115.39 283.432 114.819 283.736 114.435 284.344C114.062 284.941 113.875 285.747 113.875 286.76C113.875 287.784 114.062 288.579 114.435 289.144C114.819 289.709 115.395 289.992 116.163 289.992ZM130.339 291.16C129.582 291.16 128.904 291.005 128.307 290.696C127.72 290.387 127.256 289.907 126.915 289.256C126.584 288.605 126.419 287.773 126.419 286.76C126.419 285.704 126.595 284.845 126.947 284.184C127.299 283.523 127.774 283.037 128.371 282.728C128.979 282.419 129.667 282.264 130.435 282.264C130.872 282.264 131.294 282.312 131.699 282.408C132.104 282.493 132.435 282.6 132.691 282.728L132.259 283.896C132.003 283.8 131.704 283.709 131.363 283.624C131.022 283.539 130.702 283.496 130.403 283.496C128.718 283.496 127.875 284.579 127.875 286.744C127.875 287.779 128.078 288.573 128.483 289.128C128.899 289.672 129.512 289.944 130.323 289.944C130.792 289.944 131.203 289.896 131.555 289.8C131.918 289.704 132.248 289.587 132.547 289.448V290.696C132.259 290.845 131.939 290.957 131.587 291.032C131.246 291.117 130.83 291.16 130.339 291.16ZM135.995 291H134.587V278.84H135.995V291ZM146.168 286.696C146.168 288.115 145.805 289.213 145.08 289.992C144.365 290.771 143.394 291.16 142.168 291.16C141.41 291.16 140.733 290.989 140.136 290.648C139.549 290.296 139.085 289.789 138.744 289.128C138.402 288.456 138.232 287.645 138.232 286.696C138.232 285.277 138.589 284.184 139.304 283.416C140.018 282.648 140.989 282.264 142.216 282.264C142.994 282.264 143.677 282.44 144.264 282.792C144.861 283.133 145.325 283.635 145.656 284.296C145.997 284.947 146.168 285.747 146.168 286.696ZM139.688 286.696C139.688 287.709 139.885 288.515 140.28 289.112C140.685 289.699 141.325 289.992 142.2 289.992C143.064 289.992 143.698 289.699 144.104 289.112C144.509 288.515 144.712 287.709 144.712 286.696C144.712 285.683 144.509 284.888 144.104 284.312C143.698 283.736 143.058 283.448 142.184 283.448C141.309 283.448 140.674 283.736 140.28 284.312C139.885 284.888 139.688 285.683 139.688 286.696ZM155.567 282.424V291H154.415L154.207 289.864H154.143C153.866 290.312 153.482 290.643 152.991 290.856C152.5 291.059 151.978 291.16 151.423 291.16C150.388 291.16 149.61 290.915 149.087 290.424C148.564 289.923 148.303 289.128 148.303 288.04V282.424H149.727V287.944C149.727 289.309 150.362 289.992 151.631 289.992C152.58 289.992 153.236 289.725 153.599 289.192C153.972 288.659 154.159 287.891 154.159 286.888V282.424H155.567ZM161.33 291.16C160.263 291.16 159.41 290.792 158.77 290.056C158.13 289.309 157.81 288.2 157.81 286.728C157.81 285.256 158.13 284.147 158.77 283.4C159.42 282.643 160.279 282.264 161.346 282.264C162.007 282.264 162.546 282.387 162.962 282.632C163.388 282.877 163.735 283.176 164.002 283.528H164.098C164.087 283.389 164.066 283.187 164.034 282.92C164.012 282.643 164.002 282.424 164.002 282.264V278.84H165.41V291H164.274L164.066 289.848H164.002C163.746 290.211 163.404 290.52 162.978 290.776C162.551 291.032 162.002 291.16 161.33 291.16ZM161.554 289.992C162.46 289.992 163.095 289.747 163.458 289.256C163.831 288.755 164.018 288.003 164.018 287V286.744C164.018 285.677 163.842 284.861 163.49 284.296C163.138 283.72 162.487 283.432 161.538 283.432C160.78 283.432 160.21 283.736 159.826 284.344C159.452 284.941 159.266 285.747 159.266 286.76C159.266 287.784 159.452 288.579 159.826 289.144C160.21 289.709 160.786 289.992 161.554 289.992ZM175.73 291.16C174.972 291.16 174.295 291.005 173.698 290.696C173.111 290.387 172.647 289.907 172.306 289.256C171.975 288.605 171.81 287.773 171.81 286.76C171.81 285.704 171.986 284.845 172.338 284.184C172.69 283.523 173.164 283.037 173.762 282.728C174.37 282.419 175.058 282.264 175.826 282.264C176.263 282.264 176.684 282.312 177.09 282.408C177.495 282.493 177.826 282.6 178.082 282.728L177.65 283.896C177.394 283.8 177.095 283.709 176.754 283.624C176.412 283.539 176.092 283.496 175.794 283.496C174.108 283.496 173.266 284.579 173.266 286.744C173.266 287.779 173.468 288.573 173.874 289.128C174.29 289.672 174.903 289.944 175.714 289.944C176.183 289.944 176.594 289.896 176.946 289.8C177.308 289.704 177.639 289.587 177.938 289.448V290.696C177.65 290.845 177.33 290.957 176.978 291.032C176.636 291.117 176.22 291.16 175.73 291.16ZM187.433 286.696C187.433 288.115 187.071 289.213 186.345 289.992C185.631 290.771 184.66 291.16 183.433 291.16C182.676 291.16 181.999 290.989 181.401 290.648C180.815 290.296 180.351 289.789 180.009 289.128C179.668 288.456 179.497 287.645 179.497 286.696C179.497 285.277 179.855 284.184 180.569 283.416C181.284 282.648 182.255 282.264 183.481 282.264C184.26 282.264 184.943 282.44 185.529 282.792C186.127 283.133 186.591 283.635 186.921 284.296C187.263 284.947 187.433 285.747 187.433 286.696ZM180.953 286.696C180.953 287.709 181.151 288.515 181.545 289.112C181.951 289.699 182.591 289.992 183.465 289.992C184.329 289.992 184.964 289.699 185.369 289.112C185.775 288.515 185.977 287.709 185.977 286.696C185.977 285.683 185.775 284.888 185.369 284.312C184.964 283.736 184.324 283.448 183.449 283.448C182.575 283.448 181.94 283.736 181.545 284.312C181.151 284.888 180.953 285.683 180.953 286.696ZM199.073 282.264C200.043 282.264 200.769 282.515 201.249 283.016C201.729 283.507 201.969 284.307 201.969 285.416V291H200.577V285.48C200.577 284.125 199.995 283.448 198.833 283.448C198.001 283.448 197.403 283.688 197.041 284.168C196.689 284.648 196.513 285.347 196.513 286.264V291H195.121V285.48C195.121 284.125 194.534 283.448 193.361 283.448C192.497 283.448 191.899 283.715 191.569 284.248C191.238 284.781 191.073 285.549 191.073 286.552V291H189.665V282.424H190.801L191.009 283.592H191.089C191.355 283.144 191.713 282.813 192.161 282.6C192.619 282.376 193.105 282.264 193.617 282.264C194.961 282.264 195.835 282.744 196.241 283.704H196.321C196.609 283.213 196.998 282.851 197.489 282.616C197.99 282.381 198.518 282.264 199.073 282.264ZM208.698 282.264C209.754 282.264 210.602 282.632 211.242 283.368C211.892 284.104 212.218 285.213 212.218 286.696C212.218 288.157 211.892 289.267 211.242 290.024C210.602 290.781 209.748 291.16 208.682 291.16C208.02 291.16 207.471 291.037 207.034 290.792C206.607 290.536 206.271 290.243 206.026 289.912H205.93C205.951 290.093 205.972 290.323 205.994 290.6C206.015 290.877 206.026 291.117 206.026 291.32V294.84H204.618V282.424H205.77L205.962 283.592H206.026C206.282 283.219 206.618 282.904 207.034 282.648C207.45 282.392 208.004 282.264 208.698 282.264ZM208.442 283.448C207.567 283.448 206.948 283.693 206.586 284.184C206.234 284.675 206.047 285.421 206.026 286.424V286.696C206.026 287.752 206.196 288.568 206.538 289.144C206.89 289.709 207.535 289.992 208.474 289.992C208.996 289.992 209.423 289.848 209.754 289.56C210.095 289.272 210.346 288.883 210.506 288.392C210.676 287.891 210.762 287.32 210.762 286.68C210.762 285.699 210.57 284.915 210.186 284.328C209.812 283.741 209.231 283.448 208.442 283.448ZM221.63 282.424V291H220.478L220.27 289.864H220.206C219.928 290.312 219.544 290.643 219.054 290.856C218.563 291.059 218.04 291.16 217.486 291.16C216.451 291.16 215.672 290.915 215.15 290.424C214.627 289.923 214.366 289.128 214.366 288.04V282.424H215.79V287.944C215.79 289.309 216.424 289.992 217.694 289.992C218.643 289.992 219.299 289.725 219.662 289.192C220.035 288.659 220.222 287.891 220.222 286.888V282.424H221.63ZM227.216 290.008C227.43 290.008 227.648 289.992 227.872 289.96C228.096 289.917 228.278 289.875 228.416 289.832V290.904C228.267 290.979 228.054 291.037 227.776 291.08C227.499 291.133 227.232 291.16 226.976 291.16C226.528 291.16 226.112 291.085 225.728 290.936C225.355 290.776 225.051 290.504 224.816 290.12C224.582 289.736 224.464 289.197 224.464 288.504V283.512H223.248V282.84L224.48 282.28L225.04 280.456H225.872V282.424H228.352V283.512H225.872V288.472C225.872 288.995 225.995 289.384 226.24 289.64C226.496 289.885 226.822 290.008 227.216 290.008ZM230.853 279.208C231.067 279.208 231.253 279.283 231.413 279.432C231.584 279.571 231.669 279.795 231.669 280.104C231.669 280.403 231.584 280.627 231.413 280.776C231.253 280.925 231.067 281 230.853 281C230.619 281 230.421 280.925 230.261 280.776C230.101 280.627 230.021 280.403 230.021 280.104C230.021 279.795 230.101 279.571 230.261 279.432C230.421 279.283 230.619 279.208 230.853 279.208ZM231.541 282.424V291H230.133V282.424H231.541ZM241.714 286.696C241.714 288.115 241.352 289.213 240.626 289.992C239.912 290.771 238.941 291.16 237.714 291.16C236.957 291.16 236.28 290.989 235.682 290.648C235.096 290.296 234.632 289.789 234.29 289.128C233.949 288.456 233.778 287.645 233.778 286.696C233.778 285.277 234.136 284.184 234.85 283.416C235.565 282.648 236.536 282.264 237.762 282.264C238.541 282.264 239.224 282.44 239.81 282.792C240.408 283.133 240.872 283.635 241.202 284.296C241.544 284.947 241.714 285.747 241.714 286.696ZM235.234 286.696C235.234 287.709 235.432 288.515 235.826 289.112C236.232 289.699 236.872 289.992 237.746 289.992C238.61 289.992 239.245 289.699 239.65 289.112C240.056 288.515 240.258 287.709 240.258 286.696C240.258 285.683 240.056 284.888 239.65 284.312C239.245 283.736 238.605 283.448 237.73 283.448C236.856 283.448 236.221 283.736 235.826 284.312C235.432 284.888 235.234 285.683 235.234 286.696ZM248.074 282.264C249.098 282.264 249.871 282.515 250.394 283.016C250.917 283.507 251.178 284.307 251.178 285.416V291H249.786V285.512C249.786 284.136 249.146 283.448 247.866 283.448C246.917 283.448 246.261 283.715 245.898 284.248C245.535 284.781 245.354 285.549 245.354 286.552V291H243.946V282.424H245.082L245.29 283.592H245.37C245.647 283.144 246.031 282.813 246.522 282.6C247.013 282.376 247.53 282.264 248.074 282.264ZM256.877 282.264C257.442 282.264 257.949 282.371 258.397 282.584C258.855 282.797 259.245 283.123 259.565 283.56H259.645L259.837 282.424H260.957V291.144C260.957 292.371 260.642 293.293 260.013 293.912C259.394 294.531 258.429 294.84 257.117 294.84C255.858 294.84 254.829 294.659 254.029 294.296V293C254.871 293.448 255.927 293.672 257.197 293.672C257.933 293.672 258.509 293.453 258.925 293.016C259.351 292.589 259.565 292.003 259.565 291.256V290.92C259.565 290.792 259.57 290.611 259.581 290.376C259.591 290.131 259.602 289.96 259.613 289.864H259.549C258.973 290.728 258.087 291.16 256.893 291.16C255.783 291.16 254.914 290.771 254.285 289.992C253.666 289.213 253.357 288.125 253.357 286.728C253.357 285.363 253.666 284.28 254.285 283.48C254.914 282.669 255.778 282.264 256.877 282.264ZM257.069 283.448C256.354 283.448 255.799 283.736 255.405 284.312C255.01 284.877 254.813 285.688 254.813 286.744C254.813 287.8 255.005 288.611 255.389 289.176C255.783 289.731 256.354 290.008 257.101 290.008C257.965 290.008 258.594 289.779 258.989 289.32C259.383 288.851 259.581 288.099 259.581 287.064V286.728C259.581 285.555 259.378 284.717 258.973 284.216C258.567 283.704 257.933 283.448 257.069 283.448ZM160.261 312.264C161.285 312.264 162.059 312.515 162.581 313.016C163.104 313.507 163.365 314.307 163.365 315.416V321H161.973V315.512C161.973 314.136 161.333 313.448 160.053 313.448C159.104 313.448 158.448 313.715 158.085 314.248C157.723 314.781 157.541 315.549 157.541 316.552V321H156.133V312.424H157.269L157.477 313.592H157.557C157.835 313.144 158.219 312.813 158.709 312.6C159.2 312.376 159.717 312.264 160.261 312.264ZM169.336 312.264C170.072 312.264 170.701 312.424 171.224 312.744C171.757 313.064 172.163 313.517 172.44 314.104C172.728 314.68 172.872 315.357 172.872 316.136V316.984H167C167.021 317.955 167.267 318.696 167.736 319.208C168.216 319.709 168.883 319.96 169.736 319.96C170.28 319.96 170.76 319.912 171.176 319.816C171.603 319.709 172.04 319.56 172.488 319.368V320.6C172.051 320.792 171.619 320.931 171.192 321.016C170.765 321.112 170.259 321.16 169.672 321.16C168.861 321.16 168.141 320.995 167.512 320.664C166.893 320.333 166.408 319.843 166.056 319.192C165.715 318.531 165.544 317.725 165.544 316.776C165.544 315.837 165.699 315.032 166.008 314.36C166.328 313.688 166.771 313.171 167.336 312.808C167.912 312.445 168.579 312.264 169.336 312.264ZM169.32 313.416C168.648 313.416 168.115 313.635 167.72 314.072C167.336 314.499 167.107 315.096 167.032 315.864H171.4C171.389 315.139 171.219 314.552 170.888 314.104C170.557 313.645 170.035 313.416 169.32 313.416ZM178.367 312.264C179.103 312.264 179.733 312.424 180.255 312.744C180.789 313.064 181.194 313.517 181.471 314.104C181.759 314.68 181.903 315.357 181.903 316.136V316.984H176.031C176.053 317.955 176.298 318.696 176.767 319.208C177.247 319.709 177.914 319.96 178.767 319.96C179.311 319.96 179.791 319.912 180.207 319.816C180.634 319.709 181.071 319.56 181.519 319.368V320.6C181.082 320.792 180.65 320.931 180.223 321.016C179.797 321.112 179.29 321.16 178.703 321.16C177.893 321.16 177.173 320.995 176.543 320.664C175.925 320.333 175.439 319.843 175.087 319.192C174.746 318.531 174.575 317.725 174.575 316.776C174.575 315.837 174.73 315.032 175.039 314.36C175.359 313.688 175.802 313.171 176.367 312.808C176.943 312.445 177.61 312.264 178.367 312.264ZM178.351 313.416C177.679 313.416 177.146 313.635 176.751 314.072C176.367 314.499 176.138 315.096 176.063 315.864H180.431C180.421 315.139 180.25 314.552 179.919 314.104C179.589 313.645 179.066 313.416 178.351 313.416ZM187.127 321.16C186.06 321.16 185.207 320.792 184.567 320.056C183.927 319.309 183.607 318.2 183.607 316.728C183.607 315.256 183.927 314.147 184.567 313.4C185.217 312.643 186.076 312.264 187.143 312.264C187.804 312.264 188.343 312.387 188.759 312.632C189.185 312.877 189.532 313.176 189.799 313.528H189.895C189.884 313.389 189.863 313.187 189.831 312.92C189.809 312.643 189.799 312.424 189.799 312.264V308.84H191.207V321H190.071L189.863 319.848H189.799C189.543 320.211 189.201 320.52 188.775 320.776C188.348 321.032 187.799 321.16 187.127 321.16ZM187.351 319.992C188.257 319.992 188.892 319.747 189.255 319.256C189.628 318.755 189.815 318.003 189.815 317V316.744C189.815 315.677 189.639 314.861 189.287 314.296C188.935 313.72 188.284 313.432 187.335 313.432C186.577 313.432 186.007 313.736 185.623 314.344C185.249 314.941 185.063 315.747 185.063 316.76C185.063 317.784 185.249 318.579 185.623 319.144C186.007 319.709 186.583 319.992 187.351 319.992ZM199.514 318.632C199.514 319.464 199.205 320.093 198.586 320.52C197.968 320.947 197.136 321.16 196.09 321.16C195.493 321.16 194.976 321.112 194.538 321.016C194.112 320.92 193.733 320.787 193.402 320.616V319.336C193.744 319.507 194.154 319.667 194.634 319.816C195.125 319.955 195.621 320.024 196.122 320.024C196.837 320.024 197.354 319.912 197.674 319.688C197.994 319.453 198.154 319.144 198.154 318.76C198.154 318.547 198.096 318.355 197.978 318.184C197.861 318.013 197.648 317.843 197.338 317.672C197.04 317.501 196.608 317.309 196.042 317.096C195.488 316.883 195.013 316.669 194.618 316.456C194.224 316.243 193.92 315.987 193.706 315.688C193.493 315.389 193.386 315.005 193.386 314.536C193.386 313.811 193.68 313.251 194.266 312.856C194.864 312.461 195.642 312.264 196.602 312.264C197.125 312.264 197.61 312.317 198.058 312.424C198.517 312.52 198.944 312.659 199.338 312.84L198.858 313.96C198.496 313.811 198.117 313.683 197.722 313.576C197.328 313.469 196.922 313.416 196.506 313.416C195.93 313.416 195.488 313.512 195.178 313.704C194.88 313.885 194.73 314.136 194.73 314.456C194.73 314.691 194.8 314.893 194.938 315.064C195.077 315.224 195.306 315.384 195.626 315.544C195.957 315.693 196.394 315.875 196.938 316.088C197.482 316.291 197.946 316.499 198.33 316.712C198.714 316.925 199.008 317.187 199.21 317.496C199.413 317.795 199.514 318.173 199.514 318.632Z" fill="#A4A4A4"/>
<path d="M207.36 149.6H203.06V141.982C203.06 133.91 199.917 126.32 194.208 120.612C194.047 120.451 193.829 120.36 193.6 120.36H192.74V117.907L195.284 109.427C195.373 109.126 195.293 108.8 195.072 108.576C194.851 108.352 194.523 108.267 194.224 108.353L188.526 109.982L185.385 108.411C185.143 108.29 184.858 108.29 184.615 108.411L181.474 109.982L175.775 108.354C175.476 108.269 175.149 108.353 174.928 108.577C174.707 108.8 174.626 109.127 174.716 109.428L177.26 117.907V120.36H176.4C176.171 120.36 175.953 120.451 175.792 120.612C170.321 126.084 167.21 133.297 166.964 141H166.08H159.2C158.724 141 158.34 141.386 158.34 141.86V160.78C158.34 161.255 158.724 161.64 159.2 161.64H166.08C166.555 161.64 166.94 161.255 166.94 160.78V159.92H171.24C171.715 159.92 172.1 159.535 172.1 159.06V158.2H177.859L182.803 161.496C182.945 161.59 183.111 161.64 183.28 161.64C183.341 161.64 183.403 161.633 183.464 161.621L210.984 155.601C211.379 155.514 211.66 155.165 211.66 154.76V153.9C211.66 151.529 209.731 149.6 207.36 149.6ZM181.324 111.727C181.531 111.786 181.753 111.765 181.945 111.669L185 110.142L188.055 111.669C188.247 111.765 188.468 111.786 188.676 111.727L193.184 110.439L191.24 116.92H188.629L189.284 113.649L187.597 113.312L186.875 116.92H183.125L182.403 113.312L180.717 113.649L181.371 116.92H178.76L176.815 110.439L181.324 111.727ZM178.98 118.64H191.02V120.36H178.98V118.64ZM165.22 159.92H160.06V142.72H165.22V159.06V159.92ZM170.38 158.2H166.94V142.72H170.38V158.2ZM168.684 141C168.926 133.874 171.766 127.196 176.759 122.08H193.24C198.467 127.434 201.34 134.487 201.34 141.982V149.6H187.49C187.392 149.219 187.217 148.86 186.958 148.558L182.212 143.021C182.049 142.83 181.811 142.72 181.56 142.72H172.1V141.86C172.1 141.386 171.715 141 171.24 141H168.684ZM209.94 154.068L183.453 159.862L178.597 156.625C178.456 156.531 178.289 156.48 178.12 156.48H172.1V144.44H181.164L185.653 149.677C185.786 149.833 185.86 150.031 185.86 150.236V151.32C185.86 151.794 185.475 152.18 185 152.18H183.992C183.766 152.18 183.544 152.088 183.384 151.928L179.588 148.132L178.372 149.348L182.168 153.144C182.655 153.632 183.303 153.9 183.992 153.9H185C186.422 153.9 187.58 152.743 187.58 151.32H207.36C208.782 151.32 209.94 152.478 209.94 153.9V154.068Z" fill="#5051DB"/>
<path d="M185 142.72C190.216 142.72 194.46 138.476 194.46 133.26C194.46 128.044 190.216 123.8 185 123.8C179.784 123.8 175.54 128.044 175.54 133.26C175.54 138.476 179.784 142.72 185 142.72ZM192.74 133.26C192.74 137.237 189.724 140.52 185.86 140.95V139.122C186.858 138.766 187.58 137.82 187.58 136.7V134.98C187.58 133.558 186.422 132.4 185 132.4C184.525 132.4 184.14 132.014 184.14 131.54V129.82C184.14 129.346 184.525 128.96 185 128.96C185.475 128.96 185.86 129.346 185.86 129.82V130.68H187.58V129.82C187.58 128.701 186.858 127.755 185.86 127.399V125.571C189.724 126 192.74 129.284 192.74 133.26ZM184.14 125.571V127.399C183.141 127.755 182.42 128.701 182.42 129.82V131.54C182.42 132.963 183.577 134.12 185 134.12C185.475 134.12 185.86 134.506 185.86 134.98V136.7C185.86 137.174 185.475 137.56 185 137.56C184.525 137.56 184.14 137.174 184.14 136.7V135.84H182.42V136.7C182.42 137.82 183.141 138.766 184.14 139.122V140.95C180.276 140.52 177.26 137.237 177.26 133.26C177.26 129.284 180.276 126 184.14 125.571Z" fill="#5051DB"/>
<path d="M191.02 142.72C189.598 142.72 188.44 143.878 188.44 145.3C188.44 146.723 189.598 147.88 191.02 147.88C192.442 147.88 193.6 146.723 193.6 145.3C193.6 143.878 192.442 142.72 191.02 142.72ZM191.02 146.16C190.545 146.16 190.16 145.774 190.16 145.3C190.16 144.826 190.545 144.44 191.02 144.44C191.495 144.44 191.88 144.826 191.88 145.3C191.88 145.774 191.495 146.16 191.02 146.16Z" fill="#5051DB"/>
<path d="M197.04 144.44C198.937 144.44 200.48 142.897 200.48 141C200.48 139.103 198.937 137.56 197.04 137.56C195.143 137.56 193.6 139.103 193.6 141C193.6 142.897 195.143 144.44 197.04 144.44ZM197.04 139.28C197.989 139.28 198.76 140.052 198.76 141C198.76 141.949 197.989 142.72 197.04 142.72C196.092 142.72 195.32 141.949 195.32 141C195.32 140.052 196.092 139.28 197.04 139.28Z" fill="#5051DB"/>
<path d="M161.78 135.84C163.677 135.84 165.22 134.297 165.22 132.4C165.22 130.503 163.677 128.96 161.78 128.96C159.883 128.96 158.34 130.503 158.34 132.4C158.34 134.297 159.883 135.84 161.78 135.84ZM161.78 130.68C162.728 130.68 163.5 131.452 163.5 132.4C163.5 133.349 162.728 134.12 161.78 134.12C160.831 134.12 160.06 133.349 160.06 132.4C160.06 131.452 160.831 130.68 161.78 130.68Z" fill="#5051DB"/>
<path d="M165.22 128.1C168.066 128.1 170.38 125.786 170.38 122.94C170.38 120.094 168.066 117.78 165.22 117.78C162.374 117.78 160.06 120.094 160.06 122.94C160.06 125.786 162.374 128.1 165.22 128.1ZM165.22 119.5C167.117 119.5 168.66 121.043 168.66 122.94C168.66 124.837 167.117 126.38 165.22 126.38C163.323 126.38 161.78 124.837 161.78 122.94C161.78 121.043 163.323 119.5 165.22 119.5Z" fill="#5051DB"/>
<path d="M204.78 122.94C204.78 124.837 206.323 126.38 208.22 126.38C210.117 126.38 211.66 124.837 211.66 122.94C211.66 121.043 210.117 119.5 208.22 119.5C206.323 119.5 204.78 121.043 204.78 122.94ZM208.22 121.22C209.168 121.22 209.94 121.992 209.94 122.94C209.94 123.889 209.168 124.66 208.22 124.66C207.271 124.66 206.5 123.889 206.5 122.94C206.5 121.992 207.271 121.22 208.22 121.22Z" fill="#5051DB"/>
<path d="M202.2 118.64C205.046 118.64 207.36 116.326 207.36 113.48C207.36 110.635 205.046 108.32 202.2 108.32C199.354 108.32 197.04 110.635 197.04 113.48C197.04 116.326 199.354 118.64 202.2 118.64ZM202.2 110.04C204.097 110.04 205.64 111.583 205.64 113.48C205.64 115.377 204.097 116.92 202.2 116.92C200.303 116.92 198.76 115.377 198.76 113.48C198.76 111.583 200.303 110.04 202.2 110.04Z" fill="#5051DB"/>
<path d="M151.808 195.272C151.808 196.456 151.611 197.491 151.216 198.376C150.832 199.251 150.24 199.933 149.44 200.424C148.64 200.915 147.616 201.16 146.368 201.16C145.131 201.16 144.107 200.915 143.296 200.424C142.496 199.933 141.899 199.245 141.504 198.36C141.12 197.475 140.928 196.44 140.928 195.256C140.928 194.072 141.12 193.043 141.504 192.168C141.899 191.293 142.496 190.616 143.296 190.136C144.107 189.645 145.136 189.4 146.384 189.4C147.621 189.4 148.64 189.645 149.44 190.136C150.24 190.616 150.832 191.299 151.216 192.184C151.611 193.059 151.808 194.088 151.808 195.272ZM143.472 195.272C143.472 196.467 143.701 197.411 144.16 198.104C144.619 198.787 145.355 199.128 146.368 199.128C147.403 199.128 148.144 198.787 148.592 198.104C149.04 197.411 149.264 196.467 149.264 195.272C149.264 194.067 149.04 193.123 148.592 192.44C148.144 191.757 147.408 191.416 146.384 191.416C145.36 191.416 144.619 191.757 144.16 192.44C143.701 193.123 143.472 194.067 143.472 195.272ZM161.998 192.264V201H160.174L159.854 199.88H159.726C159.449 200.328 159.065 200.653 158.574 200.856C158.094 201.059 157.582 201.16 157.038 201.16C156.1 201.16 155.348 200.909 154.782 200.408C154.217 199.896 153.934 199.08 153.934 197.96V192.264H156.318V197.368C156.318 197.987 156.43 198.456 156.654 198.776C156.878 199.096 157.236 199.256 157.726 199.256C158.452 199.256 158.948 199.011 159.214 198.52C159.481 198.019 159.614 197.304 159.614 196.376V192.264H161.998ZM169.378 192.104C169.495 192.104 169.634 192.109 169.794 192.12C169.954 192.131 170.082 192.147 170.178 192.168L170.002 194.408C169.927 194.387 169.815 194.371 169.666 194.36C169.527 194.339 169.405 194.328 169.298 194.328C168.893 194.328 168.503 194.403 168.13 194.552C167.757 194.691 167.453 194.92 167.218 195.24C166.994 195.56 166.882 195.997 166.882 196.552V201H164.498V192.264H166.306L166.658 193.736H166.77C167.026 193.288 167.378 192.904 167.826 192.584C168.274 192.264 168.791 192.104 169.378 192.104ZM185.072 189.576L181.184 201H178.544L174.672 189.576H177.12L179.264 196.376C179.307 196.493 179.365 196.712 179.44 197.032C179.525 197.341 179.611 197.672 179.696 198.024C179.781 198.365 179.84 198.653 179.872 198.888C179.904 198.653 179.957 198.365 180.032 198.024C180.117 197.672 180.203 197.341 180.288 197.032C180.373 196.712 180.432 196.493 180.464 196.376L182.624 189.576H185.072ZM187.526 188.84C187.878 188.84 188.182 188.925 188.438 189.096C188.694 189.256 188.822 189.56 188.822 190.008C188.822 190.445 188.694 190.749 188.438 190.92C188.182 191.091 187.878 191.176 187.526 191.176C187.163 191.176 186.854 191.091 186.598 190.92C186.353 190.749 186.23 190.445 186.23 190.008C186.23 189.56 186.353 189.256 186.598 189.096C186.854 188.925 187.163 188.84 187.526 188.84ZM188.71 192.264V201H186.326V192.264H188.71ZM197.297 198.408C197.297 199.293 196.982 199.976 196.353 200.456C195.734 200.925 194.806 201.16 193.569 201.16C192.961 201.16 192.438 201.117 192.001 201.032C191.564 200.957 191.126 200.829 190.689 200.648V198.68C191.158 198.893 191.665 199.069 192.209 199.208C192.753 199.347 193.233 199.416 193.649 199.416C194.118 199.416 194.449 199.347 194.641 199.208C194.844 199.069 194.945 198.888 194.945 198.664C194.945 198.515 194.902 198.381 194.817 198.264C194.742 198.147 194.572 198.013 194.305 197.864C194.038 197.715 193.622 197.523 193.057 197.288C192.513 197.053 192.065 196.824 191.713 196.6C191.361 196.365 191.1 196.088 190.929 195.768C190.758 195.437 190.673 195.027 190.673 194.536C190.673 193.725 190.988 193.117 191.617 192.712C192.246 192.307 193.084 192.104 194.129 192.104C194.673 192.104 195.19 192.157 195.681 192.264C196.172 192.371 196.678 192.547 197.201 192.792L196.481 194.504C196.054 194.323 195.649 194.173 195.265 194.056C194.881 193.928 194.492 193.864 194.097 193.864C193.393 193.864 193.041 194.056 193.041 194.44C193.041 194.579 193.084 194.707 193.169 194.824C193.265 194.931 193.441 195.048 193.697 195.176C193.964 195.304 194.353 195.475 194.865 195.688C195.366 195.891 195.798 196.104 196.161 196.328C196.524 196.541 196.801 196.813 196.993 197.144C197.196 197.464 197.297 197.885 197.297 198.408ZM200.354 188.84C200.706 188.84 201.01 188.925 201.266 189.096C201.522 189.256 201.65 189.56 201.65 190.008C201.65 190.445 201.522 190.749 201.266 190.92C201.01 191.091 200.706 191.176 200.354 191.176C199.992 191.176 199.682 191.091 199.426 190.92C199.181 190.749 199.058 190.445 199.058 190.008C199.058 189.56 199.181 189.256 199.426 189.096C199.682 188.925 199.992 188.84 200.354 188.84ZM201.538 192.264V201H199.154V192.264H201.538ZM211.965 196.616C211.965 198.067 211.581 199.187 210.813 199.976C210.056 200.765 209.021 201.16 207.709 201.16C206.899 201.16 206.173 200.984 205.533 200.632C204.904 200.28 204.408 199.768 204.045 199.096C203.683 198.413 203.501 197.587 203.501 196.616C203.501 195.165 203.88 194.051 204.637 193.272C205.395 192.493 206.435 192.104 207.757 192.104C208.579 192.104 209.304 192.28 209.933 192.632C210.563 192.984 211.059 193.496 211.421 194.168C211.784 194.829 211.965 195.645 211.965 196.616ZM205.933 196.616C205.933 197.48 206.072 198.136 206.349 198.584C206.637 199.021 207.101 199.24 207.741 199.24C208.371 199.24 208.824 199.021 209.101 198.584C209.389 198.136 209.533 197.48 209.533 196.616C209.533 195.752 209.389 195.107 209.101 194.68C208.824 194.243 208.365 194.024 207.725 194.024C207.096 194.024 206.637 194.243 206.349 194.68C206.072 195.107 205.933 195.752 205.933 196.616ZM218.896 192.104C219.834 192.104 220.586 192.36 221.152 192.872C221.717 193.373 222 194.184 222 195.304V201H219.616V195.896C219.616 195.267 219.504 194.797 219.28 194.488C219.056 194.168 218.698 194.008 218.208 194.008C217.482 194.008 216.986 194.259 216.72 194.76C216.453 195.251 216.32 195.96 216.32 196.888V201H213.936V192.264H215.76L216.08 193.384H216.208C216.485 192.936 216.864 192.611 217.344 192.408C217.834 192.205 218.352 192.104 218.896 192.104Z" fill="#353686"/>
<defs>
<filter id="filter0_d_447_6" x="0" y="0" width="377" height="425" filterUnits="userSpaceOnUse" color-interpolation-filters="sRGB">
<feFlood flood-opacity="0" result="BackgroundImageFix"/>
<feColorMatrix in="SourceAlpha" type="matrix" values="0 0 0 0 0 0 0 0 0 0 0 0 0 0 0 0 0 0 127 0" result="hardAlpha"/>
<feMorphology radius="2" operator="dilate" in="SourceAlpha" result="effect1_dropShadow_447_6"/>
<feOffset dx="4" dy="4"/>
<feGaussianBlur stdDeviation="30"/>
<feColorMatrix type="matrix" values="0 0 0 0 0.313726 0 0 0 0 0.317647 0 0 0 0 0.858824 0 0 0 0.08 0"/>
<feBlend mode="normal" in2="BackgroundImageFix" result="effect1_dropShadow_447_6"/>
<feBlend mode="normal" in="SourceGraphic" in2="effect1_dropShadow_447_6" result="shape"/>
</filter>
</defs>
</svg>
